<svg width="22" height="22" viewBox="0 0 22 22" fill="none" xmlns="http://www.w3.org/2000/svg">
<path d="M12.705 15.0389C12.7691 15.0569 12.8332 15.009 12.8332 14.9424V6.55543C12.8332 6.48719 12.7661 6.43905 12.7012 6.45993C9.8925 7.36279 7.04554 7.27109 7.04554 7.27109L5.20737 7.27234C3.87 7.27325 2.39088 7.43082 1.61598 8.52082C0.317454 10.3474 0.824321 13.2144 3.15804 14.2026L1.68112 18.8611C1.47292 19.5034 1.93783 20.1667 2.59622 20.1667H4.42108C4.83627 20.1667 5.20489 19.8935 5.33619 19.4885L6.82568 14.8932C6.95698 14.4881 7.32476 14.2173 7.73892 14.2474C8.6527 14.3139 10.5215 14.4248 12.705 15.0389Z" fill="white"/>
<path d="M7.73892 14.2474L7.69535 14.8458L7.69535 14.8458L7.73892 14.2474ZM1.68112 18.8611L2.2519 19.0461L2.25306 19.0424L1.68112 18.8611ZM3.15804 14.2026L3.72999 14.3839C3.82357 14.0887 3.67715 13.7708 3.392 13.6501L3.15804 14.2026ZM7.04554 7.27109L7.06485 6.6714L7.055 6.67109L7.04513 6.67109L7.04554 7.27109ZM12.705 15.0389L12.5426 15.6164L12.705 15.0389ZM12.2332 6.55543V14.9424H13.4332V6.55543H12.2332ZM12.8674 14.4613C10.6193 13.829 8.69565 13.7155 7.78249 13.649L7.69535 14.8458C8.60975 14.9124 10.4237 15.0206 12.5426 15.6164L12.8674 14.4613ZM6.25492 14.7082L4.76542 19.3035L5.90695 19.6735L7.39645 15.0782L6.25492 14.7082ZM4.42108 19.5667H2.59622V20.7667H4.42108V19.5667ZM2.25306 19.0424L3.72999 14.3839L2.5861 14.0213L1.10918 18.6798L2.25306 19.0424ZM5.20778 7.87234L7.04595 7.87109L7.04513 6.67109L5.20697 6.67234L5.20778 7.87234ZM7.04554 7.27109C7.02622 7.87078 7.02634 7.87079 7.02646 7.87079C7.02652 7.87079 7.02665 7.8708 7.02676 7.8708C7.02698 7.87081 7.02725 7.87081 7.02756 7.87082C7.02818 7.87084 7.02898 7.87087 7.02994 7.8709C7.03188 7.87095 7.0345 7.87103 7.03779 7.87111C7.04439 7.87129 7.0537 7.87152 7.06563 7.87177C7.08949 7.87227 7.12385 7.87285 7.168 7.87325C7.25628 7.87403 7.38381 7.87408 7.5449 7.87122C7.8669 7.86551 8.32403 7.84821 8.87069 7.80195C9.96056 7.70973 11.4228 7.50111 12.8848 7.03114L12.5175 5.88872C11.1709 6.32162 9.8053 6.51858 8.76952 6.60622C8.25335 6.6499 7.8232 6.6661 7.52363 6.67141C7.37393 6.67406 7.25709 6.67399 7.17871 6.67329C7.13953 6.67294 7.10998 6.67244 7.09076 6.67203C7.08116 6.67183 7.07414 6.67166 7.06979 6.67154C7.06761 6.67148 7.06611 6.67144 7.06528 6.67142C7.06487 6.6714 7.06463 6.6714 7.06456 6.67139C7.06452 6.67139 7.06453 6.67139 7.06458 6.67139C7.0646 6.6714 7.06467 6.6714 7.06468 6.6714C7.06476 6.6714 7.06485 6.6714 7.04554 7.27109ZM3.392 13.6501C1.45876 12.8315 0.997962 10.4257 2.105 8.86847L1.12697 8.17317C-0.363055 10.2691 0.189887 13.5973 2.92408 14.7551L3.392 13.6501ZM2.59622 19.5667C2.36873 19.5667 2.16199 19.3234 2.25189 19.0461L1.11035 18.6761C0.783847 19.6834 1.50692 20.7667 2.59622 20.7667V19.5667ZM4.76542 19.3035C4.7115 19.4698 4.56716 19.5667 4.42108 19.5667V20.7667C5.10539 20.7667 5.69827 20.3173 5.90695 19.6735L4.76542 19.3035ZM7.78249 13.649C7.06418 13.5967 6.46222 14.0686 6.25492 14.7082L7.39645 15.0782C7.45174 14.9076 7.58535 14.8378 7.69535 14.8458L7.78249 13.649ZM5.20697 6.67234C4.52299 6.67281 3.75373 6.71219 3.04042 6.90999C2.31985 7.1098 1.61812 7.48229 1.12697 8.17317L2.105 8.86847C2.38874 8.46935 2.81403 8.21805 3.36108 8.06635C3.9154 7.91264 4.55438 7.87278 5.20778 7.87234L5.20697 6.67234ZM12.2332 14.9424C12.2332 14.6055 12.5544 14.3732 12.8674 14.4613L12.5426 15.6164C12.9837 15.7405 13.4332 15.4124 13.4332 14.9424H12.2332ZM13.4332 6.55543C13.4332 6.07391 12.9637 5.74531 12.5175 5.88872L12.8848 7.03114C12.5686 7.13278 12.2332 6.90048 12.2332 6.55543H13.4332Z" fill="white"/>
<mask id="mask0_11563_34273" style="mask-type:alpha" maskUnits="userSpaceOnUse" x="15" y="2" width="7" height="16">
<path d="M15.9849 2.93677H22V17.947H15.9849V2.93677Z" fill="white"/>
</mask>
<g mask="url(#mask0_11563_34273)">
<circle opacity="0.4" cx="14.9825" cy="10.9569" r="6.41765" stroke="white" stroke-width="1.2"/>
<path opacity="0.4" d="M17.3897 10.957C17.3897 12.2867 16.3118 13.3646 14.9822 13.3646C13.6525 13.3646 12.5746 12.2867 12.5746 10.957C12.5746 9.62737 13.6525 8.54946 14.9822 8.54946C16.3118 8.54946 17.3897 9.62737 17.3897 10.957Z" stroke="white" stroke-width="1.2"/>
</g>
</svg>
