<svg width="22" height="22" viewBox="0 0 22 22" fill="none" xmlns="http://www.w3.org/2000/svg">
<path opacity="0.4" d="M8.25016 1.83301C5.8485 1.83301 3.896 3.78551 3.896 6.18717C3.896 8.54301 5.7385 10.4497 8.14016 10.5322C8.2135 10.523 8.28683 10.523 8.34183 10.5322C8.36016 10.5322 8.36933 10.5322 8.38766 10.5322C8.39683 10.5322 8.39683 10.5322 8.406 10.5322C10.7527 10.4497 12.5952 8.54301 12.6043 6.18717C12.6043 3.78551 10.6518 1.83301 8.25016 1.83301Z" fill="white"/>
<path d="M12.9069 12.9711C10.3494 11.2661 6.17854 11.2661 3.60271 12.9711C2.43854 13.7503 1.79688 14.8045 1.79688 15.932C1.79688 17.0595 2.43854 18.1045 3.59354 18.8745C4.87687 19.7361 6.56354 20.167 8.25021 20.167C9.93687 20.167 11.6235 19.7361 12.9069 18.8745C14.0619 18.0953 14.7035 17.0503 14.7035 15.9136C14.6944 14.7861 14.0619 13.7411 12.9069 12.9711Z" fill="white"/>
<path opacity="0.4" d="M18.3241 6.72859C18.4707 8.50692 17.2057 10.0653 15.4549 10.2761C15.4457 10.2761 15.4457 10.2761 15.4366 10.2761H15.4091C15.3541 10.2761 15.2991 10.2761 15.2532 10.2944C14.3641 10.3403 13.5482 10.0561 12.9341 9.53359C13.8782 8.69025 14.4191 7.42525 14.3091 6.05025C14.2449 5.30775 13.9882 4.62942 13.6032 4.05192C13.9516 3.87775 14.3549 3.76775 14.7674 3.73109C16.5641 3.57525 18.1682 4.91359 18.3241 6.72859Z" fill="white"/>
<path d="M20.1576 15.2075C20.0842 16.0967 19.5159 16.8667 18.5626 17.3892C17.6459 17.8934 16.4909 18.1317 15.3451 18.1042C16.0051 17.5084 16.3901 16.7659 16.4634 15.9775C16.5551 14.8409 16.0142 13.75 14.9326 12.8792C14.3184 12.3934 13.6034 12.0084 12.8242 11.7242C14.8501 11.1375 17.3984 11.5317 18.9659 12.7967C19.8092 13.475 20.2401 14.3275 20.1576 15.2075Z" fill="white"/>
</svg>
