<svg width="22" height="22" viewBox="0 0 22 22" fill="none" xmlns="http://www.w3.org/2000/svg">
<path d="M19.8638 6.37083C19.2772 4.38167 17.618 2.7225 15.6288 2.13583C14.1163 1.69583 13.0713 1.7325 12.3472 2.27333C11.4763 2.92417 11.3755 4.0975 11.3755 4.93167V7.21417C11.3755 9.46917 12.4022 10.615 14.4188 10.615H17.0497C17.8747 10.615 19.0572 10.5142 19.708 9.64333C20.2672 8.92833 20.313 7.88333 19.8638 6.37083Z" fill="#B599EA"/>
<path opacity="0.4" d="M17.334 12.2467C17.0956 11.9717 16.7473 11.8158 16.3898 11.8158H13.1081C11.4948 11.8158 10.184 10.505 10.184 8.89167V5.61C10.184 5.2525 10.0281 4.90417 9.75312 4.66583C9.48728 4.4275 9.12062 4.3175 8.77228 4.36333C6.61812 4.63833 4.63812 5.82083 3.34562 7.59917C2.04395 9.38667 1.56728 11.5683 1.97978 13.75C2.57562 16.9033 5.09645 19.4242 8.25895 20.02C8.76312 20.1208 9.26728 20.1667 9.77145 20.1667C11.4306 20.1667 13.0348 19.6533 14.4006 18.6542C16.179 17.3617 17.3615 15.3817 17.6365 13.2275C17.6823 12.87 17.5723 12.5125 17.334 12.2467Z" fill="#B599EA"/>
</svg>
