<svg width="22" height="22" viewBox="0 0 22 22" fill="none" xmlns="http://www.w3.org/2000/svg">
<path opacity="0.4" d="M20.1668 7.15982V12.7423L18.6727 11.459C17.9577 10.8448 16.8027 10.8448 16.0877 11.459L12.2743 14.7315C11.5593 15.3457 10.4043 15.3457 9.68933 14.7315L9.37766 14.4748C8.72683 13.9065 7.691 13.8515 6.95766 14.3465L2.44766 17.3715L2.34683 17.4448C2.00766 16.7115 1.8335 15.8407 1.8335 14.8415V7.15982C1.8335 3.82315 3.82266 1.83398 7.15933 1.83398H14.841C18.1777 1.83398 20.1668 3.82315 20.1668 7.15982Z" fill="white"/>
<path d="M8.25003 9.51568C9.45493 9.51568 10.4317 8.53891 10.4317 7.33401C10.4317 6.12911 9.45493 5.15234 8.25003 5.15234C7.04512 5.15234 6.06836 6.12911 6.06836 7.33401C6.06836 8.53891 7.04512 9.51568 8.25003 9.51568Z" fill="white"/>
<path d="M20.1667 12.742V14.8412C20.1667 18.1778 18.1775 20.167 14.8408 20.167H7.15918C4.82168 20.167 3.13501 19.1862 2.34668 17.4445L2.44751 17.3712L6.95751 14.3462C7.69085 13.8512 8.72668 13.9062 9.37751 14.4745L9.68918 14.7312C10.4042 15.3453 11.5592 15.3453 12.2742 14.7312L16.0875 11.4587C16.8025 10.8445 17.9575 10.8445 18.6725 11.4587L20.1667 12.742Z" fill="white"/>
</svg>
