<svg width="22" height="22" viewBox="0 0 22 22" fill="none" xmlns="http://www.w3.org/2000/svg">
<path d="M20.1668 20.1667H1.8335C1.45766 20.1667 1.146 19.855 1.146 19.4792C1.146 19.1033 1.45766 18.7917 1.8335 18.7917H20.1668C20.5427 18.7917 20.8543 19.1033 20.8543 19.4792C20.8543 19.855 20.5427 20.1667 20.1668 20.1667Z" fill="white"/>
<path d="M8.9375 3.66666V20.1667H13.0625V3.66666C13.0625 2.65833 12.65 1.83333 11.4125 1.83333H10.5875C9.35 1.83333 8.9375 2.65833 8.9375 3.66666Z" fill="white"/>
<path opacity="0.4" d="M2.75 9.16666V20.1667H6.41667V9.16666C6.41667 8.15833 6.05 7.33333 4.95 7.33333H4.21667C3.11667 7.33333 2.75 8.15833 2.75 9.16666Z" fill="white"/>
<path opacity="0.4" d="M15.5835 13.75V20.1667H19.2502V13.75C19.2502 12.7417 18.8835 11.9167 17.7835 11.9167H17.0502C15.9502 11.9167 15.5835 12.7417 15.5835 13.75Z" fill="white"/>
</svg>
