<svg width="22" height="22" viewBox="0 0 22 22" fill="none" xmlns="http://www.w3.org/2000/svg">
<path opacity="0.4" d="M1.8335 11.8067V10.1933C1.8335 9.24001 2.61266 8.45168 3.57516 8.45168C5.23433 8.45168 5.91266 7.27835 5.0785 5.83918C4.60183 5.01418 4.886 3.94168 5.72016 3.46501L7.306 2.55751C8.03016 2.12668 8.96516 2.38335 9.396 3.10751L9.49683 3.28168C10.3218 4.72085 11.6785 4.72085 12.5127 3.28168L12.6135 3.10751C13.0443 2.38335 13.9793 2.12668 14.7035 2.55751L16.2893 3.46501C17.1235 3.94168 17.4077 5.01418 16.931 5.83918C16.0968 7.27835 16.7752 8.45168 18.4343 8.45168C19.3877 8.45168 20.176 9.23085 20.176 10.1933V11.8067C20.176 12.76 19.3968 13.5483 18.4343 13.5483C16.7752 13.5483 16.0968 14.7217 16.931 16.1608C17.4077 16.995 17.1235 18.0583 16.2893 18.535L14.7035 19.4425C13.9793 19.8733 13.0443 19.6167 12.6135 18.8925L12.5127 18.7183C11.6877 17.2792 10.331 17.2792 9.49683 18.7183L9.396 18.8925C8.96516 19.6167 8.03016 19.8733 7.306 19.4425L5.72016 18.535C4.886 18.0583 4.60183 16.9858 5.0785 16.1608C5.91266 14.7217 5.23433 13.5483 3.57516 13.5483C2.61266 13.5483 1.8335 12.76 1.8335 11.8067Z" fill="#B599EA"/>
<path d="M11.0002 13.9792C12.6455 13.9792 13.9793 12.6454 13.9793 11C13.9793 9.35466 12.6455 8.02084 11.0002 8.02084C9.35481 8.02084 8.021 9.35466 8.021 11C8.021 12.6454 9.35481 13.9792 11.0002 13.9792Z" fill="#B599EA"/>
</svg>
