<svg width="32" height="32" viewBox="0 0 32 32" fill="none" xmlns="http://www.w3.org/2000/svg">
<path d="M24.6615 24.3765C14.9463 29 8.91693 25.1316 5.05736 22.782C4.81853 22.634 4.4126 22.8167 4.7648 23.2212C6.05062 24.7803 10.2645 28.538 15.7649 28.538C21.269 28.538 24.5435 25.5348 24.9531 25.0109C25.3599 24.4914 25.0726 24.2048 24.6614 24.3765H24.6615ZM27.3899 22.8697C27.1291 22.5299 25.8035 22.4666 24.9693 22.5691C24.1339 22.6686 22.8798 23.1792 22.9888 23.4858C23.0448 23.6006 23.159 23.5491 23.7329 23.4975C24.3084 23.4401 25.9207 23.2366 26.2566 23.6758C26.5942 24.118 25.7424 26.2245 25.5869 26.5642C25.4366 26.9039 25.6443 26.9915 25.9266 26.7653C26.205 26.5391 26.7091 25.9533 27.0474 25.1244C27.3833 24.291 27.5882 23.1283 27.3899 22.8697H27.3899Z" fill="#FF9900"/>
<path fill-rule="evenodd" clip-rule="evenodd" d="M18.1286 14.942C18.1286 16.1551 18.1593 17.1669 17.5461 18.2442C17.0512 19.1202 16.2672 19.6589 15.3913 19.6589C14.1956 19.6589 13.4992 18.7479 13.4992 17.4034C13.4992 14.7492 15.8774 14.2675 18.1286 14.2675V14.942ZM21.2688 22.532C21.063 22.7159 20.7651 22.7291 20.533 22.6065C19.4995 21.7481 19.3155 21.3495 18.7461 20.5305C17.0381 22.2736 15.8293 22.7948 13.6132 22.7948C10.9941 22.7948 8.95312 21.1787 8.95312 17.9421C8.95312 15.415 10.324 13.6937 12.2729 12.8529C13.9635 12.1083 16.3242 11.9769 18.1286 11.7711V11.3681C18.1286 10.6279 18.1855 9.75201 17.752 9.11261C17.3709 8.53885 16.6439 8.30233 16.0044 8.30233C14.8175 8.30233 13.7576 8.91108 13.4992 10.1724C13.4466 10.4528 13.2408 10.7287 12.9606 10.7418L9.93853 10.4178C9.68456 10.3608 9.40428 10.155 9.47435 9.76512C10.1707 6.10376 13.4773 5 16.4379 5C17.9533 5 19.9329 5.40297 21.1286 6.55049C22.644 7.96509 22.4994 9.85273 22.4994 11.9068V16.7595C22.4994 18.218 23.1038 18.8574 23.6732 19.6458C23.8746 19.9261 23.9184 20.2634 23.6644 20.4735C23.0293 21.0034 21.8994 21.9889 21.2775 22.5408L21.2687 22.532" fill="black"/>
<path d="M24.6615 24.3765C14.9463 29 8.91693 25.1316 5.05736 22.782C4.81853 22.634 4.4126 22.8167 4.7648 23.2212C6.05062 24.7803 10.2645 28.538 15.7649 28.538C21.269 28.538 24.5435 25.5348 24.9531 25.0109C25.3599 24.4914 25.0726 24.2048 24.6614 24.3765H24.6615ZM27.3899 22.8697C27.1291 22.5299 25.8035 22.4666 24.9693 22.5691C24.1339 22.6686 22.8798 23.1792 22.9888 23.4858C23.0448 23.6006 23.159 23.5491 23.7329 23.4975C24.3084 23.4401 25.9207 23.2366 26.2566 23.6758C26.5942 24.118 25.7424 26.2245 25.5869 26.5642C25.4366 26.9039 25.6443 26.9915 25.9266 26.7653C26.205 26.5391 26.7091 25.9533 27.0474 25.1244C27.3833 24.291 27.5882 23.1283 27.3899 22.8697H27.3899Z" fill="#FF9900"/>
<path fill-rule="evenodd" clip-rule="evenodd" d="M18.1286 14.942C18.1286 16.1551 18.1593 17.1669 17.5461 18.2442C17.0512 19.1202 16.2672 19.6589 15.3913 19.6589C14.1956 19.6589 13.4992 18.7479 13.4992 17.4034C13.4992 14.7492 15.8774 14.2675 18.1286 14.2675V14.942ZM21.2688 22.532C21.063 22.7159 20.7651 22.7291 20.533 22.6065C19.4995 21.7481 19.3155 21.3495 18.7461 20.5305C17.0381 22.2736 15.8293 22.7948 13.6132 22.7948C10.9941 22.7948 8.95312 21.1787 8.95312 17.9421C8.95312 15.415 10.324 13.6937 12.2729 12.8529C13.9635 12.1083 16.3242 11.9769 18.1286 11.7711V11.3681C18.1286 10.6279 18.1855 9.75201 17.752 9.11261C17.3709 8.53885 16.6439 8.30233 16.0044 8.30233C14.8175 8.30233 13.7576 8.91108 13.4992 10.1724C13.4466 10.4528 13.2408 10.7287 12.9606 10.7418L9.93853 10.4178C9.68456 10.3608 9.40428 10.155 9.47435 9.76512C10.1707 6.10376 13.4773 5 16.4379 5C17.9533 5 19.9329 5.40297 21.1286 6.55049C22.644 7.96509 22.4994 9.85273 22.4994 11.9068V16.7595C22.4994 18.218 23.1038 18.8574 23.6732 19.6458C23.8746 19.9261 23.9184 20.2634 23.6644 20.4735C23.0293 21.0034 21.8994 21.9889 21.2775 22.5408L21.2687 22.532" fill="black"/>
</svg>
