<svg width="32" height="32" viewBox="0 0 32 32" fill="none" xmlns="http://www.w3.org/2000/svg">
<path d="M16.6987 17.8026H19.9784C20.9112 17.8026 21.5013 17.2894 21.5013 16.4648C21.5013 15.6872 20.9112 15.127 19.9784 15.127H16.6987C16.59 15.127 16.4971 15.22 16.4971 15.314V17.6155C16.5117 17.7242 16.589 17.8026 16.6987 17.8026ZM16.6987 23.1058H20.087C21.1284 23.1058 21.7499 22.577 21.7499 21.6436C21.7499 20.8347 21.1598 20.1814 20.087 20.1814H16.6987C16.59 20.1814 16.4971 20.2745 16.4971 20.3685V22.9041C16.5117 23.0285 16.589 23.1058 16.6987 23.1058Z" fill="#34313F"/>
<path d="M28.698 3.05815L18.9988 12.7323H20.5843C23.0556 12.7323 24.5169 14.2875 24.5169 15.9828C24.5169 17.3207 23.6155 18.3 22.6514 18.7358C22.4958 18.7985 22.4958 19.0159 22.6671 19.0776C23.7857 19.5134 24.5785 20.6799 24.5785 22.048C24.5785 23.9763 23.2885 25.5159 20.7859 25.5159H13.9162C13.8076 25.5159 13.7146 25.4229 13.7146 25.3288V18.0032L3.0669 28.6117C2.92693 28.7518 3.01989 29.0005 3.22253 29.0005H28.8223C28.9153 29.0005 28.9936 28.9232 28.9936 28.8291V3.1982C29.0396 3.02679 28.8223 2.93377 28.698 3.05815Z" fill="#34313F"/>
</svg>
