<svg width="18" height="18" viewBox="0 0 18 18" fill="none" xmlns="http://www.w3.org/2000/svg">
<path d="M5.25734 13.5001L2.24984 10.4926C1.24484 9.4876 1.24484 8.49009 2.24984 7.48509L7.25984 2.4751L12.7723 7.98763C13.0498 8.26513 13.0498 8.7151 12.7723 8.9926L8.25734 13.5076C7.26734 14.4976 6.26234 14.4976 5.25734 13.5001Z" stroke="#483D5E" stroke-miterlimit="10" stroke-linecap="round" stroke-linejoin="round"/>
<path d="M6.2627 1.4624L7.2677 2.46738" stroke="#483D5E" stroke-miterlimit="10" stroke-linecap="round" stroke-linejoin="round"/>
<path d="M1.55273 8.94005L12.8927 8.44507" stroke="#483D5E" stroke-miterlimit="10" stroke-linecap="round" stroke-linejoin="round"/>
<path d="M2.25 16.5H12" stroke="#483D5E" stroke-miterlimit="10" stroke-linecap="round" stroke-linejoin="round"/>
<path d="M14.1375 11.25C14.1375 11.25 12.75 12.7575 12.75 13.68C12.75 14.445 13.3725 15.0675 14.1375 15.0675C14.9025 15.0675 15.525 14.445 15.525 13.68C15.525 12.7575 14.1375 11.25 14.1375 11.25Z" stroke="#483D5E" stroke-linecap="round" stroke-linejoin="round"/>
</svg>
