<svg width="51" height="51" viewBox="0 0 51 51" fill="none" xmlns="http://www.w3.org/2000/svg">
<circle opacity="0.67" cx="25.5" cy="25.5" r="25.5" fill="#FFEDEC"/>
<path opacity="0.4" d="M30.0986 22.3648C29.9397 22.3648 29.7809 22.3062 29.6555 22.1808C29.413 21.9384 29.413 21.537 29.6555 21.2946L31.3694 19.5807C29.8979 18.3266 28.0001 17.5574 25.9183 17.5574C21.3032 17.5574 17.5576 21.3029 17.5576 25.918C17.5576 30.5331 21.3032 34.2787 25.9183 34.2787C30.5334 34.2787 34.2789 30.5331 34.2789 25.918C34.2789 23.8362 33.5097 21.9384 32.2556 20.4669L30.5417 22.1808C30.4163 22.3062 30.2575 22.3648 30.0986 22.3648Z" fill="#FF4E3E"/>
<path d="M27.381 25.7675L26.5449 25.4749V23.6189H26.6118C27.0382 23.6189 27.381 23.9951 27.381 24.4549C27.381 24.7977 27.6653 25.082 28.0081 25.082C28.3508 25.082 28.6351 24.7977 28.6351 24.4549C28.6351 23.3011 27.7321 22.3648 26.6118 22.3648H26.5449V22.1557C26.5449 21.8129 26.2607 21.5287 25.9179 21.5287C25.5751 21.5287 25.2908 21.8129 25.2908 22.1557V22.3648H25.04C24.0284 22.3648 23.2007 23.2175 23.2007 24.271C23.2007 25.4916 23.9113 25.8846 24.4548 26.0769L25.2908 26.3695V28.2256H25.224C24.7976 28.2256 24.4548 27.8493 24.4548 27.3895C24.4548 27.0467 24.1705 26.7625 23.8277 26.7625C23.4849 26.7625 23.2007 27.0467 23.2007 27.3895C23.2007 28.5433 24.1036 29.4797 25.224 29.4797H25.2908V29.6887C25.2908 30.0315 25.5751 30.3157 25.9179 30.3157C26.2607 30.3157 26.5449 30.0315 26.5449 29.6887V29.4797H26.7958C27.8074 29.4797 28.6351 28.6269 28.6351 27.5734C28.6351 26.3444 27.9245 25.9515 27.381 25.7675ZM24.8644 24.8813C24.5802 24.781 24.4548 24.7225 24.4548 24.2626C24.4548 23.9031 24.7223 23.6105 25.04 23.6105H25.2908V25.0234L24.8644 24.8813ZM26.7958 28.2172H26.5449V26.8043L26.9713 26.9548C27.2556 27.0551 27.381 27.1136 27.381 27.5734C27.381 27.9246 27.1135 28.2172 26.7958 28.2172Z" fill="#FF4E3E"/>
<path d="M34.8554 17.3149C34.7885 17.1645 34.6715 17.0391 34.5126 16.9722C34.4374 16.9387 34.3537 16.922 34.2701 16.922H30.9259C30.5831 16.922 30.2988 17.2063 30.2988 17.549C30.2988 17.8918 30.5831 18.1761 30.9259 18.1761H32.7569L31.3606 19.5723C31.6784 19.8482 31.971 20.1409 32.2469 20.4586L33.6431 19.0623V20.9017C33.6431 21.2445 33.9274 21.5287 34.2701 21.5287C34.6129 21.5287 34.8972 21.2445 34.8972 20.9017V17.5574C34.9055 17.4738 34.8888 17.3986 34.8554 17.3149Z" fill="#FF4E3E"/>
</svg>
