<svg width="51" height="51" viewBox="0 0 51 51" fill="none" xmlns="http://www.w3.org/2000/svg">
<circle opacity="0.67" cx="25.5" cy="25.5" r="25.5" fill="#E9FBF6"/>
<path opacity="0.4" d="M31.6118 21.1107H32.7489C32.59 20.8849 32.4228 20.6759 32.2472 20.4669L31.6118 21.1107Z" fill="#17BD8D"/>
<path opacity="0.4" d="M31.3693 19.5806C31.1603 19.405 30.9513 19.2378 30.7256 19.079V20.216L31.3693 19.5806Z" fill="#17BD8D"/>
<path opacity="0.4" d="M30.0986 22.3648C30.015 22.3648 29.9397 22.348 29.8561 22.3146C29.7056 22.2477 29.5802 22.1307 29.5133 21.9718C29.4799 21.8966 29.4632 21.8129 29.4632 21.7293V18.3851C29.4632 18.3767 29.4716 18.3684 29.4716 18.3516C28.393 17.85 27.1891 17.5574 25.9183 17.5574C21.3032 17.5574 17.5576 21.3029 17.5576 25.918C17.5576 30.5331 21.3032 34.2787 25.9183 34.2787C30.5334 34.2787 34.2789 30.5331 34.2789 25.918C34.2789 24.6472 33.9863 23.4433 33.4763 22.3564C33.468 22.3564 33.4596 22.3648 33.4429 22.3648H30.0986Z" fill="#17BD8D"/>
<path d="M32.2554 20.4668L34.7218 18.0004C34.9642 17.758 34.9642 17.3567 34.7218 17.1142C34.4793 16.8718 34.078 16.8718 33.8355 17.1142L31.3691 19.5806C31.6868 19.8565 31.9795 20.1575 32.2554 20.4668Z" fill="#17BD8D"/>
<path d="M30.7252 18.3934C30.7252 18.0506 30.441 17.7664 30.0982 17.7664C29.7637 17.7664 29.4962 18.0339 29.4795 18.36C29.9142 18.569 30.3323 18.8031 30.7252 19.079V18.3934Z" fill="#17BD8D"/>
<path d="M34.0695 21.7378C34.0695 21.395 33.7852 21.1107 33.4425 21.1107H32.7485C33.0244 21.5037 33.2669 21.9217 33.4675 22.3565C33.802 22.3397 34.0695 22.0722 34.0695 21.7378Z" fill="#17BD8D"/>
<path d="M27.381 25.7675L26.5449 25.4749V23.6189H26.6118C27.0382 23.6189 27.381 23.9951 27.381 24.4549C27.381 24.7977 27.6653 25.082 28.0081 25.082C28.3508 25.082 28.6351 24.7977 28.6351 24.4549C28.6351 23.3011 27.7321 22.3648 26.6118 22.3648H26.5449V22.1557C26.5449 21.8129 26.2607 21.5287 25.9179 21.5287C25.5751 21.5287 25.2908 21.8129 25.2908 22.1557V22.3648H25.04C24.0284 22.3648 23.2007 23.2175 23.2007 24.271C23.2007 25.4916 23.9113 25.8846 24.4548 26.0769L25.2908 26.3695V28.2256H25.224C24.7976 28.2256 24.4548 27.8493 24.4548 27.3895C24.4548 27.0467 24.1705 26.7625 23.8277 26.7625C23.4849 26.7625 23.2007 27.0467 23.2007 27.3895C23.2007 28.5433 24.1036 29.4797 25.224 29.4797H25.2908V29.6887C25.2908 30.0315 25.5751 30.3157 25.9179 30.3157C26.2607 30.3157 26.5449 30.0315 26.5449 29.6887V29.4797H26.7958C27.8074 29.4797 28.6351 28.6269 28.6351 27.5734C28.6351 26.3444 27.9245 25.9515 27.381 25.7675ZM24.8644 24.8813C24.5802 24.781 24.4548 24.7225 24.4548 24.2626C24.4548 23.9031 24.7223 23.6105 25.04 23.6105H25.2908V25.0234L24.8644 24.8813ZM26.7958 28.2172H26.5449V26.8043L26.9713 26.9548C27.2556 27.0551 27.381 27.1136 27.381 27.5734C27.381 27.9246 27.1135 28.2172 26.7958 28.2172Z" fill="#17BD8D"/>
</svg>
