<svg width="51" height="51" viewBox="0 0 51 51" fill="none" xmlns="http://www.w3.org/2000/svg">
<circle opacity="0.67" cx="25.5" cy="25.5" r="25.5" fill="#FFF3EE"/>
<path opacity="0.4" d="M25.9183 34.2787C30.5357 34.2787 34.2789 30.5355 34.2789 25.918C34.2789 21.3006 30.5357 17.5574 25.9183 17.5574C21.3008 17.5574 17.5576 21.3006 17.5576 25.918C17.5576 30.5355 21.3008 34.2787 25.9183 34.2787Z" fill="#FF783C"/>
<path d="M28.4265 29.2623C27.9583 29.2623 27.582 28.8861 27.582 28.4262C27.582 27.9664 27.9583 27.5901 28.4181 27.5901C28.8779 27.5901 29.2542 27.9664 29.2542 28.4262C29.2542 28.8861 28.8863 29.2623 28.4265 29.2623Z" fill="#FF783C"/>
<path d="M23.4182 24.2459C22.95 24.2459 22.5737 23.8697 22.5737 23.4099C22.5737 22.95 22.95 22.5738 23.4098 22.5738C23.8696 22.5738 24.2459 22.95 24.2459 23.4099C24.2459 23.8697 23.878 24.2459 23.4182 24.2459Z" fill="#FF783C"/>
<path d="M23.4097 29.0533C23.2508 29.0533 23.0919 28.9948 22.9665 28.8694C22.7241 28.6269 22.7241 28.2255 22.9665 27.9831L27.9829 22.9667C28.2254 22.7242 28.6267 22.7242 28.8692 22.9667C29.1116 23.2092 29.1116 23.6105 28.8692 23.853L23.8528 28.8694C23.7274 28.9948 23.5685 29.0533 23.4097 29.0533Z" fill="#FF783C"/>
</svg>
