<svg width="18" height="17" viewBox="0 0 18 17" fill="none" xmlns="http://www.w3.org/2000/svg">
<path d="M13.0414 3.66323L13.4591 3.24553L12.9782 2.90257C11.8553 2.10192 10.4839 1.625 9 1.625C5.20861 1.625 2.125 4.70861 2.125 8.5C2.125 9.98332 2.60191 11.3553 3.40257 12.4782L3.74553 12.9591L4.16323 12.5414L13.0414 3.66323ZM4.95857 13.3368L4.54086 13.7545L5.02183 14.0974C6.1447 14.8981 7.51614 15.375 9 15.375C12.7914 15.375 15.875 12.2914 15.875 8.5C15.875 7.01668 15.3981 5.64472 14.5974 4.52183L14.2545 4.04086L13.8368 4.45857L4.95857 13.3368ZM1 8.5C1 4.08944 4.58944 0.5 9 0.5C13.4106 0.5 17 4.08944 17 8.5C17 12.9106 13.4106 16.5 9 16.5C4.58944 16.5 1 12.9106 1 8.5Z" fill="#FF4E3E" stroke="#FF4E3E"/>
</svg>
