<svg width="22" height="22" viewBox="0 0 22 22" fill="none" xmlns="http://www.w3.org/2000/svg">
<path d="M2.55063 4.32508C2.45395 4.22969 2.33118 4.16506 2.19781 4.13937C2.06444 4.11367 1.92645 4.12806 1.80125 4.18071C1.6757 4.23228 1.56822 4.31987 1.49237 4.43243C1.41652 4.54498 1.37568 4.67748 1.375 4.81321V17.1882C1.37568 17.3239 1.41652 17.4564 1.49237 17.569C1.56822 17.6815 1.6757 17.7691 1.80125 17.8207C1.88284 17.8592 1.97232 17.878 2.0625 17.8757C2.15298 17.8762 2.24267 17.8589 2.32644 17.8247C2.4102 17.7905 2.48638 17.74 2.55063 17.6763L8.73813 11.4888C8.80256 11.4249 8.85371 11.3489 8.88861 11.2651C8.92352 11.1813 8.94149 11.0915 8.94149 11.0007C8.94149 10.9099 8.92352 10.8201 8.88861 10.7363C8.85371 10.6525 8.80256 10.5765 8.73813 10.5126L2.55063 4.32508ZM2.75 15.5313V6.47008L7.28063 11.0007L2.75 15.5313Z" fill="#632CC7"/>
<path d="M20.1988 4.18071C20.0736 4.12806 19.9356 4.11367 19.8023 4.13937C19.6689 4.16506 19.5461 4.22969 19.4495 4.32508L13.262 10.5126C13.1975 10.5765 13.1464 10.6525 13.1115 10.7363C13.0766 10.8201 13.0586 10.9099 13.0586 11.0007C13.0586 11.0915 13.0766 11.1813 13.1115 11.2651C13.1464 11.3489 13.1975 11.4249 13.262 11.4888L19.4495 17.6763C19.5137 17.74 19.5899 17.7905 19.6736 17.8247C19.7574 17.8589 19.8471 17.8762 19.9376 17.8757C20.0278 17.878 20.1172 17.8592 20.1988 17.8207C20.3244 17.7691 20.4319 17.6815 20.5077 17.569C20.5836 17.4564 20.6244 17.3239 20.6251 17.1882V4.81321C20.6244 4.67748 20.5836 4.54498 20.5077 4.43243C20.4319 4.31987 20.3244 4.23228 20.1988 4.18071ZM19.2501 15.5313L14.7195 11.0007L19.2501 6.47008V15.5313Z" fill="#632CC7"/>
<path d="M11 1.375C10.8177 1.375 10.6428 1.44743 10.5139 1.57636C10.3849 1.7053 10.3125 1.88016 10.3125 2.0625V3.4375C10.3125 3.61984 10.3849 3.7947 10.5139 3.92364C10.6428 4.05257 10.8177 4.125 11 4.125C11.1823 4.125 11.3572 4.05257 11.4861 3.92364C11.6151 3.7947 11.6875 3.61984 11.6875 3.4375V2.0625C11.6875 1.88016 11.6151 1.7053 11.4861 1.57636C11.3572 1.44743 11.1823 1.375 11 1.375V1.375Z" fill="#632CC7"/>
<path d="M11 5.5C10.8177 5.5 10.6428 5.57243 10.5139 5.70136C10.3849 5.8303 10.3125 6.00516 10.3125 6.1875V7.5625C10.3125 7.74484 10.3849 7.9197 10.5139 8.04864C10.6428 8.17757 10.8177 8.25 11 8.25C11.1823 8.25 11.3572 8.17757 11.4861 8.04864C11.6151 7.9197 11.6875 7.74484 11.6875 7.5625V6.1875C11.6875 6.00516 11.6151 5.8303 11.4861 5.70136C11.3572 5.57243 11.1823 5.5 11 5.5Z" fill="#632CC7"/>
<path d="M11 9.625C10.8177 9.625 10.6428 9.69743 10.5139 9.82636C10.3849 9.9553 10.3125 10.1302 10.3125 10.3125V11.6875C10.3125 11.8698 10.3849 12.0447 10.5139 12.1736C10.6428 12.3026 10.8177 12.375 11 12.375C11.1823 12.375 11.3572 12.3026 11.4861 12.1736C11.6151 12.0447 11.6875 11.8698 11.6875 11.6875V10.3125C11.6875 10.1302 11.6151 9.9553 11.4861 9.82636C11.3572 9.69743 11.1823 9.625 11 9.625Z" fill="#632CC7"/>
<path d="M11 13.75C10.8177 13.75 10.6428 13.8224 10.5139 13.9514C10.3849 14.0803 10.3125 14.2552 10.3125 14.4375V15.8125C10.3125 15.9948 10.3849 16.1697 10.5139 16.2986C10.6428 16.4276 10.8177 16.5 11 16.5C11.1823 16.5 11.3572 16.4276 11.4861 16.2986C11.6151 16.1697 11.6875 15.9948 11.6875 15.8125V14.4375C11.6875 14.2552 11.6151 14.0803 11.4861 13.9514C11.3572 13.8224 11.1823 13.75 11 13.75Z" fill="#632CC7"/>
<path d="M11 17.875C10.8177 17.875 10.6428 17.9474 10.5139 18.0764C10.3849 18.2053 10.3125 18.3802 10.3125 18.5625V19.9375C10.3125 20.1198 10.3849 20.2947 10.5139 20.4236C10.6428 20.5526 10.8177 20.625 11 20.625C11.1823 20.625 11.3572 20.5526 11.4861 20.4236C11.6151 20.2947 11.6875 20.1198 11.6875 19.9375V18.5625C11.6875 18.3802 11.6151 18.2053 11.4861 18.0764C11.3572 17.9474 11.1823 17.875 11 17.875Z" fill="#632CC7"/>
</svg>
