<svg width="16" height="16" viewBox="0 0 16 16" fill="none" xmlns="http://www.w3.org/2000/svg">
<path d="M5.99967 14.6666H9.99967C13.333 14.6666 14.6663 13.3333 14.6663 9.99992V5.99992C14.6663 2.66659 13.333 1.33325 9.99967 1.33325H5.99967C2.66634 1.33325 1.33301 2.66659 1.33301 5.99992V9.99992C1.33301 13.3333 2.66634 14.6666 5.99967 14.6666Z" stroke="#9B95A9" stroke-width="1.5" stroke-linecap="round" stroke-linejoin="round"/>
<path d="M6.00033 6.66667C6.73671 6.66667 7.33366 6.06971 7.33366 5.33333C7.33366 4.59695 6.73671 4 6.00033 4C5.26395 4 4.66699 4.59695 4.66699 5.33333C4.66699 6.06971 5.26395 6.66667 6.00033 6.66667Z" stroke="#9B95A9" stroke-width="1.5" stroke-linecap="round" stroke-linejoin="round"/>
<path d="M1.78027 12.6333L5.06694 10.4266C5.59361 10.0733 6.35361 10.1133 6.82694 10.52L7.04694 10.7133C7.56694 11.16 8.40694 11.16 8.92694 10.7133L11.7003 8.33329C12.2203 7.88662 13.0603 7.88662 13.5803 8.33329L14.6669 9.26662" stroke="#9B95A9" stroke-width="1.5" stroke-linecap="round" stroke-linejoin="round"/>
</svg>
