<svg width="22" height="22" viewBox="0 0 22 22" fill="none" xmlns="http://www.w3.org/2000/svg">
<path d="M20.6258 11.2139C20.6258 10.4225 20.5603 9.84497 20.4185 9.24609H11.1973V12.818H16.6099C16.5008 13.7057 15.9115 15.0425 14.602 15.9408L14.5836 16.0603L17.4992 18.2738L17.7012 18.2936C19.5563 16.6145 20.6258 14.1441 20.6258 11.2139Z" fill="#4285F4"/>
<path d="M11.1976 20.6248C13.8494 20.6248 16.0755 19.7692 17.7016 18.2934L14.6024 15.9405C13.773 16.5073 12.6599 16.903 11.1976 16.903C8.60043 16.903 6.39609 15.224 5.61031 12.9033L5.49513 12.9129L2.46347 15.2122L2.42383 15.3202C4.03888 18.4644 7.35634 20.6248 11.1976 20.6248Z" fill="#34A853"/>
<path d="M5.60908 12.9038C5.40174 12.305 5.28175 11.6632 5.28175 11.0002C5.28175 10.3371 5.40174 9.69549 5.59817 9.09661L5.59268 8.96906L2.52303 6.63281L2.42259 6.67963C1.75695 7.98437 1.375 9.44953 1.375 11.0002C1.375 12.5509 1.75695 14.016 2.42259 15.3207L5.60908 12.9038Z" fill="#FBBC05"/>
<path d="M11.1977 5.09664C13.0419 5.09664 14.2859 5.87733 14.9953 6.52974L17.7671 3.8775C16.0648 2.32681 13.8494 1.375 11.1977 1.375C7.35637 1.375 4.03889 3.53526 2.42383 6.6794L5.59942 9.09638C6.39612 6.77569 8.60047 5.09664 11.1977 5.09664Z" fill="#EB4335"/>
</svg>
