<svg width="22" height="22" viewBox="0 0 22 22" fill="none" xmlns="http://www.w3.org/2000/svg">
<path fill-rule="evenodd" clip-rule="evenodd" d="M11 20.625C16.3157 20.625 20.625 16.3157 20.625 11C20.625 5.68426 16.3157 1.375 11 1.375C5.68426 1.375 1.375 5.68426 1.375 11C1.375 16.3157 5.68426 20.625 11 20.625Z" fill="#2BDE73"/>
<path fill-rule="evenodd" clip-rule="evenodd" d="M9.87045 9.24872L11.9493 6.32598C12.3423 5.77533 12.8497 5.5 13.4718 5.5C13.9792 5.5 14.4182 5.67467 14.7895 6.02413C15.1605 6.37359 15.3459 6.79188 15.3459 7.27901C15.3459 7.63908 15.2479 7.95683 15.0514 8.23216L13.177 10.8769L15.4688 13.6965C15.698 13.9771 15.8125 14.3055 15.8125 14.6813C15.8125 15.1792 15.6326 15.6065 15.2724 15.9639C14.9123 16.3215 14.4755 16.5 13.9628 16.5C13.4007 16.5 12.9725 16.3228 12.6777 15.9679L9.87045 12.5687V14.4431C9.87045 14.978 9.77504 15.3935 9.58399 15.6901C9.2348 16.23 8.72735 16.5 8.06177 16.5C7.45606 16.5 6.98662 16.3015 6.65396 15.9044C6.3429 15.539 6.1875 15.0544 6.1875 14.4511V7.50141C6.1875 6.92955 6.34551 6.45846 6.66215 6.08778C6.99495 5.69601 7.4532 5.5 8.03705 5.5C8.59369 5.5 9.05741 5.69601 9.42846 6.08778C9.63579 6.30476 9.76672 6.52451 9.82125 6.74692C9.85405 6.8847 9.87045 7.14134 9.87045 7.51733V9.24872Z" fill="white"/>
</svg>
