<svg width="121" height="34" viewBox="0 0 121 34" fill="none" xmlns="http://www.w3.org/2000/svg">
<path fill-rule="evenodd" clip-rule="evenodd" d="M92.1408 22.9496C93.8621 22.9496 94.8304 22.2946 95.6776 21.3723L94.2387 19.9286C93.647 20.49 93.0822 20.8376 92.2484 20.8376C90.9036 20.8376 90.0564 19.7815 90.0564 18.4581C90.0564 17.1615 90.9305 16.0788 92.1542 16.0788C93.1225 16.0788 93.6335 16.4263 94.1714 16.9343L95.6104 15.4906C94.8035 14.595 93.8083 13.9801 92.1677 13.9801C89.5184 13.9801 87.6357 15.9985 87.6357 18.4581C87.6357 20.9712 89.5454 22.9496 92.1408 22.9496ZM99.3623 22.9229C100.559 22.9229 101.38 22.4951 101.971 21.8267V22.7625H104.338V17.7764C104.338 16.6268 104.042 15.6777 103.397 15.0361C102.778 14.4212 101.81 14.0736 100.479 14.0736C99.0127 14.0736 98.0713 14.341 97.1165 14.7688L97.7351 16.6268C98.5285 16.3327 99.1875 16.159 100.129 16.159C101.353 16.159 101.985 16.7204 101.985 17.7363V17.8834C101.366 17.6695 100.747 17.5358 99.8734 17.5358C97.8293 17.5358 96.3903 18.4047 96.3903 20.2761C96.3903 21.9871 97.7351 22.9229 99.3623 22.9229ZM100.102 21.2386C99.3085 21.2386 98.7572 20.8509 98.7572 20.1959C98.7572 19.3939 99.4027 18.9795 100.452 18.9795C101.043 18.9795 101.595 19.1132 102.012 19.3003V19.7281C102.025 20.6103 101.245 21.2386 100.102 21.2386ZM106.1 22.7625H108.547V19.581C108.547 17.5224 109.542 16.5466 111.183 16.5466H111.318V13.9934C109.865 13.9266 109.058 14.7019 108.561 15.8916V14.1539H106.113V22.7625H106.1ZM115.863 22.9229C117.14 22.9229 117.961 22.3347 118.553 21.5327V22.7625H121V11.0526H118.553V15.2901C117.974 14.595 117.167 14.0068 115.863 14.0068C113.819 14.0068 111.923 15.5842 111.923 18.4448C111.923 21.3455 113.846 22.9229 115.863 22.9229ZM116.495 20.8509C115.352 20.8509 114.384 19.9018 114.384 18.4715C114.384 17.0011 115.352 16.0654 116.495 16.0654C117.638 16.0654 118.593 17.0145 118.593 18.4448C118.593 19.9018 117.638 20.8509 116.495 20.8509Z" fill="#FF783C"/>
<path fill-rule="evenodd" clip-rule="evenodd" d="M46.3237 22.9095C47.144 22.9095 47.7492 22.7224 48.2602 22.4149V20.4633C47.9105 20.6504 47.5071 20.7707 47.0499 20.7707C46.4985 20.7707 46.2565 20.5034 46.2565 19.9419V16.2659H48.2871V14.1806H46.2565V11.9883H43.8089V14.1806H42.7734V16.2659H43.8089V20.343C43.7955 22.308 44.8175 22.9095 46.3237 22.9095ZM53.7335 22.9496C56.4231 22.9496 58.4268 20.9445 58.4268 18.4715C58.4268 15.9718 56.4365 13.9934 53.7604 13.9934C51.0708 13.9934 49.0671 15.9986 49.0671 18.4715C49.0671 20.9846 51.0574 22.9496 53.7335 22.9496ZM53.7604 20.8509C52.4022 20.8509 51.4877 19.7414 51.4877 18.4715C51.4877 17.1749 52.3215 16.0921 53.7335 16.0921C55.0917 16.0921 56.0062 17.2016 56.0062 18.4715C56.0062 19.7815 55.1724 20.8509 53.7604 20.8509ZM62.7033 22.9229C63.9405 22.9229 64.6667 22.2679 65.2315 21.546V22.7625H67.679V14.1672H65.2315V18.9661C65.2315 20.1157 64.6398 20.7172 63.6984 20.7172C62.757 20.7172 62.2191 20.1291 62.2191 18.9661V14.1672H59.7716V19.7281C59.7716 21.7064 60.8474 22.9229 62.7033 22.9229ZM73.6095 22.9496C75.3309 22.9496 76.2991 22.2946 77.1463 21.3723L75.7074 19.9286C75.1157 20.49 74.5509 20.8376 73.7171 20.8376C72.3723 20.8376 71.5251 19.7815 71.5251 18.4581C71.5251 17.1615 72.3992 16.0788 73.623 16.0788C74.5912 16.0788 75.1022 16.4263 75.6402 16.9343L77.0791 15.4906C76.2722 14.595 75.2771 13.9801 73.6364 13.9801C70.9872 13.9801 69.1045 15.9985 69.1045 18.4581C69.1045 20.9712 71.0141 22.9496 73.6095 22.9496ZM78.3701 22.7625H80.8176V17.9636C80.8176 16.814 81.4093 16.2124 82.3507 16.2124C83.292 16.2124 83.8299 16.8006 83.8299 17.9636V22.7625H86.2775V17.2016C86.2775 15.2233 85.2016 14.0068 83.3458 14.0068C82.1086 14.0068 81.3824 14.6618 80.8176 15.3837V11.0526H78.3701V22.7625Z" fill="white"/>
<path fill-rule="evenodd" clip-rule="evenodd" d="M22.7361 0.518916C23.6774 -0.0157804 24.7533 -0.122711 25.7215 0.13127H25.735C26.7167 0.385251 27.5908 1.01352 28.1287 1.94924L36.3319 16.0786C36.8698 17.0143 36.9909 18.0837 36.7219 19.0595C36.4664 20.0353 35.8209 20.9042 34.8796 21.4389L13.968 33.4428C10.5792 35.3945 7.48615 31.7719 9.81264 29.4594L13.9546 25.3422C14.4522 24.8476 15.2456 24.8476 15.7432 25.3422C16.2407 25.8368 16.2407 26.6255 15.7432 27.1201L11.5743 31.3308C11.6281 31.5046 12.2871 31.5046 12.7039 31.264L33.6155 19.26C33.9517 19.0729 34.1803 18.7521 34.2744 18.4045C34.3685 18.057 34.3282 17.6693 34.1399 17.3351L25.9367 3.20578C25.735 2.87159 25.4257 2.64434 25.076 2.55077C24.7264 2.4572 24.3364 2.4973 24.0002 2.69781L3.23661 14.6082C2.90041 14.8087 2.67179 15.1161 2.57765 15.4637C2.49697 15.7711 2.51042 16.1053 2.65835 16.4128C2.91386 16.9742 2.69869 17.6158 2.17422 17.9233L2.03974 18.0035C1.74388 18.1773 1.40768 18.2174 1.08493 18.1104C0.748736 18.0035 0.506673 17.7896 0.358745 17.4822C-0.488473 15.6642 0.210825 13.4586 1.9725 12.4426L22.7361 0.518916ZM6.78686 30.5288L14.6404 22.7222C15.0977 22.2677 15.0977 21.5057 14.6404 21.0513L14.5329 20.9443C14.0756 20.4898 13.3091 20.4898 12.8519 20.9443L6.50444 27.2404C5.67067 28.0691 5.67067 29.4193 6.50444 30.248L6.78686 30.5288ZM4.75622 27.0265L13.605 18.2307C14.0622 17.7762 14.0622 17.0143 13.605 16.5598L13.4974 16.4529C13.0401 15.9984 12.2736 15.9984 11.8164 16.4529L4.48726 23.7381C3.65349 24.5669 3.65349 25.917 4.48726 26.7458L4.75622 27.0265ZM2.76592 23.4841L9.36886 16.9207C9.82609 16.4662 9.82609 15.7043 9.36886 15.2498L9.26127 15.1429C8.80404 14.6884 8.03751 14.6884 7.58028 15.1429L2.49697 20.1957C1.6632 21.0245 1.6632 22.3746 2.49697 23.2034L2.76592 23.4841Z" fill="white"/>
<path fill-rule="evenodd" clip-rule="evenodd" d="M20.5982 7.75068L23.9601 5.81241C24.3905 5.55843 24.9553 5.71884 25.2108 6.14659L27.349 9.82263C27.6045 10.2504 27.4431 10.8118 27.0128 11.0658L23.6508 13.0041C23.2205 13.2581 22.6557 13.0977 22.4136 12.6699L20.2754 8.99386C20.0199 8.55273 20.1678 7.99129 20.5982 7.75068Z" fill="#FF783C"/>
</svg>
