<svg id="Layer_1" data-name="Layer 1" xmlns="http://www.w3.org/2000/svg" viewBox="0 0 28 25.04"><defs><style>.cls-1{fill:#fff;}.cls-1,.cls-2{fill-rule:evenodd;}.cls-2{fill:#ff783c;}</style></defs><path class="cls-1" d="M17.27,1.86a3.12,3.12,0,0,1,2.27-.28h0a2.94,2.94,0,0,1,1.82,1.33L27.6,13.32a2.81,2.81,0,0,1,.3,2.2,2.88,2.88,0,0,1-1.4,1.75L10.61,26.11C8,27.55,5.69,24.88,7.45,23.18l3.15-3a1,1,0,0,1,1.36,0,.9.9,0,0,1,0,1.31L8.79,24.56c0,.12.54.12.86,0l15.89-8.85A1,1,0,0,0,26,15a1,1,0,0,0-.11-.78L19.7,3.84a1.09,1.09,0,0,0-1.47-.37L2.46,12.24a1,1,0,0,0-.5.63,1,1,0,0,0,.06.7.86.86,0,0,1-.37,1.11l-.1.06a.89.89,0,0,1-.73.08.91.91,0,0,1-.55-.46A2.86,2.86,0,0,1,1.5,10.64ZM5.16,24l6-5.75a.85.85,0,0,0,0-1.23L11,16.91a.93.93,0,0,0-1.28,0L4.94,21.54a1.54,1.54,0,0,0,0,2.22ZM3.61,21.39l6.72-6.48a.85.85,0,0,0,0-1.23l-.08-.08A.92.92,0,0,0,9,13.6L3.41,19a1.54,1.54,0,0,0,0,2.22ZM2.1,18.78l5-4.84a.87.87,0,0,0,0-1.23L7,12.63a1,1,0,0,0-1.28,0L1.9,16.35a1.52,1.52,0,0,0,0,2.22Z" transform="translate(0 -1.48)"/><path class="cls-2" d="M15.65,7.19,18.2,5.76a.71.71,0,0,1,.95.25l1.63,2.7a.67.67,0,0,1-.26.92L18,11.06a.7.7,0,0,1-.94-.25L15.4,8.1A.65.65,0,0,1,15.65,7.19Z" transform="translate(0 -1.48)"/></svg>