<svg width="40" height="40" viewBox="0 0 40 40" fill="none" xmlns="http://www.w3.org/2000/svg">
<circle cx="20" cy="20" r="20" fill="#E9FBF6"/>
<path d="M20 27.425C24.1421 27.425 27.5 24.0671 27.5 19.925C27.5 15.7829 24.1421 12.425 20 12.425C15.8579 12.425 12.5 15.7829 12.5 19.925C12.5 24.0671 15.8579 27.425 20 27.425Z" fill="#17BD8D"/>
<path d="M21.6951 20L20.5626 19.6025V17.06H20.8326C21.4401 17.06 21.9351 17.5925 21.9351 18.245C21.9351 18.5525 22.1901 18.8075 22.4976 18.8075C22.8051 18.8075 23.0601 18.5525 23.0601 18.245C23.0601 16.97 22.0626 15.935 20.8326 15.935H20.5626V15.5C20.5626 15.1925 20.3076 14.9375 20.0001 14.9375C19.6926 14.9375 19.4376 15.1925 19.4376 15.5V15.935H18.9501C17.8401 15.935 16.9326 16.8725 16.9326 18.02C16.9326 19.3625 17.7126 19.79 18.3051 20L19.4376 20.3975V22.9325H19.1676C18.5601 22.9325 18.0651 22.4 18.0651 21.7475C18.0651 21.44 17.8101 21.185 17.5026 21.185C17.1951 21.185 16.9401 21.44 16.9401 21.7475C16.9401 23.0225 17.9376 24.0575 19.1676 24.0575H19.4376V24.5C19.4376 24.8075 19.6926 25.0625 20.0001 25.0625C20.3076 25.0625 20.5626 24.8075 20.5626 24.5V24.065H21.0501C22.1601 24.065 23.0676 23.1275 23.0676 21.98C23.0601 20.63 22.2801 20.2025 21.6951 20ZM18.6801 18.9425C18.2976 18.8075 18.0651 18.68 18.0651 18.0275C18.0651 17.495 18.4626 17.0675 18.9576 17.0675H19.4451V19.2125L18.6801 18.9425ZM21.0501 22.94H20.5626V20.795L21.3201 21.0575C21.7026 21.1925 21.9351 21.32 21.9351 21.9725C21.9351 22.505 21.5376 22.94 21.0501 22.94Z" fill="white"/>
</svg>
