<svg width="40" height="40" viewBox="0 0 40 40" fill="none" xmlns="http://www.w3.org/2000/svg">
<circle cx="20" cy="20" r="20" fill="#FFF7EB"/>
<path d="M21.3719 23.2979C21.436 23.3159 21.5 23.2679 21.5 23.2014V16.3887C21.5 16.3204 21.433 16.2723 21.368 16.293C19.0778 17.0235 16.7647 16.949 16.7647 16.949L15.6292 16.9498C14.2918 16.9507 12.7635 17.1076 12.1278 18.2842C11.3225 19.7749 11.8031 21.8661 13.584 22.6202L12.3756 26.4317C12.2052 26.9573 12.5856 27.5 13.1243 27.5H14.6174C14.9571 27.5 15.2587 27.2765 15.3661 26.945L16.5848 23.1853C16.6922 22.8539 16.9931 22.6322 17.332 22.6569C18.0764 22.7111 19.5954 22.8013 21.3719 23.2979Z" fill="#FF783C"/>
<path d="M17.332 22.6569L17.2884 23.2553L17.332 22.6569ZM12.3756 26.4317L12.9464 26.6167L12.9475 26.6131L12.3756 26.4317ZM13.584 22.6202L14.1559 22.8016C14.2495 22.5064 14.1031 22.1885 13.8179 22.0677L13.584 22.6202ZM16.7647 16.949L16.784 16.3493L16.7741 16.349L16.7643 16.349L16.7647 16.949ZM21.3719 23.2979L21.2104 23.8758L21.3719 23.2979ZM20.9 16.3887V23.2014H22.1V16.3887H20.9ZM21.5335 22.7201C19.6927 22.2055 18.1193 22.1126 17.3755 22.0585L17.2884 23.2553C18.0335 23.3096 19.498 23.3971 21.2104 23.8758L21.5335 22.7201ZM16.014 23.0003L14.7953 26.76L15.9369 27.13L17.1555 23.3703L16.014 23.0003ZM14.6174 26.9H13.1243V28.1H14.6174V26.9ZM12.9475 26.6131L14.1559 22.8016L13.012 22.4389L11.8037 26.2504L12.9475 26.6131ZM15.6296 17.5498L16.7651 17.549L16.7643 16.349L15.6288 16.3498L15.6296 17.5498ZM16.7647 16.949C16.7453 17.5487 16.7455 17.5487 16.7456 17.5487C16.7456 17.5487 16.7458 17.5487 16.7459 17.5487C16.7461 17.5487 16.7463 17.5487 16.7466 17.5487C16.7471 17.5488 16.7478 17.5488 16.7487 17.5488C16.7503 17.5488 16.7526 17.5489 16.7554 17.549C16.7609 17.5491 16.7687 17.5493 16.7786 17.5495C16.7984 17.55 16.8268 17.5504 16.8631 17.5508C16.9358 17.5514 17.0404 17.5515 17.1724 17.5491C17.4362 17.5445 17.8103 17.5305 18.2578 17.4928C19.1493 17.4179 20.348 17.2481 21.5503 16.8646L21.1857 15.7214C20.0978 16.0684 18.9949 16.2266 18.1572 16.2971C17.7401 16.3321 17.3928 16.3451 17.1514 16.3493C17.0307 16.3514 16.9367 16.3514 16.8739 16.3508C16.8426 16.3505 16.819 16.3501 16.8038 16.3498C16.7962 16.3496 16.7907 16.3495 16.7874 16.3494C16.7857 16.3494 16.7846 16.3493 16.784 16.3493C16.7837 16.3493 16.7836 16.3493 16.7836 16.3493C16.7836 16.3493 16.7836 16.3493 16.7837 16.3493C16.7837 16.3493 16.7838 16.3493 16.7838 16.3493C16.7839 16.3493 16.784 16.3493 16.7647 16.949ZM13.8179 22.0677C12.4109 21.4719 11.9927 19.7966 12.6557 18.5694L11.5999 17.9991C10.6522 19.7532 11.1954 22.2604 13.35 23.1727L13.8179 22.0677ZM13.1243 26.9C13.0165 26.9 12.8943 26.7773 12.9464 26.6167L11.8048 26.2467C11.5162 27.1373 12.1547 28.1 13.1243 28.1V26.9ZM14.7953 26.76C14.7653 26.8527 14.688 26.9 14.6174 26.9V28.1C15.2262 28.1 15.7521 27.7002 15.9369 27.13L14.7953 26.76ZM17.3755 22.0585C16.7325 22.0117 16.1974 22.4344 16.014 23.0003L17.1555 23.3703C17.1707 23.3235 17.1967 23.2927 17.2207 23.2755C17.2434 23.2593 17.2655 23.2537 17.2884 23.2553L17.3755 22.0585ZM15.6288 16.3498C14.947 16.3502 14.1594 16.389 13.4448 16.6009C12.7204 16.8156 12.0179 17.2254 11.5999 17.9991L12.6557 18.5694C12.8734 18.1665 13.2529 17.9094 13.7859 17.7514C14.3286 17.5904 14.9739 17.5502 15.6296 17.5498L15.6288 16.3498ZM20.9 23.2014C20.9 22.8652 21.2204 22.6326 21.5335 22.7201L21.2104 23.8758C21.6517 23.9992 22.1 23.6707 22.1 23.2014H20.9ZM22.1 16.3887C22.1 15.9071 21.631 15.5794 21.1857 15.7214L21.5503 16.8646C21.235 16.9652 20.9 16.7338 20.9 16.3887H22.1Z" fill="#FF783C"/>
<mask id="mask0_7920_39600" style="mask-type:alpha" maskUnits="userSpaceOnUse" x="24" y="13" width="5" height="13">
<path d="M24.0781 13.4029H28.9996V25.684H24.0781V13.4029Z" fill="white"/>
</mask>
<g mask="url(#mask0_7920_39600)">
<circle opacity="0.4" cx="23.2583" cy="19.9649" r="5.14171" stroke="#FF783C" stroke-width="1.2"/>
<circle opacity="0.4" cx="23.2576" cy="19.9648" r="1.86073" stroke="#FF783C" stroke-width="1.2"/>
</g>
</svg>
