<svg width="40" height="40" viewBox="0 0 40 40" fill="none" xmlns="http://www.w3.org/2000/svg">
<circle cx="20" cy="20" r="20" fill="#E9F6FF"/>
<path d="M26.7275 17H24.5225C23.57 17 23 16.43 23 15.4775V13.2725C23 12.32 23.57 11.75 24.5225 11.75H26.7275C27.68 11.75 28.25 12.32 28.25 13.2725V15.4775C28.25 16.43 27.68 17 26.7275 17ZM26.8925 14.5175C26.8025 14.4275 26.6825 14.3825 26.5625 14.3825C26.4425 14.3825 26.3225 14.4275 26.2325 14.5175L26.0975 14.6525V12.9725C26.0975 12.71 25.8875 12.5 25.625 12.5C25.3625 12.5 25.1525 12.71 25.1525 12.9725V14.6525L25.0175 14.5175C24.8375 14.3375 24.5375 14.3375 24.3575 14.5175C24.1775 14.6975 24.1775 14.9975 24.3575 15.1775L25.295 16.115C25.3325 16.1525 25.385 16.1825 25.4375 16.205C25.4525 16.2125 25.4675 16.2125 25.4825 16.22C25.52 16.235 25.5575 16.2425 25.6025 16.2425C25.6175 16.2425 25.6325 16.2425 25.6475 16.2425C25.7 16.2425 25.745 16.235 25.7975 16.2125C25.805 16.2125 25.805 16.2125 25.8125 16.2125C25.865 16.19 25.91 16.16 25.9475 16.1225C25.955 16.115 25.955 16.115 25.9625 16.115L26.9 15.1775C27.08 14.9975 27.08 14.6975 26.8925 14.5175Z" fill="#219FFF"/>
<path opacity="0.4" d="M27.5 16.8275V17.75H12.5V16.655C12.5 14.9375 13.895 13.55 15.6125 13.55H23V15.4775C23 16.43 23.57 17 24.5225 17H26.7275C27.0275 17 27.2825 16.9475 27.5 16.8275Z" fill="#219FFF"/>
<path d="M12.5 17.75V23.345C12.5 25.0625 13.895 26.45 15.6125 26.45H24.3875C26.105 26.45 27.5 25.0625 27.5 23.345V17.75H12.5ZM17 23.9375H15.5C15.1925 23.9375 14.9375 23.6825 14.9375 23.375C14.9375 23.0675 15.1925 22.8125 15.5 22.8125H17C17.3075 22.8125 17.5625 23.0675 17.5625 23.375C17.5625 23.6825 17.3075 23.9375 17 23.9375ZM21.875 23.9375H18.875C18.5675 23.9375 18.3125 23.6825 18.3125 23.375C18.3125 23.0675 18.5675 22.8125 18.875 22.8125H21.875C22.1825 22.8125 22.4375 23.0675 22.4375 23.375C22.4375 23.6825 22.1825 23.9375 21.875 23.9375Z" fill="#219FFF"/>
</svg>
