<svg width="40" height="40" viewBox="0 0 40 40" fill="none" xmlns="http://www.w3.org/2000/svg">
<circle cx="20" cy="20" r="20" fill="#FFEDEC"/>
<path d="M20 27.5C24.1421 27.5 27.5 24.1421 27.5 20C27.5 15.8579 24.1421 12.5 20 12.5C15.8579 12.5 12.5 15.8579 12.5 20C12.5 24.1421 15.8579 27.5 20 27.5Z" fill="#FF4E3E"/>
<path d="M20 21.3125C20.3075 21.3125 20.5625 21.0575 20.5625 20.75V17C20.5625 16.6925 20.3075 16.4375 20 16.4375C19.6925 16.4375 19.4375 16.6925 19.4375 17V20.75C19.4375 21.0575 19.6925 21.3125 20 21.3125Z" fill="white"/>
<path d="M20.69 22.715C20.6525 22.625 20.6 22.5425 20.5325 22.4675C20.4575 22.4 20.375 22.3475 20.285 22.31C20.105 22.235 19.895 22.235 19.715 22.31C19.625 22.3475 19.5425 22.4 19.4675 22.4675C19.4 22.5425 19.3475 22.625 19.31 22.715C19.2725 22.805 19.25 22.9025 19.25 23C19.25 23.0975 19.2725 23.195 19.31 23.285C19.3475 23.3825 19.4 23.4575 19.4675 23.5325C19.5425 23.6 19.625 23.6525 19.715 23.69C19.805 23.7275 19.9025 23.75 20 23.75C20.0975 23.75 20.195 23.7275 20.285 23.69C20.375 23.6525 20.4575 23.6 20.5325 23.5325C20.6 23.4575 20.6525 23.3825 20.69 23.285C20.7275 23.195 20.75 23.0975 20.75 23C20.75 22.9025 20.7275 22.805 20.69 22.715Z" fill="white"/>
</svg>
