<svg width="40" height="40" viewBox="0 0 40 40" fill="none" xmlns="http://www.w3.org/2000/svg">
<circle cx="20" cy="20" r="20" fill="white"/>
<g clip-path="url(#clip0_7920_39558)">
<path d="M18.2676 27.966C18.6134 28.5841 19.2597 29 20 29C20.7403 29 21.3866 28.5841 21.7324 27.966M18.2676 27.966H17V23H23V27.966H21.7324M18.2676 27.966H21.7324" stroke="#FFA114" stroke-width="2"/>
<path opacity="0.4" d="M20 11.75C16.6863 11.75 14 14.4489 14 17.7782C14 20.0095 15.2066 21.9577 17 23H23C24.7934 21.9577 26 20.0095 26 17.7782C26 14.4489 23.3137 11.75 20 11.75Z" stroke="#FFA114" stroke-width="2"/>
<path d="M17 25.25H23" stroke="#FFA114"/>
<path opacity="0.4" d="M20 23V19M20 19L17.75 17M20 19L22.25 17" stroke="#FFA114"/>
</g>
<defs>
<clipPath id="clip0_7920_39558">
<rect width="18" height="18" fill="white" transform="translate(11 11)"/>
</clipPath>
</defs>
</svg>
