<svg width="18" height="18" viewBox="0 0 18 18" fill="none" xmlns="http://www.w3.org/2000/svg">
<path d="M12.7275 9.1875V12.5625C12.7275 15.375 11.6025 16.5 8.79004 16.5H5.41504C2.60254 16.5 1.47754 15.375 1.47754 12.5625V9.1875C1.47754 6.375 2.60254 5.25 5.41504 5.25H8.79004C11.6025 5.25 12.7275 6.375 12.7275 9.1875Z" stroke="#483D5E" stroke-width="1.5" stroke-linecap="round" stroke-linejoin="round"/>
<path d="M16.4775 5.625C16.4775 7.7775 14.835 9.54 12.7275 9.7275V9.1875C12.7275 6.375 11.6025 5.25 8.79 5.25H8.25C8.4375 3.1425 10.2 1.5 12.3525 1.5C14.445 1.5 16.17 3.0525 16.4325 5.0775C16.4625 5.25 16.4775 5.4375 16.4775 5.625Z" stroke="#483D5E" stroke-width="1.5" stroke-linecap="round" stroke-linejoin="round"/>
</svg>
