<svg width="32" height="32" viewBox="0 0 32 32" fill="none" xmlns="http://www.w3.org/2000/svg">
<path fill-rule="evenodd" clip-rule="evenodd" d="M12.9335 11.2431C12.9173 11.2431 12.886 11.2431 12.8698 11.2431C12.6011 11.2103 12.38 10.9641 12.38 10.6852C12.3638 10.4225 12.2213 4.28453 15.6838 2.88959C16.5535 2.54491 17.3606 2.61052 18.0404 3.11938C18.8777 3.7266 19.4787 4.94103 19.8423 6.7135C20.0948 7.96079 20.1423 9.04391 20.1423 9.09319C20.1585 9.35573 19.9535 9.55277 19.6837 9.50348C19.4151 9.47062 19.1939 9.22452 19.1939 8.96187C19.1464 7.8459 18.7828 4.77696 17.5818 3.89067C17.202 3.61171 16.7272 3.57885 16.1586 3.80863C13.1859 5.00664 13.3284 10.7672 13.3284 10.8328C13.3284 11.0626 13.1709 11.2431 12.9335 11.2431Z" fill="#595961"/>
<path opacity="0.46" fill-rule="evenodd" clip-rule="evenodd" d="M17.865 3.15249C17.2327 2.69292 16.4903 2.62731 15.6832 2.93914C14.2761 3.51349 13.2802 5.02343 12.7904 7.32109C12.4268 9.01142 12.4742 10.5378 12.4742 10.6034C12.4742 10.6854 12.5055 10.7676 12.5692 10.8332C12.6317 10.8988 12.6954 10.9481 12.7742 10.9481C12.7904 10.9481 12.8066 10.9481 12.8217 10.9481C12.9641 10.9481 13.0752 10.8332 13.0752 10.6854C13.0752 10.6198 12.9328 4.76079 15.9843 3.52993C16.6004 3.28382 17.1377 3.31657 17.5812 3.64482C18.8609 4.58029 19.2407 7.7478 19.2881 8.8802C19.2881 9.04427 19.4306 9.20845 19.6043 9.22477C19.7629 9.2412 19.8891 9.12631 19.8891 8.96224C19.873 8.76531 19.6993 4.49825 17.865 3.15249Z" fill="#B2B2C2"/>
<path opacity="0.46" fill-rule="evenodd" clip-rule="evenodd" d="M12.7906 10.7511C12.7744 10.7511 12.7745 10.7511 12.7593 10.7511C12.6644 10.7347 12.5845 10.6362 12.5694 10.5377C12.5694 10.472 12.522 8.97864 12.8856 7.2882C13.3593 5.03983 14.3562 3.54632 15.7309 2.98829C16.5056 2.67646 17.2016 2.74218 17.8026 3.1689C19.5733 4.46537 19.747 8.66681 19.747 8.84731C19.747 8.94578 19.6682 9.01138 19.5733 8.99506C19.4783 8.97864 19.3995 8.8966 19.3833 8.78171C19.3833 8.73242 19.2096 4.61312 17.6127 3.43143C17.1379 3.08686 16.5531 3.03757 15.8895 3.30011C12.7906 4.59669 12.9331 10.5377 12.9331 10.6034C12.9482 10.6854 12.8856 10.7511 12.7906 10.7511Z" fill="#B2B2C2"/>
<path opacity="0.62" fill-rule="evenodd" clip-rule="evenodd" d="M14.0715 6.05759C14.1977 5.81149 14.3239 5.56527 14.4351 5.30273C14.3876 5.38477 14.0714 6.2382 13.1068 6.10688C13.0906 6.10688 13.6755 6.28738 14.0715 6.05759Z" fill="#595961"/>
<path opacity="0.62" fill-rule="evenodd" clip-rule="evenodd" d="M13.7229 7.10786C13.8178 6.84521 13.9128 6.56625 13.9764 6.30371C13.9452 6.40218 13.7865 7.28836 12.7744 7.28836C12.7744 7.28836 13.3593 7.40325 13.7229 7.10786Z" fill="#595961"/>
<path opacity="0.62" fill-rule="evenodd" clip-rule="evenodd" d="M19.2724 4.98998C19.1462 4.69448 19.0037 4.41551 18.8613 4.12012C18.9087 4.21858 19.3835 5.15405 18.8462 5.82688C18.8462 5.82688 19.2573 5.49873 19.2724 4.98998Z" fill="#595961"/>
<path opacity="0.62" fill-rule="evenodd" clip-rule="evenodd" d="M18.4037 3.51364C18.1501 3.30028 17.8976 3.10335 17.644 2.92285C17.739 3.00489 18.5774 3.61211 18.5299 4.53125C18.5137 4.53125 18.6562 3.98964 18.4037 3.51364Z" fill="#595961"/>
<path opacity="0.62" fill-rule="evenodd" clip-rule="evenodd" d="M14.5296 5.15472C14.7195 4.95779 14.877 4.74444 15.0507 4.51465C14.9881 4.58026 14.466 5.25319 13.5337 5.00697C13.5337 5.00697 14.071 5.30247 14.5296 5.15472Z" fill="#595961"/>
<path opacity="0.62" fill-rule="evenodd" clip-rule="evenodd" d="M15.1145 4.39938C15.3357 4.23531 15.5408 4.07113 15.7468 3.89062C15.6681 3.93991 15.0196 4.48141 14.1187 4.08755C14.1187 4.08755 14.6398 4.46499 15.1145 4.39938Z" fill="#595961"/>
<path opacity="0.62" fill-rule="evenodd" clip-rule="evenodd" d="M15.968 3.85767C16.2366 3.77563 16.4902 3.67717 16.7427 3.5787C16.6478 3.61145 15.8417 3.90685 15.0508 3.2832C15.067 3.2832 15.4781 3.77563 15.968 3.85767Z" fill="#595961"/>
<path opacity="0.62" fill-rule="evenodd" clip-rule="evenodd" d="M16.7434 3.56275C16.9646 3.59561 17.1858 3.61204 17.407 3.62847C17.3282 3.61204 16.6322 3.56275 16.2373 2.90625C16.2373 2.90625 16.396 3.34939 16.7434 3.56275Z" fill="#595961"/>
<path opacity="0.62" fill-rule="evenodd" clip-rule="evenodd" d="M17.6602 3.92283C17.8177 4.10344 17.9925 4.28394 18.1813 4.44801C18.1187 4.3824 17.5814 3.84079 17.7077 3.16797C17.6915 3.16797 17.5178 3.5454 17.6602 3.92283Z" fill="#595961"/>
<path opacity="0.74" fill-rule="evenodd" clip-rule="evenodd" d="M19.5733 8.76511C19.5733 8.5845 19.3996 4.43234 17.6764 3.16873C17.3441 2.92251 16.9804 2.80762 16.6006 2.80762C16.3157 2.80762 16.0158 2.87322 15.6996 3.00455C14.3239 3.54616 13.3593 5.00681 12.8856 7.23875C12.522 8.91275 12.5694 10.4063 12.5694 10.4719C12.5694 10.5212 12.6169 10.5703 12.6644 10.5703H12.6795C12.7269 10.5703 12.7593 10.5376 12.7593 10.4883C12.7593 10.4227 12.6007 4.43234 15.7784 3.1523C16.4743 2.87322 17.0754 2.92251 17.5814 3.29994C19.2247 4.49805 19.3995 8.68307 19.3995 8.73225C19.3995 8.78154 19.447 8.83071 19.4945 8.83071C19.4945 8.83071 19.4945 8.83071 19.5096 8.83071C19.542 8.84714 19.5733 8.81429 19.5733 8.76511Z" fill="url(#paint0_linear_11384_1428)"/>
<path fill-rule="evenodd" clip-rule="evenodd" d="M19.842 6.71363C19.4784 4.94115 18.8774 3.74304 18.0401 3.1194C17.5815 2.79125 17.0906 2.6435 16.5532 2.67636C16.9805 2.70911 17.3754 2.85686 17.739 3.1194C18.5774 3.72672 19.1785 4.94115 19.5421 6.71363C19.7946 7.96092 19.842 9.04403 19.842 9.09332C19.842 9.29025 19.7471 9.438 19.5885 9.48717C19.6208 9.5036 19.6522 9.5036 19.6683 9.5036C19.937 9.53646 20.142 9.35585 20.1269 9.09332C20.142 9.04403 20.0945 7.97735 19.842 6.71363Z" fill="url(#paint1_linear_11384_1428)"/>
<path fill-rule="evenodd" clip-rule="evenodd" d="M15.8582 3.8092C12.8856 5.00721 13.028 10.7678 13.028 10.8334C13.028 11.0303 12.933 11.1781 12.7744 11.2272C12.8068 11.2437 12.8219 11.2437 12.8543 11.2437C12.8694 11.2437 12.9018 11.2437 12.9169 11.2437C13.1542 11.2437 13.3117 11.0632 13.3117 10.8334C13.3117 10.7678 13.1704 5.02364 16.142 3.82563C16.3481 3.7436 16.538 3.69431 16.7117 3.67788C16.4581 3.6287 16.1744 3.67788 15.8582 3.8092Z" fill="url(#paint2_linear_11384_1428)"/>
<path fill-rule="evenodd" clip-rule="evenodd" d="M20.3632 5.23654L6.95653 9.53635C6.95653 9.53635 6.3879 9.70053 6.24547 9.88103C6.10304 10.0615 6.07174 10.5703 6.07174 10.5703L4 27.1462L19.5571 30.1659L20.7592 5.22011C20.5855 5.18726 20.4107 5.22011 20.3632 5.23654Z" fill="url(#paint3_linear_11384_1428)"/>
<path fill-rule="evenodd" clip-rule="evenodd" d="M24.9964 7.36963C24.9964 7.36963 24.9802 7.23831 24.9014 7.18913C24.8377 7.13984 24.7589 7.13984 24.7589 7.13984L22.561 6.97577L20.949 5.31819C20.8853 5.26891 20.8217 5.23616 20.7429 5.21973L19.542 30.1656L27.9679 28.2782L24.9964 7.36963Z" fill="url(#paint4_linear_11384_1428)"/>
<path fill-rule="evenodd" clip-rule="evenodd" d="M14.8299 19.0881C14.5925 18.7598 14.3087 18.4644 14.0239 18.2018C13.739 17.9392 13.4391 17.7259 13.138 17.529C12.933 17.3976 12.7431 17.2663 12.5845 17.135C12.427 17.0038 12.3007 16.8724 12.2058 16.7576C12.1108 16.6262 12.032 16.5113 11.9845 16.3801C11.9371 16.2488 11.9209 16.1175 11.9209 15.9862C11.9209 15.8057 11.9684 15.6252 12.032 15.4774C12.0946 15.3298 12.2057 15.1984 12.3158 15.0835C12.4431 14.9687 12.5845 14.8866 12.7593 14.821C12.933 14.7553 13.138 14.7225 13.3592 14.7061C13.5966 14.6897 13.834 14.7061 14.0552 14.7225C14.2764 14.7389 14.4824 14.7882 14.6875 14.8373C14.8774 14.8866 15.0672 14.9522 15.2248 15.0179C15.3834 15.0836 15.5409 15.1492 15.6521 15.2149L16.6955 11.9982C16.538 11.9161 16.3481 11.834 16.142 11.7848C15.9208 11.7191 15.6834 11.6699 15.4147 11.6371C15.146 11.6043 14.8612 11.5879 14.5612 11.5879C14.2612 11.5879 13.9451 11.6043 13.6128 11.6535C12.9017 11.752 12.2683 11.9489 11.6997 12.2443C11.1624 12.5234 10.6876 12.8844 10.2927 13.3275C9.91285 13.7542 9.61287 14.2465 9.39167 14.8046C9.18558 15.3462 9.05936 15.9534 9.02807 16.6098C9.01189 17.0038 9.04317 17.3648 9.13812 17.693C9.21689 18.0213 9.3442 18.3331 9.51792 18.6285C9.67545 18.9239 9.88153 19.1865 10.1027 19.4326C10.3239 19.6789 10.5926 19.9086 10.8613 20.122C11.0825 20.2861 11.2724 20.4501 11.431 20.5979C11.5885 20.7456 11.7159 20.8933 11.8098 21.0575C11.9047 21.2051 11.9683 21.3529 12.0158 21.5169C12.0633 21.6647 12.0795 21.8288 12.0633 21.9929C12.0633 22.157 12.0159 22.3211 11.9522 22.4524C11.8896 22.5837 11.8097 22.715 11.6835 22.8135C11.5734 22.912 11.431 22.9776 11.2724 23.0104C11.1149 23.0432 10.925 23.0596 10.7189 23.0269C10.4826 22.994 10.2452 22.9284 10.024 22.8298C9.80277 22.7478 9.58055 22.6329 9.37553 22.518C9.17052 22.4032 8.98062 22.2719 8.822 22.157C8.64828 22.0421 8.50583 21.9108 8.39577 21.8123L7.68359 24.2577C7.79473 24.4218 7.9523 24.5696 8.12602 24.7172C8.30082 24.865 8.50586 25.0126 8.74324 25.1603C8.98062 25.2917 9.23311 25.4229 9.50178 25.5378C9.77046 25.6527 10.0715 25.7511 10.3714 25.8333H10.3876H10.4027H10.4189H10.4351C11.0825 25.9809 11.6997 26.0138 12.2845 25.9317C12.8855 25.8496 13.439 25.6362 13.9127 25.3081C14.4026 24.9634 14.7986 24.5038 15.0985 23.8966C15.3996 23.2894 15.5733 22.5509 15.6046 21.7139C15.6208 21.1887 15.5571 20.7292 15.4147 20.3025C15.2723 19.8102 15.0673 19.4326 14.8299 19.0881Z" fill="url(#paint5_linear_11384_1428)"/>
<path opacity="0.226763" fill-rule="evenodd" clip-rule="evenodd" d="M7.78644 24.3914C7.74975 24.3479 7.71519 24.3035 7.6839 24.2579L8.39608 21.8124C8.40579 21.8216 8.41657 21.831 8.42736 21.8407C8.5331 21.9352 8.66477 22.0529 8.82231 22.1571C8.98092 22.272 9.17083 22.4033 9.37584 22.5182C9.58085 22.633 9.80307 22.7479 10.0243 22.8301C10.2455 22.9285 10.4829 22.9941 10.7192 23.027C10.9253 23.0597 11.1152 23.0434 11.2727 23.0106C11.4313 22.9777 11.5738 22.9121 11.6838 22.8136C11.8101 22.7152 11.8899 22.5838 11.9525 22.4525C12.0162 22.3212 12.0636 22.1571 12.0636 21.9931C12.0798 21.8289 12.0636 21.6648 12.0161 21.5171C11.9686 21.353 11.905 21.2052 11.8101 21.0576C11.7205 20.9016 11.6018 20.7605 11.454 20.62C11.5317 20.7078 11.5975 20.7978 11.6525 20.8934C11.7475 21.0412 11.8101 21.1888 11.8575 21.353C11.905 21.5006 11.9212 21.6648 11.905 21.8289C11.905 21.9931 11.8576 22.1571 11.795 22.2884C11.7313 22.4198 11.6525 22.551 11.5263 22.6495C11.4151 22.7479 11.2727 22.8136 11.1152 22.8464C10.9566 22.8792 10.7667 22.8957 10.5617 22.8628C10.3243 22.8301 10.0869 22.7643 9.86569 22.6659C9.64449 22.5838 9.42328 22.4689 9.21719 22.3541C9.01218 22.2392 8.82231 22.1079 8.66478 21.9931C8.50616 21.8888 8.37452 21.7711 8.26878 21.6766C8.25799 21.667 8.24822 21.6575 8.23743 21.6484L7.52637 24.0937C7.5965 24.1981 7.68609 24.296 7.78644 24.3914ZM10.116 19.4477C10.0567 19.3889 9.99948 19.3294 9.94445 19.2687C9.72325 19.0225 9.51825 18.7599 9.35964 18.4645C9.18592 18.169 9.05966 17.8572 8.98089 17.5291C8.88594 17.2008 8.85354 16.8397 8.86972 16.4458C8.90102 15.7893 9.02838 15.1821 9.23339 14.6405C9.45459 14.0826 9.75565 13.5903 10.1344 13.1636C10.5304 12.7204 11.004 12.3593 11.5414 12.0803C12.1111 11.7849 12.7434 11.588 13.4544 11.4895C13.7868 11.4403 14.103 11.4238 14.4029 11.4238C14.704 11.4238 14.9888 11.4403 15.2575 11.4731C15.5262 11.506 15.7636 11.5551 15.9848 11.6209C16.1898 11.67 16.3797 11.7521 16.5383 11.8341L16.5135 11.9109C16.3991 11.8612 16.2739 11.8164 16.1423 11.7849C15.9211 11.7193 15.6837 11.67 15.415 11.6372C15.1463 11.6044 14.8615 11.588 14.5615 11.588C14.2615 11.588 13.9454 11.6044 13.6131 11.6536C12.902 11.7521 12.2686 11.949 11.7 12.2445C11.1627 12.5235 10.6879 12.8845 10.293 13.3276C9.91316 13.7543 9.61317 14.2467 9.39197 14.8047C9.18588 15.3463 9.05967 15.9535 9.02838 16.6099C9.01219 17.0039 9.04347 17.3649 9.13842 17.6931C9.21719 18.0214 9.3445 18.3332 9.51822 18.6286C9.67576 18.924 9.88184 19.1866 10.103 19.4328C10.1074 19.4377 10.1117 19.4427 10.116 19.4477ZM12.2632 16.8249C12.3495 16.9225 12.4575 17.0288 12.5848 17.1351C12.7434 17.2664 12.9333 17.3977 13.1383 17.5291C13.4394 17.726 13.7393 17.9394 14.0242 18.2019C14.1073 18.2783 14.1893 18.3575 14.2713 18.4395C14.1396 18.298 14.0026 18.1641 13.8655 18.0378C13.5818 17.7752 13.2808 17.5618 12.9808 17.3649C12.7747 17.2336 12.5848 17.1024 12.4273 16.971C12.3679 16.9221 12.3139 16.8731 12.2632 16.8249Z" fill="black"/>
<path opacity="0.41" fill-rule="evenodd" clip-rule="evenodd" d="M23.0979 25.5212L22.5606 6.97594L22.4656 6.87748L22.7192 25.2586C22.7192 25.2586 20.49 28.7707 20.1577 28.6722C19.6678 28.5246 21.1223 5.49886 21.1223 5.49886L20.9637 5.33479C20.9011 5.28551 20.8213 5.25276 20.7587 5.23633L19.5728 29.8375L19.5566 30.1822L19.9677 29.6405L23.0979 25.5212Z" fill="url(#paint6_linear_11384_1428)"/>
<path fill-rule="evenodd" clip-rule="evenodd" d="M17.0431 6.30384C16.8542 7.07512 16.6169 7.79724 16.4432 8.24038C16.332 8.50303 16.4583 8.74913 16.6957 8.78199C16.9492 8.81485 17.233 8.63424 17.328 8.3717C17.3441 8.32242 17.7703 7.25573 18.0401 5.99201V5.97559L17.0431 6.30384Z" fill="url(#paint7_linear_11384_1428)"/>
<path fill-rule="evenodd" clip-rule="evenodd" d="M9.91298 8.60117C9.69178 9.09349 9.47058 9.52021 9.31197 9.81561C9.17062 10.0618 9.24937 10.3244 9.48675 10.39C9.72305 10.4721 10.0392 10.3244 10.1816 10.0781C10.1978 10.0454 10.6564 9.24124 11.0675 8.22363L9.91298 8.60117Z" fill="url(#paint8_linear_11384_1428)"/>
<path opacity="0.32" fill-rule="evenodd" clip-rule="evenodd" d="M19.5566 30.1661L23.0979 25.5215L27.9999 28.2787L19.5566 30.1661Z" fill="url(#paint9_linear_11384_1428)"/>
<path opacity="0.19" fill-rule="evenodd" clip-rule="evenodd" d="M19.5566 30.1661L23.0666 25.5215L27.9999 28.2787L19.5566 30.1661Z" fill="url(#paint10_linear_11384_1428)"/>
<path opacity="0.19" fill-rule="evenodd" clip-rule="evenodd" d="M19.5566 30.1661L23.0666 25.5215L27.9999 28.2787L19.5566 30.1661Z" fill="url(#paint11_linear_11384_1428)"/>
<path opacity="0.6" fill-rule="evenodd" clip-rule="evenodd" d="M16.1106 17.1676C17.9449 19.7442 19.1781 22.5342 19.7942 25.2422L20.7589 5.20346C20.5852 5.17071 20.4104 5.20347 20.3629 5.21989L6.95629 9.53624C6.95629 9.53624 6.83 9.56898 6.67139 9.6347C10.0713 10.8491 13.4703 13.4586 16.1106 17.1676Z" fill="url(#paint12_linear_11384_1428)"/>
<path fill-rule="evenodd" clip-rule="evenodd" d="M24.9165 7.20607C24.9963 7.27178 24.9964 7.37025 24.9964 7.37025L27.9366 28.2623L23.0984 25.5052L22.561 6.95996L24.7277 7.12403C24.7428 7.14046 24.8377 7.14046 24.9165 7.20607Z" fill="url(#paint13_linear_11384_1428)"/>
<path fill-rule="evenodd" clip-rule="evenodd" d="M24.569 7.2557C24.569 7.2557 24.664 7.2557 24.7427 7.33774C24.8215 7.40345 24.8376 7.50192 24.8376 7.50192L27.7315 28.1643L27.9528 28.2956L25.0114 7.38703C25.0114 7.38703 24.9963 7.28856 24.9326 7.22295C24.8538 7.15724 24.7427 7.15724 24.7427 7.15724L22.5771 6.99316L24.569 7.2557Z" fill="url(#paint14_linear_11384_1428)"/>
<path fill-rule="evenodd" clip-rule="evenodd" d="M4 27.1458L19.5571 30.1655L20.3167 13.0645L5.93462 13.4733L4 27.1458Z" fill="url(#paint15_linear_11384_1428)"/>
<path opacity="0.3" fill-rule="evenodd" clip-rule="evenodd" d="M9.10698 9.77553C8.96563 10.1744 9.1048 10.5935 9.41987 10.7119C9.73386 10.8301 10.1029 10.6027 10.2453 10.2039C10.3867 9.80506 10.2464 9.38586 9.93244 9.26764C9.61844 9.14931 9.24833 9.37673 9.10698 9.77553Z" fill="white"/>
<path opacity="0.89" fill-rule="evenodd" clip-rule="evenodd" d="M9.08972 9.58618C8.94837 9.98498 9.08862 10.4042 9.40261 10.5224C9.7166 10.6407 10.0867 10.4133 10.2281 10.0145C10.3694 9.61561 10.2302 9.1964 9.91518 9.07818C9.60119 8.95985 9.23215 9.18728 9.08972 9.58618Z" fill="black"/>
<path fill-rule="evenodd" clip-rule="evenodd" d="M22.5768 6.97577L20.9637 5.31819C20.9011 5.26891 20.8213 5.23616 20.7587 5.21973L19.5566 30.1656L23.1141 25.5045L22.5768 6.97577Z" fill="url(#paint16_linear_11384_1428)"/>
<path fill-rule="evenodd" clip-rule="evenodd" d="M20.3634 5.23697L6.95677 9.53677C6.95677 9.53677 6.38813 9.70095 6.2457 9.88146C6.22952 9.89788 6.22946 9.91431 6.21436 9.93074L19.7311 6.05754C19.8422 6.02468 20.1109 5.92622 20.0796 6.73037L19.2574 30.1335L19.5423 30.1828L20.7432 5.23697C20.5857 5.18768 20.4109 5.22054 20.3634 5.23697Z" fill="url(#paint17_linear_11384_1428)"/>
<path fill-rule="evenodd" clip-rule="evenodd" d="M20.3634 5.23697L6.95677 9.53677C6.95677 9.53677 6.38813 9.70095 6.2457 9.88146C6.22952 9.89788 6.22946 9.91431 6.21436 9.93074L9.34455 9.02802L20.1109 5.56522C20.1584 5.54879 20.3321 5.51594 20.5059 5.54879L19.32 30.1335L19.5423 30.1828L20.7432 5.23697C20.5857 5.18768 20.4109 5.22054 20.3634 5.23697Z" fill="url(#paint18_linear_11384_1428)"/>
<path opacity="0.32" fill-rule="evenodd" clip-rule="evenodd" d="M23.8105 25.9152L23.0984 25.5049L19.542 30.1658L19.7308 30.1165C19.7308 30.1165 22.8621 25.9316 23.1458 25.8003C23.3519 25.7182 23.8105 25.9152 23.8105 25.9152Z" fill="url(#paint19_linear_11384_1428)"/>
<path opacity="0.57" fill-rule="evenodd" clip-rule="evenodd" d="M19.5566 30.1658L23.1141 25.5049C23.0979 25.5213 20.8536 28.0651 19.5566 30.1658Z" fill="url(#paint20_linear_11384_1428)"/>
<path opacity="0.46" fill-rule="evenodd" clip-rule="evenodd" d="M28.0003 28.2787L23.1146 25.5215C23.0984 25.5215 23.6681 25.6199 28.0003 28.2787Z" fill="url(#paint21_linear_11384_1428)"/>
<path opacity="0.3" fill-rule="evenodd" clip-rule="evenodd" d="M16.335 8.13877C16.1926 8.53768 16.3328 8.95688 16.6468 9.07521C16.9619 9.19354 17.3309 8.96611 17.4723 8.56731C17.6147 8.16841 17.4744 7.74921 17.1605 7.63088C16.8465 7.51266 16.4763 7.73997 16.335 8.13877Z" fill="white"/>
<path opacity="0.89" fill-rule="evenodd" clip-rule="evenodd" d="M16.3177 7.95033C16.1764 8.34924 16.3167 8.76844 16.6307 8.88677C16.9447 9.00499 17.3147 8.77767 17.4561 8.37877C17.5974 7.97997 17.4582 7.56077 17.1442 7.44244C16.8292 7.32411 16.4602 7.55154 16.3177 7.95033Z" fill="black"/>
<path fill-rule="evenodd" clip-rule="evenodd" d="M9.66045 10.3896C9.64426 10.3896 9.61295 10.3896 9.59676 10.3896C9.34428 10.3568 9.17059 10.1106 9.20188 9.83165C9.23317 9.569 10.1341 3.43101 13.834 2.03608C14.7663 1.6914 15.5572 1.75701 16.1582 2.26587C16.8854 2.87308 17.2804 4.08752 17.344 5.85999C17.3915 7.10728 17.2491 8.19039 17.2491 8.23968C17.2178 8.50222 16.9804 8.69925 16.7269 8.64997C16.4744 8.61711 16.2844 8.371 16.3319 8.10836C16.4744 6.99239 16.6319 3.92344 15.5734 3.03715C15.241 2.75819 14.7825 2.72533 14.1664 2.95512C10.9887 4.15312 10.1503 9.91368 10.1503 9.96286C10.0866 10.2091 9.89783 10.3896 9.66045 10.3896Z" fill="#595961"/>
<path opacity="0.46" fill-rule="evenodd" clip-rule="evenodd" d="M15.9683 2.29888C15.4148 1.83941 14.6876 1.7738 13.8179 2.08563C12.3159 2.65999 11.0513 4.16982 10.1816 6.45104C9.53418 8.14148 9.31193 9.66773 9.31193 9.73345C9.29683 9.81549 9.32814 9.89752 9.37562 9.96324C9.42309 10.0288 9.48672 10.0781 9.56549 10.0781C9.58059 10.0781 9.59678 10.0781 9.61297 10.0781C9.7554 10.0781 9.88162 9.96324 9.8978 9.81549C9.91291 9.74988 10.7513 3.89085 14.024 2.65999C14.6875 2.41377 15.2249 2.44663 15.6047 2.77488C16.7268 3.71035 16.5693 6.87776 16.4269 8.01016C16.4107 8.17433 16.5219 8.33841 16.6794 8.35483C16.838 8.37126 16.9955 8.25637 17.0117 8.0923C17.0279 7.91169 17.5814 3.64474 15.9683 2.29888Z" fill="#B2B2C2"/>
<path opacity="0.81" fill-rule="evenodd" clip-rule="evenodd" d="M9.59665 9.89759C9.58047 9.89759 9.58048 9.89759 9.56537 9.89759C9.47042 9.88116 9.40674 9.7827 9.42292 9.68423C9.43911 9.61852 9.64415 8.12512 10.2926 6.43468C11.1623 4.18632 12.3956 2.69281 13.8652 2.13477C14.7036 1.82295 15.3834 1.88866 15.9045 2.31538C17.454 3.61185 16.9166 7.8133 16.8853 7.9938C16.8692 8.09226 16.7904 8.15787 16.6793 8.14155C16.5854 8.12512 16.5217 8.04308 16.5217 7.92819C16.5217 7.8789 17.0591 3.7596 15.6682 2.57792C15.2571 2.26609 14.6874 2.23334 13.9926 2.49588C10.6563 3.7596 9.78659 9.68423 9.78659 9.74984C9.7704 9.83188 9.69161 9.89759 9.59665 9.89759Z" fill="#B2B2C2"/>
<path opacity="0.42" fill-rule="evenodd" clip-rule="evenodd" d="M11.6832 5.2031C11.857 4.95699 12.0155 4.71078 12.1731 4.44824C12.1105 4.53028 11.6519 5.38371 10.7035 5.25239C10.6873 5.25239 11.2408 5.43289 11.6832 5.2031Z" fill="#595961"/>
<path opacity="0.42" fill-rule="evenodd" clip-rule="evenodd" d="M11.1463 6.25337C11.2887 5.99072 11.4311 5.71176 11.5412 5.44922C11.4937 5.54768 11.1776 6.43387 10.1816 6.43387C10.1816 6.43387 10.7352 6.54876 11.1463 6.25337Z" fill="#595961"/>
<path opacity="0.42" fill-rule="evenodd" clip-rule="evenodd" d="M10.7355 7.337C10.8618 7.05793 10.9567 6.77897 11.0517 6.5C11.0042 6.59846 10.8305 7.50107 9.78711 7.61597C9.78711 7.59954 10.3557 7.66525 10.7355 7.337Z" fill="#595961"/>
<path opacity="0.62" fill-rule="evenodd" clip-rule="evenodd" d="M17.0593 4.13646C16.9806 3.84096 16.9018 3.562 16.7906 3.2666C16.8219 3.36507 17.1381 4.30054 16.4907 4.97336C16.4907 4.97336 16.9644 4.64521 17.0593 4.13646Z" fill="#595961"/>
<path opacity="0.62" fill-rule="evenodd" clip-rule="evenodd" d="M16.4435 2.66012C16.2223 2.44676 16 2.24984 15.7788 2.06934C15.8587 2.15137 16.601 2.75859 16.396 3.67763C16.3798 3.67763 16.6172 3.13602 16.4435 2.66012Z" fill="#595961"/>
<path opacity="0.62" fill-rule="evenodd" clip-rule="evenodd" d="M17.218 5.64686C17.2018 5.35146 17.1543 5.03964 17.1069 4.74414C17.1069 4.85903 17.2655 5.82736 16.5059 6.35254C16.5059 6.35254 17.0281 6.12275 17.218 5.64686Z" fill="#595961"/>
<path opacity="0.62" fill-rule="evenodd" clip-rule="evenodd" d="M17.2968 7.18972C17.313 6.89433 17.313 6.5825 17.2968 6.28711C17.2968 6.402 17.313 7.37033 16.5059 7.81337C16.5059 7.79705 17.0594 7.63286 17.2968 7.18972Z" fill="#595961"/>
<path opacity="0.42" fill-rule="evenodd" clip-rule="evenodd" d="M10.3712 8.5349C10.4662 8.23951 10.5299 7.94411 10.5924 7.66504C10.5612 7.7635 10.4187 8.69897 9.4541 8.92876C9.47029 8.92876 10.0389 8.91233 10.3712 8.5349Z" fill="#595961"/>
<path opacity="0.42" fill-rule="evenodd" clip-rule="evenodd" d="M12.2849 4.30023C12.5061 4.1033 12.7122 3.88994 12.9021 3.66016C12.8222 3.72576 12.19 4.3987 11.3052 4.15248C11.3203 4.15248 11.8102 4.44798 12.2849 4.30023Z" fill="#595961"/>
<path opacity="0.42" fill-rule="evenodd" clip-rule="evenodd" d="M12.9953 3.54586C13.2488 3.38179 13.4862 3.21761 13.7225 3.03711C13.6287 3.0864 12.9014 3.6279 12.063 3.23404C12.063 3.23404 12.5054 3.61147 12.9953 3.54586Z" fill="#595961"/>
<path opacity="0.62" fill-rule="evenodd" clip-rule="evenodd" d="M13.9603 3.00415C14.2452 2.92201 14.5139 2.82355 14.7826 2.72508C14.6876 2.75794 13.8341 3.05333 13.1382 2.42969C13.1382 2.42969 13.4705 2.92201 13.9603 3.00415Z" fill="#595961"/>
<path opacity="0.62" fill-rule="evenodd" clip-rule="evenodd" d="M14.766 2.70923C14.9883 2.74209 15.2095 2.75852 15.4307 2.77495C15.352 2.75852 14.6721 2.70924 14.3711 2.05273C14.3873 2.05273 14.4661 2.49588 14.766 2.70923Z" fill="#595961"/>
<path opacity="0.62" fill-rule="evenodd" clip-rule="evenodd" d="M15.6212 3.0704C15.7637 3.2509 15.905 3.4314 16.0475 3.59558C16 3.52986 15.5576 2.98836 15.7788 2.31543C15.7949 2.31543 15.5576 2.69297 15.6212 3.0704Z" fill="#595961"/>
<path fill-rule="evenodd" clip-rule="evenodd" d="M16.712 7.91149C16.7271 7.73098 17.2656 3.57882 15.7636 2.3151C15.4788 2.069 15.1313 1.9541 14.7515 1.9541C14.4667 1.9541 14.1505 2.01971 13.8182 2.15103C12.3637 2.69264 11.1465 4.15329 10.2931 6.38523C9.64457 8.05924 9.43952 9.55274 9.42334 9.61835C9.42334 9.66753 9.45469 9.71682 9.50217 9.71682H9.51831C9.56578 9.71682 9.59707 9.68396 9.59707 9.63478C9.61326 9.56906 10.4667 3.57882 13.8656 2.29867C14.5929 2.01971 15.2101 2.06899 15.6525 2.44643C17.0908 3.64443 16.5535 7.82945 16.5384 7.87874C16.5384 7.92792 16.5697 7.9772 16.6171 7.9772C16.6171 7.9772 16.6171 7.9772 16.6322 7.9772C16.6797 7.99363 16.712 7.96077 16.712 7.91149Z" fill="url(#paint22_linear_11384_1428)"/>
<path fill-rule="evenodd" clip-rule="evenodd" d="M17.3438 5.86011C17.2801 4.08764 16.8852 2.88953 16.158 2.26588C15.763 1.93774 15.2883 1.78999 14.751 1.82284C15.1621 1.85559 15.5408 2.00335 15.858 2.26588C16.5853 2.87321 16.9802 4.08764 17.0427 5.86011C17.0902 7.1074 16.9489 8.19052 16.9489 8.2398C16.9165 8.43673 16.7903 8.58448 16.6317 8.63366C16.664 8.65009 16.6791 8.65009 16.7115 8.65009C16.964 8.68295 17.2014 8.50234 17.2327 8.2398C17.2489 8.19052 17.3913 7.12383 17.3438 5.86011Z" fill="url(#paint23_linear_11384_1428)"/>
<path fill-rule="evenodd" clip-rule="evenodd" d="M13.8503 2.95479C10.6726 4.1528 9.83425 9.91336 9.83425 9.97897C9.80296 10.1759 9.6756 10.3236 9.51807 10.3728C9.54936 10.3893 9.56554 10.3893 9.59683 10.3893C9.61302 10.3893 9.64433 10.3893 9.66052 10.3893C9.8979 10.3893 10.0867 10.2088 10.1191 9.97897C10.1342 9.91336 10.9564 4.16923 14.1341 2.97111C14.3563 2.88908 14.5452 2.8399 14.72 2.82347C14.4826 2.79061 14.1815 2.8399 13.8503 2.95479Z" fill="url(#paint24_linear_11384_1428)"/>
<defs>
<linearGradient id="paint0_linear_11384_1428" x1="13.3938" y1="2.84466" x2="12.8979" y2="9.59549" gradientUnits="userSpaceOnUse">
<stop stop-color="white" stop-opacity="0.65"/>
<stop offset="1" stop-color="white" stop-opacity="0.01"/>
</linearGradient>
<linearGradient id="paint1_linear_11384_1428" x1="17.0172" y1="6.70869" x2="20.5082" y2="9.76633" gradientUnits="userSpaceOnUse">
<stop stop-opacity="0.01"/>
<stop offset="1" stop-opacity="0.4"/>
</linearGradient>
<linearGradient id="paint2_linear_11384_1428" x1="15.6176" y1="10.2463" x2="19.3127" y2="6.80461" gradientUnits="userSpaceOnUse">
<stop stop-opacity="0.01"/>
<stop offset="1" stop-opacity="0.4"/>
</linearGradient>
<linearGradient id="paint3_linear_11384_1428" x1="10.9143" y1="0.202171" x2="-3.43772" y2="16.7388" gradientUnits="userSpaceOnUse">
<stop stop-color="#B8D26E"/>
<stop offset="1" stop-color="#7FB525"/>
</linearGradient>
<linearGradient id="paint4_linear_11384_1428" x1="30.5467" y1="4.34181" x2="22.67" y2="4.48808" gradientUnits="userSpaceOnUse">
<stop stop-color="#B4E034"/>
<stop offset="1" stop-color="#60A927"/>
</linearGradient>
<linearGradient id="paint5_linear_11384_1428" x1="7.11819" y1="15.369" x2="0.660366" y2="31.095" gradientUnits="userSpaceOnUse">
<stop stop-color="white"/>
<stop offset="1" stop-color="#CECEEB"/>
</linearGradient>
<linearGradient id="paint6_linear_11384_1428" x1="16.3768" y1="54.0971" x2="26.6047" y2="54.0763" gradientUnits="userSpaceOnUse">
<stop stop-color="#1D1D1B" stop-opacity="0.5"/>
<stop offset="0.038033" stop-color="#1D1D1B" stop-opacity="0.4837"/>
<stop offset="0.4243" stop-color="#1D1D1B" stop-opacity="0.3185"/>
<stop offset="1" stop-color="#1D1D1B" stop-opacity="0.01"/>
</linearGradient>
<linearGradient id="paint7_linear_11384_1428" x1="17.5653" y1="4.87411" x2="15.8685" y2="5.78733" gradientUnits="userSpaceOnUse">
<stop stop-opacity="0.01"/>
<stop offset="1" stop-opacity="0.4"/>
</linearGradient>
<linearGradient id="paint8_linear_11384_1428" x1="10.4514" y1="7.58249" x2="9.25863" y2="8.60756" gradientUnits="userSpaceOnUse">
<stop stop-opacity="0.01"/>
<stop offset="1" stop-opacity="0.4"/>
</linearGradient>
<linearGradient id="paint9_linear_11384_1428" x1="22.0858" y1="28.291" x2="22.2066" y2="29.8828" gradientUnits="userSpaceOnUse">
<stop stop-opacity="0.01"/>
<stop offset="1" stop-opacity="0.4"/>
</linearGradient>
<linearGradient id="paint10_linear_11384_1428" x1="19.2664" y1="25.9605" x2="19.5464" y2="30.0993" gradientUnits="userSpaceOnUse">
<stop stop-color="white" stop-opacity="0.5"/>
<stop offset="0.0896271" stop-color="white" stop-opacity="0.4552"/>
<stop offset="1" stop-color="white" stop-opacity="0.01"/>
</linearGradient>
<linearGradient id="paint11_linear_11384_1428" x1="18.728" y1="26.6043" x2="19.226" y2="31.0253" gradientUnits="userSpaceOnUse">
<stop stop-opacity="0.01"/>
<stop offset="1" stop-opacity="0.4"/>
</linearGradient>
<linearGradient id="paint12_linear_11384_1428" x1="16.7741" y1="1.16781" x2="4.00171" y2="8.55487" gradientUnits="userSpaceOnUse">
<stop stop-color="white" stop-opacity="0.5"/>
<stop offset="1" stop-color="white" stop-opacity="0.01"/>
</linearGradient>
<linearGradient id="paint13_linear_11384_1428" x1="19.2388" y1="39.7756" x2="30.5122" y2="39.7983" gradientUnits="userSpaceOnUse">
<stop stop-color="#1D1D1B" stop-opacity="0.5"/>
<stop offset="0.0896271" stop-color="#1D1D1B" stop-opacity="0.4552"/>
<stop offset="1" stop-color="#1D1D1B" stop-opacity="0.01"/>
</linearGradient>
<linearGradient id="paint14_linear_11384_1428" x1="27.3118" y1="6.37124" x2="25.7104" y2="6.76363" gradientUnits="userSpaceOnUse">
<stop stop-color="white" stop-opacity="0.4"/>
<stop offset="1" stop-color="white" stop-opacity="0.01"/>
</linearGradient>
<linearGradient id="paint15_linear_11384_1428" x1="12.9439" y1="30.3482" x2="13.7766" y2="26.3335" gradientUnits="userSpaceOnUse">
<stop stop-color="#1D1D1B" stop-opacity="0.5"/>
<stop offset="0.0896271" stop-color="#1D1D1B" stop-opacity="0.4552"/>
<stop offset="1" stop-color="#1D1D1B" stop-opacity="0.01"/>
</linearGradient>
<linearGradient id="paint16_linear_11384_1428" x1="17.7579" y1="53.5859" x2="28.0225" y2="53.5948" gradientUnits="userSpaceOnUse">
<stop stop-color="#1D1D1B" stop-opacity="0.5"/>
<stop offset="1" stop-color="#1D1D1B" stop-opacity="0.01"/>
</linearGradient>
<linearGradient id="paint17_linear_11384_1428" x1="8.37885" y1="3.79071" x2="3.40056" y2="22.9172" gradientUnits="userSpaceOnUse">
<stop stop-color="white" stop-opacity="0.5"/>
<stop offset="1" stop-color="white" stop-opacity="0.01"/>
</linearGradient>
<linearGradient id="paint18_linear_11384_1428" x1="8.37885" y1="3.79071" x2="3.40056" y2="22.9172" gradientUnits="userSpaceOnUse">
<stop stop-color="white" stop-opacity="0.5"/>
<stop offset="1" stop-color="white" stop-opacity="0.01"/>
</linearGradient>
<linearGradient id="paint19_linear_11384_1428" x1="20.4602" y1="23.8399" x2="16.5254" y2="29.2557" gradientUnits="userSpaceOnUse">
<stop stop-color="white" stop-opacity="0.5"/>
<stop offset="0.0896271" stop-color="white" stop-opacity="0.4552"/>
<stop offset="1" stop-color="white" stop-opacity="0.01"/>
</linearGradient>
<linearGradient id="paint20_linear_11384_1428" x1="21.6467" y1="25.085" x2="21.2571" y2="25.9584" gradientUnits="userSpaceOnUse">
<stop stop-opacity="0.01"/>
<stop offset="1" stop-opacity="0.4"/>
</linearGradient>
<linearGradient id="paint21_linear_11384_1428" x1="25.5111" y1="26.2401" x2="25.4918" y2="26.4748" gradientUnits="userSpaceOnUse">
<stop stop-opacity="0.01"/>
<stop offset="1" stop-opacity="0.4"/>
</linearGradient>
<linearGradient id="paint22_linear_11384_1428" x1="11.3418" y1="1.40165" x2="9.64074" y2="8.12171" gradientUnits="userSpaceOnUse">
<stop stop-color="white" stop-opacity="0.65"/>
<stop offset="1" stop-color="white" stop-opacity="0.01"/>
</linearGradient>
<linearGradient id="paint23_linear_11384_1428" x1="15.148" y1="5.27824" x2="18.1072" y2="8.28668" gradientUnits="userSpaceOnUse">
<stop stop-opacity="0.01"/>
<stop offset="1" stop-opacity="0.4"/>
</linearGradient>
<linearGradient id="paint24_linear_11384_1428" x1="13.2569" y1="9.70805" x2="17.3453" y2="5.50923" gradientUnits="userSpaceOnUse">
<stop stop-opacity="0.01"/>
<stop offset="1" stop-opacity="0.4"/>
</linearGradient>
</defs>
</svg>
