<svg width="22" height="22" viewBox="0 0 22 22" fill="none" xmlns="http://www.w3.org/2000/svg">
<path fill-rule="evenodd" clip-rule="evenodd" d="M8.89178 7.72957C8.88065 7.72957 8.85912 7.72957 8.84799 7.72957C8.66328 7.70705 8.51122 7.53778 8.51122 7.34599C8.5001 7.16542 8.40214 2.94555 10.7826 1.98653C11.3805 1.74957 11.9354 1.79467 12.4028 2.14451C12.9784 2.56198 13.3916 3.3969 13.6416 4.61547C13.8152 5.47299 13.8478 6.21763 13.8478 6.25151C13.859 6.432 13.718 6.56747 13.5326 6.53358C13.3479 6.51099 13.1958 6.34179 13.1958 6.16123C13.1632 5.394 12.9132 3.2841 12.0875 2.67477C11.8264 2.48299 11.5 2.4604 11.109 2.61837C9.06533 3.442 9.16326 7.40239 9.16326 7.44749C9.16326 7.60547 9.05498 7.72957 8.89178 7.72957Z" fill="#595961"/>
<path opacity="0.46" fill-rule="evenodd" clip-rule="evenodd" d="M12.2818 2.1674C11.8471 1.85144 11.3367 1.80634 10.7818 2.02072C9.81445 2.41559 9.12978 3.45367 8.79299 5.03331C8.543 6.19541 8.57562 7.24478 8.57562 7.28989C8.57562 7.34629 8.59714 7.40276 8.6409 7.44787C8.68393 7.49297 8.7277 7.52686 8.78185 7.52686C8.79298 7.52686 8.80411 7.52686 8.8145 7.52686C8.91242 7.52686 8.98881 7.44787 8.98881 7.34629C8.98881 7.30118 8.89093 3.2731 10.9888 2.42688C11.4124 2.25769 11.7818 2.2802 12.0867 2.50587C12.9665 3.14901 13.2276 5.32667 13.2602 6.1052C13.2602 6.218 13.3581 6.33087 13.4776 6.34209C13.5866 6.35339 13.6734 6.2744 13.6734 6.1616C13.6623 6.02621 13.5428 3.09261 12.2818 2.1674Z" fill="#B2B2C2"/>
<path opacity="0.46" fill-rule="evenodd" clip-rule="evenodd" d="M8.79411 7.39145C8.78298 7.39145 8.78299 7.39145 8.7726 7.39145C8.70732 7.38015 8.65241 7.31246 8.64202 7.24476C8.64202 7.19958 8.6094 6.17287 8.8594 5.0107C9.18505 3.46495 9.87047 2.43816 10.8155 2.05451C11.3482 1.84013 11.8267 1.88531 12.2399 2.17868C13.4572 3.07 13.5766 5.9585 13.5766 6.08259C13.5766 6.15028 13.5225 6.19539 13.4572 6.18417C13.3919 6.17287 13.3377 6.11647 13.3266 6.03748C13.3266 6.0036 13.2072 3.17158 12.1093 2.35917C11.7829 2.12228 11.3808 2.08839 10.9246 2.26889C8.79411 3.16028 8.89204 7.24476 8.89204 7.28987C8.90243 7.34627 8.85939 7.39145 8.79411 7.39145Z" fill="#B2B2C2"/>
<path opacity="0.62" fill-rule="evenodd" clip-rule="evenodd" d="M9.67516 4.16447C9.76195 3.99527 9.84873 3.826 9.92514 3.64551C9.8925 3.70191 9.67513 4.28864 9.01194 4.19836C9.00082 4.19836 9.40291 4.32245 9.67516 4.16447Z" fill="#595961"/>
<path opacity="0.62" fill-rule="evenodd" clip-rule="evenodd" d="M9.43528 4.88586C9.50056 4.70529 9.56583 4.5135 9.6096 4.33301C9.58808 4.4007 9.47903 5.00995 8.7832 5.00995C8.7832 5.00995 9.18529 5.08894 9.43528 4.88586Z" fill="#595961"/>
<path opacity="0.62" fill-rule="evenodd" clip-rule="evenodd" d="M13.2501 3.43104C13.1633 3.22788 13.0653 3.03609 12.9674 2.83301C13 2.9007 13.3265 3.54384 12.957 4.0064C12.957 4.0064 13.2397 3.7808 13.2501 3.43104Z" fill="#595961"/>
<path opacity="0.62" fill-rule="evenodd" clip-rule="evenodd" d="M12.6531 2.41496C12.4788 2.26827 12.3052 2.13288 12.1309 2.00879C12.1961 2.06519 12.7725 2.48265 12.7399 3.11457C12.7288 3.11457 12.8267 2.74221 12.6531 2.41496Z" fill="#595961"/>
<path opacity="0.62" fill-rule="evenodd" clip-rule="evenodd" d="M9.98936 3.54357C10.1199 3.40818 10.2282 3.26149 10.3476 3.10352C10.3046 3.14862 9.94562 3.61126 9.30469 3.44199C9.30469 3.44199 9.67409 3.64515 9.98936 3.54357Z" fill="#595961"/>
<path opacity="0.62" fill-rule="evenodd" clip-rule="evenodd" d="M10.3917 3.02457C10.5438 2.91177 10.6847 2.7989 10.8264 2.6748C10.7723 2.70869 10.3264 3.08097 9.70703 2.81019C9.70703 2.81019 10.0653 3.06968 10.3917 3.02457Z" fill="#595961"/>
<path opacity="0.62" fill-rule="evenodd" clip-rule="evenodd" d="M10.9782 2.65178C11.1629 2.59538 11.3373 2.52769 11.5109 2.45999C11.4456 2.48251 10.8914 2.68559 10.3477 2.25684C10.3588 2.25684 10.6414 2.59538 10.9782 2.65178Z" fill="#595961"/>
<path opacity="0.62" fill-rule="evenodd" clip-rule="evenodd" d="M11.5101 2.44939C11.6621 2.47198 11.8142 2.48328 11.9663 2.49457C11.9121 2.48328 11.4336 2.44939 11.1621 1.99805C11.1621 1.99805 11.2712 2.30271 11.5101 2.44939Z" fill="#595961"/>
<path opacity="0.62" fill-rule="evenodd" clip-rule="evenodd" d="M12.1418 2.6967C12.2501 2.82087 12.3703 2.94496 12.5001 3.05776C12.4571 3.01266 12.0877 2.6403 12.1745 2.17773C12.1633 2.17773 12.0439 2.43722 12.1418 2.6967Z" fill="#595961"/>
<path opacity="0.74" fill-rule="evenodd" clip-rule="evenodd" d="M13.4572 6.02546C13.4572 5.90129 13.3377 3.04668 12.1531 2.17795C11.9246 2.00868 11.6746 1.92969 11.4135 1.92969C11.2176 1.92969 11.0114 1.97479 10.794 2.06508C9.84822 2.43743 9.18505 3.44163 8.8594 4.97609C8.6094 6.12697 8.64202 7.15375 8.64202 7.19886C8.64202 7.23274 8.67467 7.26655 8.70731 7.26655H8.71768C8.75032 7.26655 8.7726 7.24404 8.7726 7.21015C8.7726 7.16505 8.66353 3.04668 10.8482 2.16665C11.3267 1.97479 11.7399 2.00868 12.0878 2.26816C13.2176 3.09186 13.3377 5.96906 13.3377 6.00287C13.3377 6.03676 13.3704 6.07057 13.403 6.07057C13.403 6.07057 13.403 6.07057 13.4134 6.07057C13.4356 6.08186 13.4572 6.05927 13.4572 6.02546Z" fill="url(#paint0_linear_9615_52904)"/>
<path fill-rule="evenodd" clip-rule="evenodd" d="M13.6419 4.61562C13.3919 3.39704 12.9787 2.57334 12.4031 2.14459C12.0878 1.91899 11.7503 1.81741 11.3809 1.84C11.6746 1.86251 11.9461 1.96409 12.1961 2.14459C12.7725 2.56212 13.1857 3.39704 13.4357 4.61562C13.6093 5.47313 13.6419 6.21777 13.6419 6.25166C13.6419 6.38705 13.5766 6.48862 13.4676 6.52243C13.4898 6.53373 13.5114 6.53373 13.5225 6.53373C13.7072 6.55632 13.8481 6.43215 13.8378 6.25166C13.8481 6.21777 13.8155 5.48443 13.6419 4.61562Z" fill="url(#paint1_linear_9615_52904)"/>
<path fill-rule="evenodd" clip-rule="evenodd" d="M10.9033 2.61877C8.85963 3.4424 8.95752 7.40278 8.95752 7.44789C8.95752 7.58328 8.89225 7.68486 8.7832 7.71867C8.80546 7.72996 8.81587 7.72996 8.83812 7.72996C8.84851 7.72996 8.87075 7.72996 8.88114 7.72996C9.04434 7.72996 9.15262 7.60587 9.15262 7.44789C9.15262 7.40278 9.05547 3.45369 11.0984 2.63006C11.2401 2.57366 11.3707 2.53978 11.4901 2.52848C11.3158 2.49467 11.1207 2.52848 10.9033 2.61877Z" fill="url(#paint2_linear_9615_52904)"/>
<path fill-rule="evenodd" clip-rule="evenodd" d="M13.9997 3.60006L4.78262 6.55618C4.78262 6.55618 4.39168 6.66905 4.29376 6.79315C4.19584 6.91724 4.17432 7.26701 4.17432 7.26701L2.75 18.6629L13.4455 20.739L14.2719 3.58877C14.1525 3.56618 14.0323 3.58877 13.9997 3.60006Z" fill="url(#paint3_linear_9615_52904)"/>
<path fill-rule="evenodd" clip-rule="evenodd" d="M17.1854 5.06693C17.1854 5.06693 17.1743 4.97664 17.1201 4.94283C17.0764 4.90895 17.0222 4.90895 17.0222 4.90895L15.5111 4.79615L14.4028 3.65656C14.3591 3.62268 14.3153 3.60016 14.2612 3.58887L13.4355 20.7391L19.2284 19.4416L17.1854 5.06693Z" fill="url(#paint4_linear_9615_52904)"/>
<path fill-rule="evenodd" clip-rule="evenodd" d="M10.1963 13.1232C10.0331 12.8975 9.83799 12.6944 9.64215 12.5138C9.44631 12.3334 9.24009 12.1867 9.03313 12.0513C8.89218 11.961 8.76162 11.8707 8.65258 11.7804C8.54427 11.6902 8.45747 11.5999 8.39219 11.5209C8.32691 11.4307 8.27274 11.3517 8.2401 11.2615C8.20746 11.1712 8.19632 11.0809 8.19632 10.9906C8.19632 10.8665 8.22898 10.7424 8.27275 10.6408C8.31577 10.5393 8.39218 10.449 8.46785 10.3701C8.55538 10.2911 8.65257 10.2347 8.77274 10.1896C8.89217 10.1444 9.0331 10.1219 9.18517 10.1106C9.34837 10.0993 9.51158 10.1106 9.66365 10.1219C9.81573 10.1331 9.95741 10.167 10.0984 10.2008C10.2289 10.2347 10.3595 10.2798 10.4678 10.325C10.5768 10.3701 10.6851 10.4152 10.7615 10.4603L11.4789 8.24887C11.3706 8.19247 11.24 8.136 11.0983 8.10219C10.9463 8.05701 10.7831 8.0232 10.5984 8.00061C10.4136 7.97809 10.2178 7.9668 10.0116 7.9668C9.80534 7.9668 9.58801 7.97809 9.35953 8.0119C8.87067 8.0796 8.43522 8.21498 8.04428 8.41807C7.67486 8.60993 7.34844 8.85812 7.07694 9.16278C6.81582 9.45615 6.60958 9.79462 6.45751 10.1783C6.31582 10.5506 6.22904 10.9681 6.20753 11.4194C6.1964 11.6902 6.21791 11.9384 6.28319 12.1641C6.33734 12.3898 6.42487 12.6041 6.5443 12.8072C6.65261 13.0103 6.79429 13.1909 6.94636 13.3601C7.09843 13.5293 7.28315 13.6873 7.46786 13.834C7.61993 13.9468 7.7505 14.0596 7.85955 14.1612C7.96786 14.2628 8.0554 14.3643 8.11994 14.4771C8.18522 14.5786 8.22897 14.6802 8.26161 14.793C8.29425 14.8946 8.30538 15.0074 8.29425 15.1203C8.29425 15.2331 8.26164 15.3459 8.21787 15.4361C8.17485 15.5264 8.11993 15.6167 8.03314 15.6844C7.95748 15.7521 7.85957 15.7972 7.75052 15.8198C7.64222 15.8423 7.51166 15.8536 7.36997 15.8311C7.20751 15.8085 7.04428 15.7634 6.89221 15.6956C6.74014 15.6392 6.58736 15.5602 6.44641 15.4813C6.30547 15.4023 6.17491 15.3121 6.06586 15.2331C5.94643 15.1541 5.84849 15.0638 5.77283 14.9961L5.2832 16.6773C5.35961 16.7901 5.46794 16.8917 5.58737 16.9932C5.70755 17.0948 5.84851 17.1963 6.01171 17.2979C6.17491 17.3881 6.3485 17.4784 6.53321 17.5573C6.71792 17.6363 6.92486 17.704 7.13109 17.7605H7.14223H7.1526H7.16373H7.17487C7.61996 17.862 8.04427 17.8846 8.44634 17.8282C8.85953 17.7717 9.24006 17.625 9.56572 17.3994C9.90251 17.1625 10.1748 16.8465 10.381 16.4291C10.5879 16.0116 10.7074 15.5038 10.7289 14.9284C10.74 14.5673 10.6963 14.2515 10.5984 13.9581C10.5004 13.6196 10.3595 13.3601 10.1963 13.1232Z" fill="url(#paint5_linear_9615_52904)"/>
<path opacity="0.226763" fill-rule="evenodd" clip-rule="evenodd" d="M5.35263 16.7687C5.3274 16.7388 5.30364 16.7083 5.28213 16.6769L5.77175 14.9957C5.77843 15.002 5.78584 15.0085 5.79326 15.0151C5.86596 15.0801 5.95648 15.161 6.06479 15.2327C6.17383 15.3116 6.30439 15.4019 6.44534 15.4809C6.58628 15.5598 6.73906 15.6388 6.89114 15.6953C7.04321 15.763 7.20644 15.8081 7.3689 15.8307C7.51059 15.8532 7.64115 15.842 7.74945 15.8194C7.8585 15.7968 7.9564 15.7517 8.03207 15.684C8.11886 15.6163 8.17377 15.526 8.2168 15.4357C8.26057 15.3455 8.29318 15.2327 8.29318 15.1199C8.30431 15.007 8.29318 14.8942 8.26054 14.7926C8.2279 14.6798 8.18414 14.5782 8.11886 14.4767C8.05729 14.3695 7.97568 14.2725 7.87405 14.1759C7.92746 14.2362 7.97273 14.2982 8.01056 14.3639C8.07584 14.4654 8.11887 14.5669 8.15151 14.6798C8.18415 14.7813 8.19528 14.8942 8.18415 15.007C8.18415 15.1199 8.15152 15.2327 8.1085 15.3229C8.06473 15.4132 8.01056 15.5034 7.92377 15.5711C7.84736 15.6388 7.74945 15.684 7.64115 15.7065C7.5321 15.7291 7.40154 15.7404 7.2606 15.7178C7.0974 15.6953 6.93418 15.6501 6.78211 15.5824C6.63004 15.526 6.47795 15.447 6.33627 15.368C6.19532 15.2891 6.06479 15.1988 5.95648 15.1199C5.84744 15.0482 5.75693 14.9673 5.68423 14.9023C5.67682 14.8957 5.6701 14.8892 5.66268 14.8829L5.17383 16.564C5.22205 16.6359 5.28364 16.7031 5.35263 16.7687ZM6.95421 13.3699C6.91341 13.3295 6.87409 13.2886 6.83626 13.2469C6.68419 13.0776 6.54325 12.8971 6.4342 12.694C6.31477 12.4908 6.22797 12.2765 6.17381 12.0509C6.10853 11.8252 6.08626 11.5769 6.09739 11.3062C6.1189 10.8548 6.20646 10.4373 6.34741 10.065C6.49948 9.68142 6.70646 9.34294 6.96684 9.04958C7.23909 8.74491 7.56471 8.49665 7.93413 8.30486C8.32581 8.10178 8.76053 7.96639 9.24938 7.89869C9.47786 7.86481 9.69524 7.85352 9.90146 7.85352C10.1084 7.85352 10.3043 7.86481 10.489 7.8874C10.6737 7.90999 10.8369 7.9438 10.989 7.98898C11.1299 8.02279 11.2605 8.07919 11.3695 8.13559L11.3525 8.18837C11.2738 8.15419 11.1878 8.12341 11.0973 8.10178C10.9452 8.05667 10.782 8.02279 10.5973 8.0002C10.4126 7.97768 10.2167 7.96639 10.0105 7.96639C9.80426 7.96639 9.58694 7.97768 9.35846 8.01149C8.8696 8.07919 8.43414 8.21458 8.04321 8.41774C7.67378 8.60952 7.34737 8.85771 7.07587 9.16237C6.81475 9.45574 6.6085 9.79421 6.45643 10.1779C6.31475 10.5502 6.22797 10.9677 6.20646 11.419C6.19533 11.6898 6.21684 11.938 6.28212 12.1637C6.33627 12.3893 6.4238 12.6037 6.54323 12.8068C6.65153 13.0099 6.79321 13.1905 6.94529 13.3597C6.94825 13.363 6.95124 13.3665 6.95421 13.3699ZM8.43042 11.5667C8.48976 11.6339 8.56397 11.7069 8.6515 11.78C8.76055 11.8703 8.89111 11.9606 9.03205 12.0509C9.23902 12.1863 9.44523 12.3329 9.64107 12.5134C9.69819 12.566 9.75458 12.6204 9.81095 12.6768C9.72045 12.5795 9.62621 12.4875 9.532 12.4006C9.3369 12.2201 9.12998 12.0734 8.92375 11.938C8.78207 11.8477 8.65151 11.7575 8.5432 11.6672C8.5024 11.6336 8.46528 11.5999 8.43042 11.5667Z" fill="black"/>
<path opacity="0.41" fill-rule="evenodd" clip-rule="evenodd" d="M15.8799 17.5455L15.5105 4.79559L15.4452 4.7279L15.6196 17.3649C15.6196 17.3649 14.087 19.7795 13.8585 19.7118C13.5217 19.6103 14.5217 3.7801 14.5217 3.7801L14.4127 3.6673C14.3696 3.63342 14.3147 3.6109 14.2717 3.59961L13.4565 20.5129L13.4453 20.7499L13.7279 20.3775L15.8799 17.5455Z" fill="url(#paint6_linear_9615_52904)"/>
<path fill-rule="evenodd" clip-rule="evenodd" d="M11.7178 4.33309C11.588 4.86335 11.4248 5.35981 11.3054 5.66447C11.229 5.84504 11.3158 6.01423 11.479 6.03682C11.6533 6.05941 11.8484 5.93525 11.9137 5.75475C11.9248 5.72087 12.2178 4.98752 12.4033 4.11871V4.10742L11.7178 4.33309Z" fill="url(#paint7_linear_9615_52904)"/>
<path fill-rule="evenodd" clip-rule="evenodd" d="M6.81502 5.91288C6.66295 6.25135 6.51087 6.54472 6.40182 6.7478C6.30465 6.91707 6.35879 7.09757 6.52199 7.14267C6.68445 7.19915 6.90179 7.09757 6.99971 6.9283C7.01083 6.90578 7.32614 6.35293 7.60877 5.65332L6.81502 5.91288Z" fill="url(#paint8_linear_9615_52904)"/>
<path opacity="0.32" fill-rule="evenodd" clip-rule="evenodd" d="M13.4453 20.7391L15.8799 17.5459L19.25 19.4415L13.4453 20.7391Z" fill="url(#paint9_linear_9615_52904)"/>
<path opacity="0.19" fill-rule="evenodd" clip-rule="evenodd" d="M13.4453 20.7391L15.8584 17.5459L19.25 19.4415L13.4453 20.7391Z" fill="url(#paint10_linear_9615_52904)"/>
<path opacity="0.19" fill-rule="evenodd" clip-rule="evenodd" d="M13.4453 20.7391L15.8584 17.5459L19.25 19.4415L13.4453 20.7391Z" fill="url(#paint11_linear_9615_52904)"/>
<path opacity="0.6" fill-rule="evenodd" clip-rule="evenodd" d="M11.0754 11.8024C12.3365 13.5738 13.1843 15.4919 13.6079 17.3536L14.2711 3.57702C14.1517 3.5545 14.0315 3.57702 13.9989 3.58831L4.78181 6.5558C4.78181 6.5558 4.69498 6.57831 4.58594 6.62349C6.9234 7.45841 9.26016 9.25243 11.0754 11.8024Z" fill="url(#paint12_linear_9615_52904)"/>
<path fill-rule="evenodd" clip-rule="evenodd" d="M17.1311 4.95435C17.186 4.99953 17.186 5.06723 17.186 5.06723L19.2074 19.4305L15.8811 17.535L15.5117 4.78516L17.0013 4.89795C17.0117 4.90925 17.0769 4.90925 17.1311 4.95435Z" fill="url(#paint13_linear_9615_52904)"/>
<path fill-rule="evenodd" clip-rule="evenodd" d="M16.8909 4.98811C16.8909 4.98811 16.9562 4.98811 17.0103 5.04451C17.0645 5.08969 17.0756 5.15738 17.0756 5.15738L19.0651 19.3627L19.2172 19.453L17.195 5.0784C17.195 5.0784 17.1846 5.0107 17.1409 4.9656C17.0867 4.92042 17.0103 4.92042 17.0103 4.92042L15.5215 4.80762L16.8909 4.98811Z" fill="url(#paint14_linear_9615_52904)"/>
<path fill-rule="evenodd" clip-rule="evenodd" d="M2.75 18.6623L13.4455 20.7384L13.9678 8.98145L4.08005 9.26251L2.75 18.6623Z" fill="url(#paint15_linear_9615_52904)"/>
<path opacity="0.3" fill-rule="evenodd" clip-rule="evenodd" d="M6.26062 6.72031C6.16344 6.99456 6.25912 7.28269 6.47573 7.36404C6.6916 7.44531 6.94531 7.28896 7.04323 7.01479C7.14041 6.74061 7.04399 6.45241 6.82812 6.37113C6.61225 6.28978 6.3578 6.44614 6.26062 6.72031Z" fill="white"/>
<path opacity="0.89" fill-rule="evenodd" clip-rule="evenodd" d="M6.24879 6.5905C6.15161 6.86467 6.24803 7.15288 6.4639 7.23415C6.67977 7.31551 6.93422 7.15915 7.0314 6.88498C7.12858 6.61073 7.0329 6.32253 6.81629 6.24125C6.60042 6.1599 6.34671 6.31625 6.24879 6.5905Z" fill="black"/>
<path fill-rule="evenodd" clip-rule="evenodd" d="M15.5217 4.79615L14.4127 3.65656C14.3696 3.62268 14.3147 3.60016 14.2717 3.58887L13.4453 20.7391L15.8911 17.5347L15.5217 4.79615Z" fill="url(#paint16_linear_9615_52904)"/>
<path fill-rule="evenodd" clip-rule="evenodd" d="M13.999 3.59993L4.78189 6.55604C4.78189 6.55604 4.39096 6.66892 4.29304 6.79301C4.28191 6.80431 4.28187 6.8156 4.27148 6.8269L13.5643 4.16407C13.6407 4.14148 13.8254 4.07379 13.8039 4.62664L13.2386 20.7163L13.4344 20.7502L14.2601 3.59993C14.1518 3.56604 14.0316 3.58863 13.999 3.59993Z" fill="url(#paint17_linear_9615_52904)"/>
<path fill-rule="evenodd" clip-rule="evenodd" d="M13.999 3.59993L4.78189 6.55604C4.78189 6.55604 4.39096 6.66892 4.29304 6.79301C4.28191 6.80431 4.28187 6.8156 4.27148 6.8269L6.4235 6.20628L13.8254 3.8256C13.858 3.8143 13.9775 3.79172 14.0969 3.81431L13.2816 20.7163L13.4344 20.7502L14.2601 3.59993C14.1518 3.56604 14.0316 3.58863 13.999 3.59993Z" fill="url(#paint18_linear_9615_52904)"/>
<path opacity="0.32" fill-rule="evenodd" clip-rule="evenodd" d="M16.3702 17.8163L15.8805 17.5342L13.4355 20.7386L13.5654 20.7047C13.5654 20.7047 15.7181 17.8275 15.9132 17.7373C16.0549 17.6809 16.3702 17.8163 16.3702 17.8163Z" fill="url(#paint19_linear_9615_52904)"/>
<path opacity="0.57" fill-rule="evenodd" clip-rule="evenodd" d="M13.4453 20.7386L15.8911 17.5342C15.88 17.5455 14.337 19.2943 13.4453 20.7386Z" fill="url(#paint20_linear_9615_52904)"/>
<path opacity="0.46" fill-rule="evenodd" clip-rule="evenodd" d="M19.2498 19.4415L15.8909 17.5459C15.8797 17.5459 16.2714 17.6136 19.2498 19.4415Z" fill="url(#paint21_linear_9615_52904)"/>
<path opacity="0.3" fill-rule="evenodd" clip-rule="evenodd" d="M11.2297 5.59528C11.1318 5.86953 11.2282 6.15773 11.4441 6.23908C11.6607 6.32043 11.9144 6.16408 12.0116 5.88991C12.1095 5.61566 12.0131 5.32746 11.7972 5.24611C11.5813 5.16483 11.3269 5.32111 11.2297 5.59528Z" fill="white"/>
<path opacity="0.89" fill-rule="evenodd" clip-rule="evenodd" d="M11.2175 5.46543C11.1204 5.73967 11.2168 6.02787 11.4327 6.10922C11.6486 6.1905 11.903 6.03422 12.0001 5.75997C12.0973 5.4858 12.0016 5.1976 11.7858 5.11625C11.5691 5.0349 11.3154 5.19125 11.2175 5.46543Z" fill="black"/>
<path fill-rule="evenodd" clip-rule="evenodd" d="M6.64198 7.14265C6.63086 7.14265 6.60933 7.14265 6.5982 7.14265C6.42462 7.12014 6.30521 6.95086 6.32672 6.75907C6.34823 6.57851 6.96763 2.35864 9.51132 1.39962C10.1522 1.16265 10.696 1.20776 11.1092 1.5576C11.6092 1.97506 11.8807 2.80998 11.9244 4.02856C11.9571 4.88607 11.8592 5.63071 11.8592 5.6646C11.8377 5.84509 11.6745 5.98055 11.5002 5.94667C11.3266 5.92408 11.196 5.75488 11.2286 5.57431C11.3265 4.80708 11.4348 2.69719 10.7071 2.08786C10.4786 1.89607 10.1634 1.87348 9.73983 2.03146C7.55518 2.85509 6.97875 6.81547 6.97875 6.84928C6.93499 7.01856 6.80518 7.14265 6.64198 7.14265Z" fill="#595961"/>
<path opacity="0.46" fill-rule="evenodd" clip-rule="evenodd" d="M10.9773 1.58042C10.5968 1.26453 10.0968 1.21943 9.49892 1.43381C8.46631 1.82868 7.59686 2.86669 6.99895 4.43503C6.55386 5.59721 6.40107 6.64651 6.40107 6.69169C6.39068 6.74809 6.41221 6.80449 6.44485 6.84966C6.47749 6.89477 6.52123 6.92865 6.57539 6.92865C6.58577 6.92865 6.5969 6.92865 6.60803 6.92865C6.70595 6.92865 6.79273 6.84966 6.80385 6.74809C6.81424 6.70298 7.39066 2.6749 9.64059 1.82868C10.0968 1.65941 10.4662 1.682 10.7273 1.90767C11.4988 2.55081 11.3905 4.7284 11.2926 5.50692C11.2815 5.61979 11.3579 5.73259 11.4662 5.74389C11.5752 5.75518 11.6835 5.67619 11.6947 5.56339C11.7058 5.43923 12.0864 2.5057 10.9773 1.58042Z" fill="#B2B2C2"/>
<path opacity="0.81" fill-rule="evenodd" clip-rule="evenodd" d="M6.59773 6.80453C6.5866 6.80453 6.58661 6.80453 6.57622 6.80453C6.51094 6.79324 6.46716 6.72554 6.47829 6.65785C6.48942 6.61267 6.63039 5.58596 7.07622 4.42378C7.67412 2.87803 8.522 1.85124 9.53235 1.46759C10.1087 1.25321 10.5761 1.29839 10.9344 1.59176C11.9996 2.48309 11.6302 5.37158 11.6087 5.49568C11.5976 5.56337 11.5434 5.60848 11.467 5.59725C11.4025 5.58596 11.3587 5.52956 11.3587 5.45057C11.3587 5.41669 11.7281 2.58466 10.7719 1.77226C10.4893 1.55788 10.0976 1.53536 9.61992 1.71586C7.32622 2.58466 6.72831 6.65785 6.72831 6.70295C6.71718 6.75935 6.66301 6.80453 6.59773 6.80453Z" fill="#B2B2C2"/>
<path opacity="0.42" fill-rule="evenodd" clip-rule="evenodd" d="M8.0332 3.57756C8.15263 3.40836 8.26166 3.23909 8.36997 3.05859C8.32694 3.11499 8.01167 3.70173 7.35961 3.61145C7.34849 3.61145 7.72905 3.73554 8.0332 3.57756Z" fill="#595961"/>
<path opacity="0.42" fill-rule="evenodd" clip-rule="evenodd" d="M7.66322 4.29895C7.76114 4.11838 7.85903 3.92659 7.9347 3.74609C7.90206 3.81379 7.6847 4.42304 7 4.42304C7 4.42304 7.38058 4.50203 7.66322 4.29895Z" fill="#595961"/>
<path opacity="0.42" fill-rule="evenodd" clip-rule="evenodd" d="M7.38055 5.04419C7.46734 4.85233 7.53264 4.66054 7.59792 4.46875C7.56528 4.53644 7.44585 5.15699 6.72852 5.23598C6.72852 5.22468 7.11943 5.26986 7.38055 5.04419Z" fill="#595961"/>
<path opacity="0.62" fill-rule="evenodd" clip-rule="evenodd" d="M11.7288 2.84412C11.6747 2.64096 11.6205 2.44918 11.5441 2.24609C11.5656 2.31379 11.783 2.95692 11.3379 3.41949C11.3379 3.41949 11.6635 3.19389 11.7288 2.84412Z" fill="#595961"/>
<path opacity="0.62" fill-rule="evenodd" clip-rule="evenodd" d="M11.3046 1.82804C11.1526 1.68136 10.9997 1.54597 10.8477 1.42188C10.9026 1.47827 11.4129 1.89574 11.272 2.52758C11.2609 2.52758 11.4241 2.15522 11.3046 1.82804Z" fill="#595961"/>
<path opacity="0.62" fill-rule="evenodd" clip-rule="evenodd" d="M11.8372 3.88234C11.8261 3.67925 11.7935 3.46488 11.7609 3.26172C11.7609 3.34071 11.8699 4.00643 11.3477 4.36749C11.3477 4.36749 11.7067 4.20951 11.8372 3.88234Z" fill="#595961"/>
<path opacity="0.62" fill-rule="evenodd" clip-rule="evenodd" d="M11.8914 4.94281C11.9026 4.73973 11.9026 4.52535 11.8914 4.32227C11.8914 4.40125 11.9025 5.06698 11.3477 5.37157C11.3477 5.36035 11.7282 5.24747 11.8914 4.94281Z" fill="#595961"/>
<path opacity="0.42" fill-rule="evenodd" clip-rule="evenodd" d="M7.13053 5.86756C7.19581 5.66448 7.23959 5.46139 7.28261 5.26953C7.2611 5.33723 7.16318 5.98036 6.5 6.13834C6.51113 6.13834 6.90205 6.12704 7.13053 5.86756Z" fill="#595961"/>
<path opacity="0.42" fill-rule="evenodd" clip-rule="evenodd" d="M8.44507 2.95665C8.59714 2.82126 8.7388 2.67458 8.86936 2.5166C8.81446 2.56171 8.37977 3.02435 7.77148 2.85507C7.78187 2.85507 8.11867 3.05823 8.44507 2.95665Z" fill="#595961"/>
<path opacity="0.42" fill-rule="evenodd" clip-rule="evenodd" d="M8.93391 2.43766C9.10824 2.32486 9.27144 2.21198 9.4339 2.08789C9.36936 2.12177 8.86936 2.49406 8.29297 2.22328C8.29297 2.22328 8.59712 2.48276 8.93391 2.43766Z" fill="#595961"/>
<path opacity="0.62" fill-rule="evenodd" clip-rule="evenodd" d="M9.59844 2.06584C9.79428 2.00937 9.97901 1.94168 10.1637 1.87398C10.0984 1.89657 9.51168 2.09965 9.0332 1.6709C9.0332 1.6709 9.26166 2.00937 9.59844 2.06584Z" fill="#595961"/>
<path opacity="0.62" fill-rule="evenodd" clip-rule="evenodd" d="M10.1524 1.86248C10.3052 1.88507 10.4573 1.89636 10.6094 1.90766C10.5552 1.89636 10.0878 1.86248 9.88086 1.41113C9.89199 1.41113 9.94616 1.71579 10.1524 1.86248Z" fill="#595961"/>
<path opacity="0.62" fill-rule="evenodd" clip-rule="evenodd" d="M10.7399 2.11084C10.8378 2.23493 10.935 2.35903 11.0329 2.4719C11.0003 2.42672 10.6961 2.05444 10.8482 1.5918C10.8593 1.5918 10.6961 1.85135 10.7399 2.11084Z" fill="#595961"/>
<path fill-rule="evenodd" clip-rule="evenodd" d="M11.4895 5.43945C11.4999 5.31536 11.8701 2.46075 10.8375 1.59194C10.6416 1.42274 10.4028 1.34375 10.1416 1.34375C9.9458 1.34375 9.72846 1.38885 9.49998 1.47914C8.50001 1.8515 7.66322 2.85569 7.07644 4.39015C6.63061 5.54103 6.48964 6.56782 6.47852 6.61292C6.47852 6.64673 6.50007 6.68062 6.53271 6.68062H6.5438C6.57644 6.68062 6.59796 6.65803 6.59796 6.62422C6.60908 6.57904 7.19586 2.46075 9.53258 1.58064C10.0326 1.38886 10.4569 1.42274 10.761 1.68222C11.7499 2.50585 11.3805 5.38305 11.3701 5.41694C11.3701 5.45075 11.3916 5.48463 11.4242 5.48463C11.4242 5.48463 11.4242 5.48463 11.4346 5.48463C11.4673 5.49593 11.4895 5.47334 11.4895 5.43945Z" fill="url(#paint22_linear_9615_52904)"/>
<path fill-rule="evenodd" clip-rule="evenodd" d="M11.9232 4.0287C11.8794 2.81013 11.6079 1.98643 11.1079 1.55767C10.8364 1.33207 10.51 1.23049 10.1406 1.25308C10.4233 1.2756 10.6836 1.37718 10.9017 1.55767C11.4017 1.97521 11.6732 2.81013 11.7162 4.0287C11.7489 4.88622 11.6517 5.63086 11.6517 5.66474C11.6294 5.80013 11.5426 5.90171 11.4336 5.93552C11.4559 5.94681 11.4662 5.94681 11.4885 5.94681C11.6621 5.9694 11.8253 5.84524 11.8468 5.66474C11.8579 5.63086 11.9558 4.89751 11.9232 4.0287Z" fill="url(#paint23_linear_9615_52904)"/>
<path fill-rule="evenodd" clip-rule="evenodd" d="M9.52137 2.03172C7.33672 2.85535 6.76034 6.81574 6.76034 6.86084C6.73883 6.99623 6.65127 7.09781 6.54297 7.13162C6.56448 7.14292 6.57561 7.14292 6.59712 7.14292C6.60825 7.14292 6.62978 7.14292 6.6409 7.14292C6.8041 7.14292 6.93391 7.01882 6.95617 6.86084C6.96655 6.81574 7.53182 2.86665 9.71647 2.04295C9.86929 1.98655 9.99913 1.95274 10.1193 1.94144C9.9561 1.91885 9.74911 1.95274 9.52137 2.03172Z" fill="url(#paint24_linear_9615_52904)"/>
<defs>
<linearGradient id="paint0_linear_9615_52904" x1="9.20877" y1="1.95516" x2="8.86789" y2="6.59635" gradientUnits="userSpaceOnUse">
<stop stop-color="white" stop-opacity="0.65"/>
<stop offset="1" stop-color="white" stop-opacity="0.01"/>
</linearGradient>
<linearGradient id="paint1_linear_9615_52904" x1="11.6998" y1="4.61222" x2="14.0999" y2="6.71435" gradientUnits="userSpaceOnUse">
<stop stop-opacity="0.01"/>
<stop offset="1" stop-opacity="0.4"/>
</linearGradient>
<linearGradient id="paint2_linear_9615_52904" x1="10.7379" y1="7.0443" x2="13.2783" y2="4.67811" gradientUnits="userSpaceOnUse">
<stop stop-opacity="0.01"/>
<stop offset="1" stop-opacity="0.4"/>
</linearGradient>
<linearGradient id="paint3_linear_9615_52904" x1="7.50358" y1="0.138931" x2="-2.36343" y2="11.5079" gradientUnits="userSpaceOnUse">
<stop stop-color="#B8D26E"/>
<stop offset="1" stop-color="#7FB525"/>
</linearGradient>
<linearGradient id="paint4_linear_9615_52904" x1="21.0013" y1="2.9853" x2="15.5861" y2="3.08586" gradientUnits="userSpaceOnUse">
<stop stop-color="#B4E034"/>
<stop offset="1" stop-color="#60A927"/>
</linearGradient>
<linearGradient id="paint5_linear_9615_52904" x1="4.89449" y1="10.5663" x2="0.454735" y2="21.378" gradientUnits="userSpaceOnUse">
<stop stop-color="white"/>
<stop offset="1" stop-color="#CECEEB"/>
</linearGradient>
<linearGradient id="paint6_linear_9615_52904" x1="11.2592" y1="37.1914" x2="18.2908" y2="37.1771" gradientUnits="userSpaceOnUse">
<stop stop-color="#1D1D1B" stop-opacity="0.5"/>
<stop offset="0.038033" stop-color="#1D1D1B" stop-opacity="0.4837"/>
<stop offset="0.4243" stop-color="#1D1D1B" stop-opacity="0.3185"/>
<stop offset="1" stop-color="#1D1D1B" stop-opacity="0.01"/>
</linearGradient>
<linearGradient id="paint7_linear_9615_52904" x1="12.0769" y1="3.35016" x2="10.9103" y2="3.978" gradientUnits="userSpaceOnUse">
<stop stop-opacity="0.01"/>
<stop offset="1" stop-opacity="0.4"/>
</linearGradient>
<linearGradient id="paint8_linear_9615_52904" x1="7.18519" y1="5.21253" x2="6.36516" y2="5.91727" gradientUnits="userSpaceOnUse">
<stop stop-opacity="0.01"/>
<stop offset="1" stop-opacity="0.4"/>
</linearGradient>
<linearGradient id="paint9_linear_9615_52904" x1="15.1841" y1="19.4499" x2="15.2672" y2="20.5443" gradientUnits="userSpaceOnUse">
<stop stop-opacity="0.01"/>
<stop offset="1" stop-opacity="0.4"/>
</linearGradient>
<linearGradient id="paint10_linear_9615_52904" x1="13.2458" y1="17.8478" x2="13.4382" y2="20.6931" gradientUnits="userSpaceOnUse">
<stop stop-color="white" stop-opacity="0.5"/>
<stop offset="0.0896271" stop-color="white" stop-opacity="0.4552"/>
<stop offset="1" stop-color="white" stop-opacity="0.01"/>
</linearGradient>
<linearGradient id="paint11_linear_9615_52904" x1="12.8756" y1="18.2903" x2="13.218" y2="21.3298" gradientUnits="userSpaceOnUse">
<stop stop-opacity="0.01"/>
<stop offset="1" stop-opacity="0.4"/>
</linearGradient>
<linearGradient id="paint12_linear_9615_52904" x1="11.5316" y1="0.802501" x2="2.75054" y2="5.88111" gradientUnits="userSpaceOnUse">
<stop stop-color="white" stop-opacity="0.5"/>
<stop offset="1" stop-color="white" stop-opacity="0.01"/>
</linearGradient>
<linearGradient id="paint13_linear_9615_52904" x1="13.2277" y1="27.3459" x2="20.9782" y2="27.3615" gradientUnits="userSpaceOnUse">
<stop stop-color="#1D1D1B" stop-opacity="0.5"/>
<stop offset="0.0896271" stop-color="#1D1D1B" stop-opacity="0.4552"/>
<stop offset="1" stop-color="#1D1D1B" stop-opacity="0.01"/>
</linearGradient>
<linearGradient id="paint14_linear_9615_52904" x1="18.7766" y1="4.38004" x2="17.6756" y2="4.64982" gradientUnits="userSpaceOnUse">
<stop stop-color="white" stop-opacity="0.4"/>
<stop offset="1" stop-color="white" stop-opacity="0.01"/>
</linearGradient>
<linearGradient id="paint15_linear_9615_52904" x1="8.89892" y1="20.864" x2="9.47144" y2="18.1039" gradientUnits="userSpaceOnUse">
<stop stop-color="#1D1D1B" stop-opacity="0.5"/>
<stop offset="0.0896271" stop-color="#1D1D1B" stop-opacity="0.4552"/>
<stop offset="1" stop-color="#1D1D1B" stop-opacity="0.01"/>
</linearGradient>
<linearGradient id="paint16_linear_9615_52904" x1="12.2087" y1="36.8406" x2="19.2656" y2="36.8467" gradientUnits="userSpaceOnUse">
<stop stop-color="#1D1D1B" stop-opacity="0.5"/>
<stop offset="1" stop-color="#1D1D1B" stop-opacity="0.01"/>
</linearGradient>
<linearGradient id="paint17_linear_9615_52904" x1="5.75957" y1="2.60562" x2="2.337" y2="15.7551" gradientUnits="userSpaceOnUse">
<stop stop-color="white" stop-opacity="0.5"/>
<stop offset="1" stop-color="white" stop-opacity="0.01"/>
</linearGradient>
<linearGradient id="paint18_linear_9615_52904" x1="5.75957" y1="2.60562" x2="2.337" y2="15.7551" gradientUnits="userSpaceOnUse">
<stop stop-color="white" stop-opacity="0.5"/>
<stop offset="1" stop-color="white" stop-opacity="0.01"/>
</linearGradient>
<linearGradient id="paint19_linear_9615_52904" x1="14.0668" y1="16.3895" x2="11.3616" y2="20.1129" gradientUnits="userSpaceOnUse">
<stop stop-color="white" stop-opacity="0.5"/>
<stop offset="0.0896271" stop-color="white" stop-opacity="0.4552"/>
<stop offset="1" stop-color="white" stop-opacity="0.01"/>
</linearGradient>
<linearGradient id="paint20_linear_9615_52904" x1="14.8822" y1="17.2455" x2="14.6144" y2="17.8459" gradientUnits="userSpaceOnUse">
<stop stop-opacity="0.01"/>
<stop offset="1" stop-opacity="0.4"/>
</linearGradient>
<linearGradient id="paint21_linear_9615_52904" x1="17.5384" y1="18.0399" x2="17.5252" y2="18.2013" gradientUnits="userSpaceOnUse">
<stop stop-opacity="0.01"/>
<stop offset="1" stop-opacity="0.4"/>
</linearGradient>
<linearGradient id="paint22_linear_9615_52904" x1="7.79747" y1="0.963937" x2="6.62798" y2="5.58398" gradientUnits="userSpaceOnUse">
<stop stop-color="white" stop-opacity="0.65"/>
<stop offset="1" stop-color="white" stop-opacity="0.01"/>
</linearGradient>
<linearGradient id="paint23_linear_9615_52904" x1="10.4136" y1="3.62866" x2="12.448" y2="5.69697" gradientUnits="userSpaceOnUse">
<stop stop-opacity="0.01"/>
<stop offset="1" stop-opacity="0.4"/>
</linearGradient>
<linearGradient id="paint24_linear_9615_52904" x1="9.11339" y1="6.67459" x2="11.9242" y2="3.7879" gradientUnits="userSpaceOnUse">
<stop stop-opacity="0.01"/>
<stop offset="1" stop-opacity="0.4"/>
</linearGradient>
</defs>
</svg>
