<svg width="28" height="28" viewBox="0 0 28 28" fill="none" xmlns="http://www.w3.org/2000/svg">
<circle opacity="0.852" cx="14" cy="14" r="14" fill="url(#paint0_radial_11384_8754)"/>
<path d="M4.75137 24.5338C4.73227 24.5198 4.7127 24.5021 4.69312 24.4806C4.33073 24.1509 3.74045 23.6309 3.12362 22.8449C2.5909 21.6894 2.89287 19.7485 4.20386 17.008C6.05357 13.1414 9.01312 9.21556 10.2265 7.82299C9.88126 7.43781 8.81188 6.38302 7.29659 5.24526C5.7813 4.1075 4.67738 3.99096 4.29264 4.0601C4.64779 3.67492 5.47646 2.94901 6.17196 2.46013C8.32651 1.39348 12.3081 3.19592 14.0148 4.22306V11.2896C9.66422 14.6377 5.63924 19.808 4.82536 21.8227C4.20418 23.3605 4.44975 24.2133 4.69312 24.4806C4.71325 24.4989 4.73269 24.5166 4.75137 24.5338Z" fill="url(#paint1_linear_11384_8754)"/>
<path d="M4.75137 24.5331C4.73227 24.5191 4.7127 24.5014 4.69311 24.4799C4.33072 24.1502 3.74045 23.6302 3.12362 22.8442C2.5909 21.6887 2.89287 19.7477 4.20386 17.0073C6.35133 12.5183 10.2265 7.82227 10.2265 7.82227C10.2265 7.82227 10.9185 9.54047 12.4888 12.5183C8.44439 16.1034 5.63923 19.8072 4.82536 21.822C4.20418 23.3598 4.44974 24.2126 4.69311 24.4799C4.71325 24.4982 4.73268 24.5159 4.75137 24.5331Z" fill="url(#paint2_linear_11384_8754)"/>
<path d="M23.2784 24.5338C23.2975 24.5198 23.3171 24.5021 23.3367 24.4806C23.6991 24.1509 24.2893 23.6309 24.9062 22.8449C25.4389 21.6894 25.1369 19.7485 23.8259 17.008C21.9762 13.1414 19.0167 9.21556 17.8032 7.82299C18.1485 7.43781 19.2179 6.38302 20.7332 5.24526C22.2485 4.1075 23.3524 3.99096 23.7371 4.0601C23.382 3.67492 22.5533 2.94901 21.8578 2.46013C19.7033 1.39348 15.7217 3.19592 14.015 4.22306V11.2896C18.3656 14.6377 22.3906 19.808 23.2044 21.8227C23.8256 23.3605 23.58 24.2133 23.3367 24.4806C23.3165 24.4989 23.2971 24.5166 23.2784 24.5338Z" fill="url(#paint3_linear_11384_8754)"/>
<path d="M23.2784 24.5331C23.2975 24.5191 23.3171 24.5014 23.3367 24.4799C23.6991 24.1502 24.2893 23.6302 24.9062 22.8442C25.4389 21.6887 25.1369 19.7477 23.8259 17.0073C21.6785 12.5183 17.8032 7.82227 17.8032 7.82227C17.8032 7.82227 17.1113 9.54047 15.5409 12.5183C19.5854 16.1034 22.3906 19.8072 23.2044 21.822C23.8256 23.3598 23.58 24.2126 23.3367 24.4799C23.3165 24.4982 23.2971 24.5159 23.2784 24.5331Z" fill="url(#paint4_linear_11384_8754)"/>
<defs>
<radialGradient id="paint0_radial_11384_8754" cx="0" cy="0" r="1" gradientUnits="userSpaceOnUse" gradientTransform="translate(14 12.5) rotate(90.0548) scale(15.5)">
<stop stop-color="#FAFAFA"/>
<stop offset="0.499976" stop-color="#EFEFEF"/>
<stop offset="0.828794" stop-color="#C0BEC0"/>
<stop offset="1" stop-color="#879288"/>
</radialGradient>
<linearGradient id="paint1_linear_11384_8754" x1="10.9925" y1="2.72638" x2="11.2296" y2="10.7856" gradientUnits="userSpaceOnUse">
<stop stop-color="#008B00"/>
<stop offset="1" stop-color="#6CC329"/>
</linearGradient>
<linearGradient id="paint2_linear_11384_8754" x1="8.1481" y1="10.6667" x2="10.874" y2="14.4" gradientUnits="userSpaceOnUse">
<stop stop-color="#008C00"/>
<stop offset="1" stop-color="#48BF21"/>
</linearGradient>
<linearGradient id="paint3_linear_11384_8754" x1="17.0372" y1="2.72638" x2="16.8002" y2="10.7856" gradientUnits="userSpaceOnUse">
<stop stop-color="#008B00"/>
<stop offset="1" stop-color="#6CC329"/>
</linearGradient>
<linearGradient id="paint4_linear_11384_8754" x1="19.8817" y1="10.6667" x2="17.1558" y2="14.4" gradientUnits="userSpaceOnUse">
<stop stop-color="#008C00"/>
<stop offset="1" stop-color="#48BF21"/>
</linearGradient>
</defs>
</svg>
