<svg width="28" height="28" viewBox="0 0 28 28" fill="none" xmlns="http://www.w3.org/2000/svg">
<path d="M14 0C6.27812 0 0 6.27812 0 14C0 21.7219 6.27812 28 14 28C21.7219 28 28 21.7219 28 14C28 6.27812 21.7219 0 14 0Z" fill="#FF5A5F"/>
<path d="M13.9998 17.6867C13.082 16.5322 12.5421 15.5201 12.3621 14.6542C12.1821 13.9506 12.2541 13.3914 12.5601 12.9765C12.884 12.4894 13.3699 12.2549 13.9998 12.2549C14.6297 12.2549 15.1157 12.4894 15.4396 12.9765C15.7456 13.3914 15.8176 13.9506 15.6376 14.6542C15.4396 15.5382 14.8997 16.5484 13.9998 17.6867ZM19.0247 20.3566C17.4949 21.0241 15.9813 19.9597 14.6855 18.5165C16.829 15.8268 17.2249 13.7342 16.3053 12.3794C15.7654 11.6037 14.9915 11.2248 13.9998 11.2248C12.0021 11.2248 10.9025 12.9206 11.3345 14.8887C11.5864 15.9531 12.2523 17.1636 13.3141 18.5165C12.5177 19.4012 11.4728 20.4047 10.2186 20.519C8.4009 20.7896 6.97732 19.0217 7.62522 17.1978L12.2343 7.63307C12.6277 6.91403 13.1132 6.29812 13.998 6.29812C14.6459 6.29812 15.1499 6.67696 15.3658 6.98363L20.3708 17.1978C20.8612 18.432 20.2394 19.8308 19.0247 20.3566ZM21.3463 16.837L17.0612 7.90367C16.2513 6.244 15.6754 5.25 13.9998 5.25C12.3441 5.25 11.6404 6.40455 10.9205 7.90367L6.65337 16.837C5.73552 19.3644 7.62522 21.5833 9.91267 21.5833C10.0567 21.5833 10.1996 21.5653 10.3446 21.5653C11.5324 21.421 12.758 20.6633 13.9998 19.3085C15.2416 20.6615 16.4673 21.421 17.6551 21.5653C17.8001 21.5653 17.943 21.5833 18.087 21.5833C20.3745 21.5851 22.2642 19.3644 21.3463 16.837Z" fill="white"/>
</svg>
