<svg width="32" height="32" viewBox="0 0 32 32" fill="none" xmlns="http://www.w3.org/2000/svg">
<rect x="2" y="2" width="28" height="28" rx="14" fill="#784589"/>
<path d="M13.4824 18.272C13.2433 18.272 13.0087 18.2487 12.7785 18.2023C12.5483 18.1558 12.3335 18.0883 12.1343 17.9997C11.9129 17.8979 11.727 17.7751 11.5765 17.6312C11.4259 17.4873 11.3175 17.3246 11.2511 17.1431C11.1979 16.9793 11.199 16.8255 11.2544 16.6816C11.3097 16.5377 11.4082 16.4348 11.5499 16.3728C11.6916 16.3108 11.8166 16.2809 11.9251 16.2831C12.0336 16.2854 12.1243 16.3108 12.1974 16.3595C12.2704 16.4082 12.3335 16.4613 12.3867 16.5189C12.4486 16.5897 12.5128 16.6517 12.5792 16.7048C12.8537 16.9262 13.1592 17.0368 13.4957 17.0368C13.6684 17.0413 13.8333 17.0214 13.9904 16.9771C14.1476 16.9328 14.2306 16.8354 14.2395 16.6849C14.2395 16.5609 14.1919 16.468 14.0967 16.406C14.0015 16.344 13.8587 16.2843 13.6684 16.2267L13.0308 16.0076C12.2383 15.7375 11.7558 15.442 11.5831 15.1211C11.4104 14.8001 11.3418 14.5112 11.3772 14.2545V14.2478C11.3949 13.8361 11.6097 13.4864 12.0214 13.1986C12.4331 12.9109 12.9356 12.7604 13.5289 12.7471C14.0026 12.7471 14.4121 12.8223 14.7575 12.9728C15.1028 13.1234 15.3618 13.3381 15.5345 13.617C15.6496 13.7985 15.6894 13.9601 15.654 14.1017C15.6319 14.177 15.5953 14.239 15.5444 14.2877C15.4935 14.3364 15.4437 14.374 15.395 14.4006C15.2002 14.498 15.0408 14.5467 14.9169 14.5467C14.8239 14.5467 14.7376 14.5245 14.6579 14.4802C14.5782 14.436 14.4918 14.3806 14.3989 14.3142L14.3457 14.2744C14.1199 14.1106 13.8919 14.0287 13.6617 14.0287C13.4625 14.0287 13.3064 14.0597 13.1935 14.1217C13.0806 14.1836 13.0242 14.2666 13.0242 14.3707C13.0242 14.4747 13.0696 14.5566 13.1603 14.6164C13.2511 14.6761 13.3717 14.7282 13.5223 14.7724L14.3789 15.0447C14.9678 15.2262 15.3884 15.5007 15.6407 15.8681C15.747 16.0275 15.8156 16.1747 15.8466 16.3097C15.8776 16.4447 15.8909 16.5499 15.8864 16.6251C15.8864 16.8819 15.8222 17.1154 15.6939 17.3257C15.5655 17.536 15.3773 17.7164 15.1294 17.8669C14.908 17.9953 14.6557 18.0949 14.3723 18.1657C14.089 18.2366 13.7923 18.272 13.4824 18.272ZM19.9573 18.9427C19.9529 18.8231 19.9773 18.7335 20.0304 18.6737C20.0835 18.614 20.1411 18.5752 20.2031 18.5575C20.3093 18.5177 20.4034 18.4623 20.4853 18.3915C20.5672 18.3207 20.6303 18.2366 20.6746 18.1392C20.7188 18.0285 20.7543 17.8979 20.7808 17.7474C20.7941 17.6854 20.803 17.6256 20.8074 17.5681C20.8162 17.5327 20.8207 17.4973 20.8207 17.4618L20.8406 17.3556L20.8804 17.0501L20.9004 16.9439C20.9004 16.9085 20.9048 16.873 20.9136 16.8376L20.9336 16.7048C20.9336 16.6783 20.938 16.6517 20.9468 16.6251L20.9535 16.5587L21.0265 16.0408L21.0465 15.8681L21.0929 15.5627C21.1018 15.5494 21.1018 15.5427 21.0929 15.5427C21.0974 15.5383 21.0907 15.5361 21.073 15.5361H20.8671C20.7919 15.5361 20.7388 15.5029 20.7078 15.4365C20.6989 15.4143 20.6945 15.39 20.6945 15.3634C20.7033 15.2705 20.7166 15.1775 20.7343 15.0845C20.7476 15.0314 20.7764 14.9916 20.8207 14.965C20.8649 14.9384 20.9114 14.9229 20.9601 14.9185H21.1793C21.1881 14.892 21.1926 14.8676 21.1926 14.8455C21.2014 14.7835 21.2125 14.7259 21.2258 14.6728C21.2567 14.5179 21.3121 14.3784 21.3918 14.2545C21.4936 14.0951 21.6242 13.9756 21.7836 13.8959L21.9031 13.8428C21.943 13.8206 21.9873 13.8051 22.036 13.7963C22.0979 13.7786 22.1776 13.7631 22.275 13.7498C22.3813 13.7365 22.4809 13.7299 22.5739 13.7299H22.6336C22.7133 13.7343 22.7908 13.7431 22.8661 13.7564C22.9059 13.7609 22.9413 13.7808 22.9723 13.8162C23.0033 13.8516 23.0177 13.897 23.0155 13.9523C23.0133 14.0077 23.0055 14.0663 22.9923 14.1283C22.9878 14.1681 22.9812 14.208 22.9723 14.2478L22.9657 14.281C22.9613 14.312 22.9458 14.3386 22.9192 14.3607C22.8926 14.3829 22.8639 14.3939 22.8329 14.3939H22.6071C22.5761 14.3895 22.5407 14.3873 22.5008 14.3873H22.4344C22.3769 14.3917 22.3171 14.4094 22.2551 14.4404C22.171 14.4802 22.1068 14.5467 22.0625 14.6396C22.0271 14.7105 22.0028 14.8034 21.9895 14.9185H23.0719V14.9252H23.0786V14.9185H23.0852C23.1428 14.9229 23.1904 14.9451 23.228 14.9849C23.2656 15.0248 23.2845 15.0757 23.2845 15.1377C23.28 15.1598 23.2778 15.1819 23.2778 15.2041V15.2173C23.2867 15.2085 23.2933 15.2041 23.2977 15.2041L23.3708 15.1377C23.4151 15.1022 23.4638 15.0668 23.5169 15.0314C23.57 14.996 23.6276 14.9672 23.6896 14.9451C23.7737 14.9141 23.8556 14.8942 23.9353 14.8853C24.015 14.8765 24.0836 14.872 24.1411 14.872C24.2297 14.872 24.2762 14.8743 24.2806 14.8787C24.3647 14.8831 24.4533 14.9097 24.5462 14.9584C24.6525 15.0159 24.7366 15.1022 24.7986 15.2173L24.8252 15.2837L24.865 15.2439C24.8783 15.2262 24.896 15.2107 24.9181 15.1974C25.1262 15.0159 25.3277 14.9097 25.5225 14.8787C25.5756 14.8698 25.6331 14.8654 25.6951 14.8654C25.7571 14.8654 25.8235 14.8698 25.8943 14.8787C26.0006 14.892 26.098 14.9207 26.1865 14.965C26.2839 15.0181 26.3581 15.0956 26.409 15.1974C26.4599 15.2992 26.4898 15.4143 26.4987 15.5427C26.5031 15.6534 26.4965 15.7663 26.4787 15.8814V15.9013L26.4522 16.1337L26.4323 16.2466L26.419 16.3462C26.4101 16.3816 26.4035 16.4182 26.3991 16.4558C26.3946 16.4934 26.3924 16.53 26.3924 16.5654L26.3659 16.7115L26.3526 16.8177L26.3393 16.8841L26.3326 16.9572L26.2928 17.2361L26.2662 17.4618L26.2397 17.6079L26.1932 17.9798L26.1865 17.9931C26.1821 18.0462 26.1711 18.0971 26.1533 18.1458C26.1268 18.2078 26.0825 18.2476 26.0205 18.2653C25.9851 18.2742 25.9453 18.2786 25.901 18.2786H25.549C25.4693 18.2786 25.414 18.2454 25.383 18.179C25.3697 18.1436 25.3631 18.117 25.3631 18.0993L25.383 17.9466L25.3963 17.8868V17.8669C25.4051 17.8359 25.4096 17.8071 25.4096 17.7806C25.4184 17.7407 25.4228 17.7009 25.4228 17.6611C25.4361 17.5947 25.445 17.5305 25.4494 17.4685C25.4627 17.3888 25.4738 17.3091 25.4826 17.2294L25.5025 17.1099L25.549 16.7579L25.5623 16.6783C25.5667 16.6119 25.5756 16.5499 25.5889 16.4923C25.5977 16.4525 25.6021 16.4149 25.6021 16.3794C25.6154 16.3175 25.6243 16.2577 25.6287 16.2001L25.6353 16.1869C25.6486 16.0718 25.6597 15.9544 25.6686 15.8349C25.6774 15.7597 25.6641 15.6955 25.6287 15.6423C25.5933 15.5892 25.549 15.5582 25.4959 15.5494C25.4605 15.5405 25.4251 15.5361 25.3896 15.5361C25.3409 15.5361 25.2922 15.5449 25.2435 15.5627L25.2037 15.5826C25.1063 15.6224 25.0111 15.691 24.9181 15.7884C24.9137 15.7973 24.9048 15.8061 24.8916 15.815C24.8783 15.8327 24.8694 15.8526 24.865 15.8748L24.8318 16.1802L24.7654 16.6251C24.7654 16.6606 24.7632 16.6971 24.7587 16.7347C24.7543 16.7723 24.7477 16.8089 24.7388 16.8443L24.7189 16.9904L24.7056 17.0634C24.7056 17.1033 24.7012 17.1387 24.6923 17.1697L24.6791 17.2693C24.6658 17.3578 24.6547 17.4419 24.6458 17.5216L24.6259 17.6743C24.6215 17.7275 24.6126 17.7828 24.5994 17.8404C24.5994 17.8581 24.5971 17.878 24.5927 17.9001C24.5883 17.9577 24.5794 18.0174 24.5662 18.0794C24.5352 18.2078 24.4577 18.2742 24.3337 18.2786H23.9485C23.8511 18.2786 23.7914 18.2366 23.7692 18.1525C23.7604 18.1215 23.7582 18.0861 23.7626 18.0462V18.0329C23.7715 18.0064 23.7759 17.9798 23.7759 17.9532L23.7892 17.9001L23.829 17.588C23.8379 17.5128 23.8489 17.4375 23.8622 17.3622L23.8755 17.2427L23.9286 16.8974L23.9751 16.5388L24.0216 16.2533C24.0216 16.2134 24.026 16.178 24.0349 16.147C24.057 16.0186 24.0637 15.8925 24.0548 15.7685C24.0504 15.6667 24.0105 15.6003 23.9353 15.5693C23.8866 15.5472 23.8379 15.5361 23.7892 15.5361L23.7294 15.5427C23.6276 15.5604 23.539 15.597 23.4638 15.6523C23.3885 15.7076 23.3221 15.7663 23.2645 15.8283C23.2512 15.8416 23.2424 15.8593 23.238 15.8814L23.2313 15.9677C23.2225 16.0031 23.218 16.0386 23.218 16.074L23.1782 16.2997V16.3263L23.1649 16.3994L23.1516 16.5189C23.1472 16.5809 23.1384 16.6428 23.1251 16.7048C23.1162 16.7845 23.1051 16.8642 23.0919 16.9439L23.0786 17.0568L22.9657 17.847C22.9568 17.9267 22.9436 18.0086 22.9258 18.0927C22.917 18.137 22.8982 18.1746 22.8694 18.2056C22.8406 18.2366 22.8063 18.2565 22.7665 18.2653C22.7399 18.2742 22.7089 18.2786 22.6735 18.2786H22.295C22.2108 18.2786 22.1577 18.241 22.1356 18.1657C22.1267 18.1259 22.1245 18.0816 22.1289 18.0329C22.1289 18.0019 22.1334 17.9732 22.1422 17.9466L22.1489 17.9001C22.1666 17.7806 22.1821 17.6655 22.1953 17.5548C22.2042 17.5194 22.2086 17.484 22.2086 17.4486L22.2285 17.329C22.2285 17.2892 22.233 17.2516 22.2418 17.2161C22.2507 17.1807 22.2551 17.1475 22.2551 17.1165L22.275 17.0036C22.275 16.9727 22.2795 16.9372 22.2883 16.8974L22.3746 16.2599L22.4012 16.0939L22.4211 15.9412C22.43 15.9057 22.4344 15.8681 22.4344 15.8283C22.4433 15.7973 22.4477 15.7619 22.4477 15.722L22.4809 15.5361H21.9297C21.9164 15.5361 21.9076 15.5449 21.9031 15.5627L21.8766 15.7287L21.8699 15.7951C21.8655 15.8039 21.8633 15.815 21.8633 15.8283L21.85 15.8947C21.85 15.9345 21.8456 15.9722 21.8367 16.0076C21.8323 16.0695 21.8234 16.1337 21.8102 16.2001L21.7703 16.499L21.7504 16.6119C21.7504 16.6517 21.746 16.6893 21.7371 16.7247C21.7283 16.7602 21.7238 16.7978 21.7238 16.8376L21.7039 16.9439L21.6441 17.3622L21.591 17.7806C21.4759 18.4314 21.2944 18.8397 21.0465 19.0058C20.7985 19.1718 20.5904 19.2526 20.4222 19.2481C20.3292 19.2614 20.2407 19.2504 20.1566 19.2149C20.1079 19.1972 20.0647 19.1662 20.0271 19.122C19.9894 19.0777 19.9662 19.0179 19.9573 18.9427ZM10.1487 12.8068C9.76791 12.8245 9.53659 12.9253 9.45468 13.109C9.37278 13.2927 9.34068 13.4576 9.35839 13.6037V13.7166L9.31854 13.6103C9.31854 13.6059 9.29641 13.5705 9.25213 13.5041C9.20786 13.4377 9.1326 13.3602 9.02634 13.2717C8.92894 13.1876 8.78284 13.1101 8.58804 13.0393C8.39324 12.9684 8.1431 12.9308 7.83761 12.9264C7.16466 12.9441 6.61014 13.1964 6.17406 13.6834C5.73797 14.1704 5.51328 14.7901 5.5 15.5427C5.51328 16.3219 5.7269 16.9583 6.14085 17.4519C6.5548 17.9455 7.0894 18.2012 7.74464 18.2189H7.83097C8.1763 18.2012 8.48843 18.1193 8.76735 17.9732C9.00199 17.8492 9.18572 17.681 9.31854 17.4685L9.35839 17.3954V17.5349C9.34953 17.7031 9.39381 17.8658 9.49121 18.023C9.58861 18.1801 9.80776 18.2631 10.1487 18.272C10.4851 18.272 10.7131 18.1502 10.8327 17.9068C10.8814 17.8049 10.9102 17.7042 10.919 17.6046C10.9279 17.505 10.9323 17.4264 10.9323 17.3689V13.9092C10.95 13.6701 10.9179 13.431 10.836 13.192C10.7541 12.9529 10.525 12.8245 10.1487 12.8068ZM8.10325 16.7911C7.79777 16.7867 7.56201 16.6783 7.39599 16.4658C7.22997 16.2533 7.14695 15.9744 7.14695 15.6291C7.14695 15.2262 7.22997 14.9318 7.39599 14.7459C7.56201 14.5599 7.79777 14.4692 8.10325 14.4736C8.37774 14.4692 8.59468 14.5566 8.75406 14.7359C8.91345 14.9152 8.99535 15.2129 8.99978 15.6291C8.99535 15.9788 8.91345 16.2588 8.75406 16.4691C8.59468 16.6794 8.37774 16.7867 8.10325 16.7911ZM16.9756 18.272C16.6125 18.2543 16.3878 18.137 16.3015 17.92C16.2152 17.7031 16.1764 17.4862 16.1853 17.2693V13.7764C16.1764 13.555 16.2152 13.3325 16.3015 13.109C16.3878 12.8854 16.6125 12.7648 16.9756 12.7471C17.25 12.7471 17.4515 12.8135 17.5799 12.9463C17.6729 13.0481 17.7282 13.1621 17.7459 13.2883C17.7636 13.4144 17.7703 13.5284 17.7658 13.6303C17.7614 13.6568 17.7592 13.6812 17.7592 13.7033V14.3939L18.7487 13.2717C18.8151 13.1964 18.8771 13.1344 18.9346 13.0857C19.1162 12.9264 19.2888 12.8467 19.4526 12.8467C19.5854 12.8467 19.7205 12.8932 19.8577 12.9861C19.9153 13.026 19.964 13.0658 20.0038 13.1057C20.1632 13.2872 20.2296 13.4631 20.2031 13.6336C20.1765 13.804 20.1034 13.9468 19.9839 14.0619L18.9014 15.224L20.2429 17.1564C20.3536 17.3113 20.3979 17.4784 20.3757 17.6577C20.3536 17.837 20.2673 17.9909 20.1167 18.1193C19.9883 18.2211 19.8378 18.272 19.6651 18.272H19.6386C19.519 18.2676 19.4072 18.2355 19.3032 18.1757C19.1992 18.1159 19.1117 18.0351 19.0409 17.9333L17.7592 16.0474V17.256C17.7725 17.5128 17.7326 17.743 17.6396 17.9466C17.5467 18.1502 17.3253 18.2587 16.9756 18.272Z" fill="white"/>
</svg>
