<svg width="32" height="32" viewBox="0 0 32 32" fill="none" xmlns="http://www.w3.org/2000/svg">
<g clip-path="url(#clip0_11384_8716)">
<path d="M28.3908 3.18481C27.9128 3.18481 27.4358 3.18331 26.9588 3.18331C25.8268 3.18081 24.7818 4.04681 23.9828 4.73331C23.2178 5.42681 22.5213 6.19181 21.9018 7.01731C21.6688 6.39538 21.3879 5.79241 21.0618 5.21381C20.8554 4.78835 20.5611 4.41151 20.1983 4.10813C19.8356 3.80475 19.4126 3.58174 18.9573 3.45381C18.4858 3.38981 18.0093 3.37381 17.5343 3.40481C17.1343 3.40331 16.0003 3.40481 16.0003 3.40481C16.0003 3.40481 14.8643 3.40331 14.4653 3.40481C13.9903 3.37331 13.5138 3.38981 13.0423 3.45381C12.5871 3.58174 12.1641 3.80475 11.8013 4.10813C11.4386 4.41151 11.1443 4.78835 10.9378 5.21381C10.6113 5.79231 10.3308 6.39481 10.0978 7.01681C9.47831 6.19109 8.78149 5.42629 8.01683 4.73281C7.21683 4.04631 6.17383 3.18031 5.04033 3.18281L3.60833 3.18431C2.92633 3.18531 2.24466 3.18631 1.56333 3.18731C1.06683 3.18931 -0.033171 3.05881 0.227329 3.86731C0.290329 4.06331 0.512329 4.23881 0.638329 4.40231L1.04983 4.97731L1.62683 5.94981L2.89983 8.35981C3.84983 10.1238 4.94833 11.8033 6.18483 13.3798C7.11733 14.5313 8.24383 15.6938 9.63733 16.2648C8.58533 18.2201 7.53583 20.1768 6.48883 22.1348L3.70983 27.1768C3.66383 27.2578 3.61583 27.3378 3.57283 27.4193C3.41083 27.6743 3.30683 27.9608 3.26883 28.2603C3.26983 28.8003 4.07183 28.8168 4.45633 28.8193C4.87033 28.8218 5.28633 28.8103 5.69983 28.8063C6.41983 28.7983 7.13983 28.79 7.85983 28.7813C8.28633 28.7763 8.71983 28.7933 9.14383 28.7528C9.67767 28.7058 10.1953 28.5451 10.6618 28.2815C11.1284 28.0178 11.5331 27.6574 11.8488 27.2243C12.0553 26.9363 13.9918 23.7603 14.7753 22.4773C15.0713 21.9913 16.0003 20.5398 16.0003 20.5398L17.2243 22.4773L20.1508 27.2243C20.4665 27.6574 20.8713 28.0178 21.3378 28.2815C21.8044 28.5451 22.322 28.7058 22.8558 28.7528C23.2808 28.7928 23.7133 28.7768 24.1393 28.7813C24.8587 28.7886 25.5787 28.797 26.2993 28.8063L27.5433 28.8193C27.9263 28.8168 28.7298 28.8008 28.7308 28.2603C28.6931 27.9607 28.5889 27.6734 28.4258 27.4193C28.3823 27.3378 28.3358 27.2583 28.2888 27.1768C27.3323 25.5118 26.4238 23.8278 25.5163 22.1353C24.4663 20.1786 23.4163 18.222 22.3663 16.2653C23.7603 15.6938 24.8863 14.5313 25.8193 13.3803C27.0559 11.8039 28.1551 10.1244 29.1048 8.36031C29.5483 7.56731 29.9248 6.73531 30.3733 5.94531C30.5593 5.61881 30.7513 5.29381 30.9503 4.97631C31.0775 4.77797 31.2147 4.58622 31.3613 4.40181C31.5257 4.24622 31.6647 4.06587 31.7733 3.86731C32.0333 3.05881 30.9343 3.18981 30.4383 3.18731C29.755 3.18597 29.0725 3.18497 28.3908 3.18431V3.18481Z" fill="#F9C638"/>
<path d="M18.3666 7.68637L18.5846 7.64937C18.6851 7.62824 18.7839 7.59966 18.8801 7.56387C19.077 7.49516 19.2598 7.39131 19.4196 7.25737C19.4915 7.20606 19.5522 7.14075 19.5981 7.06537C18.9661 7.07687 18.4951 7.07337 18.1841 7.04937C18.0991 7.03637 18.0376 7.25537 17.9971 7.69787C17.9921 7.73187 18.1971 7.70937 18.3671 7.68637H18.3666ZM15.1751 10.6334C15.1671 10.6424 15.1626 10.6534 15.1631 10.6664C15.1636 10.6794 15.1701 10.6934 15.1811 10.7024C15.2111 10.73 15.2434 10.7551 15.2776 10.7774C15.4774 10.9102 15.7127 10.9796 15.9526 10.9764C16.1933 10.981 16.4297 10.9115 16.6296 10.7774C16.6646 10.7554 16.6996 10.7299 16.7306 10.7024C16.7546 10.6824 16.7656 10.6514 16.7481 10.6309C16.7261 10.6089 16.6901 10.6079 16.6671 10.6294C16.6382 10.6536 16.608 10.6763 16.5766 10.6974H16.5756C16.3899 10.8163 16.174 10.8795 15.9534 10.8796C15.7329 10.8797 15.517 10.8166 15.3311 10.6979H15.3296C15.3 10.6769 15.2716 10.6541 15.2446 10.6299C15.2346 10.6209 15.2221 10.6169 15.2096 10.6174C15.1971 10.6179 15.1846 10.6244 15.1756 10.6344L15.1751 10.6334ZM17.9501 10.2119C17.9476 10.2069 17.9451 10.2019 17.9441 10.1959L17.9511 10.2119H17.9501ZM19.4391 8.44437C19.3839 8.3219 19.3013 8.21377 19.1976 8.12837C19.0575 8.02365 18.8855 7.97049 18.7107 7.97787C18.5359 7.98525 18.369 8.05271 18.2381 8.16887C18.1226 8.28669 18.0309 8.42575 17.9681 8.57837C17.8063 8.92557 17.7267 9.30542 17.7356 9.68838C17.743 9.8634 17.8107 10.0305 17.9271 10.1614C18.0802 10.3012 18.2729 10.3899 18.4786 10.4154C18.6811 10.4769 18.8986 10.4674 19.0951 10.3889C19.1924 10.3191 19.2748 10.2304 19.3372 10.1282C19.3996 10.026 19.4409 9.91233 19.4586 9.79387C19.5488 9.51377 19.5884 9.21986 19.5756 8.92587C19.5589 8.7588 19.5128 8.59598 19.4396 8.44487L19.4391 8.44437Z" fill="#2A2D2C"/>
<path d="M18.7331 9.14979C18.833 9.11195 18.9361 9.083 19.0411 9.06329C18.8161 9.07979 18.6996 8.98829 18.6791 8.79229L18.6371 8.38379C18.6451 8.56179 18.6106 8.73379 18.5371 8.90079C18.5112 8.94565 18.4739 8.98289 18.4291 9.00879L18.2956 9.05129C18.2461 9.06903 18.1945 9.08029 18.1421 9.08479C18.3921 9.06329 18.5201 9.12629 18.5406 9.26179L18.6116 9.65029C18.6166 9.35029 18.6576 9.18029 18.7326 9.15029L18.7331 9.14979ZM19.0326 9.75729L19.0076 9.50429C19.0113 9.61392 18.9913 9.72305 18.9491 9.82429C18.931 9.85214 18.9067 9.87541 18.8781 9.89229L18.7996 9.91629C18.7686 9.9267 18.7366 9.93374 18.7041 9.93729C18.8531 9.92479 18.9371 9.96229 18.9541 10.0453L18.9966 10.2828C18.9966 10.0953 19.0216 9.99629 19.0716 9.97879C19.1319 9.95378 19.1948 9.93566 19.2591 9.92479C19.1216 9.93379 19.0471 9.87479 19.0341 9.75729" fill="white"/>
<path d="M13.9009 7.69787C13.8579 7.25537 13.7969 7.03637 13.7129 7.04937C13.4009 7.07337 12.9309 7.07687 12.2979 7.06537C12.3444 7.14037 12.4049 7.20537 12.4759 7.25737C12.6359 7.39137 12.8189 7.49487 13.0159 7.56387C13.1122 7.59935 13.2109 7.62792 13.3114 7.64937C13.3324 7.65437 13.4249 7.67087 13.5299 7.68637C13.6999 7.70987 13.9029 7.73637 13.9009 7.69787ZM13.9509 10.2119L13.9574 10.1959L13.9524 10.2119H13.9514H13.9509ZM12.3269 8.92537C12.3133 9.21939 12.3529 9.51344 12.4439 9.79337C12.4804 10.0324 12.6109 10.2469 12.8064 10.3934C13.0029 10.4719 13.2199 10.4809 13.4224 10.4199C13.6283 10.3943 13.8213 10.3056 13.9749 10.1659C14.0911 10.0348 14.1589 9.86787 14.1669 9.69287C14.1761 9.30962 14.0961 8.92946 13.9334 8.58238C13.8711 8.42934 13.7792 8.29016 13.6629 8.17287C13.3929 7.93287 12.9929 7.91588 12.7039 8.13287C12.6002 8.21793 12.518 8.32618 12.4639 8.44887C12.3893 8.59957 12.3427 8.76255 12.3264 8.92987L12.3269 8.92537Z" fill="#2A2D2C"/>
<path d="M13.1637 9.1501C13.0637 9.1121 12.9612 9.0831 12.8562 9.0636C13.0812 9.0801 13.1982 8.9886 13.2182 8.7926L13.2597 8.3841C13.2513 8.562 13.2857 8.73933 13.3602 8.9011C13.386 8.94569 13.4229 8.98289 13.4672 9.0091L13.6012 9.0516C13.6509 9.06944 13.7027 9.0807 13.7552 9.0851C13.5052 9.0636 13.3772 9.1266 13.3567 9.2621L13.2852 9.6506C13.2812 9.3506 13.2392 9.1806 13.1642 9.1506L13.1637 9.1501ZM12.8642 9.7576L12.8892 9.5046C12.8857 9.61422 12.9057 9.72332 12.9477 9.8246C12.9657 9.85222 12.9896 9.87546 13.0177 9.8926L13.0967 9.9166C13.1279 9.92683 13.1601 9.93387 13.1927 9.9376C13.0427 9.9251 12.9592 9.9626 12.9427 10.0456L12.9007 10.2831C12.9007 10.0956 12.8757 9.9966 12.8257 9.9791C12.7654 9.95417 12.7026 9.93606 12.6382 9.9251C12.7757 9.9341 12.8512 9.8751 12.8632 9.7576H12.8642ZM3.66724 27.4686L3.46724 27.8671C3.41024 27.9906 3.37724 28.1236 3.36924 28.2591V28.2611C3.36814 28.3057 3.37653 28.35 3.39386 28.3912C3.41119 28.4323 3.43705 28.4692 3.46974 28.4996C3.54883 28.567 3.64243 28.6153 3.74324 28.6406C3.97517 28.695 4.21308 28.7197 4.45124 28.7141L4.57824 28.7151L7.85324 28.6766L8.07824 28.6761L8.34324 28.6766L9.12824 28.6481C9.64714 28.6027 10.1503 28.4466 10.6038 28.1904C11.0573 27.9342 11.4506 27.5837 11.7572 27.1626C11.8042 27.0991 11.9652 26.8426 12.1872 26.4861L13.0002 25.1701L14.6802 22.4236L15.9052 20.4836C15.9252 20.4536 15.9587 20.4346 15.9952 20.4336C16.0317 20.4326 16.0642 20.4526 16.0837 20.4836C16.0842 20.4841 17.0122 21.9346 17.3097 22.4236L19.8012 26.4861L20.2312 27.1626C20.5376 27.5839 20.9307 27.9345 21.3842 28.1907C21.8377 28.447 22.3408 28.603 22.8597 28.6481C23.1162 28.6731 23.3797 28.6766 23.6437 28.6766L23.9097 28.6761L24.1347 28.6766C24.8541 28.6846 25.5741 28.6929 26.2947 28.7016L27.4097 28.7156L27.5367 28.7146C27.7132 28.7164 27.8896 28.7047 28.0642 28.6796C28.2296 28.6642 28.3872 28.6017 28.5182 28.4996C28.5509 28.4692 28.5768 28.4323 28.5941 28.3912C28.6114 28.35 28.6198 28.3057 28.6187 28.2611V28.2581C28.6108 28.1226 28.5781 27.9898 28.5222 27.8661C28.4647 27.7276 28.3897 27.5886 28.3262 27.4661L28.1912 27.2276C27.2342 25.5606 26.3242 23.8751 25.4172 22.1776C24.3672 20.2209 23.3172 18.2643 22.2672 16.3076C22.2532 16.2811 22.2512 16.2501 22.2612 16.2216C22.2661 16.2076 22.2739 16.1948 22.284 16.184C22.2942 16.1733 22.3065 16.1648 22.3202 16.1591C23.6852 15.6011 24.8027 14.4511 25.7302 13.3061C26.9632 11.7341 28.0592 10.0591 29.0052 8.3001C29.3417 7.6986 29.6412 7.0716 29.9652 6.4541C29.2292 7.5626 28.3167 8.5431 27.2642 9.3566C25.7167 10.6036 23.0867 11.8351 19.4017 13.0376C15.8507 14.2019 13.2369 15.5561 11.5602 17.1001L9.88024 18.5941C9.80524 18.6701 9.45174 19.0401 8.83324 19.7256C7.9853 20.6908 7.19142 21.7022 6.45524 22.7551L5.64174 23.9051L3.79874 27.2226L3.66374 27.4596" fill="white"/>
<path d="M31.5936 3.80971C31.5601 3.88971 31.5111 3.96121 31.4501 4.02171L31.2131 4.28571L31.2116 4.28721C31.0616 4.47721 30.9201 4.67371 30.7901 4.87721L30.7911 4.87621L30.2101 5.85221L28.9411 8.26721C27.9961 10.0172 26.9036 11.6922 25.6736 13.2612C24.7486 14.4042 23.6401 15.5412 22.2956 16.0912C22.2466 16.1112 22.2081 16.1512 22.1906 16.2012C22.1731 16.2512 22.1766 16.3062 22.2021 16.3537C23.2544 18.309 24.3044 20.2657 25.3521 22.2237L28.1271 27.2687L28.2621 27.5072C28.3256 27.6257 28.3991 27.7572 28.4541 27.8962C28.5063 28.0096 28.5369 28.1316 28.5446 28.2562V28.2597C28.5461 28.2931 28.5403 28.3264 28.5276 28.3573C28.5149 28.3882 28.4956 28.416 28.4711 28.4387C28.3513 28.5293 28.2086 28.5845 28.0591 28.5982C27.8891 28.6217 27.7166 28.6332 27.5441 28.6317H27.4041C27.0391 28.6317 26.6731 28.6217 26.3041 28.6187C25.5831 28.61 24.8631 28.6017 24.1441 28.5937L23.9491 28.5922L23.6491 28.5927C23.3891 28.5927 23.1311 28.5892 22.8816 28.5652C21.8556 28.4752 20.9186 27.9462 20.3116 27.1142C20.2611 27.0402 20.2121 26.9652 20.1646 26.8892C19.6471 26.0742 18.0786 23.5012 17.3931 22.3792C17.0941 21.8892 16.1681 20.4392 16.1671 20.4382C16.1321 20.3842 16.0721 20.3517 16.0086 20.3517C15.9451 20.3517 15.8846 20.3842 15.8501 20.4382C15.8491 20.4392 14.9226 21.8892 14.6236 22.3792L12.9446 25.1252L12.1321 26.4412L11.8521 26.8887C11.8046 26.9648 11.7556 27.04 11.7051 27.1142C11.4051 27.5255 11.0204 27.8678 10.577 28.118C10.1336 28.3682 9.64179 28.5205 9.1346 28.5647C8.87935 28.586 8.62323 28.5952 8.3671 28.5922C8.2656 28.5922 8.1641 28.5917 8.0671 28.5917L7.8711 28.5932C7.1511 28.5999 6.4311 28.6082 5.7111 28.6182L4.6111 28.6312H4.4711C4.2411 28.6362 4.0101 28.6132 3.7861 28.5602C3.6974 28.5392 3.61496 28.4974 3.5456 28.4382C3.4956 28.3922 3.4691 28.3267 3.4721 28.2582V28.2552C3.47954 28.1306 3.51023 28.0085 3.5626 27.8952C3.6176 27.7612 3.6906 27.6252 3.7536 27.5067C3.7936 27.4307 3.8411 27.3567 3.8886 27.2682L3.8881 27.2697C4.8466 25.6017 5.7561 23.9162 6.6641 22.2232C7.71344 20.2665 8.76294 18.3099 9.8126 16.3532C9.8376 16.3062 9.8426 16.2507 9.8241 16.2007C9.8056 16.1507 9.7676 16.1107 9.7181 16.0907C8.3741 15.5417 7.2651 14.4042 6.3401 13.2607C5.11075 11.6925 4.01793 10.0219 3.0736 8.26721C2.6346 7.48371 2.2576 6.65071 1.8046 5.85221C1.6181 5.52371 1.4246 5.19621 1.2236 4.87621L1.2241 4.87671C1.0936 4.67281 0.952752 4.47572 0.802103 4.28621C0.726103 4.18871 0.637103 4.10271 0.563603 4.02021C0.502603 3.96021 0.453603 3.88771 0.421103 3.80871C0.402333 3.75598 0.391874 3.70065 0.390103 3.64471C0.387344 3.5999 0.401432 3.55567 0.429603 3.52071C0.50175 3.45508 0.592706 3.4138 0.689603 3.40271C0.839603 3.37671 0.992603 3.36471 1.1446 3.36771C1.2946 3.36771 1.4446 3.37421 1.5626 3.37421H1.5776C2.25994 3.37288 2.9416 3.37188 3.6226 3.37121C4.09927 3.37121 4.57644 3.37088 5.0541 3.37021H5.0591C5.59873 3.39392 6.12182 3.56362 6.5726 3.86121C7.0451 4.16121 7.4916 4.50121 7.9076 4.87521C8.6636 5.56021 9.3526 6.31671 9.9641 7.13321C10.0061 7.18671 10.0741 7.21321 10.1416 7.20221C10.2091 7.19121 10.2651 7.14521 10.2881 7.08121C10.5181 6.46871 10.7941 5.87471 11.1156 5.30471L11.1191 5.29871C11.5026 4.53871 12.2776 3.80371 13.0941 3.63771C13.3183 3.59585 13.5461 3.57692 13.7741 3.58121C14.0066 3.58121 14.2441 3.59271 14.4791 3.59271L15.0541 3.59221L17.5471 3.59271C17.7821 3.59271 18.0201 3.58121 18.2531 3.58121C18.4808 3.57688 18.7083 3.59582 18.9321 3.63771C19.7486 3.80271 20.5246 4.53921 20.9081 5.29871L20.9111 5.30471C21.2323 5.87465 21.509 6.46859 21.7386 7.08121C21.7621 7.14521 21.8186 7.19121 21.8856 7.20221C21.9526 7.21321 22.0206 7.18721 22.0631 7.13321C22.6747 6.31688 23.3628 5.56078 24.1181 4.87521C24.5346 4.50021 24.9811 4.16171 25.4531 3.86121C25.9039 3.5638 26.427 3.39428 26.9666 3.37071H26.9716C27.4483 3.37071 27.9256 3.37104 28.4036 3.37171C29.0849 3.37304 29.7671 3.37404 30.4501 3.37471H30.4651C30.5881 3.37471 30.7336 3.36821 30.8831 3.36821C31.0766 3.36021 31.2701 3.38321 31.4561 3.43521C31.5096 3.45132 31.5581 3.48074 31.5971 3.52071C31.6256 3.55571 31.6401 3.59971 31.6371 3.64471C31.6356 3.70071 31.6251 3.75571 31.6071 3.80871L31.5936 3.80971ZM31.8696 3.27671C31.7441 3.14625 31.5787 3.06128 31.3996 3.03521C31.2248 3.00348 31.0472 2.98924 30.8696 2.99271C30.7096 2.99271 30.5611 2.99921 30.4516 2.99921H30.4376C29.7549 2.99788 29.0726 2.99688 28.3906 2.99621C27.9131 2.99621 27.4356 2.99521 26.9586 2.99521H26.9596H26.9536C26.3457 3.01851 25.7556 3.20691 25.2466 3.54021C24.7561 3.85139 24.2924 4.20276 23.8601 4.59071C23.164 5.21608 22.5273 5.90452 21.9581 6.64721C21.7461 6.12421 21.5016 5.61521 21.2261 5.12321C20.7831 4.21321 19.9701 3.53821 19.0001 3.26971C18.7511 3.22221 18.4981 3.20121 18.2451 3.20571C18.0001 3.20571 17.7611 3.21671 17.5451 3.21671L16.9701 3.21621L16.0001 3.21671L15.0401 3.21621L14.4641 3.21671C14.2441 3.21671 14.0041 3.20571 13.7606 3.20571C13.5066 3.20071 13.2531 3.22271 13.0036 3.27071C12.0266 3.54071 11.2126 4.21721 10.7701 5.12921C10.4961 5.61989 10.2526 6.12702 10.0411 6.64771C9.47215 5.90479 8.83541 5.21634 8.1391 4.59121C7.7071 4.20321 7.2441 3.85121 6.7531 3.54121C6.2441 3.20771 5.6531 3.01971 5.0456 2.99121H5.0356L3.6081 2.99221C2.9261 2.99621 2.24444 2.99871 1.5631 2.99971H1.5501C1.4401 2.99971 1.2911 2.99321 1.1321 2.99321C0.895103 2.98421 0.658603 3.01421 0.432103 3.08221C0.316718 3.12005 0.213161 3.18725 0.131603 3.27721C0.0446028 3.38021 -0.00139717 3.51121 0.00160283 3.64571C0.00310283 3.74571 0.0196028 3.83471 0.0496028 3.92471C0.0996028 4.05471 0.174603 4.17271 0.269603 4.27221C0.354603 4.37221 0.439603 4.45071 0.491103 4.51721C0.634048 4.69648 0.767562 4.88306 0.891103 5.07621C1.08931 5.3927 1.28036 5.71361 1.4641 6.03871C1.9066 6.81771 2.2831 7.64971 2.7321 8.45271C3.68682 10.2258 4.79152 11.914 6.0341 13.4987C6.9341 14.6072 8.0191 15.7347 9.3741 16.3507C8.35344 18.249 7.33677 20.148 6.3241 22.0477L3.4141 27.3327C3.3516 27.4497 3.2726 27.5957 3.2071 27.7537C3.1356 27.9122 3.0951 28.0837 3.0881 28.2577V28.2657C3.08741 28.3492 3.10387 28.432 3.13646 28.5089C3.16906 28.5858 3.2171 28.6551 3.2776 28.7127C3.45153 28.8573 3.66423 28.9474 3.8891 28.9717C4.0791 28.9987 4.2701 29.0117 4.4616 29.0087L4.6041 29.0092L7.8691 28.9712L8.0611 28.9702L8.3611 28.9707C8.6251 28.9707 8.8946 28.9677 9.1646 28.9407C10.2986 28.8407 11.3336 28.2557 12.0036 27.3357C12.0361 27.2907 12.0876 27.2107 12.1636 27.0927C12.6861 26.2707 14.2536 23.7002 14.9386 22.5777L15.6606 21.4292L16.0001 20.8897L16.3421 21.4277L17.0641 22.5762L18.7431 25.3232L19.5566 26.6412L19.8386 27.0912L19.9976 27.3342C20.3289 27.7889 20.7537 28.1674 21.2433 28.4444C21.733 28.7214 22.2762 28.8904 22.8366 28.9402C23.1066 28.9662 23.3766 28.9702 23.6406 28.9702H23.9406H24.1321L27.3971 29.0082L27.5396 29.0077C27.8049 29.0141 28.0698 28.9855 28.3276 28.9227C28.4747 28.8855 28.6105 28.8133 28.7236 28.7122C28.7849 28.6544 28.8335 28.5844 28.8662 28.5068C28.899 28.4291 28.9151 28.3455 28.9136 28.2612V28.2572C28.9071 28.0832 28.8666 27.9122 28.7951 27.7532C28.7291 27.5957 28.6451 27.4492 28.5866 27.3312C28.5406 27.2452 28.4926 27.1642 28.4476 27.0847L28.4471 27.0842C27.4971 25.4222 26.5846 23.7402 25.6771 22.0477C24.6624 20.1484 23.6456 18.249 22.6266 16.3497C23.9816 15.7337 25.0666 14.6062 25.9666 13.4982C27.2096 11.9133 28.3148 10.225 29.2701 8.45171C29.7186 7.64921 30.0951 6.81671 30.5376 6.03771C30.7216 5.71271 30.9126 5.39071 31.1101 5.07621V5.07471C31.2271 4.88471 31.3671 4.70171 31.5101 4.51571V4.51721C31.5616 4.45071 31.6471 4.36721 31.7321 4.27221C31.8286 4.17221 31.9036 4.05471 31.9521 3.92571C31.9826 3.83527 31.9987 3.74063 32.0001 3.64521C32.0033 3.51061 31.9571 3.37949 31.8701 3.27671H31.8696Z" fill="#2A2D2C"/>
</g>
<defs>
<clipPath id="clip0_11384_8716">
<rect width="32" height="32" fill="white"/>
</clipPath>
</defs>
</svg>
