<svg width="32" height="32" viewBox="0 0 32 32" fill="none" xmlns="http://www.w3.org/2000/svg">
<g clip-path="url(#clip0_11778_2623)">
<path d="M27.7702 26.3421C14.5624 32.6278 6.36544 27.3687 1.11834 24.1745C0.79365 23.9732 0.241792 24.2215 0.720604 24.7715C2.46868 26.891 8.19748 31.9997 15.6752 31.9997C23.1581 31.9997 27.6098 27.9168 28.1666 27.2045C28.7198 26.4983 28.3291 26.1088 27.77 26.3421H27.7702ZM31.4795 24.2936C31.1249 23.8317 29.3228 23.7456 28.1887 23.8849C27.0529 24.0202 25.348 24.7144 25.4962 25.1312C25.5723 25.2873 25.7275 25.2173 26.5078 25.1471C27.2902 25.0691 29.4821 24.7925 29.9388 25.3895C30.3977 25.9907 29.2397 28.8544 29.0283 29.3163C28.8239 29.7782 29.1063 29.8973 29.4901 29.5897C29.8687 29.2822 30.5539 28.4858 31.0138 27.3589C31.4705 26.2259 31.749 24.6452 31.4794 24.2936H31.4795Z" fill="#FF9900"/>
<path fill-rule="evenodd" clip-rule="evenodd" d="M18.8882 13.5161C18.8882 15.1654 18.9298 16.5409 18.0962 18.0055C17.4234 19.1965 16.3576 19.9288 15.1668 19.9288C13.5412 19.9288 12.5945 18.6903 12.5945 16.8624C12.5945 13.2541 15.8276 12.5992 18.8882 12.5992V13.5161ZM23.1573 23.8348C22.8774 24.0849 22.4725 24.1028 22.157 23.936C20.7518 22.769 20.5017 22.2272 19.7277 21.1137C17.4056 23.4835 15.7622 24.192 12.7494 24.192C9.18876 24.192 6.41406 21.9949 6.41406 17.5947C6.41406 14.1592 8.27784 11.8191 10.9273 10.676C13.2257 9.66369 16.435 9.48509 18.8882 9.20533V8.65749C18.8882 7.65118 18.9655 6.46036 18.3761 5.5911C17.858 4.81107 16.8696 4.48952 16.0003 4.48952C14.3867 4.48952 12.9458 5.31712 12.5945 7.03192C12.523 7.41309 12.2432 7.78823 11.8622 7.80605L7.75372 7.36552C7.40845 7.28796 7.02741 7.0082 7.12267 6.47819C8.06937 1.50057 12.5646 0 16.5896 0C18.6498 0 21.3411 0.547839 22.9666 2.1079C25.0268 4.03104 24.8303 6.59729 24.8303 9.38983V15.9871C24.8303 17.9699 25.652 18.8392 26.426 19.911C26.6998 20.292 26.7594 20.7506 26.4141 21.0363C25.5507 21.7567 24.0145 23.0965 23.1691 23.8468L23.1572 23.8348" fill="black"/>
<path d="M27.7702 26.3421C14.5624 32.6278 6.36544 27.3687 1.11834 24.1745C0.79365 23.9732 0.241792 24.2215 0.720604 24.7715C2.46868 26.891 8.19748 31.9997 15.6752 31.9997C23.1581 31.9997 27.6098 27.9168 28.1666 27.2045C28.7198 26.4983 28.3291 26.1088 27.77 26.3421H27.7702ZM31.4795 24.2936C31.1249 23.8317 29.3228 23.7456 28.1887 23.8849C27.0529 24.0202 25.348 24.7144 25.4962 25.1312C25.5723 25.2873 25.7275 25.2173 26.5078 25.1471C27.2902 25.0691 29.4821 24.7925 29.9388 25.3895C30.3977 25.9907 29.2397 28.8544 29.0283 29.3163C28.8239 29.7782 29.1063 29.8973 29.4901 29.5897C29.8687 29.2822 30.5539 28.4858 31.0138 27.3589C31.4705 26.2259 31.749 24.6452 31.4794 24.2936H31.4795Z" fill="#FF9900"/>
<path fill-rule="evenodd" clip-rule="evenodd" d="M18.8882 13.5161C18.8882 15.1654 18.9298 16.5409 18.0962 18.0055C17.4234 19.1965 16.3576 19.9288 15.1668 19.9288C13.5412 19.9288 12.5945 18.6903 12.5945 16.8624C12.5945 13.2541 15.8276 12.5992 18.8882 12.5992V13.5161ZM23.1573 23.8348C22.8774 24.0849 22.4725 24.1028 22.157 23.936C20.7518 22.769 20.5017 22.2272 19.7277 21.1137C17.4056 23.4835 15.7622 24.192 12.7494 24.192C9.18876 24.192 6.41406 21.9949 6.41406 17.5947C6.41406 14.1592 8.27784 11.8191 10.9273 10.676C13.2257 9.66369 16.435 9.48509 18.8882 9.20533V8.65749C18.8882 7.65118 18.9655 6.46036 18.3761 5.5911C17.858 4.81107 16.8696 4.48952 16.0003 4.48952C14.3867 4.48952 12.9458 5.31712 12.5945 7.03192C12.523 7.41309 12.2432 7.78823 11.8622 7.80605L7.75372 7.36552C7.40845 7.28796 7.02741 7.0082 7.12267 6.47819C8.06937 1.50057 12.5646 0 16.5896 0C18.6498 0 21.3411 0.547839 22.9666 2.1079C25.0268 4.03104 24.8303 6.59729 24.8303 9.38983V15.9871C24.8303 17.9699 25.652 18.8392 26.426 19.911C26.6998 20.292 26.7594 20.7506 26.4141 21.0363C25.5507 21.7567 24.0145 23.0965 23.1691 23.8468L23.1572 23.8348" fill="black"/>
</g>
<defs>
<clipPath id="clip0_11778_2623">
<rect width="32" height="32" fill="white"/>
</clipPath>
</defs>
</svg>
