<svg width="18" height="17" viewBox="0 0 18 17" fill="none" xmlns="http://www.w3.org/2000/svg">
<path d="M15.375 4.236C13.0162 4.00225 10.6433 3.88184 8.2775 3.88184C6.875 3.88184 5.4725 3.95267 4.07 4.09434L2.625 4.236" fill="#FF4E3E"/>
<path d="M15.375 4.236C13.0162 4.00225 10.6433 3.88184 8.2775 3.88184C6.875 3.88184 5.4725 3.95267 4.07 4.09434L2.625 4.236" stroke="#FF4E3E" stroke-width="1.5" stroke-linecap="round" stroke-linejoin="round"/>
<path d="M6.521 3.52074L6.67683 2.59283C6.79016 1.91991 6.87516 1.41699 8.07225 1.41699H9.92808C11.1252 1.41699 11.2172 1.94824 11.3235 2.59991L11.4793 3.52074" stroke="#FF4E3E" stroke-width="1.5" stroke-linecap="round" stroke-linejoin="round"/>
<path d="M13.8521 6.47461L13.3917 13.6075C13.3138 14.7196 13.25 15.5838 11.2738 15.5838H6.72628C4.75003 15.5838 4.68628 14.7196 4.60837 13.6075L4.14795 6.47461" stroke="#FF4E3E" stroke-width="1.5" stroke-linecap="round" stroke-linejoin="round"/>
<path d="M7.81689 11.6875H10.1756" stroke="#FF4E3E" stroke-width="1.5" stroke-linecap="round" stroke-linejoin="round"/>
<path d="M7.229 8.85449H10.7707" stroke="#FF4E3E" stroke-width="1.5" stroke-linecap="round" stroke-linejoin="round"/>
</svg>
