<svg width="32" height="32" viewBox="0 0 32 32" fill="none" xmlns="http://www.w3.org/2000/svg">
<g clip-path="url(#clip0_11384_24309)">
<path d="M3.78544 7H28.2025C29.7478 7 30.9987 8.25086 30.9987 9.79618V19.1165C30.9987 20.6618 29.7478 21.9127 28.2025 21.9127H19.4462L20.6481 24.8559L15.3624 21.9127H3.79762C2.25242 21.9127 1.00155 20.6618 1.00155 19.1165V9.79618C0.989251 8.26316 2.23999 7 3.78544 7Z" fill="#9B5C8F"/>
<path d="M2.70937 9.54865C2.8801 9.31687 3.13613 9.19501 3.47758 9.17064C4.09955 9.12177 4.45319 9.41436 4.5385 10.0485C4.91651 12.5971 5.33108 14.7555 5.77002 16.5236L8.44047 11.4387C8.68443 10.9753 8.98932 10.7314 9.35514 10.7071C9.8917 10.6705 10.2208 11.0118 10.355 11.7313C10.6599 13.353 11.0501 14.731 11.5134 15.9016C11.8305 12.8044 12.367 10.5729 13.1231 9.19501C13.3059 8.85356 13.5742 8.68283 13.9278 8.65834C14.2084 8.63409 14.4644 8.71939 14.696 8.9023C14.9277 9.08521 15.0497 9.31687 15.074 9.59739C15.0862 9.81686 15.0497 9.99978 14.9522 10.1827C14.4766 11.0607 14.0863 12.5362 13.7693 14.5847C13.4645 16.5723 13.3547 18.121 13.4278 19.2307C13.4523 19.5354 13.4035 19.8037 13.2816 20.0355C13.1351 20.3037 12.9158 20.45 12.6353 20.4744C12.3182 20.4988 11.989 20.3526 11.672 20.0233C10.5379 18.8648 9.63555 17.1332 8.97713 14.8286C8.18444 16.3894 7.59914 17.56 7.22113 18.3404C6.50167 19.7184 5.892 20.4257 5.37982 20.4622C5.05056 20.4866 4.77015 20.2061 4.52631 19.6209C3.90446 18.0234 3.23374 14.9383 2.51439 10.3656C2.46553 10.0485 2.53865 9.768 2.70937 9.54865ZM28.9142 11.4631C28.4753 10.6949 27.8289 10.2316 26.9632 10.0485C26.7314 9.99978 26.5121 9.9754 26.3047 9.9754C25.1341 9.9754 24.183 10.5851 23.4391 11.8045C22.805 12.841 22.488 13.9872 22.488 15.2432C22.488 16.1821 22.6831 16.9869 23.0733 17.6576C23.5123 18.4258 24.1586 18.8891 25.0243 19.072C25.256 19.1209 25.4754 19.1453 25.6828 19.1453C26.8656 19.1453 27.8167 18.5356 28.5484 17.3162C29.1824 16.2674 29.4995 15.1212 29.4995 13.8653C29.5117 12.9142 29.3044 12.1215 28.9142 11.4631ZM27.3778 14.8408C27.2071 15.6456 26.9022 16.2431 26.4509 16.6454C26.0974 16.9625 25.7681 17.0966 25.4634 17.0356C25.1707 16.9747 24.9267 16.7187 24.7439 16.2431C24.5974 15.865 24.5244 15.487 24.5244 15.1334C24.5244 14.8286 24.5488 14.5237 24.6097 14.2433C24.7195 13.7433 24.9268 13.2555 25.256 12.7922C25.6585 12.1946 26.0852 11.9509 26.5242 12.0362C26.8169 12.0971 27.0608 12.3533 27.2436 12.8288C27.39 13.2068 27.4631 13.5848 27.4631 13.9384C27.4631 14.2555 27.4387 14.5603 27.3778 14.8407V14.8408ZM21.2808 11.4631C20.8418 10.6949 20.1833 10.2316 19.3298 10.0485C19.0981 9.99978 18.8786 9.9754 18.6712 9.9754C17.5007 9.9754 16.5495 10.5851 15.8057 11.8045C15.1717 12.841 14.8546 13.9872 14.8546 15.2432C14.8546 16.1821 15.0497 16.9869 15.4399 17.6576C15.8788 18.4258 16.5252 18.8891 17.3909 19.072C17.6226 19.1209 17.842 19.1453 18.0494 19.1453C19.2322 19.1453 20.1833 18.5356 20.9149 17.3162C21.5491 16.2674 21.8661 15.1212 21.8661 13.8653C21.8661 12.9142 21.671 12.1215 21.2808 11.4631ZM19.7322 14.8408C19.5614 15.6456 19.2565 16.2431 18.8054 16.6454C18.4518 16.9625 18.1225 17.0966 17.8176 17.0356C17.525 16.9747 17.2812 16.7187 17.0982 16.2431C16.9519 15.865 16.8788 15.487 16.8788 15.1334C16.8788 14.8286 16.9032 14.5237 16.9641 14.2433C17.0739 13.7433 17.2812 13.2555 17.6104 12.7922C18.0128 12.1946 18.4396 11.9509 18.8785 12.0362C19.1712 12.0971 19.4152 12.3533 19.598 12.8288C19.7445 13.2068 19.8175 13.5848 19.8175 13.9384C19.8298 14.2555 19.7931 14.5603 19.7322 14.8407V14.8408Z" fill="white"/>
</g>
<defs>
<clipPath id="clip0_11384_24309">
<rect width="30" height="17.928" fill="white" transform="translate(1 7)"/>
</clipPath>
</defs>
</svg>
