<svg width="26" height="26" viewBox="0 0 26 26" fill="none" xmlns="http://www.w3.org/2000/svg">
<path d="M13 1.625C6.72598 1.625 1.625 6.72598 1.625 13C1.625 19.274 6.72598 24.375 13 24.375C19.274 24.375 24.375 19.274 24.375 13C24.375 6.72598 19.274 1.625 13 1.625Z" fill="#FF5A5F"/>
<path d="M12.9998 15.9955C12.2541 15.0574 11.8154 14.2351 11.6692 13.5315C11.5229 12.9599 11.5814 12.5055 11.83 12.1684C12.0932 11.7726 12.488 11.5821 12.9998 11.5821C13.5116 11.5821 13.9064 11.7726 14.1697 12.1684C14.4182 12.5055 14.4767 12.9599 14.3305 13.5315C14.1697 14.2498 13.731 15.0706 12.9998 15.9955ZM17.0825 18.1648C15.8396 18.7071 14.6098 17.8423 13.557 16.6697C15.2985 14.4843 15.6202 12.784 14.873 11.6832C14.4343 11.053 13.8055 10.7452 12.9998 10.7452C11.3767 10.7452 10.4833 12.123 10.8342 13.7221C11.0389 14.5869 11.58 15.5704 12.4427 16.6697C11.7956 17.3885 10.9466 18.2038 9.9276 18.2967C8.4507 18.5165 7.29405 17.0801 7.82046 15.5982L11.5653 7.82687C11.885 7.24265 12.2795 6.74222 12.9984 6.74222C13.5248 6.74222 13.9342 7.05003 14.1097 7.2992L18.1763 15.5982C18.5747 16.601 18.0694 17.7376 17.0825 18.1648ZM18.9688 15.3051L15.4872 8.04673C14.8291 6.69825 14.3612 5.89062 12.9998 5.89062C11.6545 5.89062 11.0828 6.8287 10.4979 8.04673L7.03084 15.3051C6.28508 17.3586 7.82046 19.1615 9.67901 19.1615C9.79601 19.1615 9.91214 19.1468 10.03 19.1468C10.9951 19.0295 11.9909 18.4139 12.9998 17.3132C14.0088 18.4125 15.0046 19.0295 15.9697 19.1468C16.0875 19.1468 16.2037 19.1615 16.3207 19.1615C18.1792 19.1629 19.7146 17.3586 18.9688 15.3051Z" fill="white"/>
</svg>
