<svg width="18" height="18" viewBox="0 0 18 18" fill="none" xmlns="http://www.w3.org/2000/svg">
<path d="M9 0.25C4.17383 0.25 0.25 4.17383 0.25 9C0.25 13.8262 4.17383 17.75 9 17.75C13.8262 17.75 17.75 13.8262 17.75 9C17.75 4.17383 13.8262 0.25 9 0.25Z" fill="#FF5A5F"/>
<path d="M9.00033 11.3042C8.42666 10.5826 8.08922 9.95007 7.97673 9.40888C7.86425 8.96915 7.90924 8.61963 8.10046 8.36031C8.30293 8.05588 8.60664 7.90931 9.00033 7.90931C9.39401 7.90931 9.69772 8.05588 9.90019 8.36031C10.0914 8.61963 10.1364 8.96915 10.0239 9.40888C9.90019 9.96135 9.56274 10.5927 9.00033 11.3042ZM12.1408 12.9729C11.1847 13.3901 10.2388 12.7248 9.42888 11.8228C10.7686 10.1417 11.016 8.83386 10.4412 7.98711C10.1038 7.50228 9.6201 7.26551 9.00033 7.26551C7.75177 7.26551 7.0645 8.32535 7.33446 9.55545C7.49193 10.2207 7.90812 10.9772 8.57177 11.8228C8.07399 12.3757 7.42093 13.0029 6.63707 13.0744C5.50099 13.2435 4.61126 12.1385 5.01619 10.9986L7.89687 5.02067C8.14273 4.57127 8.44618 4.18632 8.9992 4.18632C9.40414 4.18632 9.71909 4.4231 9.85407 4.61477L12.9822 10.9986C13.2887 11.77 12.9 12.6443 12.1408 12.9729ZM13.5919 10.7731L10.9137 5.18979C10.4075 4.1525 10.0475 3.53125 9.00033 3.53125C7.96549 3.53125 7.52568 4.25285 7.07575 5.18979L4.40879 10.7731C3.83513 12.3528 5.01619 13.7396 6.44585 13.7396C6.53584 13.7396 6.62517 13.7283 6.7158 13.7283C7.45819 13.6381 8.2242 13.1646 9.00033 12.3178C9.77646 13.1634 10.5425 13.6381 11.2848 13.7283C11.3755 13.7283 11.4648 13.7396 11.5548 13.7396C12.9845 13.7407 14.1655 12.3528 13.5919 10.7731Z" fill="white"/>
</svg>
