<svg width="32" height="32" viewBox="0 0 32 32" fill="none" xmlns="http://www.w3.org/2000/svg">
<rect x="2" y="2" width="28" height="28" fill="#1271CD"/>
<path d="M8.52393 16.5608L13.0025 6.55078H17.2695L18.7859 9.94578V6.55078H24.1108L24.9924 9.17578L25.9093 6.55078H30V7.74084H26.7558L25.0278 12.5008L23.2293 7.74084H19.9144V15.4058L16.5291 7.74084H13.7432L10.3225 15.4058H12.6852L13.2847 13.9008H16.8817L17.5165 15.4058H19.9144H22.0303V10.0858L24.0051 15.4058H25.9094L27.9548 10.0858V15.4058H30V16.5608H27.2495L24.9573 19.0108L22.7003 16.5608H19.9497H13.32V24.2608H19.9497H22.7003L24.9573 21.8108L27.2495 24.2608H30V25.4158H26.6851L24.9924 23.5258L23.194 25.4158H12.0856V16.5608H8.52393Z" fill="white"/>
<path d="M30 24.2608V22.6842L27.9194 20.4458L30 18.2661V16.5608L26.3326 20.4458L30 24.2608Z" fill="white"/>
<path d="M19.9497 24.2608V22.5458H15.4006V21.3208H19.8087V19.6058H15.4006V18.3808H19.9497V16.5608L23.6172 20.4458L19.9497 24.2608Z" fill="white"/>
<path d="M15.1185 9.63084L14.0253 12.1858H16.1764L15.1185 9.63084Z" fill="white"/>
</svg>
