<svg width="14" height="13" viewBox="0 0 14 13" fill="none" xmlns="http://www.w3.org/2000/svg">
<path fill-rule="evenodd" clip-rule="evenodd" d="M10.0834 1.3761C10.0834 1.37615 10.0835 1.37605 10.0834 1.3761L2.84742 8.61983L2.051 11.4508L4.88556 10.6562L12.1215 3.41161C12.1798 3.35338 12.213 3.27397 12.213 3.19163C12.213 3.10938 12.1803 3.03049 12.1222 2.97228C12.1221 2.97222 12.1222 2.97233 12.1222 2.97228L10.5231 1.37616C10.4648 1.31794 10.3857 1.28519 10.3032 1.28519C10.2209 1.28519 10.1417 1.31798 10.0834 1.3761ZM9.24416 0.537643C9.52508 0.25717 9.90603 0.0996094 10.3032 0.0996094C10.7004 0.0996094 11.0814 0.25715 11.3623 0.537588C11.3623 0.537606 11.3622 0.53757 11.3623 0.537588L12.9613 2.13372C13.2422 2.41427 13.4001 2.79492 13.4001 3.19163C13.4001 3.58834 13.2423 3.96881 12.9615 4.24936L5.61604 11.6036C5.54397 11.6757 5.45448 11.7281 5.35623 11.7556L1.35405 12.8775C1.14744 12.9355 0.92562 12.8775 0.7739 12.7259C0.62218 12.5743 0.564192 12.3528 0.622238 12.1465L1.74646 8.15027C1.77392 8.05266 1.82599 7.96372 1.89769 7.89194L9.24416 0.537643Z" fill="#632CC7"/>
</svg>
