<svg width="50" height="50" viewBox="0 0 50 50" fill="none" xmlns="http://www.w3.org/2000/svg">
<circle opacity="0.67" cx="25" cy="25" r="25" fill="#E9FBF6"/>
<path opacity="0.4" d="M30.53 20.77C30.46 20.76 30.39 20.76 30.32 20.77C28.77 20.72 27.54 19.45 27.54 17.89C27.54 16.3 28.83 15 30.43 15C32.02 15 33.32 16.29 33.32 17.89C33.31 19.45 32.08 20.72 30.53 20.77Z" fill="#17BD8D"/>
<path opacity="0.4" d="M33.7901 27.6999C32.6701 28.4499 31.1001 28.7299 29.6501 28.5399C30.0301 27.7199 30.2301 26.8099 30.2401 25.8499C30.2401 24.8499 30.0201 23.8999 29.6001 23.0699C31.0801 22.8699 32.6501 23.1499 33.7801 23.8999C35.3601 24.9399 35.3601 26.6499 33.7901 27.6999Z" fill="#17BD8D"/>
<path opacity="0.4" d="M19.4399 20.77C19.5099 20.76 19.5799 20.76 19.6499 20.77C21.1999 20.72 22.4299 19.45 22.4299 17.89C22.4299 16.3 21.1399 15 19.5399 15C17.9499 15 16.6499 16.29 16.6499 17.89C16.6599 19.45 17.8899 20.72 19.4399 20.77Z" fill="#17BD8D"/>
<path opacity="0.4" d="M19.5501 25.8501C19.5501 26.8201 19.7601 27.7401 20.1401 28.5701C18.7301 28.7201 17.2601 28.4201 16.1801 27.7101C14.6001 26.6601 14.6001 24.9501 16.1801 23.9001C17.2501 23.1801 18.7601 22.8901 20.1801 23.0501C19.7701 23.8901 19.5501 24.8401 19.5501 25.8501Z" fill="#17BD8D"/>
<path d="M25.1198 28.87C25.0398 28.86 24.9498 28.86 24.8598 28.87C23.0198 28.81 21.5498 27.3 21.5498 25.44C21.5498 23.54 23.0798 22 24.9898 22C26.8898 22 28.4298 23.54 28.4298 25.44C28.4298 27.3 26.9698 28.81 25.1198 28.87Z" fill="#17BD8D"/>
<path d="M21.8698 30.9399C20.3598 31.9499 20.3598 33.6099 21.8698 34.6099C23.5898 35.7599 26.4098 35.7599 28.1298 34.6099C29.6398 33.5999 29.6398 31.9399 28.1298 30.9399C26.4198 29.7899 23.5998 29.7899 21.8698 30.9399Z" fill="#17BD8D"/>
</svg>
