<svg width="50" height="50" viewBox="0 0 50 50" fill="none" xmlns="http://www.w3.org/2000/svg">
<circle opacity="0.67" cx="25" cy="25" r="25" fill="#F4F2F7"/>
<path fill-rule="evenodd" clip-rule="evenodd" d="M22.7001 21.4321C22.688 21.4321 22.6645 21.4321 22.6524 21.4321C22.4509 21.4075 22.285 21.2229 22.285 21.0136C22.2728 20.8166 22.166 16.2132 24.7629 15.167C25.4151 14.9084 26.0205 14.9576 26.5303 15.3393C27.1583 15.7947 27.609 16.7055 27.8817 18.0349C28.0711 18.9704 28.1067 19.7827 28.1067 19.8197C28.1189 20.0166 27.9651 20.1643 27.7628 20.1274C27.5613 20.1027 27.3954 19.9181 27.3954 19.7212C27.3598 18.8842 27.0871 16.5825 26.1864 15.9178C25.9015 15.7085 25.5454 15.6839 25.1189 15.8562C22.8894 16.7547 22.9963 21.0752 22.9963 21.1244C22.9963 21.2967 22.8782 21.4321 22.7001 21.4321Z" fill="#595961"/>
<path opacity="0.46" fill-rule="evenodd" clip-rule="evenodd" d="M26.3986 15.3639C25.9244 15.0192 25.3676 14.97 24.7623 15.2039C23.707 15.6346 22.9601 16.7671 22.5927 18.4903C22.3199 19.7581 22.3555 20.9028 22.3555 20.952C22.3555 21.0136 22.379 21.0752 22.4268 21.1244C22.4737 21.1736 22.5214 21.2106 22.5805 21.2106C22.5927 21.2106 22.6048 21.2106 22.6161 21.2106C22.7229 21.2106 22.8063 21.1244 22.8063 21.0136C22.8063 20.9644 22.6995 16.5701 24.9881 15.647C25.4502 15.4624 25.8532 15.4869 26.1858 15.7331C27.1455 16.4347 27.4304 18.8104 27.466 19.6597C27.466 19.7827 27.5728 19.9059 27.7031 19.9181C27.8221 19.9304 27.9167 19.8442 27.9167 19.7212C27.9046 19.5735 27.7743 16.3732 26.3986 15.3639Z" fill="#B2B2C2"/>
<path opacity="0.46" fill-rule="evenodd" clip-rule="evenodd" d="M22.5932 21.0628C22.5811 21.0628 22.5811 21.0628 22.5698 21.0628C22.4985 21.0505 22.4386 20.9767 22.4273 20.9028C22.4273 20.8535 22.3917 19.7335 22.6644 18.4657C23.0197 16.7794 23.7674 15.6593 24.7984 15.2407C25.3795 15.0069 25.9015 15.0561 26.3522 15.3762C27.6802 16.3485 27.8105 19.4996 27.8105 19.635C27.8105 19.7088 27.7514 19.7581 27.6802 19.7458C27.609 19.7335 27.5499 19.672 27.5378 19.5858C27.5378 19.5488 27.4075 16.4593 26.2098 15.5731C25.8537 15.3147 25.4151 15.2777 24.9174 15.4746C22.5932 16.447 22.7001 20.9028 22.7001 20.952C22.7114 21.0136 22.6644 21.0628 22.5932 21.0628Z" fill="#B2B2C2"/>
<path opacity="0.62" fill-rule="evenodd" clip-rule="evenodd" d="M23.5538 17.5427C23.6485 17.3581 23.7432 17.1735 23.8265 16.9766C23.7909 17.0381 23.5538 17.6782 22.8303 17.5797C22.8182 17.5797 23.2568 17.715 23.5538 17.5427Z" fill="#595961"/>
<path opacity="0.62" fill-rule="evenodd" clip-rule="evenodd" d="M23.2919 18.3304C23.3631 18.1334 23.4343 17.9242 23.4821 17.7273C23.4586 17.8011 23.3396 18.4658 22.5806 18.4658C22.5806 18.4658 23.0192 18.552 23.2919 18.3304Z" fill="#595961"/>
<path opacity="0.62" fill-rule="evenodd" clip-rule="evenodd" d="M27.4544 16.7425C27.3598 16.5209 27.2529 16.3116 27.1461 16.0901C27.1817 16.1639 27.5378 16.8655 27.1348 17.3702C27.1348 17.3702 27.4431 17.124 27.4544 16.7425Z" fill="#595961"/>
<path opacity="0.62" fill-rule="evenodd" clip-rule="evenodd" d="M26.8027 15.6347C26.6125 15.4747 26.4231 15.327 26.2329 15.1917C26.3041 15.2532 26.9329 15.7086 26.8973 16.398C26.8852 16.398 26.992 15.9917 26.8027 15.6347Z" fill="#595961"/>
<path opacity="0.62" fill-rule="evenodd" clip-rule="evenodd" d="M23.8973 16.8656C24.0397 16.7179 24.1579 16.5578 24.2882 16.3855C24.2412 16.4347 23.8496 16.9394 23.1504 16.7547C23.1504 16.7547 23.5534 16.9764 23.8973 16.8656Z" fill="#595961"/>
<path opacity="0.62" fill-rule="evenodd" clip-rule="evenodd" d="M24.3358 16.2993C24.5017 16.1762 24.6554 16.0531 24.81 15.9177C24.7509 15.9547 24.2646 16.3608 23.5889 16.0654C23.5889 16.0654 23.9797 16.3485 24.3358 16.2993Z" fill="#595961"/>
<path opacity="0.62" fill-rule="evenodd" clip-rule="evenodd" d="M24.976 15.893C25.1775 15.8315 25.3677 15.7576 25.557 15.6838C25.4858 15.7083 24.8813 15.9299 24.2881 15.4622C24.3002 15.4622 24.6086 15.8315 24.976 15.893Z" fill="#595961"/>
<path opacity="0.62" fill-rule="evenodd" clip-rule="evenodd" d="M25.5573 15.6716C25.7232 15.6962 25.8891 15.7085 26.055 15.7209C25.9959 15.7085 25.4739 15.6716 25.1777 15.1792C25.1777 15.1792 25.2967 15.5116 25.5573 15.6716Z" fill="#595961"/>
<path opacity="0.62" fill-rule="evenodd" clip-rule="evenodd" d="M26.2454 15.9421C26.3635 16.0776 26.4946 16.213 26.6362 16.336C26.5893 16.2868 26.1863 15.8806 26.281 15.376C26.2689 15.376 26.1386 15.659 26.2454 15.9421Z" fill="#595961"/>
<path opacity="0.74" fill-rule="evenodd" clip-rule="evenodd" d="M27.6802 19.5736C27.6802 19.4381 27.5499 16.324 26.2575 15.3763C26.0083 15.1916 25.7356 15.1055 25.4507 15.1055C25.2371 15.1055 25.0121 15.1547 24.775 15.2532C23.7432 15.6594 23.0197 16.7549 22.6644 18.4288C22.3917 19.6843 22.4273 20.8044 22.4273 20.8537C22.4273 20.8906 22.4629 20.9275 22.4985 20.9275H22.5098C22.5454 20.9275 22.5698 20.9029 22.5698 20.866C22.5698 20.8168 22.4508 16.324 24.834 15.364C25.356 15.1547 25.8068 15.1916 26.1863 15.4747C27.4188 16.3733 27.5499 19.5121 27.5499 19.5489C27.5499 19.5859 27.5855 19.6228 27.6211 19.6228C27.6211 19.6228 27.6211 19.6228 27.6324 19.6228C27.6567 19.6351 27.6802 19.6105 27.6802 19.5736Z" fill="url(#paint0_linear_10316_67670)"/>
<path fill-rule="evenodd" clip-rule="evenodd" d="M27.8816 18.035C27.6089 16.7056 27.1582 15.807 26.5302 15.3393C26.1863 15.0932 25.818 14.9824 25.415 15.007C25.7355 15.0316 26.0317 15.1424 26.3044 15.3393C26.9332 15.7948 27.384 16.7056 27.6567 18.035C27.8461 18.9704 27.8816 19.7828 27.8816 19.8197C27.8816 19.9674 27.8104 20.0783 27.6915 20.1151C27.7157 20.1275 27.7392 20.1275 27.7514 20.1275C27.9529 20.1521 28.1066 20.0166 28.0953 19.8197C28.1066 19.7828 28.071 18.9828 27.8816 18.035Z" fill="url(#paint1_linear_10316_67670)"/>
<path fill-rule="evenodd" clip-rule="evenodd" d="M24.8934 15.8564C22.6639 16.7549 22.7707 21.0753 22.7707 21.1245C22.7707 21.2722 22.6995 21.3831 22.5806 21.4199C22.6048 21.4323 22.6162 21.4323 22.6405 21.4323C22.6518 21.4323 22.6761 21.4323 22.6874 21.4323C22.8654 21.4323 22.9836 21.2969 22.9836 21.1245C22.9836 21.0753 22.8776 16.7672 25.1063 15.8687C25.2608 15.8072 25.4032 15.7702 25.5335 15.7579C25.3434 15.721 25.1306 15.7579 24.8934 15.8564Z" fill="url(#paint2_linear_10316_67670)"/>
<path fill-rule="evenodd" clip-rule="evenodd" d="M28.2724 16.9272L18.2174 20.152C18.2174 20.152 17.7909 20.2752 17.6841 20.4105C17.5773 20.5459 17.5538 20.9275 17.5538 20.9275L16 33.3594L27.6679 35.6242L28.5694 16.9148C28.4391 16.8902 28.308 16.9148 28.2724 16.9272Z" fill="url(#paint3_linear_10316_67670)"/>
<path fill-rule="evenodd" clip-rule="evenodd" d="M31.747 18.5272C31.747 18.5272 31.7349 18.4287 31.6758 18.3918C31.6281 18.3549 31.569 18.3549 31.569 18.3549L29.9205 18.2318L28.7115 16.9886C28.6637 16.9517 28.616 16.9271 28.5569 16.9148L27.6562 35.6242L33.9757 34.2086L31.747 18.5272Z" fill="url(#paint4_linear_10316_67670)"/>
<path fill-rule="evenodd" clip-rule="evenodd" d="M24.1224 27.3156C23.9444 27.0694 23.7316 26.8478 23.5179 26.6508C23.3043 26.4539 23.0793 26.2939 22.8535 26.1462C22.6998 26.0477 22.5573 25.9492 22.4384 25.8508C22.3202 25.7523 22.2255 25.6538 22.1543 25.5677C22.0831 25.4692 22.024 25.383 21.9884 25.2846C21.9528 25.1861 21.9406 25.0876 21.9406 24.9891C21.9406 24.8538 21.9763 24.7184 22.024 24.6076C22.071 24.4968 22.1543 24.3983 22.2369 24.3122C22.3323 24.226 22.4384 24.1645 22.5695 24.1153C22.6998 24.066 22.8535 24.0414 23.0194 24.0291C23.1974 24.0168 23.3755 24.0291 23.5414 24.0414C23.7073 24.0537 23.8618 24.0906 24.0156 24.1275C24.158 24.1645 24.3004 24.2137 24.4186 24.263C24.5375 24.3122 24.6557 24.3614 24.739 24.4107L25.5216 21.9981C25.4035 21.9366 25.2611 21.875 25.1065 21.8381C24.9406 21.7888 24.7625 21.752 24.561 21.7273C24.3595 21.7028 24.1459 21.6904 23.9209 21.6904C23.6959 21.6904 23.4588 21.7028 23.2096 21.7396C22.6763 21.8135 22.2013 21.9612 21.7748 22.1827C21.3718 22.392 21.0157 22.6628 20.7195 22.9951C20.4346 23.3152 20.2096 23.6844 20.0438 24.1029C19.8892 24.5092 19.7945 24.9646 19.7711 25.4569C19.7589 25.7523 19.7824 26.0231 19.8536 26.2693C19.9127 26.5155 20.0081 26.7493 20.1384 26.9709C20.2566 27.1924 20.4112 27.3894 20.577 27.574C20.7429 27.7587 20.9445 27.931 21.146 28.091C21.3119 28.2141 21.4543 28.3371 21.5733 28.4479C21.6914 28.5587 21.7869 28.6695 21.8573 28.7926C21.9285 28.9033 21.9763 29.0142 22.0119 29.1372C22.0475 29.248 22.0596 29.3711 22.0475 29.4942C22.0475 29.6173 22.0119 29.7403 21.9642 29.8388C21.9172 29.9373 21.8573 30.0358 21.7626 30.1096C21.6801 30.1835 21.5733 30.2327 21.4543 30.2573C21.3362 30.2819 21.1937 30.2942 21.0392 30.2697C20.8619 30.245 20.6839 30.1958 20.518 30.1219C20.3521 30.0604 20.1854 29.9742 20.0317 29.888C19.8779 29.8019 19.7355 29.7034 19.6165 29.6173C19.4862 29.5311 19.3794 29.4326 19.2968 29.3588L18.7627 31.1928C18.846 31.3159 18.9642 31.4267 19.0945 31.5374C19.2256 31.6482 19.3794 31.759 19.5574 31.8698C19.7355 31.9683 19.9248 32.0667 20.1263 32.1528C20.3278 32.239 20.5536 32.3129 20.7786 32.3745H20.7907H20.802H20.8142H20.8263C21.3119 32.4852 21.7748 32.5098 22.2134 32.4483C22.6641 32.3867 23.0793 32.2267 23.4345 31.9806C23.8019 31.7221 24.0989 31.3774 24.3239 30.922C24.5497 30.4666 24.68 29.9127 24.7034 29.2849C24.7156 28.891 24.6679 28.5464 24.561 28.2264C24.4542 27.8571 24.3005 27.574 24.1224 27.3156Z" fill="url(#paint5_linear_10316_67670)"/>
<path opacity="0.226763" fill-rule="evenodd" clip-rule="evenodd" d="M18.8396 31.2931C18.8121 31.2605 18.7861 31.2271 18.7627 31.1929L19.2968 29.3588C19.3041 29.3657 19.3122 29.3728 19.3203 29.38C19.3996 29.4509 19.4983 29.5392 19.6165 29.6174C19.7354 29.7035 19.8779 29.802 20.0316 29.8882C20.1854 29.9743 20.3521 30.0604 20.518 30.1221C20.6839 30.1959 20.8619 30.2451 21.0392 30.2698C21.1937 30.2943 21.3361 30.2821 21.4543 30.2574C21.5733 30.2328 21.6801 30.1836 21.7626 30.1097C21.8573 30.0359 21.9172 29.9374 21.9641 29.8389C22.0119 29.7404 22.0475 29.6174 22.0475 29.4943C22.0596 29.3712 22.0475 29.2481 22.0118 29.1373C21.9762 29.0142 21.9285 28.9034 21.8573 28.7927C21.7901 28.6757 21.7011 28.5699 21.5902 28.4645C21.6485 28.5303 21.6979 28.5979 21.7392 28.6696C21.8104 28.7804 21.8573 28.8911 21.8929 29.0142C21.9285 29.125 21.9407 29.2481 21.9285 29.3712C21.9285 29.4943 21.8929 29.6174 21.846 29.7158C21.7982 29.8143 21.7391 29.9128 21.6445 29.9866C21.5611 30.0604 21.4543 30.1097 21.3362 30.1343C21.2172 30.1589 21.0748 30.1713 20.921 30.1466C20.743 30.1221 20.5649 30.0728 20.399 29.9989C20.2331 29.9374 20.0672 29.8512 19.9126 29.7651C19.7589 29.6789 19.6165 29.5805 19.4983 29.4943C19.3794 29.4161 19.2806 29.3278 19.2013 29.257C19.1932 29.2497 19.1859 29.2426 19.1778 29.2358L18.6445 31.0698C18.6971 31.1481 18.7643 31.2215 18.8396 31.2931ZM20.5868 27.5853C20.5423 27.5412 20.4994 27.4965 20.4581 27.451C20.2922 27.2664 20.1384 27.0695 20.0195 26.8479C19.8892 26.6263 19.7945 26.3924 19.7354 26.1463C19.6642 25.9001 19.6399 25.6293 19.652 25.3339C19.6755 24.8415 19.771 24.3861 19.9248 23.9799C20.0907 23.5615 20.3165 23.1922 20.6005 22.8722C20.8975 22.5398 21.2528 22.269 21.6558 22.0598C22.0831 21.8382 22.5573 21.6905 23.0906 21.6167C23.3398 21.5797 23.577 21.5674 23.8019 21.5674C24.0277 21.5674 24.2414 21.5797 24.4429 21.6043C24.6444 21.629 24.8224 21.6659 24.9883 21.7152C25.1421 21.752 25.2845 21.8136 25.4035 21.8751L25.3848 21.9327C25.2991 21.8954 25.2052 21.8618 25.1065 21.8382C24.9406 21.789 24.7625 21.752 24.561 21.7274C24.3595 21.7028 24.1459 21.6905 23.9209 21.6905C23.6959 21.6905 23.4588 21.7028 23.2096 21.7397C22.6763 21.8136 22.2012 21.9613 21.7748 22.1829C21.3718 22.3921 21.0157 22.6629 20.7195 22.9952C20.4346 23.3153 20.2096 23.6845 20.0437 24.103C19.8892 24.5092 19.7945 24.9647 19.771 25.457C19.7589 25.7524 19.7824 26.0232 19.8536 26.2694C19.9126 26.5156 20.0081 26.7494 20.1384 26.971C20.2566 27.1925 20.4111 27.3895 20.577 27.5741C20.5803 27.5778 20.5835 27.5816 20.5868 27.5853ZM22.1972 25.6182C22.2619 25.6914 22.3429 25.7711 22.4384 25.8508C22.5573 25.9493 22.6997 26.0478 22.8535 26.1463C23.0793 26.294 23.3042 26.454 23.5179 26.6509C23.5802 26.7083 23.6417 26.7676 23.7032 26.8292C23.6045 26.723 23.5017 26.6226 23.3989 26.5279C23.1861 26.3309 22.9603 26.1709 22.7354 26.0232C22.5808 25.9247 22.4384 25.8263 22.3202 25.7278C22.2757 25.6911 22.2352 25.6543 22.1972 25.6182Z" fill="black"/>
<path opacity="0.41" fill-rule="evenodd" clip-rule="evenodd" d="M30.3234 32.1409L29.9204 18.232L29.8492 18.1581L30.0394 31.9439C30.0394 31.9439 28.3675 34.578 28.1182 34.5042C27.7508 34.3934 28.8417 17.1241 28.8417 17.1241L28.7228 17.0011C28.6758 16.9641 28.6159 16.9396 28.569 16.9272L27.6796 35.3781L27.6675 35.6366L27.9758 35.2304L30.3234 32.1409Z" fill="url(#paint6_linear_10316_67670)"/>
<path fill-rule="evenodd" clip-rule="evenodd" d="M25.7823 17.7274C25.6407 18.3059 25.4627 18.8474 25.3324 19.1798C25.249 19.3768 25.3437 19.5614 25.5217 19.586C25.7119 19.6106 25.9248 19.4752 25.996 19.2783C26.0081 19.2413 26.3277 18.4413 26.5301 17.4935V17.4812L25.7823 17.7274Z" fill="url(#paint7_linear_10316_67670)"/>
<path fill-rule="evenodd" clip-rule="evenodd" d="M20.4346 19.4504C20.2687 19.8196 20.1028 20.1397 19.9839 20.3612C19.8778 20.5459 19.9369 20.7428 20.1149 20.792C20.2922 20.8536 20.5293 20.7428 20.6361 20.5581C20.6482 20.5336 20.9922 19.9304 21.3005 19.1672L20.4346 19.4504Z" fill="url(#paint8_linear_10316_67670)"/>
<path opacity="0.32" fill-rule="evenodd" clip-rule="evenodd" d="M27.6675 35.6241L30.3234 32.1406L33.9999 34.2085L27.6675 35.6241Z" fill="url(#paint9_linear_10316_67670)"/>
<path opacity="0.19" fill-rule="evenodd" clip-rule="evenodd" d="M27.6675 35.6241L30.3 32.1406L33.9999 34.2085L27.6675 35.6241Z" fill="url(#paint10_linear_10316_67670)"/>
<path opacity="0.19" fill-rule="evenodd" clip-rule="evenodd" d="M27.6675 35.6241L30.3 32.1406L33.9999 34.2085L27.6675 35.6241Z" fill="url(#paint11_linear_10316_67670)"/>
<path opacity="0.6" fill-rule="evenodd" clip-rule="evenodd" d="M25.0828 25.8757C26.4586 27.8082 27.3835 29.9007 27.8456 31.9316L28.5691 16.9026C28.4388 16.878 28.3077 16.9026 28.2721 16.9149L18.2171 20.1522C18.2171 20.1522 18.1224 20.1767 18.0034 20.226C20.5534 21.1369 23.1026 23.094 25.0828 25.8757Z" fill="url(#paint12_linear_10316_67670)"/>
<path fill-rule="evenodd" clip-rule="evenodd" d="M31.6875 18.4041C31.7474 18.4533 31.7474 18.5272 31.7474 18.5272L33.9526 34.1962L30.3239 32.1284L29.9209 18.2195L31.5459 18.3425C31.5572 18.3549 31.6284 18.3549 31.6875 18.4041Z" fill="url(#paint13_linear_10316_67670)"/>
<path fill-rule="evenodd" clip-rule="evenodd" d="M31.4265 18.4413C31.4265 18.4413 31.4977 18.4413 31.5568 18.5028C31.6159 18.5521 31.628 18.6259 31.628 18.6259L33.7984 34.1227L33.9643 34.2212L31.7583 18.5398C31.7583 18.5398 31.747 18.4659 31.6992 18.4167C31.6401 18.3674 31.5568 18.3674 31.5568 18.3674L29.9326 18.2444L31.4265 18.4413Z" fill="url(#paint14_linear_10316_67670)"/>
<path fill-rule="evenodd" clip-rule="evenodd" d="M16 33.3591L27.6679 35.6239L28.2376 22.7981L17.451 23.1047L16 33.3591Z" fill="url(#paint15_linear_10316_67670)"/>
<path opacity="0.3" fill-rule="evenodd" clip-rule="evenodd" d="M19.8305 20.3312C19.7245 20.6303 19.8288 20.9447 20.0651 21.0334C20.3006 21.1221 20.5774 20.9515 20.6842 20.6524C20.7902 20.3533 20.6851 20.0389 20.4496 19.9502C20.2141 19.8615 19.9365 20.0321 19.8305 20.3312Z" fill="white"/>
<path opacity="0.89" fill-rule="evenodd" clip-rule="evenodd" d="M19.8177 20.1894C19.7116 20.4885 19.8168 20.8029 20.0523 20.8916C20.2878 20.9803 20.5654 20.8097 20.6714 20.5106C20.7774 20.2115 20.6731 19.8971 20.4368 19.8084C20.2013 19.7196 19.9245 19.8902 19.8177 20.1894Z" fill="black"/>
<path fill-rule="evenodd" clip-rule="evenodd" d="M29.9326 18.2318L28.7228 16.9886C28.6758 16.9517 28.6159 16.9271 28.569 16.9148L27.6675 35.6242L30.3356 32.1284L29.9326 18.2318Z" fill="url(#paint16_linear_10316_67670)"/>
<path fill-rule="evenodd" clip-rule="evenodd" d="M28.2724 16.9272L18.2175 20.1521C18.2175 20.1521 17.791 20.2752 17.6842 20.4106C17.672 20.4229 17.672 20.4352 17.6606 20.4476L27.7982 17.5427C27.8816 17.518 28.0831 17.4442 28.0596 18.0473L27.4429 35.5996L27.6566 35.6366L28.5573 16.9272C28.4391 16.8903 28.308 16.9149 28.2724 16.9272Z" fill="url(#paint17_linear_10316_67670)"/>
<path fill-rule="evenodd" clip-rule="evenodd" d="M28.2724 16.9272L18.2175 20.1521C18.2175 20.1521 17.791 20.2752 17.6842 20.4106C17.672 20.4229 17.672 20.4352 17.6606 20.4476L20.0083 19.7705L28.0831 17.1734C28.1187 17.1611 28.249 17.1365 28.3793 17.1611L27.4899 35.5996L27.6566 35.6366L28.5573 16.9272C28.4391 16.8903 28.308 16.9149 28.2724 16.9272Z" fill="url(#paint18_linear_10316_67670)"/>
<path opacity="0.32" fill-rule="evenodd" clip-rule="evenodd" d="M30.8577 32.4361L30.3235 32.1284L27.6562 35.6241L27.7979 35.5871C27.7979 35.5871 30.1463 32.4485 30.3591 32.35C30.5137 32.2884 30.8577 32.4361 30.8577 32.4361Z" fill="url(#paint19_linear_10316_67670)"/>
<path opacity="0.57" fill-rule="evenodd" clip-rule="evenodd" d="M27.6675 35.6241L30.3356 32.1284C30.3235 32.1407 28.6402 34.0486 27.6675 35.6241Z" fill="url(#paint20_linear_10316_67670)"/>
<path opacity="0.46" fill-rule="evenodd" clip-rule="evenodd" d="M34 34.2085L30.3357 32.1406C30.3236 32.1406 30.7509 32.2145 34 34.2085Z" fill="url(#paint21_linear_10316_67670)"/>
<path opacity="0.3" fill-rule="evenodd" clip-rule="evenodd" d="M25.2512 19.1041C25.1444 19.4033 25.2496 19.7177 25.4851 19.8064C25.7214 19.8952 25.9982 19.7246 26.1042 19.4255C26.211 19.1263 26.1058 18.8119 25.8703 18.7232C25.6348 18.6345 25.3573 18.805 25.2512 19.1041Z" fill="white"/>
<path opacity="0.89" fill-rule="evenodd" clip-rule="evenodd" d="M25.2385 18.9625C25.1325 19.2617 25.2378 19.5761 25.4733 19.6648C25.7088 19.7535 25.9863 19.583 26.0923 19.2838C26.1983 18.9847 26.0939 18.6703 25.8584 18.5816C25.6221 18.4928 25.3454 18.6634 25.2385 18.9625Z" fill="black"/>
<path fill-rule="evenodd" clip-rule="evenodd" d="M20.2456 20.7922C20.2334 20.7922 20.21 20.7922 20.1978 20.7922C20.0085 20.7676 19.8782 20.583 19.9017 20.3737C19.9251 20.1768 20.6008 15.5733 23.3758 14.5271C24.075 14.2685 24.6681 14.3178 25.1189 14.6994C25.6643 15.1548 25.9605 16.0656 26.0083 17.395C26.0439 18.3305 25.9371 19.1428 25.9371 19.1798C25.9136 19.3767 25.7356 19.5244 25.5454 19.4875C25.356 19.4628 25.2136 19.2783 25.2492 19.0813C25.356 18.2443 25.4742 15.9426 24.6803 15.2779C24.431 15.0686 24.0871 15.044 23.625 15.2163C21.2418 16.1148 20.613 20.4353 20.613 20.4721C20.5652 20.6568 20.4236 20.7922 20.2456 20.7922Z" fill="#595961"/>
<path opacity="0.46" fill-rule="evenodd" clip-rule="evenodd" d="M24.9761 14.7239C24.561 14.3793 24.0156 14.3301 23.3633 14.564C22.2368 14.9947 21.2883 16.1271 20.6361 17.838C20.1505 19.1059 19.9838 20.2506 19.9838 20.2998C19.9725 20.3614 19.996 20.4229 20.0316 20.4722C20.0672 20.5214 20.1149 20.5584 20.174 20.5584C20.1853 20.5584 20.1975 20.5584 20.2096 20.5584C20.3164 20.5584 20.4111 20.4722 20.4232 20.3614C20.4346 20.3122 21.0634 15.9179 23.5178 14.9947C24.0155 14.8101 24.4185 14.8347 24.7034 15.0809C25.545 15.7825 25.4269 18.1581 25.3201 19.0074C25.3079 19.1305 25.3913 19.2536 25.5094 19.2659C25.6284 19.2782 25.7465 19.192 25.7587 19.069C25.7708 18.9335 26.186 15.7333 24.9761 14.7239Z" fill="#B2B2C2"/>
<path opacity="0.81" fill-rule="evenodd" clip-rule="evenodd" d="M20.1976 20.4229C20.1855 20.4229 20.1855 20.4229 20.1742 20.4229C20.1029 20.4106 20.0552 20.3368 20.0673 20.2629C20.0795 20.2136 20.2332 19.0936 20.7196 17.8258C21.3719 16.1395 22.2968 15.0194 23.399 14.6008C24.0278 14.367 24.5377 14.4163 24.9285 14.7363C26.0906 15.7086 25.6876 18.8597 25.6641 18.9951C25.652 19.069 25.5929 19.1182 25.5096 19.1059C25.4392 19.0936 25.3914 19.0321 25.3914 18.9459C25.3914 18.9089 25.7944 15.8195 24.7513 14.9332C24.443 14.6993 24.0157 14.6748 23.4945 14.8717C20.9923 15.8195 20.3401 20.2629 20.3401 20.3121C20.3279 20.3737 20.2688 20.4229 20.1976 20.4229Z" fill="#B2B2C2"/>
<path opacity="0.42" fill-rule="evenodd" clip-rule="evenodd" d="M21.7624 16.9023C21.8927 16.7177 22.0117 16.5331 22.1298 16.3362C22.0829 16.3977 21.7389 17.0378 21.0276 16.9393C21.0155 16.9393 21.4306 17.0747 21.7624 16.9023Z" fill="#595961"/>
<path opacity="0.42" fill-rule="evenodd" clip-rule="evenodd" d="M21.3597 17.69C21.4666 17.493 21.5734 17.2838 21.6559 17.0869C21.6203 17.1608 21.3832 17.8254 20.6362 17.8254C20.6362 17.8254 21.0514 17.9116 21.3597 17.69Z" fill="#595961"/>
<path opacity="0.42" fill-rule="evenodd" clip-rule="evenodd" d="M21.0516 18.5028C21.1463 18.2934 21.2176 18.0842 21.2888 17.875C21.2532 17.9488 21.1229 18.6258 20.3403 18.712C20.3403 18.6997 20.7668 18.7489 21.0516 18.5028Z" fill="#595961"/>
<path opacity="0.62" fill-rule="evenodd" clip-rule="evenodd" d="M25.7946 16.1023C25.7355 15.8807 25.6765 15.6715 25.5931 15.45C25.6166 15.5238 25.8537 16.2254 25.3682 16.73C25.3682 16.73 25.7234 16.4839 25.7946 16.1023Z" fill="#595961"/>
<path opacity="0.62" fill-rule="evenodd" clip-rule="evenodd" d="M25.3325 14.9946C25.1666 14.8346 24.9999 14.6869 24.834 14.5515C24.8939 14.613 25.4507 15.0685 25.2969 15.7577C25.2848 15.7577 25.4628 15.3515 25.3325 14.9946Z" fill="#595961"/>
<path opacity="0.62" fill-rule="evenodd" clip-rule="evenodd" d="M25.9135 17.2349C25.9013 17.0134 25.8658 16.7795 25.8302 16.5579C25.8302 16.644 25.9491 17.3703 25.3794 17.7642C25.3794 17.7642 25.7711 17.5918 25.9135 17.2349Z" fill="#595961"/>
<path opacity="0.62" fill-rule="evenodd" clip-rule="evenodd" d="M25.9726 18.392C25.9847 18.1705 25.9847 17.9366 25.9726 17.7151C25.9726 17.8013 25.9847 18.5275 25.3794 18.8598C25.3794 18.8475 25.7946 18.7244 25.9726 18.392Z" fill="#595961"/>
<path opacity="0.42" fill-rule="evenodd" clip-rule="evenodd" d="M20.7782 19.4012C20.8494 19.1796 20.8972 18.9581 20.9441 18.7488C20.9206 18.8226 20.8138 19.5242 20.0903 19.6966C20.1025 19.6966 20.5289 19.6842 20.7782 19.4012Z" fill="#595961"/>
<path opacity="0.42" fill-rule="evenodd" clip-rule="evenodd" d="M22.2138 16.2252C22.3797 16.0775 22.5343 15.9175 22.6767 15.7451C22.6168 15.7943 22.1426 16.299 21.479 16.1144C21.4903 16.1144 21.8578 16.336 22.2138 16.2252Z" fill="#595961"/>
<path opacity="0.42" fill-rule="evenodd" clip-rule="evenodd" d="M22.7466 15.6594C22.9367 15.5363 23.1148 15.4132 23.292 15.2778C23.2216 15.3148 22.6762 15.7209 22.0474 15.4255C22.0474 15.4255 22.3792 15.7086 22.7466 15.6594Z" fill="#595961"/>
<path opacity="0.62" fill-rule="evenodd" clip-rule="evenodd" d="M23.4701 15.2531C23.6838 15.1915 23.8853 15.1177 24.0868 15.0438C24.0156 15.0685 23.3755 15.29 22.8535 14.8223C22.8535 14.8223 23.1027 15.1915 23.4701 15.2531Z" fill="#595961"/>
<path opacity="0.62" fill-rule="evenodd" clip-rule="evenodd" d="M24.0745 15.0317C24.2412 15.0563 24.4072 15.0686 24.5731 15.081C24.514 15.0686 24.0041 15.0317 23.7783 14.5393C23.7905 14.5393 23.8496 14.8717 24.0745 15.0317Z" fill="#595961"/>
<path opacity="0.62" fill-rule="evenodd" clip-rule="evenodd" d="M24.7157 15.3023C24.8225 15.4377 24.9285 15.5731 25.0353 15.6962C24.9997 15.6469 24.6679 15.2408 24.8338 14.7361C24.846 14.7361 24.6679 15.0192 24.7157 15.3023Z" fill="#595961"/>
<path fill-rule="evenodd" clip-rule="evenodd" d="M25.5339 18.9334C25.5452 18.798 25.9491 15.6839 24.8226 14.7361C24.609 14.5515 24.3484 14.4653 24.0635 14.4653C23.8499 14.4653 23.6128 14.5145 23.3635 14.613C22.2726 15.0192 21.3598 16.1147 20.7197 17.7887C20.2333 19.0442 20.0795 20.1643 20.0674 20.2135C20.0674 20.2504 20.0909 20.2874 20.1265 20.2874H20.1386C20.1742 20.2874 20.1977 20.2627 20.1977 20.2258C20.2098 20.1766 20.8499 15.6839 23.3991 14.7238C23.9445 14.5145 24.4074 14.5515 24.7392 14.8346C25.818 15.7331 25.415 18.8718 25.4037 18.9088C25.4037 18.9457 25.4271 18.9827 25.4627 18.9827C25.4627 18.9827 25.4627 18.9827 25.474 18.9827C25.5096 18.995 25.5339 18.9703 25.5339 18.9334Z" fill="url(#paint22_linear_10316_67670)"/>
<path fill-rule="evenodd" clip-rule="evenodd" d="M26.0081 17.3948C25.9603 16.0655 25.6641 15.1669 25.1187 14.6992C24.8225 14.4531 24.4665 14.3422 24.0635 14.3669C24.3718 14.3915 24.6559 14.5023 24.8938 14.6992C25.4392 15.1547 25.7354 16.0655 25.7823 17.3948C25.8179 18.3303 25.7119 19.1426 25.7119 19.1796C25.6876 19.3273 25.593 19.4381 25.474 19.475C25.4983 19.4873 25.5096 19.4873 25.5339 19.4873C25.7232 19.512 25.9013 19.3765 25.9248 19.1796C25.9369 19.1426 26.0437 18.3426 26.0081 17.3948Z" fill="url(#paint23_linear_10316_67670)"/>
<path fill-rule="evenodd" clip-rule="evenodd" d="M23.3878 15.2161C21.0046 16.1146 20.3758 20.435 20.3758 20.4842C20.3523 20.6319 20.2568 20.7427 20.1387 20.7796C20.1621 20.7919 20.1743 20.7919 20.1977 20.7919C20.2099 20.7919 20.2334 20.7919 20.2455 20.7919C20.4235 20.7919 20.5652 20.6566 20.5894 20.4842C20.6008 20.435 21.2174 16.1269 23.6007 15.2283C23.7674 15.1668 23.909 15.1299 24.0401 15.1176C23.8621 15.093 23.6363 15.1299 23.3878 15.2161Z" fill="url(#paint24_linear_10316_67670)"/>
<defs>
<linearGradient id="paint0_linear_10316_67670" x1="23.0456" y1="15.1333" x2="22.6737" y2="20.1964" gradientUnits="userSpaceOnUse">
<stop stop-color="white" stop-opacity="0.65"/>
<stop offset="1" stop-color="white" stop-opacity="0.01"/>
</linearGradient>
<linearGradient id="paint1_linear_10316_67670" x1="25.763" y1="18.0313" x2="28.3812" y2="20.3245" gradientUnits="userSpaceOnUse">
<stop stop-opacity="0.01"/>
<stop offset="1" stop-opacity="0.4"/>
</linearGradient>
<linearGradient id="paint2_linear_10316_67670" x1="24.7129" y1="20.6843" x2="27.4843" y2="18.103" gradientUnits="userSpaceOnUse">
<stop stop-opacity="0.01"/>
<stop offset="1" stop-opacity="0.4"/>
</linearGradient>
<linearGradient id="paint3_linear_10316_67670" x1="21.1857" y1="13.1514" x2="10.4217" y2="25.5539" gradientUnits="userSpaceOnUse">
<stop stop-color="#B8D26E"/>
<stop offset="1" stop-color="#7FB525"/>
</linearGradient>
<linearGradient id="paint4_linear_10316_67670" x1="35.9098" y1="16.2564" x2="30.0023" y2="16.3661" gradientUnits="userSpaceOnUse">
<stop stop-color="#B4E034"/>
<stop offset="1" stop-color="#60A927"/>
</linearGradient>
<linearGradient id="paint5_linear_10316_67670" x1="18.3386" y1="24.5262" x2="13.4953" y2="36.3208" gradientUnits="userSpaceOnUse">
<stop stop-color="white"/>
<stop offset="1" stop-color="#CECEEB"/>
</linearGradient>
<linearGradient id="paint6_linear_10316_67670" x1="25.2826" y1="53.5728" x2="32.9535" y2="53.5573" gradientUnits="userSpaceOnUse">
<stop stop-color="#1D1D1B" stop-opacity="0.5"/>
<stop offset="0.038033" stop-color="#1D1D1B" stop-opacity="0.4837"/>
<stop offset="0.4243" stop-color="#1D1D1B" stop-opacity="0.3185"/>
<stop offset="1" stop-color="#1D1D1B" stop-opacity="0.01"/>
</linearGradient>
<linearGradient id="paint7_linear_10316_67670" x1="26.174" y1="16.6551" x2="24.9014" y2="17.34" gradientUnits="userSpaceOnUse">
<stop stop-opacity="0.01"/>
<stop offset="1" stop-opacity="0.4"/>
</linearGradient>
<linearGradient id="paint8_linear_10316_67670" x1="20.8384" y1="18.6864" x2="19.9439" y2="19.4552" gradientUnits="userSpaceOnUse">
<stop stop-opacity="0.01"/>
<stop offset="1" stop-opacity="0.4"/>
</linearGradient>
<linearGradient id="paint9_linear_10316_67670" x1="29.5644" y1="34.2177" x2="29.6549" y2="35.4116" gradientUnits="userSpaceOnUse">
<stop stop-opacity="0.01"/>
<stop offset="1" stop-opacity="0.4"/>
</linearGradient>
<linearGradient id="paint10_linear_10316_67670" x1="27.4498" y1="32.4699" x2="27.6598" y2="35.574" gradientUnits="userSpaceOnUse">
<stop stop-color="white" stop-opacity="0.5"/>
<stop offset="0.0896271" stop-color="white" stop-opacity="0.4552"/>
<stop offset="1" stop-color="white" stop-opacity="0.01"/>
</linearGradient>
<linearGradient id="paint11_linear_10316_67670" x1="27.046" y1="32.9527" x2="27.4195" y2="36.2685" gradientUnits="userSpaceOnUse">
<stop stop-opacity="0.01"/>
<stop offset="1" stop-opacity="0.4"/>
</linearGradient>
<linearGradient id="paint12_linear_10316_67670" x1="25.5805" y1="13.8759" x2="16.0012" y2="19.4162" gradientUnits="userSpaceOnUse">
<stop stop-color="white" stop-opacity="0.5"/>
<stop offset="1" stop-color="white" stop-opacity="0.01"/>
</linearGradient>
<linearGradient id="paint13_linear_10316_67670" x1="27.4292" y1="42.8312" x2="35.8843" y2="42.8483" gradientUnits="userSpaceOnUse">
<stop stop-color="#1D1D1B" stop-opacity="0.5"/>
<stop offset="0.0896271" stop-color="#1D1D1B" stop-opacity="0.4552"/>
<stop offset="1" stop-color="#1D1D1B" stop-opacity="0.01"/>
</linearGradient>
<linearGradient id="paint14_linear_10316_67670" x1="33.4836" y1="17.7779" x2="32.2825" y2="18.0722" gradientUnits="userSpaceOnUse">
<stop stop-color="white" stop-opacity="0.4"/>
<stop offset="1" stop-color="white" stop-opacity="0.01"/>
</linearGradient>
<linearGradient id="paint15_linear_10316_67670" x1="22.7079" y1="35.7609" x2="23.3325" y2="32.7498" gradientUnits="userSpaceOnUse">
<stop stop-color="#1D1D1B" stop-opacity="0.5"/>
<stop offset="0.0896271" stop-color="#1D1D1B" stop-opacity="0.4552"/>
<stop offset="1" stop-color="#1D1D1B" stop-opacity="0.01"/>
</linearGradient>
<linearGradient id="paint16_linear_10316_67670" x1="26.3185" y1="53.1894" x2="34.0169" y2="53.1961" gradientUnits="userSpaceOnUse">
<stop stop-color="#1D1D1B" stop-opacity="0.5"/>
<stop offset="1" stop-color="#1D1D1B" stop-opacity="0.01"/>
</linearGradient>
<linearGradient id="paint17_linear_10316_67670" x1="19.284" y1="15.8425" x2="15.5503" y2="30.1874" gradientUnits="userSpaceOnUse">
<stop stop-color="white" stop-opacity="0.5"/>
<stop offset="1" stop-color="white" stop-opacity="0.01"/>
</linearGradient>
<linearGradient id="paint18_linear_10316_67670" x1="19.284" y1="15.8425" x2="15.5503" y2="30.1874" gradientUnits="userSpaceOnUse">
<stop stop-color="white" stop-opacity="0.5"/>
<stop offset="1" stop-color="white" stop-opacity="0.01"/>
</linearGradient>
<linearGradient id="paint19_linear_10316_67670" x1="28.3449" y1="30.8797" x2="25.3938" y2="34.9416" gradientUnits="userSpaceOnUse">
<stop stop-color="white" stop-opacity="0.5"/>
<stop offset="0.0896271" stop-color="white" stop-opacity="0.4552"/>
<stop offset="1" stop-color="white" stop-opacity="0.01"/>
</linearGradient>
<linearGradient id="paint20_linear_10316_67670" x1="29.235" y1="31.8135" x2="28.9428" y2="32.4685" gradientUnits="userSpaceOnUse">
<stop stop-opacity="0.01"/>
<stop offset="1" stop-opacity="0.4"/>
</linearGradient>
<linearGradient id="paint21_linear_10316_67670" x1="32.1331" y1="32.6795" x2="32.1186" y2="32.8556" gradientUnits="userSpaceOnUse">
<stop stop-opacity="0.01"/>
<stop offset="1" stop-opacity="0.4"/>
</linearGradient>
<linearGradient id="paint22_linear_10316_67670" x1="21.5062" y1="14.051" x2="20.2304" y2="19.091" gradientUnits="userSpaceOnUse">
<stop stop-color="white" stop-opacity="0.65"/>
<stop offset="1" stop-color="white" stop-opacity="0.01"/>
</linearGradient>
<linearGradient id="paint23_linear_10316_67670" x1="24.3613" y1="16.9584" x2="26.5806" y2="19.2148" gradientUnits="userSpaceOnUse">
<stop stop-opacity="0.01"/>
<stop offset="1" stop-opacity="0.4"/>
</linearGradient>
<linearGradient id="paint24_linear_10316_67670" x1="22.9428" y1="20.281" x2="26.0091" y2="17.1319" gradientUnits="userSpaceOnUse">
<stop stop-opacity="0.01"/>
<stop offset="1" stop-opacity="0.4"/>
</linearGradient>
</defs>
</svg>
