<svg width="50" height="50" viewBox="0 0 50 50" fill="none" xmlns="http://www.w3.org/2000/svg">
<circle opacity="0.67" cx="25" cy="25" r="25" fill="#FFF7EB"/>
<path d="M27.5302 16.47L25.5302 14.47C25.5202 14.46 25.5102 14.46 25.5102 14.45C25.4502 14.39 25.3702 14.34 25.2902 14.3C25.2802 14.3 25.2802 14.3 25.2702 14.29C25.1902 14.26 25.1102 14.25 25.0302 14.24C25.0002 14.24 24.9802 14.24 24.9502 14.24C24.8902 14.24 24.8302 14.26 24.7702 14.28C24.7402 14.29 24.7202 14.3 24.7002 14.31C24.6202 14.35 24.5402 14.39 24.4802 14.46L22.4802 16.46C22.1902 16.75 22.1902 17.23 22.4802 17.52C22.7702 17.81 23.2502 17.81 23.5402 17.52L24.2602 16.8V22C24.2602 22.41 24.6002 22.75 25.0102 22.75C25.4202 22.75 25.7502 22.41 25.7502 22V16.81L26.4702 17.53C26.6202 17.68 26.8102 17.75 27.0002 17.75C27.1902 17.75 27.3802 17.68 27.5302 17.53C27.8202 17.24 27.8202 16.76 27.5302 16.47Z" fill="#FFA114"/>
<path opacity="0.4" d="M29.19 19H20.81C17.17 19 15 21.17 15 24.81V29.18C15 32.83 17.17 35 20.81 35H29.18C32.82 35 34.99 32.83 34.99 29.19V24.82C35 21.17 32.83 19 29.19 19Z" fill="#FFA114"/>
<path d="M34.3 25.23H30.82C29.84 25.23 28.97 25.77 28.53 26.65L27.69 28.31C27.49 28.71 27.09 28.96 26.65 28.96H23.37C23.06 28.96 22.62 28.89 22.33 28.31L21.49 26.66C21.05 25.79 20.17 25.24 19.2 25.24H15.7C15.31 25.24 15 25.55 15 25.94V29.2C15 32.83 17.18 35 20.82 35H29.2C32.63 35 34.74 33.12 35 29.78V25.93C35 25.55 34.69 25.23 34.3 25.23Z" fill="#FFA114"/>
</svg>
