<svg width="51" height="51" viewBox="0 0 51 51" fill="none" xmlns="http://www.w3.org/2000/svg">
<circle opacity="0.67" cx="25.5" cy="25.5" r="25.5" fill="#FFF7EB"/>
<path opacity="0.4" d="M33.0248 24.404H30.6085C28.6271 24.404 27.0135 22.7904 27.0135 20.8089V18.3927C27.0135 17.9329 26.6372 17.5566 26.1774 17.5566H22.6325C20.0574 17.5566 17.9756 19.2288 17.9756 22.2135V29.6211C17.9756 32.6058 20.0574 34.278 22.6325 34.278H29.2039C31.779 34.278 33.8608 32.6058 33.8608 29.6211V25.2401C33.8608 24.7802 33.4846 24.404 33.0248 24.404Z" fill="#FFA114"/>
<path d="M29.0951 17.7332C28.7523 17.3904 28.1587 17.6245 28.1587 18.1011V21.019C28.1587 22.2396 29.1954 23.2513 30.4579 23.2513C31.2521 23.2596 32.3557 23.2596 33.3005 23.2596C33.7771 23.2596 34.0279 22.6995 33.6934 22.365C32.4895 21.1527 30.3325 18.9706 29.0951 17.7332Z" fill="#FFA114"/>
<path d="M25.5251 26.3111L23.853 24.639C23.8446 24.6307 23.8363 24.6307 23.8363 24.6223C23.7861 24.5721 23.7192 24.5303 23.6523 24.4969C23.644 24.4969 23.644 24.4969 23.6356 24.4969C23.5687 24.4718 23.5019 24.4634 23.435 24.4551C23.4099 24.4551 23.3932 24.4551 23.3681 24.4551C23.3179 24.4551 23.2594 24.4718 23.2092 24.4885C23.1841 24.4969 23.1674 24.5052 23.1507 24.5136C23.0838 24.547 23.0169 24.5805 22.9668 24.639L21.2946 26.3111C21.0522 26.5536 21.0522 26.9549 21.2946 27.1974C21.5371 27.4398 21.9384 27.4398 22.1809 27.1974L22.7828 26.5954V30.0985C22.7828 30.4413 23.0671 30.7256 23.4099 30.7256C23.7527 30.7256 24.0369 30.4413 24.0369 30.0985V26.5954L24.6389 27.1974C24.7643 27.3228 24.9232 27.3813 25.082 27.3813C25.2409 27.3813 25.3997 27.3228 25.5251 27.1974C25.7676 26.9549 25.7676 26.5536 25.5251 26.3111Z" fill="#FFA114"/>
</svg>
