<svg width="20" height="20" viewBox="0 0 20 20" fill="none" xmlns="http://www.w3.org/2000/svg">
<path d="M12.1083 2.89154L10.4417 1.22487C10.4333 1.21654 10.425 1.21654 10.425 1.2082C10.375 1.1582 10.3083 1.11654 10.2417 1.0832C10.2333 1.0832 10.2333 1.0832 10.225 1.07487C10.1583 1.04987 10.0917 1.04154 10.025 1.0332C10 1.0332 9.98333 1.0332 9.95833 1.0332C9.90833 1.0332 9.85833 1.04987 9.80833 1.06654C9.78333 1.07487 9.76667 1.0832 9.75 1.09154C9.68333 1.12487 9.61667 1.1582 9.56667 1.21654L7.9 2.8832C7.65833 3.12487 7.65833 3.52487 7.9 3.76654C8.14167 4.0082 8.54167 4.0082 8.78333 3.76654L9.38333 3.16654V7.49987C9.38333 7.84154 9.66667 8.12487 10.0083 8.12487C10.35 8.12487 10.625 7.84154 10.625 7.49987V3.17487L11.225 3.77487C11.35 3.89987 11.5083 3.9582 11.6667 3.9582C11.825 3.9582 11.9833 3.89987 12.1083 3.77487C12.35 3.5332 12.35 3.1332 12.1083 2.89154Z" fill="#FFA114"/>
<path opacity="0.4" d="M13.492 5H6.50866C3.47533 5 1.66699 6.80833 1.66699 9.84167V13.4833C1.66699 16.525 3.47533 18.3333 6.50866 18.3333H13.4837C16.517 18.3333 18.3253 16.525 18.3253 13.4917V9.85C18.3337 6.80833 16.5253 5 13.492 5Z" fill="#FFA114"/>
<path d="M17.7503 10.1914H14.8503C14.0337 10.1914 13.3087 10.6414 12.942 11.3747L12.242 12.7581C12.0753 13.0914 11.742 13.2997 11.3753 13.2997H8.64199C8.38366 13.2997 8.01699 13.2414 7.77533 12.7581L7.07533 11.3831C6.70866 10.6581 5.97533 10.1997 5.16699 10.1997H2.25033C1.92533 10.1997 1.66699 10.4581 1.66699 10.7831V13.4997C1.66699 16.5247 3.48366 18.3331 6.51699 18.3331H13.5003C16.3587 18.3331 18.117 16.7664 18.3337 13.9831V10.7747C18.3337 10.4581 18.0753 10.1914 17.7503 10.1914Z" fill="#FFA114"/>
</svg>
