<svg width="21" height="21" viewBox="0 0 21 21" fill="none" xmlns="http://www.w3.org/2000/svg">
<path opacity="0.4" d="M15.6076 9.90499H18.0238C18.2075 9.90499 18.3599 10.0574 18.3599 10.2411V14.622C18.3599 15.9918 17.8858 17.0187 17.1548 17.7053C16.4188 18.3965 15.3834 18.7789 14.203 18.7789H7.63149C6.45107 18.7789 5.41566 18.3965 4.6797 17.7053C3.94868 17.0187 3.47461 15.9918 3.47461 14.622V7.2145C3.47461 5.84478 3.94868 4.81781 4.6797 4.13124C5.41566 3.44001 6.45107 3.05762 7.63149 3.05762H11.1764C11.3601 3.05762 11.5125 3.20999 11.5125 3.39368V5.80991C11.5125 8.06753 13.3499 9.90499 15.6076 9.90499Z" fill="#17BD8D" stroke="#17BD8D"/>
<path d="M15.4626 7.75129L15.4626 7.75126H15.4574C14.4578 7.75126 13.6582 6.95039 13.6582 6.01896V3.10109C13.6582 3.09408 13.6592 3.0911 13.6593 3.09076L13.6593 3.09075C13.6594 3.09033 13.6596 3.08993 13.6602 3.08909C13.6618 3.08688 13.668 3.08028 13.6809 3.07519C13.6938 3.07011 13.706 3.06953 13.7146 3.07107C13.7204 3.07213 13.7289 3.07464 13.741 3.08678C14.5757 3.9214 15.8285 5.18565 16.9255 6.29266C17.4539 6.82591 17.9462 7.32268 18.3382 7.71736L18.3394 7.71858C18.3424 7.72158 18.3442 7.72381 18.3451 7.72513L18.346 7.72638C18.3458 7.72792 18.3453 7.731 18.3434 7.7354C18.34 7.74306 18.3346 7.74917 18.3292 7.7528C18.3267 7.75447 18.3239 7.75593 18.3202 7.75708C18.3166 7.75818 18.3102 7.75962 18.3 7.75962C17.3543 7.75962 16.2537 7.75961 15.4626 7.75129ZM18.3 8.25962C18.7766 8.25962 19.0274 7.69945 18.693 7.36503C18.3018 6.9712 17.8102 6.47503 17.2821 5.94215C16.1846 4.83467 14.93 3.56863 14.0946 2.73323C13.7518 2.39044 13.1582 2.62454 13.1582 3.10109V6.01896C13.1582 7.23962 14.1949 8.25126 15.4574 8.25126C16.2516 8.25962 17.3551 8.25962 18.2998 8.25962H18.3Z" fill="#17BD8D" stroke="#17BD8D"/>
<path d="M10.5237 11.3111L8.85153 9.63901C8.84317 9.63065 8.83481 9.63065 8.83481 9.62229C8.78465 9.57213 8.71776 9.53032 8.65088 9.49688C8.64252 9.49688 8.64252 9.49688 8.63416 9.49688C8.56727 9.4718 8.50039 9.46344 8.4335 9.45508C8.40842 9.45508 8.3917 9.45508 8.36661 9.45508C8.31645 9.45508 8.25793 9.4718 8.20776 9.48852C8.18268 9.49688 8.16596 9.50524 8.14924 9.5136C8.08235 9.54705 8.01547 9.58049 7.9653 9.63901L6.29317 11.3111C6.05071 11.5536 6.05071 11.9549 6.29317 12.1974C6.53563 12.4398 6.93694 12.4398 7.1794 12.1974L7.78137 11.5954V15.0985C7.78137 15.4413 8.06563 15.7256 8.40842 15.7256C8.75121 15.7256 9.03547 15.4413 9.03547 15.0985V11.5954L9.63744 12.1974C9.76284 12.3228 9.9217 12.3813 10.0805 12.3813C10.2394 12.3813 10.3983 12.3228 10.5237 12.1974C10.7661 11.9549 10.7661 11.5536 10.5237 11.3111Z" fill="#17BD8D"/>
</svg>
