<svg width="16" height="17" viewBox="0 0 16 17" fill="none" xmlns="http://www.w3.org/2000/svg">
<path fill-rule="evenodd" clip-rule="evenodd" d="M11.0834 3.37659C11.0834 3.37664 11.0835 3.37654 11.0834 3.37659L3.84742 10.6203L3.051 13.4513L5.88556 12.6567L13.1215 5.4121C13.1798 5.35387 13.213 5.27445 13.213 5.19212C13.213 5.10987 13.1803 5.03098 13.1222 4.97276C13.1221 4.97271 13.1222 4.97282 13.1222 4.97276L11.5231 3.37664C11.4648 3.31843 11.3857 3.28568 11.3032 3.28568C11.2209 3.28568 11.1417 3.31847 11.0834 3.37659ZM10.2442 2.53813C10.5251 2.25766 10.906 2.1001 11.3032 2.1001C11.7004 2.1001 12.0814 2.25764 12.3623 2.53808C12.3623 2.53809 12.3622 2.53806 12.3623 2.53808L13.9613 4.1342C14.2422 4.41476 14.4001 4.79541 14.4001 5.19212C14.4001 5.58883 14.2423 5.96929 13.9615 6.24985L6.61604 13.604C6.54397 13.6762 6.45448 13.7286 6.35623 13.7561L2.35405 14.878C2.14744 14.9359 1.92562 14.878 1.7739 14.7264C1.62218 14.5748 1.56419 14.3533 1.62224 14.1469L2.74646 10.1508C2.77392 10.0532 2.82599 9.96421 2.89769 9.89243L10.2442 2.53813Z" fill="#635978"/>
</svg>
