<svg width="51" height="51" viewBox="0 0 51 51" fill="none" xmlns="http://www.w3.org/2000/svg">
<circle opacity="0.67" cx="25.5" cy="25.5" r="25.5" fill="#F1EAFF"/>
<path opacity="0.4" d="M30.5409 22.3807C30.4823 22.3724 30.4238 22.3724 30.3653 22.3807C29.0694 22.3389 28.041 21.2771 28.041 19.9729C28.041 18.6435 29.1195 17.5566 30.4572 17.5566C31.7866 17.5566 32.8735 18.6352 32.8735 19.9729C32.8651 21.2771 31.8368 22.3389 30.5409 22.3807Z" fill="#632CC7"/>
<path opacity="0.4" d="M33.2668 28.1753C32.3304 28.8023 31.0178 29.0364 29.8055 28.8776C30.1232 28.192 30.2904 27.4312 30.2988 26.6285C30.2988 25.7925 30.1148 24.9982 29.7637 24.3043C31.001 24.1371 32.3137 24.3712 33.2584 24.9982C34.5794 25.8677 34.5794 27.2974 33.2668 28.1753Z" fill="#632CC7"/>
<path opacity="0.4" d="M21.2691 22.3807C21.3277 22.3724 21.3862 22.3724 21.4447 22.3807C22.7406 22.3389 23.769 21.2771 23.769 19.9729C23.769 18.6435 22.6905 17.5566 21.3528 17.5566C20.0234 17.5566 18.9365 18.6352 18.9365 19.9729C18.9449 21.2771 19.9732 22.3389 21.2691 22.3807Z" fill="#632CC7"/>
<path opacity="0.4" d="M21.361 26.6287C21.361 27.4397 21.5366 28.2089 21.8543 28.9028C20.6754 29.0282 19.4464 28.7774 18.5435 28.1838C17.2225 27.3059 17.2225 25.8762 18.5435 24.9984C19.4381 24.3964 20.7005 24.1539 21.8877 24.2877C21.5449 24.99 21.361 25.7843 21.361 26.6287Z" fill="#632CC7"/>
<path d="M26.018 29.1539C25.9511 29.1456 25.8758 29.1456 25.8006 29.1539C24.2622 29.1038 23.0332 27.8413 23.0332 26.2862C23.0332 24.6977 24.3124 23.4102 25.9093 23.4102C27.4978 23.4102 28.7853 24.6977 28.7853 26.2862C28.7853 27.8413 27.5647 29.1038 26.018 29.1539Z" fill="#632CC7"/>
<path d="M23.3004 30.8832C22.0379 31.7276 22.0379 33.1155 23.3004 33.9516C24.7384 34.9131 27.0961 34.9131 28.5341 33.9516C29.7966 33.1071 29.7966 31.7193 28.5341 30.8832C27.1045 29.9217 24.7468 29.9217 23.3004 30.8832Z" fill="#632CC7"/>
</svg>
