<svg width="20" height="20" viewBox="0 0 20 20" fill="none" xmlns="http://www.w3.org/2000/svg">
<path d="M10 1.25C5.17383 1.25 1.25 5.17383 1.25 10C1.25 14.8262 5.17383 18.75 10 18.75C14.8262 18.75 18.75 14.8262 18.75 10C18.75 5.17383 14.8262 1.25 10 1.25Z" fill="#81B441"/>
<path d="M13.1492 4.97949C8.90684 5.26014 7.62587 9.21799 7.5174 11.2429C7.5174 11.576 6.44761 10.9017 7.08392 7.99451C7.13847 7.74529 7.08392 7.44764 7.08392 7.44764C4.87464 9.39092 5.06463 13.0651 7.78057 14.5588C9.88591 15.7168 12.6229 14.9799 13.8334 12.8219C15.2545 10.3481 13.9913 5.4532 13.1492 4.97949Z" fill="white"/>
</svg>
