<svg width="16" height="18" viewBox="0 0 16 18" fill="none" xmlns="http://www.w3.org/2000/svg">
<path fill-rule="evenodd" clip-rule="evenodd" d="M6.08343 6.02706C6.07332 6.02706 6.05375 6.02706 6.04363 6.02706C5.87571 6.00659 5.73748 5.8527 5.73748 5.67835C5.72736 5.5142 5.63831 1.67795 7.80239 0.806118C8.34594 0.590693 8.85039 0.631698 9.27525 0.949736C9.79857 1.32925 10.1742 2.08827 10.4015 3.19606C10.5593 3.97562 10.5889 4.65257 10.5889 4.68337C10.5991 4.84745 10.4709 4.9706 10.3023 4.9398C10.1344 4.91926 9.99618 4.76545 9.99618 4.60129C9.96651 3.90381 9.73923 1.98572 8.98865 1.43179C8.75127 1.25744 8.45452 1.2369 8.09912 1.38052C6.24121 2.12927 6.33023 5.72962 6.33023 5.77063C6.33023 5.91424 6.2318 6.02706 6.08343 6.02706Z" fill="#595961"/>
<path opacity="0.46" fill-rule="evenodd" clip-rule="evenodd" d="M9.16541 0.970186C8.77023 0.682953 8.30623 0.641948 7.80179 0.836837C6.9224 1.19581 6.29997 2.13952 5.9938 3.57556C5.76654 4.63201 5.79619 5.58599 5.79619 5.62699C5.79619 5.67827 5.81576 5.72961 5.85555 5.77061C5.89466 5.81162 5.93445 5.84242 5.98368 5.84242C5.9938 5.84242 6.00392 5.84242 6.01336 5.84242C6.10237 5.84242 6.17183 5.77061 6.17183 5.67827C6.17183 5.63726 6.08284 1.97537 7.98998 1.20608C8.37505 1.05226 8.71088 1.07273 8.98805 1.27789C9.78786 1.86256 10.0252 3.84225 10.0549 4.55C10.0549 4.65255 10.1439 4.75516 10.2525 4.76536C10.3516 4.77563 10.4305 4.70382 10.4305 4.60128C10.4204 4.4782 10.3119 1.81128 9.16541 0.970186Z" fill="#B2B2C2"/>
<path opacity="0.46" fill-rule="evenodd" clip-rule="evenodd" d="M5.995 5.71932C5.98488 5.71932 5.98489 5.71932 5.97545 5.71932C5.9161 5.70905 5.86618 5.64751 5.85674 5.58597C5.85674 5.5449 5.82709 4.61153 6.05435 3.555C6.3504 2.14977 6.97351 1.21633 7.83266 0.867556C8.31687 0.672667 8.75187 0.71374 9.1275 0.980437C10.2342 1.79073 10.3427 4.41664 10.3427 4.52945C10.3427 4.59099 10.2935 4.63199 10.2342 4.62179C10.1748 4.61153 10.1256 4.56025 10.1154 4.48844C10.1154 4.45764 10.0069 1.88307 9.00879 1.14452C8.71207 0.929164 8.34656 0.898361 7.93182 1.06245C5.995 1.87281 6.08403 5.58597 6.08403 5.62698C6.09347 5.67825 6.05434 5.71932 5.995 5.71932Z" fill="#B2B2C2"/>
<path opacity="0.62" fill-rule="evenodd" clip-rule="evenodd" d="M6.79454 2.78624C6.87344 2.63242 6.95232 2.47854 7.02178 2.31445C6.99211 2.36573 6.79451 2.89912 6.19161 2.81705C6.1815 2.81705 6.54704 2.92986 6.79454 2.78624Z" fill="#595961"/>
<path opacity="0.62" fill-rule="evenodd" clip-rule="evenodd" d="M6.57717 3.44205C6.63652 3.27789 6.69585 3.10354 6.73564 2.93945C6.71609 3.00099 6.61694 3.55486 5.98438 3.55486C5.98438 3.55486 6.34991 3.62667 6.57717 3.44205Z" fill="#595961"/>
<path opacity="0.62" fill-rule="evenodd" clip-rule="evenodd" d="M10.0457 2.11886C9.96679 1.93417 9.87774 1.75982 9.78872 1.5752C9.8184 1.63674 10.1151 2.2214 9.7793 2.64192C9.7793 2.64192 10.0362 2.43683 10.0457 2.11886Z" fill="#595961"/>
<path opacity="0.62" fill-rule="evenodd" clip-rule="evenodd" d="M9.50213 1.19639C9.34365 1.06304 9.18582 0.939961 9.02734 0.827148C9.08669 0.878421 9.61067 1.25793 9.581 1.8324C9.57088 1.8324 9.65994 1.49389 9.50213 1.19639Z" fill="#595961"/>
<path opacity="0.62" fill-rule="evenodd" clip-rule="evenodd" d="M7.08142 2.22134C7.20011 2.09825 7.29855 1.96491 7.40712 1.82129C7.36801 1.86229 7.04165 2.28288 6.45898 2.12899C6.45898 2.12899 6.79481 2.31368 7.08142 2.22134Z" fill="#595961"/>
<path opacity="0.62" fill-rule="evenodd" clip-rule="evenodd" d="M7.44665 1.74961C7.5849 1.64707 7.71303 1.54445 7.84184 1.43164C7.79261 1.46244 7.38733 1.80088 6.82422 1.55472C6.82422 1.55472 7.14993 1.79062 7.44665 1.74961Z" fill="#595961"/>
<path opacity="0.62" fill-rule="evenodd" clip-rule="evenodd" d="M7.9795 1.41178C8.14742 1.3605 8.30591 1.29896 8.46371 1.23742C8.40437 1.25789 7.90057 1.44251 7.40625 1.05273C7.41637 1.05273 7.67333 1.3605 7.9795 1.41178Z" fill="#595961"/>
<path opacity="0.62" fill-rule="evenodd" clip-rule="evenodd" d="M8.46476 1.22672C8.60301 1.24725 8.74125 1.25752 8.8795 1.26779C8.83027 1.25752 8.39526 1.22672 8.14844 0.816406C8.14844 0.816406 8.24761 1.09337 8.46476 1.22672Z" fill="#595961"/>
<path opacity="0.62" fill-rule="evenodd" clip-rule="evenodd" d="M9.03677 1.45226C9.13523 1.56514 9.24446 1.67795 9.36247 1.78049C9.32336 1.73949 8.98754 1.40098 9.06645 0.980469C9.05633 0.980469 8.94775 1.21636 9.03677 1.45226Z" fill="#595961"/>
<path opacity="0.74" fill-rule="evenodd" clip-rule="evenodd" d="M10.2342 4.47831C10.2342 4.36543 10.1256 1.77033 9.0486 0.980576C8.84089 0.826691 8.61362 0.754883 8.37623 0.754883C8.1982 0.754883 8.01071 0.795887 7.81311 0.877963C6.95328 1.21647 6.3504 2.12938 6.05435 3.52434C5.82709 4.57059 5.85674 5.50403 5.85674 5.54504C5.85674 5.57584 5.88642 5.60658 5.91609 5.60658H5.92552C5.95519 5.60658 5.97545 5.58611 5.97545 5.55531C5.97545 5.5143 5.8763 1.77033 7.86234 0.970307C8.29732 0.795887 8.67296 0.826691 8.98924 1.06259C10.0163 1.81141 10.1256 4.42704 10.1256 4.45778C10.1256 4.48858 10.1553 4.51932 10.1849 4.51932C10.1849 4.51932 10.1849 4.51932 10.1943 4.51932C10.2146 4.52959 10.2342 4.50905 10.2342 4.47831Z" fill="url(#paint0_linear_11818_12884)"/>
<path fill-rule="evenodd" clip-rule="evenodd" d="M10.4012 3.19602C10.1739 2.08822 9.79831 1.3394 9.27499 0.949623C8.98838 0.744533 8.68154 0.652188 8.3457 0.672724C8.61276 0.693193 8.85958 0.785538 9.08684 0.949623C9.61084 1.3292 9.98648 2.08822 10.2137 3.19602C10.3716 3.97557 10.4012 4.65252 10.4012 4.68332C10.4012 4.8064 10.3419 4.89875 10.2427 4.92948C10.263 4.93975 10.2825 4.93975 10.2927 4.93975C10.4606 4.96029 10.5887 4.84741 10.5793 4.68332C10.5887 4.65252 10.559 3.98584 10.4012 3.19602Z" fill="url(#paint1_linear_11818_12884)"/>
<path fill-rule="evenodd" clip-rule="evenodd" d="M7.91177 1.38087C6.05386 2.12963 6.14284 5.72998 6.14284 5.77098C6.14284 5.89407 6.08351 5.98641 5.98438 6.01715C6.00461 6.02742 6.01407 6.02741 6.0343 6.02741C6.04374 6.02741 6.06396 6.02741 6.07341 6.02741C6.22177 6.02741 6.32021 5.9146 6.32021 5.77098C6.32021 5.72998 6.23189 2.1399 8.08913 1.39114C8.21794 1.33987 8.3366 1.30907 8.44518 1.2988C8.2867 1.26806 8.10937 1.2988 7.91177 1.38087Z" fill="url(#paint2_linear_11818_12884)"/>
<path fill-rule="evenodd" clip-rule="evenodd" d="M10.727 2.27296L2.34783 4.96034C2.34783 4.96034 1.99244 5.06295 1.90342 5.17577C1.8144 5.28858 1.79484 5.60655 1.79484 5.60655L0.5 15.9665L10.2232 17.8538L10.9745 2.26269C10.8659 2.24216 10.7567 2.26269 10.727 2.27296Z" fill="url(#paint3_linear_11818_12884)"/>
<path fill-rule="evenodd" clip-rule="evenodd" d="M13.6219 3.60639C13.6219 3.60639 13.6117 3.52431 13.5625 3.49357C13.5227 3.46277 13.4735 3.46277 13.4735 3.46277L12.0998 3.36022L11.0923 2.32424C11.0525 2.29343 11.0127 2.27296 10.9635 2.2627L10.2129 17.8538L15.4791 16.6742L13.6219 3.60639Z" fill="url(#paint4_linear_11818_12884)"/>
<path fill-rule="evenodd" clip-rule="evenodd" d="M7.26918 10.9298C7.12081 10.7246 6.94345 10.54 6.76541 10.3759C6.58737 10.2118 6.39991 10.0784 6.21176 9.95535C6.08362 9.87327 5.96493 9.7912 5.8658 9.70912C5.76734 9.62711 5.68843 9.54504 5.62908 9.47323C5.56974 9.39115 5.5205 9.31934 5.49082 9.23733C5.46115 9.15526 5.45102 9.07318 5.45102 8.99111C5.45102 8.87829 5.48071 8.76548 5.5205 8.67314C5.55962 8.58086 5.62908 8.49878 5.69786 8.42697C5.77744 8.35516 5.86579 8.30389 5.97504 8.26289C6.08362 8.22182 6.21173 8.20135 6.34997 8.19108C6.49834 8.18081 6.64671 8.19108 6.78496 8.20135C6.92321 8.21155 7.05201 8.24235 7.18015 8.27309C7.29884 8.30389 7.41752 8.3449 7.51598 8.38597C7.61511 8.42698 7.71357 8.46798 7.78303 8.50905L8.43518 6.49862C8.33672 6.44734 8.21803 6.396 8.08922 6.36527C7.95098 6.3242 7.80261 6.29346 7.63469 6.27292C7.46677 6.25245 7.28872 6.24219 7.10124 6.24219C6.91376 6.24219 6.71619 6.25246 6.50848 6.28319C6.06407 6.34473 5.6682 6.46781 5.3128 6.65243C4.97696 6.82685 4.68023 7.05248 4.4334 7.32945C4.19602 7.59614 4.00853 7.90385 3.87028 8.25262C3.74148 8.59113 3.66259 8.97064 3.64303 9.38088C3.63292 9.62711 3.65247 9.85274 3.71181 10.0579C3.76104 10.2631 3.84061 10.4579 3.94919 10.6426C4.04765 10.8272 4.17645 10.9913 4.31469 11.1452C4.45294 11.299 4.62086 11.4427 4.78879 11.576C4.92703 11.6786 5.04573 11.7811 5.14487 11.8734C5.24333 11.9658 5.32291 12.0581 5.38158 12.1607C5.44093 12.253 5.4807 12.3453 5.51038 12.4478C5.54005 12.5402 5.55017 12.6427 5.54005 12.7453C5.54005 12.8479 5.5104 12.9504 5.47061 13.0325C5.4315 13.1146 5.38158 13.1967 5.30268 13.2582C5.23389 13.3197 5.14489 13.3607 5.04575 13.3813C4.94729 13.4018 4.8286 13.412 4.6998 13.3916C4.55211 13.371 4.40371 13.33 4.26547 13.2684C4.12722 13.2171 3.98833 13.1453 3.8602 13.0735C3.73207 13.0018 3.61337 12.9197 3.51424 12.8479C3.40567 12.7761 3.31663 12.694 3.24785 12.6325L2.80273 14.1608C2.8722 14.2634 2.97068 14.3557 3.07925 14.448C3.1885 14.5404 3.31665 14.6326 3.46501 14.725C3.61338 14.807 3.77118 14.8891 3.9391 14.9609C4.10702 15.0327 4.29515 15.0942 4.48263 15.1456H4.49276H4.50218H4.51231H4.52243C4.92706 15.2378 5.3128 15.2584 5.67831 15.2071C6.05394 15.1558 6.39988 15.0224 6.69593 14.8173C7.0021 14.6019 7.2496 14.3147 7.43707 13.9351C7.62522 13.5556 7.7338 13.094 7.75335 12.5709C7.76347 12.2427 7.7237 11.9555 7.63469 11.6888C7.54567 11.3811 7.41754 11.1452 7.26918 10.9298Z" fill="url(#paint5_linear_11818_12884)"/>
<path opacity="0.226763" fill-rule="evenodd" clip-rule="evenodd" d="M2.86567 14.2444C2.84274 14.2172 2.82114 14.1894 2.80158 14.1609L3.24669 12.6325C3.25276 12.6382 3.2595 12.6441 3.26625 12.6502C3.33234 12.7092 3.41463 12.7828 3.51309 12.848C3.61222 12.9198 3.73091 13.0018 3.85904 13.0737C3.98718 13.1454 4.12607 13.2172 4.26431 13.2685C4.40256 13.3301 4.55095 13.3711 4.69864 13.3916C4.82745 13.4121 4.94614 13.4019 5.0446 13.3814C5.14373 13.3608 5.23274 13.3198 5.30153 13.2583C5.38043 13.1967 5.43035 13.1147 5.46946 13.0326C5.50925 12.9505 5.5389 12.848 5.5389 12.7454C5.54902 12.6428 5.5389 12.5403 5.50922 12.4479C5.47955 12.3454 5.43978 12.253 5.38043 12.1607C5.32446 12.0632 5.25026 11.9751 5.15787 11.8873C5.20643 11.9421 5.24758 11.9984 5.28197 12.0581C5.34132 12.1505 5.38043 12.2428 5.41011 12.3454C5.43978 12.4376 5.4499 12.5403 5.43978 12.6428C5.43978 12.7454 5.41012 12.848 5.371 12.93C5.33122 13.0121 5.28197 13.0941 5.20307 13.1557C5.13361 13.2172 5.0446 13.2583 4.94614 13.2787C4.84701 13.2993 4.72832 13.3095 4.60019 13.289C4.45182 13.2685 4.30345 13.2275 4.1652 13.1659C4.02695 13.1147 3.88869 13.0428 3.75989 12.971C3.63176 12.8992 3.51309 12.8172 3.41463 12.7454C3.3155 12.6802 3.23322 12.6067 3.16713 12.5476C3.16039 12.5416 3.15428 12.5357 3.14754 12.53L2.70312 14.0583C2.74696 14.1236 2.80295 14.1847 2.86567 14.2444ZM4.32165 11.1546C4.28456 11.1178 4.24882 11.0806 4.21443 11.0427C4.07618 10.8888 3.94805 10.7247 3.84892 10.5401C3.74034 10.3554 3.66143 10.1605 3.6122 9.95542C3.55286 9.75027 3.53261 9.52457 3.54272 9.27841C3.56228 8.8681 3.64188 8.48859 3.77001 8.15008C3.90826 7.80138 4.09643 7.49367 4.33313 7.22698C4.58063 6.95001 4.87665 6.72432 5.21249 6.54996C5.56857 6.36534 5.96376 6.24226 6.40818 6.18072C6.61588 6.14992 6.8135 6.13965 7.00097 6.13965C7.18912 6.13965 7.36716 6.14992 7.53508 6.17045C7.703 6.19099 7.85137 6.22172 7.98961 6.2628C8.11775 6.29353 8.23644 6.34481 8.33557 6.39608L8.32005 6.44406C8.24857 6.41299 8.17035 6.385 8.08807 6.36534C7.94982 6.32434 7.80145 6.29353 7.63353 6.273C7.46561 6.25253 7.28757 6.24226 7.10009 6.24226C6.91261 6.24226 6.71504 6.25253 6.50733 6.28327C6.06292 6.34481 5.66705 6.46789 5.31165 6.65258C4.97581 6.82693 4.67907 7.05255 4.43225 7.32952C4.19487 7.59622 4.00738 7.90392 3.86913 8.25269C3.74032 8.5912 3.66144 8.97071 3.64188 9.38096C3.63176 9.62719 3.65131 9.85281 3.71066 10.058C3.75989 10.2631 3.83946 10.458 3.94803 10.6426C4.04649 10.8273 4.17529 10.9914 4.31354 11.1452C4.31624 11.1483 4.31895 11.1515 4.32165 11.1546ZM5.66366 9.51531C5.71761 9.57632 5.78507 9.64276 5.86465 9.7092C5.96378 9.79127 6.08247 9.87335 6.2106 9.95542C6.39875 10.0785 6.58622 10.2119 6.76426 10.3759C6.81618 10.4237 6.86744 10.4732 6.91869 10.5245C6.83642 10.436 6.75075 10.3523 6.6651 10.2734C6.48774 10.1092 6.29962 9.97589 6.11215 9.85281C5.98334 9.77074 5.86465 9.68873 5.76619 9.60665C5.7291 9.57605 5.69535 9.54545 5.66366 9.51531Z" fill="black"/>
<path opacity="0.41" fill-rule="evenodd" clip-rule="evenodd" d="M12.436 14.9515L12.1001 3.3607L12.0408 3.29916L12.1993 14.7874C12.1993 14.7874 10.806 16.9824 10.5983 16.9209C10.2921 16.8286 11.2012 2.43752 11.2012 2.43752L11.1021 2.33498C11.0629 2.30418 11.013 2.28371 10.9739 2.27344L10.2328 17.6492L10.2227 17.8646L10.4796 17.5261L12.436 14.9515Z" fill="url(#paint6_linear_11818_12884)"/>
<path fill-rule="evenodd" clip-rule="evenodd" d="M8.6524 2.93953C8.53438 3.42159 8.38604 3.87291 8.27746 4.14987C8.208 4.31402 8.28691 4.46784 8.43527 4.48838C8.59375 4.50891 8.77111 4.39603 8.83046 4.23195C8.84057 4.20114 9.10694 3.53447 9.27553 2.74464V2.73438L8.6524 2.93953Z" fill="url(#paint7_linear_11818_12884)"/>
<path fill-rule="evenodd" clip-rule="evenodd" d="M4.19494 4.37561C4.05669 4.68331 3.91844 4.95001 3.81931 5.13463C3.73096 5.28852 3.78018 5.4526 3.92855 5.4936C4.07624 5.54494 4.27382 5.4526 4.36284 5.29872C4.37295 5.27825 4.65959 4.77566 4.91653 4.13965L4.19494 4.37561Z" fill="url(#paint8_linear_11818_12884)"/>
<path opacity="0.32" fill-rule="evenodd" clip-rule="evenodd" d="M10.2227 17.854L12.436 14.9512L15.4997 16.6744L10.2227 17.854Z" fill="url(#paint9_linear_11818_12884)"/>
<path opacity="0.19" fill-rule="evenodd" clip-rule="evenodd" d="M10.2227 17.854L12.4164 14.9512L15.4997 16.6744L10.2227 17.854Z" fill="url(#paint10_linear_11818_12884)"/>
<path opacity="0.19" fill-rule="evenodd" clip-rule="evenodd" d="M10.2227 17.854L12.4164 14.9512L15.4997 16.6744L10.2227 17.854Z" fill="url(#paint11_linear_11818_12884)"/>
<path opacity="0.6" fill-rule="evenodd" clip-rule="evenodd" d="M8.06942 9.7305C9.21587 11.3409 9.98664 13.0846 10.3717 14.7771L10.9746 2.2529C10.8661 2.23243 10.7568 2.2529 10.7271 2.26317L2.34798 4.96088C2.34798 4.96088 2.26906 4.98135 2.16992 5.02242C4.29489 5.78144 6.41922 7.41236 8.06942 9.7305Z" fill="url(#paint12_linear_11818_12884)"/>
<path fill-rule="evenodd" clip-rule="evenodd" d="M13.5737 3.50343C13.6236 3.5445 13.6236 3.60604 13.6236 3.60604L15.4613 16.6636L12.4374 14.9404L12.1016 3.34961L13.4557 3.45215C13.4652 3.46242 13.5245 3.46242 13.5737 3.50343Z" fill="url(#paint13_linear_11818_12884)"/>
<path fill-rule="evenodd" clip-rule="evenodd" d="M13.3562 3.53518C13.3562 3.53518 13.4156 3.53518 13.4648 3.58645C13.514 3.62752 13.5241 3.68906 13.5241 3.68906L15.3328 16.603L15.4711 16.6851L13.6327 3.61726C13.6327 3.61726 13.6233 3.55572 13.5835 3.51471C13.5343 3.47364 13.4648 3.47364 13.4648 3.47364L12.1113 3.37109L13.3562 3.53518Z" fill="url(#paint14_linear_11818_12884)"/>
<path fill-rule="evenodd" clip-rule="evenodd" d="M0.5 15.9668L10.2232 17.8542L10.698 7.16602L1.70914 7.42153L0.5 15.9668Z" fill="url(#paint15_linear_11818_12884)"/>
<path opacity="0.3" fill-rule="evenodd" clip-rule="evenodd" d="M3.69272 5.10946C3.60437 5.35878 3.69135 5.62071 3.88827 5.69467C4.08452 5.76856 4.31516 5.62642 4.40418 5.37717C4.49253 5.12792 4.40487 4.86592 4.20863 4.79203C4.01238 4.71807 3.78106 4.86021 3.69272 5.10946Z" fill="white"/>
<path opacity="0.89" fill-rule="evenodd" clip-rule="evenodd" d="M3.68089 4.99136C3.59255 5.24061 3.6802 5.50261 3.87645 5.5765C4.07269 5.65046 4.30402 5.50832 4.39236 5.25907C4.4807 5.00975 4.39372 4.74775 4.1968 4.67386C4.00056 4.59991 3.76991 4.74205 3.68089 4.99136Z" fill="black"/>
<path fill-rule="evenodd" clip-rule="evenodd" d="M12.1103 3.36022L11.1021 2.32424C11.0629 2.29343 11.013 2.27296 10.9739 2.2627L10.2227 17.8538L12.4461 14.9407L12.1103 3.36022Z" fill="url(#paint16_linear_11818_12884)"/>
<path fill-rule="evenodd" clip-rule="evenodd" d="M10.7279 2.27311L2.34877 4.96048C2.34877 4.96048 1.99338 5.0631 1.90436 5.17591C1.89424 5.18618 1.89421 5.19644 1.88477 5.20671L10.3327 2.78596C10.4022 2.76543 10.5701 2.70389 10.5506 3.20648L10.0367 17.8334L10.2147 17.8642L10.9653 2.27311C10.8668 2.2423 10.7576 2.26284 10.7279 2.27311Z" fill="url(#paint17_linear_11818_12884)"/>
<path fill-rule="evenodd" clip-rule="evenodd" d="M10.7279 2.27311L2.34877 4.96048C2.34877 4.96048 1.99338 5.0631 1.90436 5.17591C1.89424 5.18618 1.89421 5.19644 1.88477 5.20671L3.84114 4.64251L10.5701 2.47826C10.5998 2.46799 10.7084 2.44746 10.817 2.468L10.0758 17.8334L10.2147 17.8642L10.9653 2.27311C10.8668 2.2423 10.7576 2.26284 10.7279 2.27311Z" fill="url(#paint18_linear_11818_12884)"/>
<path opacity="0.32" fill-rule="evenodd" clip-rule="evenodd" d="M12.8807 15.1969L12.4356 14.9404L10.2129 17.8535L10.3309 17.8227C10.3309 17.8227 12.2879 15.2071 12.4653 15.1251C12.5941 15.0738 12.8807 15.1969 12.8807 15.1969Z" fill="url(#paint19_linear_11818_12884)"/>
<path opacity="0.57" fill-rule="evenodd" clip-rule="evenodd" d="M10.2227 17.8535L12.4461 14.9404C12.436 14.9507 11.0333 16.5406 10.2227 17.8535Z" fill="url(#paint20_linear_11818_12884)"/>
<path opacity="0.46" fill-rule="evenodd" clip-rule="evenodd" d="M15.5011 16.6744L12.4475 14.9512C12.4374 14.9512 12.7934 15.0127 15.5011 16.6744Z" fill="url(#paint21_linear_11818_12884)"/>
<path opacity="0.3" fill-rule="evenodd" clip-rule="evenodd" d="M8.20864 4.08698C8.11962 4.33629 8.20729 4.59829 8.40354 4.67225C8.60046 4.74621 8.8311 4.60407 8.91945 4.35482C9.00847 4.1055 8.9208 3.8435 8.72455 3.76954C8.52831 3.69565 8.29698 3.83773 8.20864 4.08698Z" fill="white"/>
<path opacity="0.89" fill-rule="evenodd" clip-rule="evenodd" d="M8.19846 3.96884C8.11012 4.21815 8.19782 4.48015 8.39406 4.55411C8.59031 4.628 8.82159 4.48592 8.90993 4.23661C8.99827 3.98736 8.91128 3.72536 8.71503 3.6514C8.51811 3.57745 8.28748 3.71959 8.19846 3.96884Z" fill="black"/>
<path fill-rule="evenodd" clip-rule="evenodd" d="M4.03693 5.49385C4.02681 5.49385 4.00724 5.49385 3.99712 5.49385C3.83932 5.47338 3.73077 5.3195 3.75032 5.14515C3.76988 4.98099 4.33296 1.14475 6.64541 0.272915C7.22807 0.0574901 7.72239 0.0984952 8.09802 0.416532C8.55255 0.796043 8.79937 1.55506 8.83916 2.66286C8.86883 3.44242 8.77985 4.11936 8.77985 4.15017C8.76029 4.31425 8.61192 4.4374 8.45344 4.4066C8.29564 4.38606 8.17693 4.23224 8.2066 4.06809C8.29562 3.37061 8.39407 1.45252 7.73251 0.898588C7.5248 0.724235 7.23822 0.703698 6.85315 0.847315C4.8671 1.59607 4.34308 5.19642 4.34308 5.22716C4.30329 5.38104 4.18529 5.49385 4.03693 5.49385Z" fill="#595961"/>
<path opacity="0.46" fill-rule="evenodd" clip-rule="evenodd" d="M7.981 0.436921C7.63504 0.149754 7.18053 0.108749 6.63698 0.303639C5.69824 0.662613 4.90783 1.60626 4.36428 3.03202C3.95965 4.08855 3.82075 5.04246 3.82075 5.08353C3.81131 5.1348 3.83088 5.18607 3.86055 5.22715C3.89023 5.26815 3.92999 5.29895 3.97922 5.29895C3.98866 5.29895 3.99878 5.29895 4.0089 5.29895C4.09792 5.29895 4.1768 5.22715 4.18692 5.1348C4.19636 5.0938 4.72038 1.4319 6.76577 0.662614C7.18051 0.508729 7.51633 0.529267 7.75371 0.734424C8.45507 1.31909 8.35662 3.29872 8.2676 4.00647C8.25749 4.10908 8.32696 4.21163 8.42541 4.22189C8.52455 4.23216 8.623 4.16035 8.63311 4.05781C8.64323 3.94493 8.9892 1.27809 7.981 0.436921Z" fill="#B2B2C2"/>
<path opacity="0.81" fill-rule="evenodd" clip-rule="evenodd" d="M3.99882 5.18612C3.98871 5.18612 3.98871 5.18612 3.97927 5.18612C3.91993 5.17585 3.88013 5.11431 3.89024 5.05277C3.90036 5.0117 4.02851 4.07832 4.43381 3.0218C4.97736 1.61657 5.74816 0.683127 6.66666 0.334353C7.19066 0.139464 7.61552 0.180537 7.94125 0.447234C8.90966 1.25753 8.57382 3.88343 8.55426 3.99625C8.54414 4.05779 8.49493 4.09879 8.42547 4.08859C8.36679 4.07832 8.32701 4.02705 8.32701 3.95524C8.32701 3.92444 8.66284 1.34987 7.79356 0.611319C7.53663 0.41643 7.18057 0.395961 6.74627 0.560046C4.66109 1.34987 4.11753 5.05277 4.11753 5.09377C4.10742 5.14504 4.05817 5.18612 3.99882 5.18612Z" fill="#B2B2C2"/>
<path opacity="0.42" fill-rule="evenodd" clip-rule="evenodd" d="M5.30202 2.25206C5.41059 2.09824 5.50971 1.94436 5.60817 1.78027C5.56906 1.83155 5.28245 2.36494 4.68967 2.28287C4.67955 2.28287 5.02552 2.39568 5.30202 2.25206Z" fill="#595961"/>
<path opacity="0.42" fill-rule="evenodd" clip-rule="evenodd" d="M4.96621 2.90884C5.05522 2.74469 5.14422 2.57034 5.21301 2.40625C5.18333 2.46779 4.98573 3.02165 4.36328 3.02165C4.36328 3.02165 4.70927 3.09346 4.96621 2.90884Z" fill="#595961"/>
<path opacity="0.42" fill-rule="evenodd" clip-rule="evenodd" d="M4.70994 3.58563C4.78885 3.41121 4.84821 3.23685 4.90756 3.0625C4.87788 3.12404 4.76931 3.68817 4.11719 3.75998C4.11719 3.74971 4.47256 3.79078 4.70994 3.58563Z" fill="#595961"/>
<path opacity="0.62" fill-rule="evenodd" clip-rule="evenodd" d="M8.66202 1.58565C8.61279 1.40096 8.56355 1.22661 8.49409 1.04199C8.51364 1.10353 8.71127 1.6882 8.30664 2.10872C8.30664 2.10872 8.60268 1.90362 8.66202 1.58565Z" fill="#595961"/>
<path opacity="0.62" fill-rule="evenodd" clip-rule="evenodd" d="M8.27676 0.66221C8.13852 0.528861 7.99958 0.405782 7.86133 0.292969C7.91123 0.344241 8.37522 0.723751 8.24709 1.29815C8.23697 1.29815 8.38534 0.959644 8.27676 0.66221Z" fill="#595961"/>
<path opacity="0.62" fill-rule="evenodd" clip-rule="evenodd" d="M8.76148 2.52904C8.75136 2.34442 8.72171 2.14953 8.69204 1.96484C8.69204 2.03665 8.79117 2.64185 8.31641 2.97009C8.31641 2.97009 8.64279 2.82648 8.76148 2.52904Z" fill="#595961"/>
<path opacity="0.62" fill-rule="evenodd" clip-rule="evenodd" d="M8.81075 3.49382C8.82086 3.3092 8.82086 3.11431 8.81075 2.92969C8.81075 3.0015 8.82084 3.6067 8.31641 3.8836C8.31641 3.8734 8.66238 3.77078 8.81075 3.49382Z" fill="#595961"/>
<path opacity="0.42" fill-rule="evenodd" clip-rule="evenodd" d="M4.48141 4.33468C4.54075 4.15006 4.58055 3.96544 4.61967 3.79102C4.60011 3.85256 4.5111 4.43722 3.9082 4.58084C3.91832 4.58084 4.2737 4.57057 4.48141 4.33468Z" fill="#595961"/>
<path opacity="0.42" fill-rule="evenodd" clip-rule="evenodd" d="M5.67876 1.68813C5.817 1.56505 5.94578 1.4317 6.06447 1.28809C6.01457 1.32909 5.6194 1.74967 5.06641 1.59579C5.07585 1.59579 5.38203 1.78048 5.67876 1.68813Z" fill="#595961"/>
<path opacity="0.42" fill-rule="evenodd" clip-rule="evenodd" d="M6.12173 1.21641C6.28021 1.11386 6.42858 1.01125 6.57627 0.898438C6.5176 0.929241 6.06305 1.26768 5.53906 1.02152C5.53906 1.02152 5.81557 1.25741 6.12173 1.21641Z" fill="#595961"/>
<path opacity="0.62" fill-rule="evenodd" clip-rule="evenodd" d="M6.72479 0.878573C6.90283 0.827234 7.07076 0.765694 7.23868 0.704153C7.17934 0.724689 6.64591 0.90931 6.21094 0.519531C6.21094 0.519531 6.41862 0.827234 6.72479 0.878573Z" fill="#595961"/>
<path opacity="0.62" fill-rule="evenodd" clip-rule="evenodd" d="M7.22926 0.693515C7.36819 0.714051 7.50645 0.724321 7.6447 0.734589C7.59547 0.724321 7.17057 0.693518 6.98242 0.283203C6.99254 0.283203 7.04179 0.560167 7.22926 0.693515Z" fill="#595961"/>
<path opacity="0.62" fill-rule="evenodd" clip-rule="evenodd" d="M7.76265 0.919119C7.85167 1.03193 7.94003 1.14475 8.02905 1.24736C7.99938 1.20629 7.72286 0.867848 7.86111 0.447266C7.87123 0.447266 7.72287 0.683226 7.76265 0.919119Z" fill="#595961"/>
<path fill-rule="evenodd" clip-rule="evenodd" d="M8.44411 3.94504C8.45355 3.83223 8.79008 1.23713 7.85135 0.447306C7.67331 0.293489 7.45617 0.22168 7.21879 0.22168C7.04075 0.22168 6.84317 0.262684 6.63546 0.34476C5.72639 0.683266 4.96568 1.59617 4.43224 2.99114C4.02694 4.03739 3.89879 4.97083 3.88867 5.01183C3.88867 5.04257 3.90827 5.07338 3.93794 5.07338H3.94803C3.9777 5.07338 3.99725 5.05284 3.99725 5.0221C4.00737 4.98103 4.5408 1.23713 6.66509 0.437038C7.11962 0.262684 7.50537 0.293488 7.78187 0.529382C8.68082 1.27814 8.34501 3.89377 8.33556 3.92458C8.33556 3.95531 8.35512 3.98612 8.38479 3.98612C8.38479 3.98612 8.38478 3.98612 8.39422 3.98612C8.42389 3.99639 8.44411 3.97585 8.44411 3.94504Z" fill="url(#paint22_linear_11818_12884)"/>
<path fill-rule="evenodd" clip-rule="evenodd" d="M8.83925 2.66281C8.79946 1.55502 8.55264 0.806199 8.09811 0.41642C7.85129 0.21133 7.55459 0.118985 7.21875 0.139521C7.47569 0.15999 7.7124 0.252335 7.91066 0.41642C8.3652 0.795998 8.61199 1.55502 8.65111 2.66281C8.68078 3.44237 8.59245 4.11932 8.59245 4.15012C8.57222 4.2732 8.49331 4.36554 8.39418 4.39628C8.41441 4.40655 8.42384 4.40655 8.44407 4.40655C8.60187 4.42708 8.75026 4.31421 8.76981 4.15012C8.77993 4.11932 8.86892 3.45264 8.83925 2.66281Z" fill="url(#paint23_linear_11818_12884)"/>
<path fill-rule="evenodd" clip-rule="evenodd" d="M6.65686 0.847111C4.67081 1.59586 4.14683 5.19622 4.14683 5.23722C4.12727 5.3603 4.04768 5.45265 3.94922 5.48338C3.96878 5.49365 3.97889 5.49365 3.99845 5.49365C4.00856 5.49365 4.02813 5.49365 4.03825 5.49365C4.18661 5.49365 4.30462 5.38084 4.32485 5.23722C4.33429 5.19622 4.84818 1.60613 6.83422 0.857313C6.97315 0.80604 7.09118 0.775303 7.20043 0.765035C7.05207 0.744499 6.8639 0.775303 6.65686 0.847111Z" fill="url(#paint24_linear_11818_12884)"/>
<defs>
<linearGradient id="paint0_linear_11818_12884" x1="6.37197" y1="0.778036" x2="6.06207" y2="4.9973" gradientUnits="userSpaceOnUse">
<stop stop-color="white" stop-opacity="0.65"/>
<stop offset="1" stop-color="white" stop-opacity="0.01"/>
</linearGradient>
<linearGradient id="paint1_linear_11818_12884" x1="8.63569" y1="3.19293" x2="10.8175" y2="5.10396" gradientUnits="userSpaceOnUse">
<stop stop-opacity="0.01"/>
<stop offset="1" stop-opacity="0.4"/>
</linearGradient>
<linearGradient id="paint2_linear_11818_12884" x1="7.76136" y1="5.40409" x2="10.0708" y2="3.25301" gradientUnits="userSpaceOnUse">
<stop stop-opacity="0.01"/>
<stop offset="1" stop-opacity="0.4"/>
</linearGradient>
<linearGradient id="paint3_linear_11818_12884" x1="4.82143" y1="-0.873521" x2="-4.14857" y2="9.46189" gradientUnits="userSpaceOnUse">
<stop stop-color="#B8D26E"/>
<stop offset="1" stop-color="#7FB525"/>
</linearGradient>
<linearGradient id="paint4_linear_11818_12884" x1="17.0908" y1="1.714" x2="12.1679" y2="1.80541" gradientUnits="userSpaceOnUse">
<stop stop-color="#B4E034"/>
<stop offset="1" stop-color="#60A927"/>
</linearGradient>
<linearGradient id="paint5_linear_11818_12884" x1="2.44936" y1="8.60535" x2="-1.58678" y2="18.4341" gradientUnits="userSpaceOnUse">
<stop stop-color="white"/>
<stop offset="1" stop-color="#CECEEB"/>
</linearGradient>
<linearGradient id="paint6_linear_11818_12884" x1="8.23527" y1="32.8114" x2="14.6277" y2="32.7984" gradientUnits="userSpaceOnUse">
<stop stop-color="#1D1D1B" stop-opacity="0.5"/>
<stop offset="0.038033" stop-color="#1D1D1B" stop-opacity="0.4837"/>
<stop offset="0.4243" stop-color="#1D1D1B" stop-opacity="0.3185"/>
<stop offset="1" stop-color="#1D1D1B" stop-opacity="0.01"/>
</linearGradient>
<linearGradient id="paint7_linear_11818_12884" x1="8.97881" y1="2.04595" x2="7.91831" y2="2.61672" gradientUnits="userSpaceOnUse">
<stop stop-opacity="0.01"/>
<stop offset="1" stop-opacity="0.4"/>
</linearGradient>
<linearGradient id="paint8_linear_11818_12884" x1="4.53146" y1="3.73893" x2="3.78597" y2="4.3796" gradientUnits="userSpaceOnUse">
<stop stop-opacity="0.01"/>
<stop offset="1" stop-opacity="0.4"/>
</linearGradient>
<linearGradient id="paint9_linear_11818_12884" x1="11.8034" y1="16.6821" x2="11.8789" y2="17.677" gradientUnits="userSpaceOnUse">
<stop stop-opacity="0.01"/>
<stop offset="1" stop-opacity="0.4"/>
</linearGradient>
<linearGradient id="paint10_linear_11818_12884" x1="10.0412" y1="15.2256" x2="10.2162" y2="17.8123" gradientUnits="userSpaceOnUse">
<stop stop-color="white" stop-opacity="0.5"/>
<stop offset="0.0896271" stop-color="white" stop-opacity="0.4552"/>
<stop offset="1" stop-color="white" stop-opacity="0.01"/>
</linearGradient>
<linearGradient id="paint11_linear_11818_12884" x1="9.70473" y1="15.6279" x2="10.016" y2="18.3911" gradientUnits="userSpaceOnUse">
<stop stop-opacity="0.01"/>
<stop offset="1" stop-opacity="0.4"/>
</linearGradient>
<linearGradient id="paint12_linear_11818_12884" x1="8.48415" y1="-0.269389" x2="0.501376" y2="4.34753" gradientUnits="userSpaceOnUse">
<stop stop-color="white" stop-opacity="0.5"/>
<stop offset="1" stop-color="white" stop-opacity="0.01"/>
</linearGradient>
<linearGradient id="paint13_linear_11818_12884" x1="10.0252" y1="23.8594" x2="17.0711" y2="23.8736" gradientUnits="userSpaceOnUse">
<stop stop-color="#1D1D1B" stop-opacity="0.5"/>
<stop offset="0.0896271" stop-color="#1D1D1B" stop-opacity="0.4552"/>
<stop offset="1" stop-color="#1D1D1B" stop-opacity="0.01"/>
</linearGradient>
<linearGradient id="paint14_linear_11818_12884" x1="15.0705" y1="2.98239" x2="14.0696" y2="3.22764" gradientUnits="userSpaceOnUse">
<stop stop-color="white" stop-opacity="0.4"/>
<stop offset="1" stop-color="white" stop-opacity="0.01"/>
</linearGradient>
<linearGradient id="paint15_linear_11818_12884" x1="6.08993" y1="17.9683" x2="6.6104" y2="15.4591" gradientUnits="userSpaceOnUse">
<stop stop-color="#1D1D1B" stop-opacity="0.5"/>
<stop offset="0.0896271" stop-color="#1D1D1B" stop-opacity="0.4552"/>
<stop offset="1" stop-color="#1D1D1B" stop-opacity="0.01"/>
</linearGradient>
<linearGradient id="paint16_linear_11818_12884" x1="9.09847" y1="32.4915" x2="15.5138" y2="32.4971" gradientUnits="userSpaceOnUse">
<stop stop-color="#1D1D1B" stop-opacity="0.5"/>
<stop offset="1" stop-color="#1D1D1B" stop-opacity="0.01"/>
</linearGradient>
<linearGradient id="paint17_linear_11818_12884" x1="3.23757" y1="1.36919" x2="0.126141" y2="13.3232" gradientUnits="userSpaceOnUse">
<stop stop-color="white" stop-opacity="0.5"/>
<stop offset="1" stop-color="white" stop-opacity="0.01"/>
</linearGradient>
<linearGradient id="paint18_linear_11818_12884" x1="3.23757" y1="1.36919" x2="0.126141" y2="13.3232" gradientUnits="userSpaceOnUse">
<stop stop-color="white" stop-opacity="0.5"/>
<stop offset="1" stop-color="white" stop-opacity="0.01"/>
</linearGradient>
<linearGradient id="paint19_linear_11818_12884" x1="10.7868" y1="13.8998" x2="8.3275" y2="17.2847" gradientUnits="userSpaceOnUse">
<stop stop-color="white" stop-opacity="0.5"/>
<stop offset="0.0896271" stop-color="white" stop-opacity="0.4552"/>
<stop offset="1" stop-color="white" stop-opacity="0.01"/>
</linearGradient>
<linearGradient id="paint20_linear_11818_12884" x1="11.5289" y1="14.678" x2="11.2854" y2="15.2238" gradientUnits="userSpaceOnUse">
<stop stop-opacity="0.01"/>
<stop offset="1" stop-opacity="0.4"/>
</linearGradient>
<linearGradient id="paint21_linear_11818_12884" x1="13.9453" y1="15.4003" x2="13.9332" y2="15.547" gradientUnits="userSpaceOnUse">
<stop stop-opacity="0.01"/>
<stop offset="1" stop-opacity="0.4"/>
</linearGradient>
<linearGradient id="paint22_linear_11818_12884" x1="5.08772" y1="-0.123605" x2="4.02455" y2="4.07644" gradientUnits="userSpaceOnUse">
<stop stop-color="white" stop-opacity="0.65"/>
<stop offset="1" stop-color="white" stop-opacity="0.01"/>
</linearGradient>
<linearGradient id="paint23_linear_11818_12884" x1="7.46692" y1="2.29914" x2="9.31636" y2="4.17942" gradientUnits="userSpaceOnUse">
<stop stop-opacity="0.01"/>
<stop offset="1" stop-opacity="0.4"/>
</linearGradient>
<linearGradient id="paint24_linear_11818_12884" x1="6.28596" y1="5.0679" x2="8.84124" y2="2.44364" gradientUnits="userSpaceOnUse">
<stop stop-opacity="0.01"/>
<stop offset="1" stop-opacity="0.4"/>
</linearGradient>
</defs>
</svg>
