<svg width="20" height="20" viewBox="0 0 20 20" fill="none" xmlns="http://www.w3.org/2000/svg">
<g clip-path="url(#clip0_10306_64323)">
<path d="M17.744 1.99087C17.4452 1.99087 17.1471 1.98993 16.849 1.98993C16.1415 1.98837 15.4883 2.52962 14.989 2.95868C14.5108 3.39212 14.0755 3.87025 13.6883 4.38618C13.5427 3.99748 13.3671 3.62062 13.1633 3.259C13.0343 2.99309 12.8504 2.75756 12.6236 2.56795C12.3969 2.37834 12.1326 2.23895 11.848 2.159C11.5533 2.119 11.2555 2.109 10.9587 2.12837C10.7086 2.12743 9.9999 2.12837 9.9999 2.12837C9.9999 2.12837 9.2899 2.12743 9.04053 2.12837C8.74365 2.10868 8.44584 2.119 8.15115 2.159C7.86661 2.23895 7.60226 2.37834 7.37553 2.56795C7.14881 2.75756 6.96487 2.99309 6.83584 3.259C6.63178 3.62056 6.45646 3.99712 6.31084 4.38587C5.92364 3.86979 5.48813 3.3918 5.01021 2.95837C4.51021 2.52931 3.85834 1.98806 3.1499 1.98962L2.2549 1.99056C1.82865 1.99118 1.40261 1.99181 0.976776 1.99243C0.666463 1.99368 -0.0210371 1.91212 0.141775 2.41743C0.18115 2.53993 0.3199 2.64962 0.39865 2.75181L0.655838 3.11118L1.01646 3.719L1.81209 5.22525C2.40584 6.32775 3.0924 7.37743 3.86521 8.36275C4.44803 9.08243 5.15209 9.809 6.02303 10.1659C5.36553 11.388 4.70959 12.6109 4.05521 13.8346L2.31834 16.9859C2.28959 17.0365 2.25959 17.0865 2.23271 17.1374C2.13146 17.2968 2.06646 17.4759 2.04271 17.6631C2.04334 18.0006 2.54459 18.0109 2.7849 18.0124C3.04365 18.014 3.30365 18.0068 3.56209 18.0043C4.01209 17.9993 4.46209 17.9941 4.91209 17.9887C5.17865 17.9856 5.44959 17.9962 5.71459 17.9709C6.04824 17.9415 6.37174 17.8411 6.66334 17.6763C6.95495 17.5115 7.2079 17.2862 7.40521 17.0156C7.53428 16.8356 8.74459 14.8506 9.23428 14.0487C9.41928 13.7449 9.9999 12.8377 9.9999 12.8377L10.7649 14.0487L12.594 17.0156C12.7913 17.2862 13.0442 17.5115 13.3358 17.6763C13.6274 17.8411 13.9509 17.9415 14.2846 17.9709C14.5502 17.9959 14.8205 17.9859 15.0868 17.9887C15.5364 17.9933 15.9864 17.9985 16.4368 18.0043L17.2143 18.0124C17.4537 18.0109 17.9558 18.0009 17.9565 17.6631C17.9329 17.4758 17.8678 17.2962 17.7658 17.1374C17.7387 17.0865 17.7096 17.0368 17.6802 16.9859C17.0824 15.9452 16.5146 14.8927 15.9474 13.8349C15.2912 12.612 14.6349 11.3891 13.9787 10.1662C14.8499 9.809 15.5536 9.08243 16.1368 8.36306C16.9096 7.37781 17.5966 6.32814 18.1902 5.22556C18.4674 4.72993 18.7027 4.20993 18.983 3.71618C19.0993 3.51212 19.2193 3.309 19.3437 3.11056C19.4231 2.98659 19.5089 2.86675 19.6005 2.7515C19.7033 2.65425 19.7901 2.54153 19.858 2.41743C20.0205 1.91212 19.3337 1.994 19.0236 1.99243C18.5966 1.9916 18.17 1.99098 17.744 1.99056V1.99087Z" fill="#F9C638"/>
<path d="M11.4788 4.80374L11.615 4.78062C11.6778 4.76741 11.7396 4.74955 11.7997 4.72718C11.9228 4.68423 12.037 4.61933 12.1369 4.53562C12.1818 4.50354 12.2197 4.46272 12.2485 4.41561C11.8535 4.4228 11.5591 4.42062 11.3647 4.40562C11.3116 4.39749 11.2731 4.53437 11.2478 4.81093C11.2447 4.83218 11.3728 4.81812 11.4791 4.80374H11.4788ZM9.48409 6.64562C9.47909 6.65124 9.47627 6.65812 9.47659 6.66624C9.4769 6.67437 9.48096 6.68312 9.48784 6.68874C9.50658 6.70604 9.52676 6.72172 9.54815 6.73562C9.67302 6.81866 9.82008 6.86201 9.97002 6.85999C10.1205 6.86286 10.2682 6.81945 10.3931 6.73562C10.415 6.72187 10.4369 6.70593 10.4563 6.68874C10.4713 6.67624 10.4781 6.65687 10.4672 6.64405C10.4535 6.6303 10.431 6.62968 10.4166 6.64312C10.3985 6.65826 10.3796 6.67245 10.36 6.68562H10.3594C10.2433 6.75992 10.1084 6.79943 9.97054 6.79949C9.8327 6.79954 9.69774 6.76014 9.58159 6.68593H9.58065C9.56214 6.67279 9.54441 6.6586 9.52752 6.64343C9.52127 6.6378 9.51346 6.6353 9.50565 6.63562C9.49784 6.63593 9.49002 6.63999 9.4844 6.64624L9.48409 6.64562ZM11.2185 6.38218C11.2169 6.37905 11.2153 6.37593 11.2147 6.37218L11.2191 6.38218H11.2185ZM12.1491 5.27749C12.1146 5.20094 12.063 5.13336 11.9981 5.07999C11.9106 5.01454 11.8031 4.98131 11.6938 4.98592C11.5845 4.99054 11.4802 5.0327 11.3985 5.1053C11.3262 5.17894 11.2689 5.26585 11.2297 5.36124C11.1286 5.57823 11.0788 5.81564 11.0844 6.05499C11.089 6.16438 11.1313 6.26881 11.2041 6.35062C11.2998 6.43798 11.4202 6.49345 11.5488 6.50937C11.6753 6.5478 11.8113 6.54187 11.9341 6.4928C11.9949 6.44917 12.0464 6.39378 12.0854 6.3299C12.1244 6.26602 12.1502 6.19496 12.1613 6.12093C12.2176 5.94586 12.2424 5.76217 12.2344 5.57843C12.2239 5.47401 12.1952 5.37224 12.1494 5.2778L12.1491 5.27749Z" fill="#2A2D2C"/>
<path d="M11.7073 5.71898C11.7697 5.69533 11.8341 5.67724 11.8998 5.66492C11.7591 5.67523 11.6863 5.61805 11.6735 5.49555L11.6473 5.24023C11.6523 5.35148 11.6307 5.45898 11.5848 5.56336C11.5686 5.5914 11.5453 5.61468 11.5173 5.63086L11.4338 5.65742C11.4029 5.66851 11.3706 5.67555 11.3379 5.67836C11.4941 5.66492 11.5741 5.7043 11.587 5.78898L11.6313 6.0318C11.6345 5.8443 11.6601 5.73805 11.707 5.7193L11.7073 5.71898ZM11.8945 6.09867L11.8788 5.94055C11.8811 6.00906 11.8687 6.07727 11.8423 6.14055C11.831 6.15795 11.8158 6.1725 11.7979 6.18305L11.7488 6.19805C11.7295 6.20455 11.7095 6.20895 11.6891 6.21117C11.7823 6.20336 11.8348 6.2268 11.8454 6.27867L11.872 6.42711C11.872 6.30992 11.8876 6.24805 11.9188 6.23711C11.9565 6.22148 11.9958 6.21015 12.036 6.20336C11.9501 6.20898 11.9035 6.17211 11.8954 6.09867" fill="white"/>
<path d="M8.68742 4.81093C8.66055 4.53436 8.62242 4.39749 8.56992 4.40562C8.37492 4.42062 8.08117 4.4228 7.68555 4.41561C7.71461 4.46249 7.75242 4.50312 7.7968 4.53562C7.8968 4.61937 8.01117 4.68405 8.1343 4.72718C8.19451 4.74935 8.25623 4.7672 8.31898 4.78061C8.33211 4.78374 8.38992 4.79405 8.45555 4.80374C8.5618 4.81843 8.68867 4.83499 8.68742 4.81093ZM8.71867 6.38218L8.72273 6.37218L8.71961 6.38218H8.71898H8.71867ZM7.70367 5.57811C7.69519 5.76188 7.71997 5.94566 7.7768 6.12061C7.79961 6.26999 7.88117 6.40405 8.00336 6.49562C8.12617 6.54468 8.2618 6.5503 8.38836 6.51218C8.51709 6.49619 8.63772 6.44073 8.73367 6.35343C8.80634 6.27153 8.8487 6.16718 8.85367 6.0578C8.85944 5.81827 8.80948 5.58067 8.70773 5.36374C8.66885 5.26809 8.61138 5.18111 8.53867 5.1078C8.36992 4.9578 8.11992 4.94718 7.9393 5.0828C7.8745 5.13596 7.82312 5.20362 7.7893 5.2803C7.74271 5.37449 7.71359 5.47635 7.70336 5.58093L7.70367 5.57811Z" fill="#2A2D2C"/>
<path d="M8.22709 5.71918C8.16459 5.69543 8.10053 5.67731 8.0349 5.66512C8.17553 5.67543 8.24865 5.61824 8.26115 5.49574L8.28709 5.24043C8.2818 5.35162 8.30335 5.46245 8.3499 5.56355C8.36603 5.59142 8.38906 5.61467 8.41678 5.63105L8.50053 5.65762C8.53156 5.66876 8.56392 5.6758 8.59678 5.67855C8.44053 5.66512 8.36053 5.70449 8.34771 5.78918L8.30303 6.03199C8.30053 5.84449 8.27428 5.73824 8.2274 5.71949L8.22709 5.71918ZM8.0399 6.09887L8.05553 5.94074C8.05333 6.00925 8.0658 6.07744 8.09209 6.14074C8.10331 6.15801 8.11826 6.17253 8.13584 6.18324L8.18522 6.19824C8.20472 6.20464 8.22482 6.20904 8.24521 6.21137C8.15146 6.20355 8.09928 6.22699 8.08896 6.27887L8.06272 6.4273C8.06272 6.31012 8.04709 6.24824 8.01584 6.2373C7.97816 6.22172 7.93885 6.2104 7.89865 6.20356C7.98459 6.20918 8.03178 6.1723 8.03928 6.09887H8.0399ZM2.29178 17.1682L2.16678 17.4173C2.13115 17.4945 2.11053 17.5776 2.10553 17.6623V17.6636C2.10484 17.6914 2.11009 17.7191 2.12092 17.7448C2.13175 17.7705 2.14791 17.7936 2.16834 17.8126C2.21778 17.8548 2.27627 17.8849 2.33928 17.9007C2.48424 17.9347 2.63293 17.9502 2.78178 17.9467L2.86115 17.9473L4.90803 17.9232L5.04865 17.9229L5.21428 17.9232L5.7049 17.9054C6.02922 17.8771 6.34369 17.7795 6.62713 17.6194C6.91057 17.4592 7.15639 17.2402 7.34803 16.977C7.3774 16.9373 7.47803 16.777 7.61678 16.5542L8.1249 15.7317L9.1749 14.0151L9.94053 12.8026C9.95303 12.7839 9.97396 12.772 9.99678 12.7714C10.0196 12.7707 10.0399 12.7832 10.0521 12.8026C10.0524 12.8029 10.6324 13.7095 10.8183 14.0151L12.3755 16.5542L12.6443 16.977C12.8357 17.2403 13.0815 17.4594 13.3649 17.6196C13.6483 17.7797 13.9628 17.8772 14.2871 17.9054C14.4474 17.9211 14.6121 17.9232 14.7771 17.9232L14.9433 17.9229L15.084 17.9232C15.5335 17.9282 15.9835 17.9335 16.434 17.9389L17.1308 17.9476L17.2102 17.947C17.3205 17.9481 17.4307 17.9408 17.5399 17.9251C17.6433 17.9155 17.7417 17.8764 17.8237 17.8126C17.8441 17.7936 17.8602 17.7705 17.8711 17.7448C17.8819 17.7191 17.8871 17.6914 17.8865 17.6636V17.6617C17.8815 17.577 17.8611 17.494 17.8262 17.4167C17.7902 17.3301 17.7433 17.2432 17.7037 17.1667L17.6193 17.0176C17.0212 15.9757 16.4524 14.9223 15.8855 13.8614C15.2293 12.6385 14.573 11.4155 13.9168 10.1926C13.908 10.1761 13.9068 10.1567 13.913 10.1389C13.9161 10.1301 13.9209 10.1221 13.9273 10.1154C13.9336 10.1087 13.9413 10.1033 13.9499 10.0998C14.803 9.75106 15.5015 9.0323 16.0812 8.31668C16.8518 7.33418 17.5368 6.2873 18.128 5.18793C18.3383 4.81199 18.5255 4.42012 18.728 4.03418C18.268 4.72699 17.6977 5.3398 17.0399 5.84824C16.0727 6.62762 14.429 7.39731 12.1258 8.14887C9.90646 8.87658 8.27282 9.72293 7.2249 10.6879L6.1749 11.6217C6.12803 11.6692 5.90709 11.9004 5.52053 12.3289C4.99057 12.9321 4.49439 13.5642 4.03428 14.2223L3.52584 14.9411L2.37397 17.0145L2.28959 17.1626" fill="white"/>
<path d="M19.7451 2.38168C19.7241 2.43168 19.6935 2.47637 19.6554 2.51418L19.5073 2.67918L19.5063 2.68012C19.4126 2.79887 19.3241 2.92168 19.2429 3.04887L19.2435 3.04824L18.8804 3.65824L18.0873 5.16762C17.4966 6.26137 16.8138 7.30824 16.0451 8.28887C15.467 9.00324 14.7741 9.71387 13.9338 10.0576C13.9032 10.0701 13.8791 10.0951 13.8682 10.1264C13.8573 10.1576 13.8595 10.192 13.8754 10.2217C14.5331 11.4438 15.1894 12.6667 15.8441 13.8904L17.5785 17.0436L17.6629 17.1926C17.7026 17.2667 17.7485 17.3489 17.7829 17.4357C17.8155 17.5066 17.8347 17.5829 17.8395 17.6607V17.6629C17.8404 17.6838 17.8368 17.7046 17.8288 17.7239C17.8209 17.7433 17.8088 17.7606 17.7935 17.7748C17.7187 17.8314 17.6295 17.8659 17.536 17.8745C17.4298 17.8892 17.322 17.8964 17.2141 17.8954H17.1266C16.8985 17.8954 16.6698 17.8892 16.4391 17.8873C15.9885 17.8819 15.5385 17.8767 15.0891 17.8717L14.9673 17.8707L14.7798 17.8711C14.6173 17.8711 14.456 17.8689 14.3001 17.8539C13.6588 17.7976 13.0732 17.467 12.6938 16.947C12.6623 16.9007 12.6316 16.8539 12.602 16.8064C12.2785 16.297 11.2982 14.6889 10.8698 13.9876C10.6829 13.6814 10.1041 12.7751 10.1035 12.7745C10.0816 12.7407 10.0441 12.7204 10.0045 12.7204C9.96477 12.7204 9.92696 12.7407 9.9054 12.7745C9.90477 12.7751 9.32571 13.6814 9.13883 13.9876L8.08946 15.7039L7.58165 16.5264L7.40665 16.8061C7.37694 16.8536 7.34631 16.9006 7.31477 16.947C7.12725 17.2041 6.88684 17.418 6.60972 17.5743C6.3326 17.7307 6.0252 17.8259 5.70821 17.8536C5.54868 17.8669 5.3886 17.8726 5.22852 17.8707C5.16509 17.8707 5.10165 17.8704 5.04102 17.8704L4.91852 17.8714C4.46852 17.8755 4.01852 17.8807 3.56852 17.887L2.88102 17.8951H2.79352C2.64977 17.8982 2.5054 17.8839 2.3654 17.8507C2.30996 17.8376 2.25844 17.8115 2.21509 17.7745C2.18384 17.7457 2.16727 17.7048 2.16915 17.662V17.6601C2.1738 17.5822 2.19298 17.5059 2.22571 17.4351C2.26009 17.3514 2.30571 17.2664 2.34509 17.1923C2.37009 17.1448 2.39977 17.0986 2.42946 17.0432L2.42915 17.0442C3.02821 16.0017 3.59665 14.9482 4.16415 13.8901C4.81998 12.6672 5.47592 11.4443 6.13196 10.2214C6.14759 10.192 6.15071 10.1573 6.13915 10.1261C6.12759 10.0948 6.10384 10.0698 6.0729 10.0573C5.2329 9.71418 4.53977 9.00324 3.96165 8.28855C3.1933 7.30841 2.51029 6.26429 1.92009 5.16762C1.64571 4.67793 1.41009 4.1573 1.12696 3.65824C1.0104 3.45293 0.889461 3.24824 0.763836 3.04824L0.764149 3.04855C0.682586 2.92111 0.594554 2.79793 0.500399 2.67949C0.452899 2.61855 0.397274 2.5648 0.351336 2.51324C0.313211 2.47574 0.282586 2.43043 0.262274 2.38105C0.250542 2.3481 0.244006 2.31352 0.242899 2.27855C0.241174 2.25055 0.24998 2.22291 0.267586 2.20105C0.312678 2.16004 0.369526 2.13424 0.430086 2.1273C0.523836 2.11105 0.619461 2.10355 0.714461 2.10543C0.808211 2.10543 0.901961 2.10949 0.975711 2.10949H0.985086C1.41154 2.10866 1.83759 2.10803 2.26321 2.10762C2.56113 2.10762 2.85936 2.10741 3.1579 2.10699H3.16102C3.49829 2.12181 3.82522 2.22787 4.10696 2.41387C4.40227 2.60137 4.68134 2.81387 4.94134 3.04762C5.41384 3.47574 5.84446 3.94855 6.22665 4.45887C6.2529 4.4923 6.2954 4.50887 6.33759 4.50199C6.37977 4.49512 6.41477 4.46637 6.42915 4.42637C6.5729 4.04355 6.7454 3.6723 6.94634 3.31605L6.94852 3.3123C7.18821 2.8373 7.67259 2.37793 8.1829 2.27418C8.323 2.24802 8.4654 2.23619 8.6079 2.23887C8.75321 2.23887 8.90165 2.24605 9.04852 2.24605L9.4079 2.24574L10.966 2.24605C11.1129 2.24605 11.2616 2.23887 11.4073 2.23887C11.5496 2.23616 11.6918 2.248 11.8316 2.27418C12.342 2.3773 12.827 2.83762 13.0666 3.3123L13.0685 3.31605C13.2693 3.67227 13.4422 4.04348 13.5857 4.42637C13.6004 4.46637 13.6357 4.49512 13.6776 4.50199C13.7195 4.50887 13.762 4.49262 13.7885 4.45887C14.1708 3.94866 14.6008 3.4761 15.0729 3.04762C15.3332 2.81324 15.6123 2.60168 15.9073 2.41387C16.189 2.22798 16.516 2.12203 16.8532 2.1073H16.8563C17.1543 2.1073 17.4526 2.10751 17.7513 2.10793C18.1772 2.10876 18.6035 2.10939 19.0304 2.1098H19.0398C19.1166 2.1098 19.2076 2.10574 19.301 2.10574C19.422 2.10074 19.5429 2.11512 19.6591 2.14762C19.6926 2.15769 19.7229 2.17607 19.7473 2.20105C19.7651 2.22293 19.7741 2.25043 19.7723 2.27855C19.7713 2.31355 19.7648 2.34793 19.7535 2.38105L19.7451 2.38168ZM19.9176 2.04855C19.8391 1.96701 19.7358 1.91391 19.6238 1.89762C19.5146 1.87778 19.4036 1.86889 19.2926 1.87105C19.1926 1.87105 19.0998 1.87512 19.0313 1.87512H19.0226C18.5959 1.87428 18.1695 1.87366 17.7432 1.87324C17.4448 1.87324 17.1463 1.87262 16.8482 1.87262H16.8488H16.8451C16.4651 1.88718 16.0963 2.00493 15.7782 2.21324C15.4717 2.40773 15.1818 2.62734 14.9116 2.8698C14.4766 3.26066 14.0787 3.69093 13.7229 4.15512C13.5904 3.82824 13.4376 3.51012 13.2654 3.20262C12.9885 2.63387 12.4804 2.21199 11.8741 2.04418C11.7185 2.01449 11.5604 2.00137 11.4023 2.00418C11.2491 2.00418 11.0998 2.01105 10.9648 2.01105L10.6054 2.01074L9.99915 2.01105L9.39915 2.01074L9.03915 2.01105C8.90165 2.01105 8.75165 2.00418 8.59946 2.00418C8.44071 2.00105 8.28227 2.0148 8.12634 2.0448C7.51571 2.21355 7.00696 2.63637 6.7304 3.20637C6.55914 3.51304 6.40697 3.83 6.27477 4.15543C5.91918 3.69111 5.52122 3.26082 5.08602 2.87012C4.81602 2.62762 4.52665 2.40762 4.21977 2.21387C3.90165 2.00543 3.53227 1.88793 3.15259 1.87012H3.14634L2.25415 1.87074C1.8279 1.87324 1.40186 1.8748 0.976024 1.87543H0.967899C0.899149 1.87543 0.806024 1.87137 0.706649 1.87137C0.558524 1.86574 0.410711 1.88449 0.269149 1.92699C0.197033 1.95064 0.13231 1.99264 0.0813362 2.04887C0.0269612 2.11324 -0.00178876 2.19512 8.62409e-05 2.27918C0.00102374 2.34168 0.0113362 2.3973 0.0300862 2.45355C0.0613362 2.5348 0.108211 2.60855 0.167586 2.67074C0.220711 2.73324 0.273836 2.7823 0.306024 2.82387C0.395364 2.93591 0.478811 3.05252 0.556024 3.17324C0.679906 3.37105 0.799312 3.57162 0.914149 3.7748C1.19071 4.26168 1.42602 4.78168 1.70665 5.28355C2.30335 6.39175 2.99378 7.44685 3.7704 8.4373C4.3329 9.13012 5.01102 9.8348 5.8579 10.2198C5.21998 11.4063 4.58457 12.5931 3.95165 13.7804L2.1329 17.0836C2.09384 17.1567 2.04446 17.2479 2.00352 17.3467C1.95884 17.4457 1.93352 17.5529 1.92915 17.6617V17.6667C1.92871 17.7189 1.939 17.7706 1.95937 17.8187C1.97975 17.8667 2.00977 17.9101 2.04759 17.9461C2.15629 18.0364 2.28923 18.0927 2.42977 18.1079C2.54852 18.1248 2.6679 18.1329 2.78759 18.1311L2.87665 18.1314L4.91727 18.1076L5.03727 18.107L5.22477 18.1073C5.38977 18.1073 5.55821 18.1054 5.72696 18.0886C6.43571 18.0261 7.08259 17.6604 7.50134 17.0854C7.52165 17.0573 7.55384 17.0073 7.60134 16.9336C7.9279 16.4198 8.90759 14.8132 9.33571 14.1117L9.78696 13.3939L9.99915 13.0567L10.2129 13.3929L10.6641 14.1107L11.7135 15.8276L12.222 16.6514L12.3982 16.9326L12.4976 17.0845C12.7047 17.3686 12.9701 17.6052 13.2762 17.7783C13.5822 17.9515 13.9217 18.0571 14.272 18.0882C14.4407 18.1045 14.6095 18.107 14.7745 18.107H14.962H15.0816L17.1223 18.1307L17.2113 18.1304C17.3771 18.1344 17.5427 18.1166 17.7038 18.0773C17.7957 18.0541 17.8807 18.0089 17.9513 17.9457C17.9897 17.9096 18.02 17.8659 18.0405 17.8173C18.0609 17.7688 18.071 17.7165 18.0701 17.6639V17.6614C18.066 17.5526 18.0407 17.4457 17.996 17.3464C17.9548 17.2479 17.9023 17.1564 17.8657 17.0826C17.837 17.0289 17.807 16.9782 17.7788 16.9286L17.7785 16.9282C17.1848 15.8895 16.6145 14.8382 16.0473 13.7804C15.4131 12.5933 14.7776 11.4063 14.1407 10.2192C14.9876 9.83418 15.6657 9.12949 16.2282 8.43699C17.0051 7.44642 17.6958 6.39122 18.2929 5.28293C18.5732 4.78137 18.8085 4.26105 19.0851 3.77418C19.2001 3.57105 19.3195 3.3698 19.4429 3.17324V3.1723C19.516 3.05355 19.6035 2.93918 19.6929 2.82293V2.82387C19.7251 2.7823 19.7785 2.73012 19.8316 2.67074C19.892 2.60824 19.9388 2.5348 19.9691 2.45418C19.9882 2.39765 19.9983 2.33851 19.9991 2.27887C20.0012 2.19474 19.9723 2.11279 19.9179 2.04855H19.9176Z" fill="#2A2D2C"/>
</g>
<defs>
<clipPath id="clip0_10306_64323">
<rect width="20" height="20" fill="white"/>
</clipPath>
</defs>
</svg>
