<svg width="20" height="20" viewBox="0 0 20 20" fill="none" xmlns="http://www.w3.org/2000/svg">
<path d="M10 1.25C5.17383 1.25 1.25 5.17383 1.25 10C1.25 14.8262 5.17383 18.75 10 18.75C14.8262 18.75 18.75 14.8262 18.75 10C18.75 5.17383 14.8262 1.25 10 1.25Z" fill="#FF5A5F"/>
<path d="M9.99935 12.3042C9.42569 11.5826 9.08824 10.9501 8.97576 10.4089C8.86328 9.96915 8.90827 9.61963 9.09949 9.36031C9.30196 9.05588 9.60566 8.90931 9.99935 8.90931C10.393 8.90931 10.6967 9.05588 10.8992 9.36031C11.0904 9.61963 11.1354 9.96915 11.0229 10.4089C10.8992 10.9613 10.5618 11.5927 9.99935 12.3042ZM13.1399 13.9729C12.1838 14.3901 11.2378 13.7248 10.4279 12.8228C11.7676 11.1417 12.015 9.83386 11.4403 8.98711C11.1028 8.50228 10.6191 8.26551 9.99935 8.26551C8.75079 8.26551 8.06352 9.32536 8.33348 10.5555C8.49096 11.2207 8.90714 11.9772 9.57079 12.8228C9.07301 13.3757 8.41995 14.0029 7.63609 14.0744C6.50002 14.2435 5.61028 13.1385 6.01522 11.9986L8.8959 6.02067C9.14176 5.57127 9.44521 5.18632 9.99822 5.18632C10.4032 5.18632 10.7181 5.4231 10.8531 5.61477L13.9812 11.9986C14.2877 12.77 13.899 13.6443 13.1399 13.9729ZM14.5909 11.7731L11.9127 6.18979C11.4065 5.1525 11.0466 4.53125 9.99935 4.53125C8.96451 4.53125 8.5247 5.25285 8.07477 6.18979L5.40781 11.7731C4.83415 13.3528 6.01522 14.7396 7.44487 14.7396C7.53487 14.7396 7.6242 14.7283 7.71483 14.7283C8.45721 14.6381 9.22322 14.1646 9.99935 13.3178C10.7755 14.1634 11.5415 14.6381 12.2839 14.7283C12.3745 14.7283 12.4638 14.7396 12.5538 14.7396C13.9835 14.7407 15.1645 13.3528 14.5909 11.7731Z" fill="white"/>
</svg>
