<svg width="20" height="20" viewBox="0 0 20 20" fill="none" xmlns="http://www.w3.org/2000/svg">
<circle cx="10" cy="10" r="8.75" fill="#FF8C00"/>
<path d="M13.7181 12.5628C13.704 12.4392 13.633 12.1557 13.4483 12.083H13.4485C13.356 12.0466 13.2779 12.0755 13.2426 12.141C13.1857 12.243 13.2283 12.4392 13.3348 12.6139C13.4412 12.7884 13.5407 12.8756 13.6118 12.8756C13.6828 12.8756 13.7466 12.7884 13.7181 12.5628Z" fill="white"/>
<path d="M12.7243 13.0574C12.6106 12.9556 12.4829 12.9048 12.3692 12.9048C12.2699 12.9048 12.1918 12.941 12.1419 13.0065C12.0144 13.1663 12.0711 13.4574 12.2699 13.6319C12.3551 13.7119 12.4829 13.7556 12.6036 13.7556C12.7243 13.7556 12.8306 13.7047 12.8946 13.6247C13.0083 13.4647 12.9443 13.2465 12.7243 13.0574Z" fill="white"/>
<path d="M5 10.0031C5 12.7664 7.18642 15.0063 9.88435 15.0064C10.6015 15.0064 11.3114 14.8683 12.3551 14.8608C13.2852 14.8608 14.3075 15.1953 15.4291 16.2136C15.5428 16.3153 15.6917 16.1844 15.5924 16.0608C14.492 14.6282 13.4697 14.3593 12.4473 14.1265C11.1979 13.8428 10.5589 13.1301 10.1116 12.3375C10.0265 12.1774 9.98387 12.2066 9.97659 12.4102C9.96854 12.7099 9.98998 13.0096 10.0406 13.3049H9.89163C8.10957 13.3049 6.66114 11.8212 6.66114 9.99584C6.66114 8.17046 8.10957 6.68683 9.89141 6.68683C11.6735 6.68683 13.1219 8.17046 13.1219 9.99584C13.1219 10.1267 13.1146 10.2576 13.1005 10.3812C12.8591 10.3376 12.3977 10.3304 12.0711 10.3595C11.9504 10.374 11.9645 10.4321 12.057 10.4468C13.1219 10.6502 13.8532 11.3267 14.0235 12.5556C14.0306 12.5847 14.0661 12.592 14.0805 12.5703C14.5134 11.8212 14.7689 10.9411 14.7689 10.0031C14.7689 7.23991 12.5822 5 9.88435 5C7.18676 5 5 7.23969 5 10.0031Z" fill="white"/>
</svg>
