<svg width="20" height="20" viewBox="0 0 20 20" fill="none" xmlns="http://www.w3.org/2000/svg">
<g clip-path="url(#clip0_10306_64351)">
<path d="M17.3571 16.4643C9.1022 20.3928 3.97913 17.1059 0.699694 15.1095C0.496763 14.9837 0.151852 15.1389 0.45111 15.4827C1.54366 16.8074 5.12416 20.0003 9.79775 20.0003C14.4746 20.0003 17.2568 17.4485 17.6049 17.0033C17.9506 16.5619 17.7064 16.3185 17.357 16.4643H17.3571ZM19.6754 15.184C19.4538 14.8953 18.3275 14.8415 17.6187 14.9286C16.9088 15.0131 15.8432 15.447 15.9359 15.7075C15.9834 15.8051 16.0804 15.7613 16.5681 15.7174C17.0571 15.6687 18.427 15.4958 18.7125 15.8689C18.9993 16.2447 18.2756 18.0345 18.1434 18.3232C18.0157 18.6118 18.1922 18.6863 18.4321 18.494C18.6686 18.3018 19.0969 17.8041 19.3843 17.0998C19.6698 16.3916 19.8439 15.4038 19.6754 15.184H19.6754Z" fill="#FF9900"/>
<path fill-rule="evenodd" clip-rule="evenodd" d="M11.8061 8.44758C11.8061 9.47839 11.8321 10.338 11.3111 11.2535C10.8906 11.9978 10.2245 12.4555 9.48021 12.4555C8.46423 12.4555 7.87255 11.6814 7.87255 10.539C7.87255 8.2838 9.8932 7.87449 11.8061 7.87449V8.44758ZM14.4743 14.8968C14.2994 15.053 14.0463 15.0643 13.8491 14.96C12.9709 14.2306 12.8145 13.892 12.3308 13.1961C10.8795 14.6772 9.85234 15.12 7.96934 15.12C5.74395 15.12 4.00977 13.7468 4.00977 10.9967C4.00977 8.84952 5.17462 7.38697 6.83053 6.67252C8.26703 6.0398 10.2729 5.92818 11.8061 5.75333V5.41093C11.8061 4.78199 11.8544 4.03773 11.486 3.49444C11.1622 3.00692 10.5445 2.80595 10.0011 2.80595C8.99269 2.80595 8.09211 3.3232 7.87255 4.39495C7.82784 4.63318 7.65299 4.86764 7.41484 4.87878L4.84705 4.60345C4.63126 4.55498 4.39311 4.38013 4.45265 4.04887C5.04433 0.937854 7.85388 0 10.3695 0C11.6571 0 13.3391 0.3424 14.3551 1.31743C15.6427 2.5194 15.5199 4.12331 15.5199 5.86864V9.99195C15.5199 11.2312 16.0335 11.7745 16.5172 12.4444C16.6884 12.6825 16.7256 12.9691 16.5098 13.1477C15.9702 13.5979 15.01 14.4353 14.4816 14.9042L14.4742 14.8968" fill="black"/>
<path d="M17.3571 16.4643C9.1022 20.3928 3.97913 17.1059 0.699694 15.1095C0.496763 14.9837 0.151852 15.1389 0.45111 15.4827C1.54366 16.8074 5.12416 20.0003 9.79775 20.0003C14.4746 20.0003 17.2568 17.4485 17.6049 17.0033C17.9506 16.5619 17.7064 16.3185 17.357 16.4643H17.3571ZM19.6754 15.184C19.4538 14.8953 18.3275 14.8415 17.6187 14.9286C16.9088 15.0131 15.8432 15.447 15.9359 15.7075C15.9834 15.8051 16.0804 15.7613 16.5681 15.7174C17.0571 15.6687 18.427 15.4958 18.7125 15.8689C18.9993 16.2447 18.2756 18.0345 18.1434 18.3232C18.0157 18.6118 18.1922 18.6863 18.4321 18.494C18.6686 18.3018 19.0969 17.8041 19.3843 17.0998C19.6698 16.3916 19.8439 15.4038 19.6754 15.184H19.6754Z" fill="#FF9900"/>
<path fill-rule="evenodd" clip-rule="evenodd" d="M11.8061 8.44758C11.8061 9.47839 11.8321 10.338 11.3111 11.2535C10.8906 11.9978 10.2245 12.4555 9.48021 12.4555C8.46423 12.4555 7.87255 11.6814 7.87255 10.539C7.87255 8.2838 9.8932 7.87449 11.8061 7.87449V8.44758ZM14.4743 14.8968C14.2994 15.053 14.0463 15.0643 13.8491 14.96C12.9709 14.2306 12.8145 13.892 12.3308 13.1961C10.8795 14.6772 9.85234 15.12 7.96934 15.12C5.74395 15.12 4.00977 13.7468 4.00977 10.9967C4.00977 8.84952 5.17462 7.38697 6.83053 6.67252C8.26703 6.0398 10.2729 5.92818 11.8061 5.75333V5.41093C11.8061 4.78199 11.8544 4.03773 11.486 3.49444C11.1622 3.00692 10.5445 2.80595 10.0011 2.80595C8.99269 2.80595 8.09211 3.3232 7.87255 4.39495C7.82784 4.63318 7.65299 4.86764 7.41484 4.87878L4.84705 4.60345C4.63126 4.55498 4.39311 4.38013 4.45265 4.04887C5.04433 0.937854 7.85388 0 10.3695 0C11.6571 0 13.3391 0.3424 14.3551 1.31743C15.6427 2.5194 15.5199 4.12331 15.5199 5.86864V9.99195C15.5199 11.2312 16.0335 11.7745 16.5172 12.4444C16.6884 12.6825 16.7256 12.9691 16.5098 13.1477C15.9702 13.5979 15.01 14.4353 14.4816 14.9042L14.4742 14.8968" fill="black"/>
</g>
<defs>
<clipPath id="clip0_10306_64351">
<rect width="20" height="20" fill="white"/>
</clipPath>
</defs>
</svg>
