<svg width="20" height="20" viewBox="0 0 20 20" fill="none" xmlns="http://www.w3.org/2000/svg">
<circle opacity="0.852" cx="10" cy="10" r="8.75" fill="url(#paint0_radial_10306_64343)"/>
<path d="M4.22022 16.583C4.20828 16.5743 4.19605 16.5632 4.18381 16.5498C3.95731 16.3437 3.58839 16.0187 3.20287 15.5275C2.86992 14.8053 3.05865 13.5922 3.87802 11.8794C5.03409 9.46277 6.88381 7.00911 7.6422 6.13876C7.4264 5.89802 6.75803 5.23877 5.81098 4.52768C4.86392 3.81658 4.17397 3.74374 3.93351 3.78695C4.15548 3.54621 4.6734 3.09252 5.10808 2.78697C6.45468 2.12031 8.94317 3.24684 10.0098 3.8888V8.30538C7.29075 10.3979 4.77513 13.6294 4.26646 14.8886C3.87822 15.8497 4.0317 16.3827 4.18381 16.5498C4.19639 16.5612 4.20854 16.5723 4.22022 16.583Z" fill="url(#paint1_linear_10306_64343)"/>
<path d="M4.22022 16.5829C4.20828 16.5742 4.19605 16.5631 4.18381 16.5497C3.95731 16.3436 3.58839 16.0186 3.20287 15.5274C2.86992 14.8052 3.05865 13.5921 3.87802 11.8793C5.22019 9.07366 7.6422 6.13867 7.6422 6.13867C7.6422 6.13867 8.07465 7.21255 9.05613 9.07366C6.52836 11.3144 4.77513 13.6293 4.26646 14.8885C3.87822 15.8496 4.0317 16.3826 4.18381 16.5497C4.19639 16.5611 4.20854 16.5722 4.22022 16.5829Z" fill="url(#paint2_linear_10306_64343)"/>
<path d="M15.7993 16.583C15.8113 16.5743 15.8235 16.5632 15.8357 16.5498C16.0622 16.3437 16.4311 16.0187 16.8167 15.5275C17.1496 14.8053 16.9609 13.5922 16.1415 11.8794C14.9854 9.46277 13.1357 7.00911 12.3773 6.13876C12.5931 5.89802 13.2615 5.23877 14.2086 4.52768C15.1556 3.81658 15.8456 3.74374 16.086 3.78695C15.8641 3.54621 15.3461 3.09252 14.9114 2.78697C13.5649 2.12031 11.0764 3.24684 10.0097 3.8888V8.30538C12.7288 10.3979 15.2444 13.6294 15.7531 14.8886C16.1413 15.8497 15.9878 16.3827 15.8357 16.5498C15.8231 16.5612 15.811 16.5723 15.7993 16.583Z" fill="url(#paint3_linear_10306_64343)"/>
<path d="M15.7993 16.5829C15.8113 16.5742 15.8235 16.5631 15.8357 16.5497C16.0622 16.3436 16.4311 16.0186 16.8167 15.5274C17.1496 14.8052 16.9609 13.5921 16.1415 11.8793C14.7993 9.07366 12.3773 6.13867 12.3773 6.13867C12.3773 6.13867 11.9449 7.21255 10.9634 9.07366C13.4912 11.3144 15.2444 13.6293 15.7531 14.8885C16.1413 15.8496 15.9878 16.3826 15.8357 16.5497C15.8231 16.5611 15.811 16.5722 15.7993 16.5829Z" fill="url(#paint4_linear_10306_64343)"/>
<defs>
<radialGradient id="paint0_radial_10306_64343" cx="0" cy="0" r="1" gradientUnits="userSpaceOnUse" gradientTransform="translate(10 9.0625) rotate(90.0548) scale(9.6875)">
<stop stop-color="#FAFAFA"/>
<stop offset="0.499976" stop-color="#EFEFEF"/>
<stop offset="0.828794" stop-color="#C0BEC0"/>
<stop offset="1" stop-color="#879288"/>
</radialGradient>
<linearGradient id="paint1_linear_10306_64343" x1="8.12095" y1="2.95338" x2="8.2691" y2="7.99041" gradientUnits="userSpaceOnUse">
<stop stop-color="#008B00"/>
<stop offset="1" stop-color="#6CC329"/>
</linearGradient>
<linearGradient id="paint2_linear_10306_64343" x1="6.34317" y1="7.91645" x2="8.04688" y2="10.2498" gradientUnits="userSpaceOnUse">
<stop stop-color="#008C00"/>
<stop offset="1" stop-color="#48BF21"/>
</linearGradient>
<linearGradient id="paint3_linear_10306_64343" x1="11.8986" y1="2.95338" x2="11.7504" y2="7.99041" gradientUnits="userSpaceOnUse">
<stop stop-color="#008B00"/>
<stop offset="1" stop-color="#6CC329"/>
</linearGradient>
<linearGradient id="paint4_linear_10306_64343" x1="13.6764" y1="7.91645" x2="11.9727" y2="10.2498" gradientUnits="userSpaceOnUse">
<stop stop-color="#008C00"/>
<stop offset="1" stop-color="#48BF21"/>
</linearGradient>
</defs>
</svg>
