<svg width="20" height="20" viewBox="0 0 20 20" fill="none" xmlns="http://www.w3.org/2000/svg">
<rect x="1.25" y="1.25" width="17.5" height="17.5" rx="8.75" fill="#784589"/>
<path d="M8.42651 11.4199C8.27709 11.4199 8.13044 11.4053 7.98655 11.3763C7.84266 11.3472 7.70846 11.305 7.58394 11.2497C7.44559 11.1861 7.32937 11.1093 7.23529 11.0194C7.14121 10.9294 7.07342 10.8278 7.03191 10.7143C6.99871 10.6119 6.9994 10.5158 7.03399 10.4259C7.06858 10.3359 7.13014 10.2716 7.21869 10.2329C7.30723 10.1941 7.3854 10.1755 7.4532 10.1768C7.52099 10.1782 7.57771 10.1941 7.62337 10.2246C7.66903 10.255 7.70846 10.2882 7.74166 10.3242C7.7804 10.3685 7.82052 10.4072 7.86203 10.4404C8.03359 10.5787 8.22452 10.6479 8.43481 10.6479C8.54273 10.6507 8.6458 10.6382 8.74403 10.6106C8.84226 10.5829 8.89414 10.522 8.89968 10.4279C8.89968 10.3505 8.86993 10.2924 8.81044 10.2536C8.75095 10.2149 8.66171 10.1775 8.54273 10.1416L8.14427 10.0046C7.64897 9.83583 7.34736 9.65114 7.23944 9.45054C7.13153 9.24994 7.08864 9.0694 7.11077 8.90892V8.90477C7.12184 8.64745 7.25604 8.42887 7.51338 8.24902C7.77072 8.06917 8.08478 7.9751 8.45557 7.9668C8.75164 7.9668 9.00759 8.01383 9.22342 8.10791C9.43926 8.20198 9.60113 8.33618 9.70904 8.51049C9.78099 8.62393 9.80589 8.72492 9.78375 8.81346C9.76992 8.8605 9.74709 8.89924 9.71527 8.92967C9.68345 8.96011 9.65232 8.98363 9.62188 9.00023C9.50013 9.0611 9.40052 9.09154 9.32304 9.09154C9.26493 9.09154 9.21097 9.0777 9.16117 9.05003C9.11136 9.02236 9.0574 8.98778 8.99929 8.94627L8.96609 8.92137C8.82497 8.819 8.68246 8.76781 8.53858 8.76781C8.41406 8.76781 8.31652 8.78718 8.24596 8.82591C8.1754 8.86465 8.14012 8.91653 8.14012 8.98155C8.14012 9.04657 8.16848 9.09776 8.22521 9.13511C8.28193 9.17247 8.35733 9.20498 8.45141 9.23265L8.98684 9.40281C9.35486 9.51625 9.61773 9.6878 9.77545 9.91745C9.84186 10.0171 9.88475 10.1091 9.90412 10.1934C9.92349 10.2778 9.93179 10.3436 9.92902 10.3906C9.92902 10.5511 9.8889 10.697 9.80866 10.8284C9.72841 10.9599 9.61081 11.0726 9.45586 11.1667C9.3175 11.2469 9.15978 11.3092 8.98269 11.3535C8.8056 11.3977 8.62021 11.4199 8.42651 11.4199V11.4199ZM12.4733 11.8391C12.4706 11.7643 12.4858 11.7083 12.519 11.671C12.5522 11.6336 12.5882 11.6094 12.6269 11.5983C12.6933 11.5734 12.7521 11.5388 12.8033 11.4946C12.8545 11.4503 12.8939 11.3977 12.9216 11.3369C12.9493 11.2677 12.9714 11.1861 12.988 11.092C12.9963 11.0533 13.0018 11.0159 13.0046 10.9799C13.0101 10.9578 13.0129 10.9357 13.0129 10.9135L13.0254 10.8471L13.0503 10.6562L13.0627 10.5898C13.0627 10.5677 13.0655 10.5455 13.071 10.5234L13.0835 10.4404C13.0835 10.4238 13.0862 10.4072 13.0918 10.3906L13.0959 10.3491L13.1416 10.0254L13.154 9.91745L13.1831 9.72653C13.1886 9.71823 13.1886 9.71408 13.1831 9.71408C13.1859 9.71132 13.1817 9.70993 13.1706 9.70993H13.042C12.9949 9.70993 12.9617 9.68918 12.9424 9.64768C12.9368 9.63384 12.9341 9.61863 12.9341 9.60203C12.9396 9.54392 12.9479 9.48582 12.959 9.42771C12.9673 9.39451 12.9852 9.36961 13.0129 9.35301C13.0406 9.3364 13.0696 9.32672 13.1001 9.32395H13.237C13.2426 9.30735 13.2453 9.29213 13.2453 9.2783C13.2509 9.23956 13.2578 9.20359 13.2661 9.17039C13.2855 9.07355 13.3201 8.98639 13.3699 8.90892C13.4335 8.80931 13.5151 8.73461 13.6148 8.6848L13.6895 8.6516C13.7144 8.63777 13.742 8.62808 13.7725 8.62255C13.8112 8.61148 13.861 8.6018 13.9219 8.5935C13.9883 8.5852 14.0506 8.58105 14.1087 8.58105H14.146C14.1958 8.58381 14.2443 8.58935 14.2913 8.59765C14.3162 8.60041 14.3383 8.61286 14.3577 8.635C14.3771 8.65713 14.3861 8.68549 14.3847 8.72008C14.3833 8.75467 14.3785 8.79133 14.3702 8.83006C14.3674 8.85497 14.3632 8.87987 14.3577 8.90477L14.3536 8.92552C14.3508 8.94489 14.3411 8.96149 14.3245 8.97533C14.3079 8.98916 14.2899 8.99608 14.2705 8.99608H14.1294C14.1101 8.99331 14.0879 8.99193 14.063 8.99193H14.0215C13.9855 8.99469 13.9482 9.00576 13.9094 9.02513C13.8569 9.05003 13.8167 9.09154 13.7891 9.14964C13.7669 9.19391 13.7517 9.25201 13.7434 9.32395H14.42V9.3281H14.4241V9.32395H14.4283C14.4642 9.32672 14.494 9.34055 14.5175 9.36546C14.541 9.39036 14.5528 9.42218 14.5528 9.46091C14.55 9.47475 14.5486 9.48858 14.5486 9.50242V9.51072C14.5542 9.50518 14.5583 9.50242 14.5611 9.50242L14.6067 9.46091C14.6344 9.43878 14.6648 9.41664 14.6981 9.39451C14.7313 9.37237 14.7672 9.35439 14.806 9.34055C14.8585 9.32119 14.9097 9.30874 14.9595 9.3032C15.0093 9.29767 15.0522 9.2949 15.0882 9.2949C15.1436 9.2949 15.1726 9.29628 15.1754 9.29905C15.2279 9.30182 15.2833 9.31842 15.3414 9.34886C15.4078 9.38482 15.4604 9.43878 15.4991 9.51072L15.5157 9.55222L15.5406 9.52732C15.5489 9.51625 15.56 9.50657 15.5738 9.49827C15.7039 9.38482 15.8298 9.31842 15.9515 9.29905C15.9847 9.29352 16.0207 9.29075 16.0594 9.29075C16.0982 9.29075 16.1397 9.29352 16.184 9.29905C16.2504 9.30735 16.3113 9.32534 16.3666 9.35301C16.4275 9.38621 16.4738 9.43463 16.5056 9.49827C16.5375 9.56191 16.5561 9.63384 16.5617 9.71408C16.5644 9.78326 16.5603 9.85381 16.5492 9.92575V9.9382L16.5326 10.0835L16.5202 10.154L16.5119 10.2163C16.5063 10.2384 16.5022 10.2612 16.4994 10.2848C16.4966 10.3083 16.4953 10.3311 16.4953 10.3532L16.4787 10.4445L16.4704 10.5109L16.4621 10.5524L16.4579 10.5981L16.433 10.7724L16.4164 10.9135L16.3998 11.0048L16.3707 11.2373L16.3666 11.2456C16.3638 11.2788 16.3569 11.3106 16.3458 11.341C16.3292 11.3797 16.3016 11.4046 16.2628 11.4157C16.2407 11.4213 16.2158 11.424 16.1881 11.424H15.9681C15.9183 11.424 15.8837 11.4033 15.8644 11.3618C15.8561 11.3396 15.8519 11.323 15.8519 11.312L15.8644 11.2165L15.8727 11.1791V11.1667C15.8782 11.1473 15.881 11.1293 15.881 11.1127C15.8865 11.0878 15.8893 11.0629 15.8893 11.038C15.8976 10.9965 15.9031 10.9564 15.9059 10.9177C15.9142 10.8679 15.9211 10.8181 15.9266 10.7683L15.9391 10.6936L15.9681 10.4736L15.9764 10.4238C15.9792 10.3823 15.9847 10.3435 15.993 10.3076C15.9986 10.2827 16.0013 10.2592 16.0013 10.237C16.0096 10.1983 16.0152 10.1609 16.0179 10.125L16.0221 10.1167C16.0304 10.0447 16.0373 9.9714 16.0428 9.8967C16.0484 9.84966 16.0401 9.80954 16.0179 9.77634C15.9958 9.74314 15.9681 9.72377 15.9349 9.71823C15.9128 9.7127 15.8907 9.70993 15.8685 9.70993C15.8381 9.70993 15.8076 9.71547 15.7772 9.72653L15.7523 9.73899C15.6914 9.76389 15.6319 9.80677 15.5738 9.86765C15.5711 9.87318 15.5655 9.87871 15.5572 9.88425C15.5489 9.89531 15.5434 9.90777 15.5406 9.9216L15.5199 10.1125L15.4784 10.3906C15.4784 10.4127 15.477 10.4355 15.4742 10.4591C15.4714 10.4826 15.4673 10.5054 15.4618 10.5275L15.4493 10.6189L15.441 10.6645C15.441 10.6894 15.4382 10.7115 15.4327 10.7309L15.4244 10.7932C15.4161 10.8485 15.4092 10.9011 15.4037 10.9509L15.3912 11.0463C15.3884 11.0795 15.3829 11.1141 15.3746 11.1501C15.3746 11.1612 15.3732 11.1736 15.3704 11.1874C15.3677 11.2234 15.3621 11.2608 15.3538 11.2995C15.3345 11.3797 15.2861 11.4213 15.2086 11.424H14.9678C14.907 11.424 14.8696 11.3977 14.8558 11.3452C14.8502 11.3258 14.8489 11.3037 14.8516 11.2788V11.2705C14.8572 11.2539 14.8599 11.2373 14.8599 11.2207L14.8682 11.1874L14.8931 10.9924C14.8987 10.9453 14.9056 10.8983 14.9139 10.8513L14.9222 10.7766L14.9554 10.5608L14.9844 10.3366L15.0135 10.1582C15.0135 10.1333 15.0163 10.1111 15.0218 10.0918C15.0356 10.0115 15.0398 9.93267 15.0343 9.8552C15.0315 9.79156 15.0066 9.75005 14.9595 9.73069C14.9291 9.71685 14.8987 9.70993 14.8682 9.70993L14.8309 9.71408C14.7672 9.72515 14.7119 9.74798 14.6649 9.78256C14.6178 9.81715 14.5763 9.85381 14.5403 9.89255C14.532 9.90085 14.5265 9.91192 14.5237 9.92575L14.5196 9.9797C14.514 10.0018 14.5113 10.024 14.5113 10.0461L14.4864 10.1872V10.2038L14.4781 10.2495L14.4698 10.3242C14.467 10.3629 14.4615 10.4017 14.4532 10.4404C14.4476 10.4902 14.4407 10.54 14.4324 10.5898L14.4241 10.6604L14.3536 11.1542C14.348 11.2041 14.3397 11.2552 14.3287 11.3078C14.3231 11.3355 14.3114 11.359 14.2934 11.3784C14.2754 11.3977 14.2539 11.4102 14.229 11.4157C14.2124 11.4213 14.1931 11.424 14.1709 11.424H13.9343C13.8818 11.424 13.8486 11.4005 13.8347 11.3535C13.8292 11.3286 13.8278 11.3009 13.8306 11.2705C13.8306 11.2511 13.8333 11.2331 13.8389 11.2165L13.843 11.1874C13.8541 11.1127 13.8638 11.0408 13.8721 10.9716C13.8776 10.9495 13.8804 10.9274 13.8804 10.9052L13.8928 10.8305C13.8928 10.8056 13.8956 10.7821 13.9011 10.76C13.9067 10.7378 13.9094 10.7171 13.9094 10.6977L13.9219 10.6272C13.9219 10.6078 13.9247 10.5857 13.9302 10.5608L13.9842 10.1623L14.0008 10.0586L14.0132 9.9631C14.0187 9.94097 14.0215 9.91745 14.0215 9.89255C14.027 9.87318 14.0298 9.85104 14.0298 9.82614L14.0506 9.70993H13.7061C13.6978 9.70993 13.6922 9.71547 13.6895 9.72653L13.6729 9.83029L13.6687 9.8718C13.6659 9.87733 13.6646 9.88425 13.6646 9.89255L13.6563 9.93405C13.6563 9.95895 13.6535 9.98247 13.648 10.0046C13.6452 10.0433 13.6397 10.0835 13.6314 10.125L13.6064 10.3117L13.594 10.3823C13.594 10.4072 13.5912 10.4307 13.5857 10.4528C13.5802 10.475 13.5774 10.4985 13.5774 10.5234L13.5649 10.5898L13.5276 10.8513L13.4944 11.1127C13.4224 11.5195 13.309 11.7747 13.154 11.8785C12.9991 11.9822 12.869 12.0327 12.7639 12.03C12.7058 12.0383 12.6504 12.0313 12.5979 12.0092C12.5674 11.9981 12.5404 11.9788 12.5169 11.9511C12.4934 11.9234 12.4789 11.8861 12.4733 11.8391V11.8391ZM6.34291 8.00415C6.10495 8.01522 5.96037 8.07816 5.90918 8.19299C5.85799 8.30782 5.83793 8.41088 5.84899 8.50219V8.57274L5.82409 8.50634C5.82409 8.50357 5.81025 8.48144 5.78258 8.43993C5.75491 8.39843 5.70787 8.35001 5.64146 8.29467C5.58059 8.2421 5.48928 8.19368 5.36752 8.14941C5.24577 8.10514 5.08944 8.08162 4.89851 8.07886C4.47791 8.08992 4.13134 8.24764 3.85879 8.55199C3.58623 8.85635 3.4458 9.24371 3.4375 9.71408C3.4458 10.2011 3.57931 10.5988 3.83803 10.9073C4.09675 11.2158 4.43087 11.3756 4.8404 11.3867H4.89436C5.11019 11.3756 5.30527 11.3244 5.47959 11.2331C5.62625 11.1556 5.74108 11.0505 5.82409 10.9177L5.84899 10.872V10.9592C5.84346 11.0643 5.87113 11.166 5.93201 11.2642C5.99288 11.3625 6.12985 11.4143 6.34291 11.4199C6.55321 11.4199 6.69571 11.3438 6.77042 11.1916C6.80086 11.128 6.81885 11.065 6.82438 11.0028C6.82992 10.9405 6.83268 10.8914 6.83268 10.8554V8.6931C6.84375 8.54369 6.82369 8.39428 6.7725 8.24487C6.72131 8.09546 6.57811 8.01522 6.34291 8.00415V8.00415ZM5.06453 10.4943C4.8736 10.4916 4.72626 10.4238 4.62249 10.291C4.51873 10.1582 4.46685 9.98386 4.46685 9.76804C4.46685 9.51625 4.51873 9.33225 4.62249 9.21604C4.72626 9.09984 4.8736 9.04311 5.06453 9.04588C5.23609 9.04311 5.37168 9.09776 5.47129 9.20982C5.5709 9.32188 5.62209 9.50795 5.62486 9.76804C5.62209 9.98662 5.5709 10.1616 5.47129 10.2931C5.37168 10.4245 5.23609 10.4916 5.06453 10.4943V10.4943ZM10.6097 11.4199C10.3828 11.4088 10.2424 11.3355 10.1884 11.1999C10.1345 11.0643 10.1103 10.9287 10.1158 10.7932V8.6101C10.1103 8.47175 10.1345 8.33272 10.1884 8.19299C10.2424 8.05326 10.3828 7.97786 10.6097 7.9668C10.7813 7.9668 10.9072 8.0083 10.9874 8.09131C11.0455 8.15494 11.0801 8.22619 11.0912 8.30505C11.1023 8.3839 11.1064 8.45515 11.1036 8.51879C11.1009 8.53539 11.0995 8.55061 11.0995 8.56444V8.99608L11.7179 8.29467C11.7594 8.24764 11.7982 8.2089 11.8341 8.17846C11.9476 8.07886 12.0555 8.02905 12.1579 8.02905C12.2409 8.02905 12.3253 8.0581 12.4111 8.11621C12.4471 8.14111 12.4775 8.16601 12.5024 8.19091C12.602 8.30436 12.6435 8.41434 12.6269 8.52087C12.6103 8.62739 12.5646 8.71662 12.4899 8.78856L11.8134 9.51487L12.6518 10.7226C12.721 10.8195 12.7487 10.9239 12.7348 11.036C12.721 11.148 12.667 11.2442 12.573 11.3244C12.4927 11.388 12.3986 11.4199 12.2907 11.4199H12.2741C12.1994 11.4171 12.1295 11.397 12.0645 11.3597C11.9995 11.3223 11.9448 11.2718 11.9006 11.2082L11.0995 10.0295V10.7849C11.1078 10.9453 11.0829 11.0892 11.0248 11.2165C10.9667 11.3438 10.8283 11.4116 10.6097 11.4199V11.4199Z" fill="white"/>
</svg>
