<svg width="24" height="24" viewBox="0 0 24 24" fill="none" xmlns="http://www.w3.org/2000/svg">
<g clip-path="url(#clip0_11818_4675)">
<path d="M21.2928 2.38885C20.9343 2.38885 20.5765 2.38772 20.2188 2.38772C19.3698 2.38585 18.586 3.03535 17.9868 3.55023C17.413 4.07035 16.8906 4.6441 16.426 5.26323C16.2512 4.79678 16.0406 4.34455 15.796 3.9106C15.6412 3.59151 15.4204 3.30887 15.1484 3.08134C14.8763 2.85381 14.5591 2.68655 14.2176 2.5906C13.864 2.5426 13.5066 2.5306 13.1504 2.55385C12.8504 2.55272 11.9999 2.55385 11.9999 2.55385C11.9999 2.55385 11.1479 2.55272 10.8486 2.55385C10.4924 2.53022 10.135 2.5426 9.78138 2.5906C9.43993 2.68655 9.12271 2.85381 8.85064 3.08134C8.57857 3.30887 8.35784 3.59151 8.20301 3.9106C7.95813 4.34448 7.74776 4.79635 7.57301 5.26285C7.10836 4.64356 6.58575 4.06996 6.01226 3.54985C5.41226 3.03497 4.63001 2.38547 3.77988 2.38735L2.70588 2.38847C2.19438 2.38922 1.68313 2.38997 1.17213 2.39072C0.799756 2.39222 -0.0252445 2.29435 0.170131 2.90073C0.217381 3.04773 0.383881 3.17935 0.478381 3.30198L0.787006 3.73323L1.21976 4.4626L2.17451 6.2701C2.88701 7.5931 3.71088 8.85273 4.63826 10.0351C5.33763 10.8987 6.18251 11.7706 7.22763 12.1988C6.43863 13.6654 5.65151 15.1329 4.86626 16.6014L2.78201 20.3829C2.74751 20.4436 2.71151 20.5036 2.67926 20.5647C2.55776 20.756 2.47976 20.9709 2.45126 21.1955C2.45201 21.6005 3.05351 21.6129 3.34188 21.6147C3.65238 21.6166 3.96438 21.608 4.27451 21.605C4.81451 21.599 5.35451 21.5927 5.89451 21.5862C6.21438 21.5825 6.53951 21.5952 6.85751 21.5649C7.25789 21.5296 7.64608 21.4091 7.99601 21.2113C8.34594 21.0136 8.64948 20.7433 8.88626 20.4185C9.04113 20.2025 10.4935 17.8205 11.0811 16.8582C11.3031 16.4937 11.9999 15.4051 11.9999 15.4051L12.9179 16.8582L15.1128 20.4185C15.3495 20.7433 15.6531 21.0136 16.003 21.2113C16.3529 21.4091 16.7411 21.5296 17.1415 21.5649C17.4603 21.5949 17.7846 21.5829 18.1041 21.5862C18.6436 21.5917 19.1836 21.598 19.7241 21.605L20.6571 21.6147C20.9444 21.6129 21.547 21.6009 21.5478 21.1955C21.5195 20.9708 21.4413 20.7553 21.319 20.5647C21.2864 20.5036 21.2515 20.444 21.2163 20.3829C20.4989 19.1341 19.8175 17.8711 19.1369 16.6017C18.3494 15.1342 17.5619 13.6667 16.7744 12.1992C17.8199 11.7706 18.6644 10.8987 19.3641 10.0355C20.2916 8.85318 21.116 7.59357 21.8283 6.27048C22.1609 5.67573 22.4433 5.05173 22.7796 4.45923C22.9191 4.21435 23.0631 3.9706 23.2124 3.73248C23.3078 3.58372 23.4106 3.43991 23.5206 3.3016C23.6439 3.18491 23.7482 3.04965 23.8296 2.90073C24.0246 2.29435 23.2004 2.3926 22.8284 2.39072C22.3159 2.38972 21.804 2.38897 21.2928 2.38847V2.38885Z" fill="#F9C638"/>
<path d="M13.7757 5.76527L13.9392 5.73752C14.0146 5.72167 14.0886 5.70024 14.1608 5.67339C14.3085 5.62186 14.4456 5.54397 14.5655 5.44352C14.6193 5.40503 14.6649 5.35605 14.6993 5.29952C14.2253 5.30814 13.8721 5.30552 13.6388 5.28752C13.5751 5.27777 13.529 5.44202 13.4986 5.77389C13.4948 5.79939 13.6486 5.78252 13.7761 5.76527H13.7757ZM11.3821 7.97552C11.3761 7.98227 11.3727 7.99052 11.3731 8.00027C11.3735 8.01002 11.3783 8.02052 11.3866 8.02727C11.4091 8.04802 11.4333 8.06684 11.459 8.08352C11.6088 8.18317 11.7853 8.23519 11.9652 8.23277C12.1457 8.23622 12.323 8.18412 12.4729 8.08352C12.4992 8.06702 12.5254 8.04789 12.5487 8.02727C12.5667 8.01227 12.5749 7.98902 12.5618 7.97364C12.5453 7.95714 12.5183 7.95639 12.5011 7.97252C12.4794 7.99069 12.4567 8.00772 12.4332 8.02352H12.4325C12.2931 8.11268 12.1312 8.1601 11.9658 8.16017C11.8004 8.16023 11.6385 8.11295 11.4991 8.02389H11.498C11.4757 8.00813 11.4545 7.9911 11.4342 7.97289C11.4267 7.96614 11.4173 7.96314 11.408 7.96352C11.3986 7.96389 11.3892 7.96877 11.3825 7.97627L11.3821 7.97552ZM13.4633 7.65939C13.4615 7.65564 13.4596 7.65189 13.4588 7.64739L13.4641 7.65939H13.4633ZM14.5801 6.33377C14.5387 6.24191 14.4767 6.16082 14.399 6.09677C14.2938 6.01823 14.1648 5.97836 14.0337 5.98389C13.9026 5.98942 13.7775 6.04002 13.6793 6.12714C13.5927 6.21551 13.5239 6.3198 13.4768 6.43427C13.3554 6.69466 13.2958 6.97955 13.3025 7.26677C13.308 7.39804 13.3587 7.52336 13.4461 7.62152C13.5609 7.72635 13.7054 7.79292 13.8597 7.81202C14.0116 7.85814 14.1747 7.85102 14.3221 7.79214C14.3951 7.73979 14.4568 7.67331 14.5036 7.59666C14.5505 7.52001 14.5814 7.43473 14.5947 7.34589C14.6623 7.13582 14.6921 6.91538 14.6825 6.69489C14.6699 6.56959 14.6354 6.44747 14.5805 6.33414L14.5801 6.33377Z" fill="#2A2D2C"/>
<path d="M14.0507 6.86259C14.1256 6.8342 14.2029 6.81249 14.2817 6.79771C14.1129 6.81009 14.0255 6.74146 14.0102 6.59446L13.9787 6.28809C13.9847 6.42159 13.9588 6.55059 13.9037 6.67584C13.8843 6.70948 13.8563 6.73741 13.8227 6.75684L13.7225 6.78871C13.6854 6.80201 13.6467 6.81046 13.6074 6.81384C13.7949 6.79771 13.8909 6.84496 13.9063 6.94659L13.9595 7.23796C13.9633 7.01296 13.994 6.88546 14.0503 6.86296L14.0507 6.86259ZM14.2753 7.31821L14.2565 7.12846C14.2593 7.21068 14.2443 7.29253 14.2127 7.36846C14.1991 7.38935 14.1809 7.4068 14.1594 7.41946L14.1005 7.43746C14.0773 7.44527 14.0533 7.45055 14.0289 7.45321C14.1407 7.44384 14.2037 7.47196 14.2164 7.53421L14.2483 7.71234C14.2483 7.57171 14.267 7.49746 14.3045 7.48434C14.3497 7.46558 14.3969 7.45199 14.4452 7.44384C14.342 7.45059 14.2862 7.40634 14.2764 7.31821" fill="white"/>
<path d="M10.4249 5.77389C10.3927 5.44202 10.3469 5.27777 10.2839 5.28752C10.0499 5.30552 9.69741 5.30814 9.22266 5.29952C9.25753 5.35577 9.30291 5.40452 9.35616 5.44352C9.47616 5.54402 9.61341 5.62164 9.76116 5.67339C9.83342 5.7 9.90748 5.72143 9.98278 5.73752C9.99853 5.74127 10.0679 5.75364 10.1467 5.76527C10.2742 5.78289 10.4264 5.80277 10.4249 5.77389V5.77389ZM10.4624 7.65939L10.4673 7.64739L10.4635 7.65939H10.4628H10.4624ZM9.24441 6.69452C9.23423 6.91503 9.26396 7.13557 9.33216 7.34552C9.35953 7.52477 9.45741 7.68564 9.60403 7.79552C9.75141 7.85439 9.91416 7.86114 10.066 7.81539C10.2205 7.79621 10.3653 7.72966 10.4804 7.62489C10.5676 7.52662 10.6184 7.40139 10.6244 7.27014C10.6313 6.9827 10.5714 6.69758 10.4493 6.43727C10.4026 6.32249 10.3337 6.21811 10.2464 6.13014C10.0439 5.95014 9.74391 5.93739 9.52716 6.10014C9.4494 6.16394 9.38774 6.24512 9.34716 6.33714C9.29125 6.45017 9.25631 6.5724 9.24403 6.69789L9.24441 6.69452Z" fill="#2A2D2C"/>
<path d="M9.87329 6.86282C9.79829 6.83432 9.72141 6.81257 9.64266 6.79795C9.81141 6.81032 9.89916 6.7417 9.91416 6.5947L9.94529 6.28832C9.93894 6.42175 9.9648 6.55474 10.0207 6.67607C10.04 6.70951 10.0677 6.73741 10.1009 6.75707L10.2014 6.78895C10.2387 6.80232 10.2775 6.81077 10.3169 6.81407C10.1294 6.79795 10.0334 6.8452 10.018 6.94682L9.96441 7.2382C9.96141 7.0132 9.92991 6.8857 9.87366 6.8632L9.87329 6.86282ZM9.64866 7.31845L9.66741 7.1287C9.66478 7.21091 9.67974 7.29273 9.71129 7.3687C9.72475 7.38941 9.74269 7.40684 9.76379 7.4197L9.82304 7.4377C9.84644 7.44537 9.87057 7.45065 9.89504 7.45345C9.78254 7.44407 9.71991 7.4722 9.70754 7.53445L9.67604 7.71257C9.67604 7.57195 9.65729 7.4977 9.61979 7.48457C9.57457 7.46587 9.5274 7.45229 9.47916 7.44407C9.58229 7.45082 9.63891 7.40657 9.64791 7.31845H9.64866ZM2.75091 20.6017L2.60091 20.9006C2.55816 20.9932 2.53341 21.0929 2.52741 21.1946V21.1961C2.52659 21.2295 2.53289 21.2628 2.54588 21.2936C2.55888 21.3244 2.57827 21.3522 2.60279 21.3749C2.66211 21.4255 2.73231 21.4617 2.80791 21.4807C2.98187 21.5215 3.1603 21.54 3.33892 21.5358L3.43416 21.5366L5.89041 21.5077L6.05916 21.5073L6.25791 21.5077L6.84666 21.4863C7.23585 21.4523 7.61321 21.3352 7.95334 21.143C8.29346 20.9509 8.58845 20.688 8.81841 20.3722C8.85366 20.3246 8.97441 20.1322 9.14091 19.8648L9.75066 18.8778L11.0107 16.8179L11.9294 15.3629C11.9444 15.3404 11.9695 15.3262 11.9969 15.3254C12.0243 15.3247 12.0487 15.3397 12.0633 15.3629C12.0637 15.3633 12.7597 16.4512 12.9828 16.8179L14.8514 19.8648L15.1739 20.3722C15.4037 20.6881 15.6985 20.9511 16.0386 21.1433C16.3787 21.3355 16.7561 21.4525 17.1453 21.4863C17.3377 21.5051 17.5353 21.5077 17.7333 21.5077L17.9328 21.5073L18.1015 21.5077C18.641 21.5137 19.181 21.5199 19.7215 21.5264L20.5578 21.5369L20.653 21.5362C20.7854 21.5376 20.9177 21.5288 21.0487 21.5099C21.1727 21.4984 21.2909 21.4515 21.3892 21.3749C21.4137 21.3522 21.4331 21.3244 21.4461 21.2936C21.4591 21.2628 21.4654 21.2295 21.4645 21.1961V21.1938C21.4586 21.0922 21.4341 20.9926 21.3922 20.8998C21.349 20.7959 21.2928 20.6917 21.2452 20.5998L21.1439 20.4209C20.4262 19.1707 19.7437 17.9066 19.0634 16.6334C18.2759 15.1659 17.4884 13.6984 16.7009 12.2309C16.6904 12.2111 16.6889 12.1878 16.6964 12.1664C16.7001 12.156 16.7059 12.1464 16.7135 12.1383C16.7211 12.1302 16.7304 12.1238 16.7407 12.1196C17.7644 11.7011 18.6025 10.8386 19.2982 9.97982C20.2229 8.80082 21.0449 7.54457 21.7544 6.22532C22.0068 5.7742 22.2314 5.30395 22.4744 4.84082C21.9224 5.6722 21.238 6.40757 20.4487 7.0177C19.288 7.95295 17.3155 8.87657 14.5518 9.77845C11.8885 10.6517 9.92816 11.6673 8.67066 12.8253L7.41066 13.9458C7.35441 14.0028 7.08929 14.2803 6.62541 14.7944C5.98946 15.5183 5.39405 16.2769 4.84191 17.0666L4.23179 17.9291L2.84954 20.4172L2.74829 20.5949" fill="white"/>
<path d="M23.6961 2.85704C23.6709 2.91704 23.6342 2.97066 23.5884 3.01604L23.4107 3.21404L23.4096 3.21516C23.2971 3.35766 23.1909 3.50504 23.0934 3.65766L23.0942 3.65691L22.6584 4.38891L21.7067 6.20016C20.9979 7.51266 20.1786 8.76891 19.2561 9.94566C18.5623 10.8029 17.7309 11.6557 16.7226 12.0682C16.6858 12.0832 16.6569 12.1132 16.6438 12.1507C16.6307 12.1882 16.6333 12.2294 16.6524 12.265C17.4417 13.7315 18.2292 15.199 19.0149 16.6675L21.0962 20.4513L21.1974 20.6302C21.2451 20.719 21.3002 20.8177 21.3414 20.9219C21.3805 21.0069 21.4036 21.0985 21.4093 21.1919V21.1945C21.4104 21.2196 21.4061 21.2446 21.3965 21.2677C21.387 21.2909 21.3726 21.3118 21.3542 21.3288C21.2644 21.3967 21.1573 21.4381 21.0452 21.4484C20.9177 21.466 20.7883 21.4747 20.6589 21.4735H20.5539C20.2802 21.4735 20.0057 21.466 19.7289 21.4638C19.1882 21.4573 18.6482 21.451 18.1089 21.445L17.9627 21.4439L17.7377 21.4443C17.5427 21.4443 17.3492 21.4417 17.1621 21.4237C16.3926 21.3562 15.6898 20.9594 15.2346 20.3354C15.1967 20.2799 15.1599 20.2236 15.1243 20.1667C14.7362 19.5554 13.5598 17.6257 13.0457 16.7842C12.8214 16.4167 12.1269 15.3292 12.1262 15.3284C12.0999 15.2879 12.0549 15.2635 12.0073 15.2635C11.9597 15.2635 11.9143 15.2879 11.8884 15.3284C11.8877 15.3292 11.1928 16.4167 10.9686 16.7842L9.70931 18.8437L9.09993 19.8307L8.88993 20.1663C8.85429 20.2234 8.81753 20.2798 8.77968 20.3354C8.55465 20.6439 8.26616 20.9006 7.93361 21.0882C7.60107 21.2759 7.2322 21.3901 6.85181 21.4233C6.66037 21.4393 6.46827 21.4462 6.27618 21.4439C6.20006 21.4439 6.12393 21.4435 6.05118 21.4435L5.90418 21.4447C5.36418 21.4497 4.82418 21.4559 4.28418 21.4634L3.45918 21.4732H3.35418C3.18168 21.4769 3.00843 21.4597 2.84043 21.4199C2.7739 21.4041 2.71208 21.3728 2.66006 21.3284C2.62256 21.2939 2.60268 21.2448 2.60493 21.1934V21.1912C2.61051 21.0977 2.63353 21.0061 2.67281 20.9212C2.71406 20.8207 2.76881 20.7187 2.81606 20.6298C2.84606 20.5728 2.88168 20.5173 2.91731 20.4509L2.91693 20.452C3.63581 19.201 4.31793 17.9369 4.99893 16.6672C5.78593 15.1997 6.57306 13.7322 7.36031 12.2647C7.37906 12.2294 7.38281 12.1878 7.36893 12.1503C7.35506 12.1128 7.32656 12.0828 7.28943 12.0678C6.28143 11.656 5.44968 10.8029 4.75593 9.94529C3.83392 8.76912 3.0143 7.51617 2.30606 6.20016C1.97681 5.61254 1.69406 4.98779 1.35431 4.38891C1.21443 4.14254 1.06931 3.89691 0.918557 3.65691L0.918932 3.65729C0.821056 3.50436 0.715418 3.35654 0.602432 3.21441C0.545432 3.14129 0.478682 3.07679 0.423557 3.01491C0.377807 2.96991 0.341057 2.91554 0.316682 2.85629C0.302604 2.81674 0.29476 2.77525 0.293432 2.73329C0.291362 2.69968 0.301929 2.66651 0.323057 2.64029C0.377167 2.59107 0.445384 2.56011 0.518057 2.55179C0.630557 2.53229 0.745307 2.52329 0.859307 2.52554C0.971807 2.52554 1.08431 2.53041 1.17281 2.53041H1.18406C1.69581 2.52941 2.20706 2.52866 2.71781 2.52816C3.07531 2.52816 3.43318 2.52791 3.79143 2.52741H3.79518C4.19991 2.5452 4.59222 2.67247 4.93031 2.89566C5.28468 3.12066 5.61956 3.37566 5.93156 3.65616C6.49856 4.16991 7.01531 4.73729 7.47393 5.34966C7.50543 5.38979 7.55643 5.40966 7.60706 5.40141C7.65768 5.39316 7.69968 5.35866 7.71693 5.31066C7.88943 4.85129 8.09643 4.40579 8.33756 3.97829L8.34018 3.97379C8.62781 3.40379 9.20906 2.85254 9.82143 2.72804C9.98955 2.69664 10.1604 2.68245 10.3314 2.68566C10.5058 2.68566 10.6839 2.69429 10.8602 2.69429L11.2914 2.69391L13.1612 2.69429C13.3374 2.69429 13.5159 2.68566 13.6907 2.68566C13.8614 2.68242 14.0321 2.69662 14.1999 2.72804C14.8123 2.85179 15.3943 3.40416 15.6819 3.97379L15.6842 3.97829C15.9251 4.40574 16.1326 4.8512 16.3048 5.31066C16.3224 5.35866 16.3648 5.39316 16.4151 5.40141C16.4653 5.40966 16.5163 5.39016 16.5482 5.34966C17.0069 4.73741 17.523 4.17034 18.0894 3.65616C18.4018 3.37491 18.7367 3.12104 19.0907 2.89566C19.4288 2.6726 19.8211 2.54546 20.2258 2.52779H20.2296C20.5871 2.52779 20.9451 2.52804 21.3036 2.52854C21.8146 2.52954 22.3262 2.53029 22.8384 2.53079H22.8497C22.9419 2.53079 23.0511 2.52591 23.1632 2.52591C23.3083 2.51991 23.4534 2.53716 23.5929 2.57616C23.633 2.58825 23.6694 2.61031 23.6987 2.64029C23.7201 2.66654 23.7309 2.69954 23.7287 2.73329C23.7276 2.77529 23.7197 2.81654 23.7062 2.85629L23.6961 2.85704ZM23.9031 2.45729C23.8089 2.35944 23.6849 2.29572 23.5506 2.27616C23.4194 2.25236 23.2863 2.24169 23.1531 2.24429C23.0331 2.24429 22.9217 2.24916 22.8396 2.24916H22.8291C22.3171 2.24816 21.8053 2.24741 21.2938 2.24691C20.9357 2.24691 20.5776 2.24616 20.2198 2.24616H20.2206H20.2161C19.7601 2.26364 19.3175 2.40494 18.9358 2.65491C18.568 2.8883 18.2201 3.15183 17.8959 3.44279C17.3739 3.91182 16.8963 4.42814 16.4694 4.98516C16.3104 4.59291 16.1271 4.21116 15.9204 3.84216C15.5882 3.15966 14.9784 2.65341 14.2509 2.45204C14.0642 2.41641 13.8744 2.40066 13.6847 2.40404C13.5009 2.40404 13.3217 2.41229 13.1597 2.41229L12.7284 2.41191L12.0009 2.41229L11.2809 2.41191L10.8489 2.41229C10.6839 2.41229 10.5039 2.40404 10.3213 2.40404C10.1308 2.40029 9.94068 2.41679 9.75356 2.45279C9.02081 2.65529 8.41031 3.16266 8.07843 3.84666C7.87292 4.21468 7.69032 4.59502 7.53168 4.98554C7.10497 4.42835 6.62741 3.91201 6.10518 3.44316C5.78118 3.15216 5.43393 2.88816 5.06568 2.65566C4.68393 2.40554 4.24068 2.26454 3.78506 2.24316H3.77756L2.70693 2.24391C2.19543 2.24691 1.68418 2.24879 1.17318 2.24954H1.16343C1.08093 2.24954 0.969182 2.24466 0.849932 2.24466C0.672182 2.23791 0.494807 2.26041 0.324932 2.31141C0.238393 2.33979 0.160725 2.39019 0.0995566 2.45766C0.0343066 2.53491 -0.000193386 2.63316 0.00205661 2.73404C0.00318161 2.80904 0.0155566 2.87579 0.0380566 2.94329C0.0755566 3.04079 0.131807 3.12929 0.203057 3.20391C0.266807 3.27891 0.330557 3.33779 0.369182 3.38766C0.47639 3.52211 0.576526 3.66205 0.669182 3.80691C0.817841 4.04428 0.961127 4.28496 1.09893 4.52879C1.43081 5.11304 1.71318 5.73704 2.04993 6.33929C2.76597 7.66912 3.59449 8.93524 4.52643 10.1238C5.20143 10.9552 6.01518 11.8008 7.03143 12.2628C6.26593 13.6865 5.50343 15.1108 4.74393 16.5355L2.56143 20.4993C2.51456 20.587 2.45531 20.6965 2.40618 20.815C2.35256 20.9339 2.32218 21.0625 2.31693 21.193V21.199C2.31641 21.2617 2.32876 21.3237 2.3532 21.3814C2.37765 21.4391 2.41368 21.4911 2.45906 21.5343C2.5895 21.6427 2.74903 21.7103 2.91768 21.7285C3.06018 21.7488 3.20343 21.7585 3.34706 21.7563L3.45393 21.7567L5.90268 21.7282L6.04668 21.7274L6.27168 21.7278C6.46968 21.7278 6.67181 21.7255 6.87431 21.7053C7.72481 21.6303 8.50106 21.1915 9.00356 20.5015C9.02793 20.4678 9.06656 20.4078 9.12356 20.3193C9.51543 19.7028 10.6911 17.7749 11.2048 16.933L11.7463 16.0717L12.0009 15.667L12.2574 16.0705L12.7989 16.9319L14.0582 18.9922L14.6683 19.9807L14.8798 20.3182L14.9991 20.5004C15.2476 20.8414 15.5661 21.1253 15.9334 21.333C16.3006 21.5408 16.708 21.6676 17.1283 21.7049C17.3308 21.7244 17.5333 21.7274 17.7313 21.7274H17.9563H18.0999L20.5487 21.7559L20.6556 21.7555C20.8545 21.7603 21.0532 21.7389 21.2466 21.6918C21.3568 21.6639 21.4587 21.6097 21.5436 21.5339C21.5896 21.4906 21.626 21.4381 21.6505 21.3798C21.6751 21.3216 21.6872 21.2589 21.6861 21.1957V21.1927C21.6812 21.0622 21.6508 20.9339 21.5972 20.8147C21.5477 20.6965 21.4847 20.5867 21.4408 20.4982C21.4063 20.4337 21.3703 20.3729 21.3366 20.3133L21.3362 20.3129C20.6237 19.0664 19.9393 17.8049 19.2587 16.5355C18.4977 15.111 17.7351 13.6865 16.9708 12.262C17.9871 11.8 18.8008 10.9544 19.4758 10.1234C20.4081 8.93473 21.237 7.66849 21.9534 6.33854C22.2898 5.73666 22.5722 5.11229 22.9041 4.52804C23.0421 4.28429 23.1853 4.04279 23.3334 3.80691V3.80579C23.4212 3.66329 23.5262 3.52604 23.6334 3.38654V3.38766C23.6721 3.33779 23.7362 3.27516 23.7999 3.20391C23.8723 3.12891 23.9286 3.04079 23.9649 2.94404C23.9878 2.87621 23.9999 2.80523 24.0009 2.73366C24.0034 2.63271 23.9687 2.53437 23.9034 2.45729H23.9031Z" fill="#2A2D2C"/>
</g>
<defs>
<clipPath id="clip0_11818_4675">
<rect width="24" height="24" fill="white"/>
</clipPath>
</defs>
</svg>
