<svg width="24" height="24" viewBox="0 0 24 24" fill="none" xmlns="http://www.w3.org/2000/svg">
<path fill-rule="evenodd" clip-rule="evenodd" d="M9.70012 8.43208C9.68798 8.43208 9.6645 8.43208 9.65236 8.43208C9.45085 8.40751 9.28497 8.22285 9.28497 8.01363C9.27283 7.81665 9.16597 3.21315 11.7629 2.16695C12.4151 1.90844 13.0205 1.95765 13.5303 2.33929C14.1583 2.7947 14.609 3.70553 14.8817 5.03488C15.0711 5.97035 15.1067 6.78269 15.1067 6.81965C15.1189 7.01655 14.9651 7.16433 14.7628 7.12737C14.5613 7.10272 14.3954 6.91814 14.3954 6.72116C14.3598 5.88418 14.0871 3.58248 13.1864 2.91776C12.9015 2.70853 12.5454 2.68389 12.1189 2.85623C9.88945 3.75474 9.99628 8.07516 9.99628 8.12436C9.99628 8.2967 9.87816 8.43208 9.70012 8.43208Z" fill="#595961"/>
<path opacity="0.46" fill-rule="evenodd" clip-rule="evenodd" d="M13.3981 2.36364C12.9239 2.01896 12.3671 1.96975 11.7618 2.20362C10.7065 2.63439 9.95958 3.76684 9.59218 5.49008C9.31946 6.75783 9.35504 7.9026 9.35504 7.95181C9.35504 8.01333 9.37852 8.07494 9.42626 8.12415C9.4732 8.17335 9.52095 8.21032 9.58002 8.21032C9.59216 8.21032 9.60431 8.21032 9.61564 8.21032C9.72246 8.21032 9.8058 8.12415 9.8058 8.01333C9.8058 7.96413 9.69901 3.56986 11.9876 2.64671C12.4497 2.46213 12.8527 2.48669 13.1853 2.73288C14.145 3.43448 14.4299 5.81012 14.4655 6.65942C14.4655 6.78247 14.5723 6.90561 14.7026 6.91785C14.8216 6.93017 14.9162 6.844 14.9162 6.72095C14.9041 6.57325 14.7738 3.37295 13.3981 2.36364Z" fill="#B2B2C2"/>
<path opacity="0.46" fill-rule="evenodd" clip-rule="evenodd" d="M9.59322 8.0626C9.58108 8.0626 9.58108 8.0626 9.56975 8.0626C9.49854 8.05028 9.43863 7.97643 9.42731 7.90258C9.42731 7.85329 9.39172 6.73324 9.66444 5.46542C10.0197 3.77914 10.7674 2.65901 11.7984 2.24048C12.3795 2.00661 12.9015 2.0559 13.3522 2.37594C14.6802 3.34829 14.8105 6.49938 14.8105 6.63475C14.8105 6.7086 14.7514 6.75781 14.6802 6.74557C14.609 6.73324 14.5499 6.67172 14.5378 6.58555C14.5378 6.54858 14.4075 3.4591 13.2098 2.57284C12.8537 2.31441 12.4151 2.27745 11.9174 2.47435C9.59322 3.44678 9.70005 7.90258 9.70005 7.95178C9.71138 8.01331 9.66443 8.0626 9.59322 8.0626Z" fill="#B2B2C2"/>
<path opacity="0.62" fill-rule="evenodd" clip-rule="evenodd" d="M10.5538 4.54271C10.6485 4.35813 10.7432 4.17347 10.8265 3.97656C10.7909 4.03809 10.5538 4.67817 9.83032 4.57967C9.81819 4.57967 10.2568 4.71505 10.5538 4.54271Z" fill="#595961"/>
<path opacity="0.62" fill-rule="evenodd" clip-rule="evenodd" d="M10.2914 5.32967C10.3627 5.13269 10.4339 4.92347 10.4816 4.72656C10.4581 4.80041 10.3392 5.46505 9.58008 5.46505C9.58008 5.46505 10.0187 5.55122 10.2914 5.32967Z" fill="#595961"/>
<path opacity="0.62" fill-rule="evenodd" clip-rule="evenodd" d="M14.4544 3.74224C14.3598 3.52061 14.2529 3.31139 14.1461 3.08984C14.1817 3.16369 14.5378 3.86529 14.1348 4.36991C14.1348 4.36991 14.4431 4.1238 14.4544 3.74224Z" fill="#595961"/>
<path opacity="0.62" fill-rule="evenodd" clip-rule="evenodd" d="M13.8022 2.6345C13.612 2.47448 13.4226 2.32678 13.2324 2.19141C13.3036 2.25293 13.9324 2.70835 13.8968 3.39771C13.8847 3.39771 13.9915 2.9915 13.8022 2.6345Z" fill="#595961"/>
<path opacity="0.62" fill-rule="evenodd" clip-rule="evenodd" d="M10.8973 3.86482C11.0397 3.71712 11.1579 3.55711 11.2882 3.38477C11.2412 3.43397 10.8496 3.93867 10.1504 3.75401C10.1504 3.75401 10.5534 3.97563 10.8973 3.86482Z" fill="#595961"/>
<path opacity="0.62" fill-rule="evenodd" clip-rule="evenodd" d="M11.3368 3.29953C11.5027 3.17648 11.6564 3.05334 11.811 2.91797C11.7519 2.95493 11.2656 3.36106 10.5898 3.06567C10.5898 3.06567 10.9807 3.34874 11.3368 3.29953Z" fill="#595961"/>
<path opacity="0.62" fill-rule="evenodd" clip-rule="evenodd" d="M11.977 2.89276C12.1785 2.83124 12.3687 2.75739 12.558 2.68354C12.4868 2.7081 11.8822 2.92965 11.2891 2.46191C11.3012 2.46191 11.6096 2.83124 11.977 2.89276Z" fill="#595961"/>
<path opacity="0.62" fill-rule="evenodd" clip-rule="evenodd" d="M12.5573 2.67109C12.7232 2.69573 12.8891 2.70805 13.055 2.72037C12.9959 2.70805 12.4739 2.67109 12.1777 2.17871C12.1777 2.17871 12.2967 2.51107 12.5573 2.67109Z" fill="#595961"/>
<path opacity="0.62" fill-rule="evenodd" clip-rule="evenodd" d="M13.2449 2.94212C13.3631 3.07758 13.4941 3.21295 13.6358 3.33601C13.5888 3.2868 13.1858 2.88059 13.2805 2.37598C13.2684 2.37598 13.1381 2.65905 13.2449 2.94212Z" fill="#595961"/>
<path opacity="0.74" fill-rule="evenodd" clip-rule="evenodd" d="M14.6802 6.57359C14.6802 6.43813 14.5499 3.32401 13.2575 2.3763C13.0083 2.19164 12.7356 2.10547 12.4507 2.10547C12.2371 2.10547 12.0121 2.15467 11.775 2.25317C10.7432 2.65937 10.0197 3.75486 9.66444 5.42882C9.39172 6.68432 9.42731 7.80445 9.42731 7.85366C9.42731 7.89062 9.46292 7.92751 9.49853 7.92751H9.50984C9.54545 7.92751 9.56975 7.90294 9.56975 7.86598C9.56975 7.81677 9.45077 3.32401 11.834 2.36398C12.356 2.15467 12.8068 2.19164 13.1863 2.47471C14.4188 3.3733 14.5499 6.51206 14.5499 6.54895C14.5499 6.58591 14.5855 6.62279 14.6211 6.62279C14.6211 6.62279 14.6211 6.62279 14.6324 6.62279C14.6567 6.63511 14.6802 6.61047 14.6802 6.57359Z" fill="url(#paint0_linear_11818_4595)"/>
<path fill-rule="evenodd" clip-rule="evenodd" d="M14.8806 5.03522C14.6079 3.70587 14.1572 2.80728 13.5292 2.33955C13.1853 2.09344 12.8171 1.98263 12.4141 2.00727C12.7345 2.03183 13.0307 2.14265 13.3034 2.33955C13.9322 2.79504 14.383 3.70587 14.6557 5.03522C14.8451 5.97069 14.8806 6.78302 14.8806 6.81999C14.8806 6.96769 14.8094 7.0785 14.6905 7.11538C14.7148 7.1277 14.7383 7.1277 14.7504 7.1277C14.9519 7.15235 15.1057 7.01689 15.0943 6.81999C15.1057 6.78302 15.07 5.98301 14.8806 5.03522Z" fill="url(#paint1_linear_11818_4595)"/>
<path fill-rule="evenodd" clip-rule="evenodd" d="M11.893 2.85568C9.66346 3.75419 9.77024 8.07461 9.77024 8.12381C9.77024 8.27151 9.69904 8.38233 9.58008 8.41921C9.60436 8.43153 9.61571 8.43153 9.63999 8.43153C9.65132 8.43153 9.67559 8.43153 9.68692 8.43153C9.86495 8.43153 9.98308 8.29615 9.98308 8.12381C9.98308 8.07461 9.8771 3.76651 12.1058 2.868C12.2604 2.80648 12.4027 2.76951 12.533 2.75719C12.3429 2.72031 12.1301 2.75719 11.893 2.85568Z" fill="url(#paint2_linear_11818_4595)"/>
<path fill-rule="evenodd" clip-rule="evenodd" d="M15.2724 3.92716L5.2174 7.15202C5.2174 7.15202 4.79093 7.27515 4.6841 7.41053C4.57728 7.5459 4.5538 7.92747 4.5538 7.92747L3 20.3594L14.6679 22.6242L15.5694 3.91484C15.4391 3.8902 15.308 3.91484 15.2724 3.92716Z" fill="url(#paint3_linear_11818_4595)"/>
<path fill-rule="evenodd" clip-rule="evenodd" d="M18.747 5.52649C18.747 5.52649 18.7349 5.428 18.6758 5.39111C18.6281 5.35415 18.569 5.35415 18.569 5.35415L16.9205 5.23109L15.7115 3.98791C15.6637 3.95095 15.616 3.92638 15.5569 3.91406L14.6562 22.6234L20.9757 21.2079L18.747 5.52649Z" fill="url(#paint4_linear_11818_4595)"/>
<path fill-rule="evenodd" clip-rule="evenodd" d="M11.1215 14.3156C10.9434 14.0694 10.7306 13.8478 10.5169 13.6508C10.3033 13.4539 10.0783 13.2939 9.85255 13.1462C9.69879 13.0477 9.55636 12.9492 9.4374 12.8508C9.31925 12.7523 9.22455 12.6538 9.15334 12.5677C9.08212 12.4692 9.02303 12.383 8.98743 12.2846C8.95182 12.1861 8.93966 12.0876 8.93966 11.9891C8.93966 11.8538 8.97529 11.7184 9.02304 11.6076C9.06998 11.4968 9.15333 11.3983 9.23587 11.3122C9.33137 11.226 9.43739 11.1645 9.56849 11.1153C9.69878 11.066 9.85251 11.0414 10.0184 11.0291C10.1964 11.0168 10.3745 11.0291 10.5404 11.0414C10.7063 11.0537 10.8609 11.0906 11.0146 11.1275C11.157 11.1645 11.2995 11.2137 11.4176 11.263C11.5366 11.3122 11.6547 11.3614 11.7381 11.4107L12.5207 8.99814C12.4025 8.93662 12.2601 8.87501 12.1055 8.83813C11.9396 8.78884 11.7616 8.75196 11.5601 8.72731C11.3586 8.70275 11.1449 8.69043 10.9199 8.69043C10.695 8.69043 10.4579 8.70275 10.2086 8.73964C9.67532 8.81348 9.20028 8.96118 8.7738 9.18272C8.37079 9.39203 8.01471 9.66278 7.71852 9.99514C7.43366 10.3152 7.20867 10.6844 7.04278 11.1029C6.88821 11.5092 6.79355 11.9646 6.77008 12.4569C6.75794 12.7523 6.7814 13.0231 6.85261 13.2693C6.91169 13.5155 7.00717 13.7493 7.13746 13.9709C7.25561 14.1924 7.41017 14.3894 7.57607 14.574C7.74197 14.7587 7.94348 14.931 8.14498 15.091C8.31088 15.2141 8.45332 15.3371 8.57228 15.4479C8.69043 15.5587 8.78593 15.6695 8.85634 15.7926C8.92755 15.9033 8.97528 16.0142 9.01089 16.1372C9.0465 16.248 9.05864 16.3711 9.0465 16.4942C9.0465 16.6173 9.01092 16.7403 8.96317 16.8388C8.91624 16.9373 8.85633 17.0358 8.76165 17.1096C8.67911 17.1835 8.5723 17.2327 8.45334 17.2573C8.33519 17.2819 8.19276 17.2942 8.03819 17.2697C7.86097 17.245 7.68289 17.1958 7.517 17.1219C7.3511 17.0604 7.18443 16.9742 7.03067 16.888C6.87692 16.8019 6.73449 16.7034 6.61553 16.6173C6.48524 16.5311 6.3784 16.4326 6.29585 16.3588L5.76172 18.1928C5.84507 18.3159 5.96325 18.4267 6.09354 18.5374C6.22464 18.6482 6.37842 18.759 6.55645 18.8698C6.73449 18.9683 6.92386 19.0667 7.12536 19.1528C7.32686 19.239 7.55262 19.3129 7.77759 19.3745H7.78975H7.80106H7.81321H7.82536C8.31091 19.4852 8.7738 19.5098 9.21241 19.4483C9.66317 19.3867 10.0783 19.2267 10.4336 18.9806C10.801 18.7221 11.098 18.3774 11.3229 17.922C11.5487 17.4666 11.679 16.9127 11.7025 16.2849C11.7146 15.891 11.6669 15.5464 11.5601 15.2264C11.4532 14.8571 11.2995 14.574 11.1215 14.3156Z" fill="url(#paint5_linear_11818_4595)"/>
<path opacity="0.226763" fill-rule="evenodd" clip-rule="evenodd" d="M5.83958 18.2931C5.81207 18.2605 5.78615 18.2271 5.76268 18.1929L6.29682 16.3588C6.3041 16.3657 6.31218 16.3728 6.32028 16.38C6.39958 16.4509 6.49834 16.5392 6.61649 16.6174C6.73545 16.7035 6.87788 16.802 7.03163 16.8882C7.18539 16.9743 7.35206 17.0604 7.51796 17.1221C7.68386 17.1959 7.86193 17.2451 8.03915 17.2698C8.19372 17.2943 8.33615 17.2821 8.4543 17.2574C8.57326 17.2328 8.68007 17.1836 8.76261 17.1097C8.85729 17.0359 8.9172 16.9374 8.96414 16.8389C9.01188 16.7404 9.04746 16.6174 9.04746 16.4943C9.0596 16.3712 9.04746 16.2481 9.01185 16.1373C8.97624 16.0142 8.92851 15.9034 8.8573 15.7927C8.79013 15.6757 8.7011 15.5699 8.59023 15.4645C8.6485 15.5303 8.69788 15.5979 8.73915 15.6696C8.81036 15.7804 8.8573 15.8911 8.89291 16.0142C8.92852 16.125 8.94066 16.2481 8.92852 16.3712C8.92852 16.4943 8.89292 16.6174 8.84599 16.7158C8.79824 16.8143 8.73915 16.9128 8.64446 16.9866C8.56111 17.0604 8.4543 17.1097 8.33615 17.1343C8.21719 17.1589 8.07476 17.1713 7.921 17.1466C7.74297 17.1221 7.56492 17.0728 7.39902 16.9989C7.23312 16.9374 7.06721 16.8512 6.91265 16.7651C6.75889 16.6789 6.61649 16.5805 6.49834 16.4943C6.37938 16.4161 6.28065 16.3278 6.20134 16.257C6.19325 16.2497 6.18592 16.2426 6.17783 16.2358L5.64453 18.0698C5.69713 18.1481 5.76432 18.2215 5.83958 18.2931ZM7.58676 14.5853C7.54225 14.5412 7.49937 14.4965 7.45809 14.451C7.2922 14.2664 7.13844 14.0695 7.01948 13.8479C6.88919 13.6263 6.7945 13.3924 6.73542 13.1463C6.66421 12.9001 6.63991 12.6293 6.65205 12.3339C6.67552 11.8415 6.77104 11.3861 6.9248 10.9799C7.09069 10.5615 7.31649 10.1922 7.60054 9.87218C7.89754 9.53982 8.25277 9.26898 8.65577 9.05976C9.08306 8.83821 9.55729 8.69052 10.0906 8.61667C10.3398 8.5797 10.577 8.56738 10.8019 8.56738C11.0277 8.56738 11.2414 8.5797 11.4429 8.60435C11.6444 8.62899 11.8224 8.66587 11.9883 8.71516C12.1421 8.75204 12.2845 8.81357 12.4035 8.8751L12.3848 8.93268C12.2991 8.89539 12.2052 8.86181 12.1065 8.83821C11.9406 8.78901 11.7625 8.75204 11.561 8.7274C11.3595 8.70284 11.1459 8.69052 10.9209 8.69052C10.6959 8.69052 10.4588 8.70284 10.2096 8.73972C9.67628 8.81357 9.20124 8.96127 8.77476 9.1829C8.37175 9.39212 8.01567 9.66287 7.71948 9.99523C7.43462 10.3153 7.20963 10.6845 7.04374 11.103C6.88917 11.5092 6.79451 11.9647 6.77104 12.457C6.7589 12.7524 6.78236 13.0232 6.85357 13.2694C6.91265 13.5156 7.00813 13.7494 7.13842 13.971C7.25657 14.1925 7.41113 14.3895 7.57703 14.5741C7.58027 14.5778 7.58353 14.5816 7.58676 14.5853ZM9.19717 12.6182C9.26191 12.6914 9.34287 12.7711 9.43836 12.8508C9.55732 12.9493 9.69975 13.0478 9.85351 13.1463C10.0793 13.294 10.3042 13.454 10.5179 13.6509C10.5802 13.7083 10.6417 13.7676 10.7032 13.8292C10.6045 13.723 10.5017 13.6226 10.3989 13.5279C10.1861 13.3309 9.96033 13.1709 9.73536 13.0232C9.58079 12.9247 9.43836 12.8263 9.32021 12.7278C9.2757 12.6911 9.23521 12.6543 9.19717 12.6182Z" fill="black"/>
<path opacity="0.41" fill-rule="evenodd" clip-rule="evenodd" d="M17.3239 19.1404L16.9209 5.23147L16.8497 5.15762L17.0399 18.9435C17.0399 18.9435 15.368 21.5775 15.1187 21.5037C14.7513 21.3929 15.8422 4.12366 15.8422 4.12366L15.7232 4.00061C15.6763 3.96364 15.6164 3.93908 15.5695 3.92676L14.6801 22.3776L14.668 22.6361L14.9763 22.2299L17.3239 19.1404Z" fill="url(#paint6_linear_11818_4595)"/>
<path fill-rule="evenodd" clip-rule="evenodd" d="M12.7813 4.72666C12.6397 5.30512 12.4617 5.84671 12.3314 6.17907C12.248 6.37605 12.3427 6.56063 12.5208 6.58527C12.7109 6.60991 12.9238 6.47446 12.995 6.27756C13.0071 6.24059 13.3268 5.44058 13.5291 4.49279V4.48047L12.7813 4.72666Z" fill="url(#paint7_linear_11818_4595)"/>
<path fill-rule="evenodd" clip-rule="evenodd" d="M7.4351 6.45015C7.2692 6.81939 7.1033 7.13943 6.98434 7.36097C6.87833 7.54563 6.93739 7.74253 7.11543 7.79174C7.29266 7.85335 7.52975 7.74254 7.63658 7.55787C7.64871 7.53331 7.99268 6.9302 8.30101 6.16699L7.4351 6.45015Z" fill="url(#paint8_linear_11818_4595)"/>
<path opacity="0.32" fill-rule="evenodd" clip-rule="evenodd" d="M14.668 22.6241L17.3239 19.1406L21.0004 21.2085L14.668 22.6241Z" fill="url(#paint9_linear_11818_4595)"/>
<path opacity="0.19" fill-rule="evenodd" clip-rule="evenodd" d="M14.668 22.6241L17.3005 19.1406L21.0004 21.2085L14.668 22.6241Z" fill="url(#paint10_linear_11818_4595)"/>
<path opacity="0.19" fill-rule="evenodd" clip-rule="evenodd" d="M14.668 22.6241L17.3005 19.1406L21.0004 21.2085L14.668 22.6241Z" fill="url(#paint11_linear_11818_4595)"/>
<path opacity="0.6" fill-rule="evenodd" clip-rule="evenodd" d="M12.0833 12.8752C13.459 14.8077 14.384 16.9002 14.8461 18.9311L15.5696 3.90211C15.4393 3.87755 15.3082 3.90211 15.2726 3.91443L5.21758 7.15169C5.21758 7.15169 5.12287 7.17625 5.00391 7.22554C7.55387 8.13636 10.1031 10.0935 12.0833 12.8752Z" fill="url(#paint12_linear_11818_4595)"/>
<path fill-rule="evenodd" clip-rule="evenodd" d="M18.6865 5.40431C18.7464 5.45359 18.7464 5.52744 18.7464 5.52744L20.9516 21.1965L17.3229 19.1286L16.9199 5.21973L18.5449 5.34278C18.5562 5.3551 18.6274 5.3551 18.6865 5.40431Z" fill="url(#paint13_linear_11818_4595)"/>
<path fill-rule="evenodd" clip-rule="evenodd" d="M18.4275 5.44104C18.4275 5.44104 18.4987 5.44104 18.5578 5.50257C18.6169 5.55186 18.629 5.62571 18.629 5.62571L20.7994 21.1225L20.9653 21.221L18.7593 5.53954C18.7593 5.53954 18.7479 5.46569 18.7002 5.41648C18.6411 5.3672 18.5578 5.3672 18.5578 5.3672L16.9336 5.24414L18.4275 5.44104Z" fill="url(#paint14_linear_11818_4595)"/>
<path fill-rule="evenodd" clip-rule="evenodd" d="M3 20.3588L14.6679 22.6237L15.2376 9.79785L4.45097 10.1045L3 20.3588Z" fill="url(#paint15_linear_11818_4595)"/>
<path opacity="0.3" fill-rule="evenodd" clip-rule="evenodd" d="M6.83048 7.33116C6.72447 7.63034 6.82884 7.94466 7.06515 8.03341C7.30064 8.12207 7.57742 7.95151 7.68424 7.65241C7.79025 7.35331 7.68506 7.03891 7.44957 6.95024C7.21408 6.86149 6.93649 7.03206 6.83048 7.33116Z" fill="white"/>
<path opacity="0.89" fill-rule="evenodd" clip-rule="evenodd" d="M6.81668 7.18866C6.71067 7.48776 6.81585 7.80216 7.05135 7.89083C7.28684 7.97957 7.56443 7.80901 7.67044 7.50991C7.77645 7.21073 7.67208 6.89633 7.43577 6.80766C7.20028 6.71891 6.9235 6.88948 6.81668 7.18866Z" fill="black"/>
<path fill-rule="evenodd" clip-rule="evenodd" d="M16.9331 5.23109L15.7233 3.98791C15.6763 3.95095 15.6164 3.92638 15.5695 3.91406L14.668 22.6234L17.3361 19.1277L16.9331 5.23109Z" fill="url(#paint16_linear_11818_4595)"/>
<path fill-rule="evenodd" clip-rule="evenodd" d="M15.2719 3.92675L5.21696 7.1516C5.21696 7.1516 4.79049 7.27474 4.68367 7.41012C4.67153 7.42244 4.67149 7.43476 4.66016 7.44708L14.7977 4.54218C14.8811 4.51754 15.0826 4.44369 15.0591 5.0468L14.4424 22.5992L14.6561 22.6361L15.5568 3.92675C15.4386 3.88978 15.3076 3.91443 15.2719 3.92675Z" fill="url(#paint17_linear_11818_4595)"/>
<path fill-rule="evenodd" clip-rule="evenodd" d="M15.2719 3.92675L5.21696 7.1516C5.21696 7.1516 4.79049 7.27474 4.68367 7.41012C4.67153 7.42244 4.67149 7.43476 4.66016 7.44708L7.00781 6.77004L15.0826 4.17294C15.1182 4.16062 15.2485 4.13597 15.3788 4.16062L14.4894 22.5992L14.6561 22.6361L15.5568 3.92675C15.4386 3.88978 15.3076 3.91443 15.2719 3.92675Z" fill="url(#paint18_linear_11818_4595)"/>
<path opacity="0.32" fill-rule="evenodd" clip-rule="evenodd" d="M17.8577 19.4356L17.3235 19.1279L14.6562 22.6236L14.7979 22.5866C14.7979 22.5866 17.1463 19.448 17.3591 19.3495C17.5137 19.2879 17.8577 19.4356 17.8577 19.4356Z" fill="url(#paint19_linear_11818_4595)"/>
<path opacity="0.57" fill-rule="evenodd" clip-rule="evenodd" d="M14.668 22.6236L17.3361 19.1279C17.3239 19.1403 15.6407 21.0481 14.668 22.6236Z" fill="url(#paint20_linear_11818_4595)"/>
<path opacity="0.46" fill-rule="evenodd" clip-rule="evenodd" d="M21.0005 21.2085L17.3362 19.1406C17.324 19.1406 17.7513 19.2145 21.0005 21.2085Z" fill="url(#paint21_linear_11818_4595)"/>
<path opacity="0.3" fill-rule="evenodd" clip-rule="evenodd" d="M12.2508 6.10359C12.1439 6.40277 12.2491 6.71717 12.4846 6.80592C12.7209 6.89466 12.9977 6.7241 13.1037 6.425C13.2105 6.12582 13.1053 5.81142 12.8699 5.72267C12.6344 5.634 12.3568 5.80449 12.2508 6.10359Z" fill="white"/>
<path opacity="0.89" fill-rule="evenodd" clip-rule="evenodd" d="M12.2385 5.96202C12.1325 6.2612 12.2378 6.5756 12.4733 6.66434C12.7088 6.75301 12.9863 6.58252 13.0923 6.28334C13.1983 5.98424 13.0939 5.66985 12.8584 5.5811C12.6221 5.49235 12.3454 5.66292 12.2385 5.96202Z" fill="black"/>
<path fill-rule="evenodd" clip-rule="evenodd" d="M7.24509 7.79145C7.23295 7.79145 7.20947 7.79145 7.19733 7.79145C7.00796 7.76689 6.8777 7.58223 6.90117 7.373C6.92464 7.17602 7.60034 2.57253 10.3753 1.52633C11.0745 1.26782 11.6676 1.31702 12.1184 1.69867C12.6638 2.15408 12.96 3.0649 13.0078 4.39426C13.0434 5.32973 12.9366 6.14206 12.9366 6.17903C12.9131 6.37593 12.7351 6.52371 12.5449 6.48674C12.3555 6.4621 12.2131 6.27752 12.2487 6.08054C12.3555 5.24356 12.4737 2.94185 11.6798 2.27713C11.4305 2.06791 11.0866 2.04327 10.6246 2.21561C8.2413 3.11411 7.61248 7.43453 7.61248 7.47141C7.56473 7.65608 7.42313 7.79145 7.24509 7.79145Z" fill="#595961"/>
<path opacity="0.46" fill-rule="evenodd" clip-rule="evenodd" d="M11.9756 1.72391C11.5605 1.37931 11.0151 1.33011 10.3628 1.56398C9.23633 1.99475 8.28783 3.12712 7.63557 4.83804C7.15002 6.10586 6.98334 7.25056 6.98334 7.29984C6.97201 7.36137 6.9955 7.4229 7.0311 7.47218C7.06671 7.52139 7.11443 7.55835 7.1735 7.55835C7.18483 7.55835 7.19698 7.55835 7.20912 7.55835C7.31594 7.55835 7.4106 7.47218 7.42274 7.36137C7.43407 7.31216 8.06289 2.91789 10.5174 1.99475C11.0151 1.81008 11.418 1.83473 11.7029 2.08092C12.5445 2.78252 12.4264 5.15807 12.3196 6.00737C12.3074 6.13051 12.3908 6.25356 12.5089 6.26588C12.6279 6.2782 12.746 6.19203 12.7582 6.06898C12.7703 5.93352 13.1855 2.73331 11.9756 1.72391Z" fill="#B2B2C2"/>
<path opacity="0.81" fill-rule="evenodd" clip-rule="evenodd" d="M7.19664 7.42295C7.1845 7.42295 7.1845 7.42295 7.17317 7.42295C7.10196 7.41063 7.0542 7.33678 7.06634 7.26293C7.07848 7.21364 7.23226 6.0936 7.71862 4.82577C8.37088 3.13949 9.29584 2.01936 10.398 1.60083C11.0268 1.36697 11.5367 1.41625 11.9275 1.73629C13.0896 2.70864 12.6866 5.85973 12.6632 5.9951C12.651 6.06895 12.592 6.11816 12.5086 6.10592C12.4382 6.0936 12.3905 6.03207 12.3905 5.9459C12.3905 5.90893 12.7935 2.81946 11.7503 1.93319C11.442 1.69933 11.0147 1.67476 10.4936 1.87166C7.99135 2.81945 7.33909 7.26293 7.33909 7.31214C7.32695 7.37366 7.26785 7.42295 7.19664 7.42295Z" fill="#B2B2C2"/>
<path opacity="0.42" fill-rule="evenodd" clip-rule="evenodd" d="M8.76242 3.90208C8.89271 3.7175 9.01166 3.53284 9.12981 3.33594C9.08287 3.39746 8.73894 4.03754 8.0276 3.93905C8.01547 3.93905 8.43063 4.07442 8.76242 3.90208Z" fill="#595961"/>
<path opacity="0.42" fill-rule="evenodd" clip-rule="evenodd" d="M8.36023 4.69002C8.46705 4.49304 8.57384 4.28382 8.65639 4.08691C8.62078 4.16076 8.38366 4.8254 7.63672 4.8254C7.63672 4.8254 8.0519 4.91157 8.36023 4.69002Z" fill="#595961"/>
<path opacity="0.42" fill-rule="evenodd" clip-rule="evenodd" d="M8.05115 5.50275C8.14584 5.29345 8.21707 5.08422 8.28829 4.875C8.25268 4.94885 8.12239 5.62581 7.33984 5.71198C7.33984 5.69965 7.76629 5.74894 8.05115 5.50275Z" fill="#595961"/>
<path opacity="0.62" fill-rule="evenodd" clip-rule="evenodd" d="M12.7936 3.10259C12.7346 2.88096 12.6755 2.67174 12.5921 2.4502C12.6156 2.52404 12.8527 3.22565 12.3672 3.73026C12.3672 3.73026 12.7224 3.48415 12.7936 3.10259Z" fill="#595961"/>
<path opacity="0.62" fill-rule="evenodd" clip-rule="evenodd" d="M12.3325 1.99387C12.1666 1.83385 11.9999 1.68616 11.834 1.55078C11.8939 1.61231 12.4507 2.06772 12.2969 2.757C12.2848 2.757 12.4628 2.35079 12.3325 1.99387Z" fill="#595961"/>
<path opacity="0.62" fill-rule="evenodd" clip-rule="evenodd" d="M12.913 4.23465C12.9009 4.01311 12.8653 3.77924 12.8297 3.55762C12.8297 3.64379 12.9486 4.37003 12.3789 4.76392C12.3789 4.76392 12.7706 4.59158 12.913 4.23465Z" fill="#595961"/>
<path opacity="0.62" fill-rule="evenodd" clip-rule="evenodd" d="M12.9721 5.3918C12.9843 5.17026 12.9843 4.93639 12.9721 4.71484C12.9721 4.80101 12.9842 5.52726 12.3789 5.85954C12.3789 5.8473 12.7941 5.72416 12.9721 5.3918Z" fill="#595961"/>
<path opacity="0.42" fill-rule="evenodd" clip-rule="evenodd" d="M7.77769 6.40044C7.8489 6.1789 7.89666 5.95735 7.9436 5.74805C7.92013 5.8219 7.81332 6.5235 7.08984 6.69584C7.10198 6.69584 7.52844 6.68352 7.77769 6.40044Z" fill="#595961"/>
<path opacity="0.42" fill-rule="evenodd" clip-rule="evenodd" d="M9.21334 3.22517C9.37923 3.07748 9.53377 2.91746 9.6762 2.74512C9.61631 2.79432 9.1421 3.29902 8.47852 3.11436C8.48985 3.11436 8.85726 3.33599 9.21334 3.22517Z" fill="#595961"/>
<path opacity="0.42" fill-rule="evenodd" clip-rule="evenodd" d="M9.74608 2.65891C9.93626 2.53585 10.1143 2.41272 10.2915 2.27734C10.2211 2.31431 9.67567 2.72043 9.04688 2.42504C9.04688 2.42504 9.37868 2.70811 9.74608 2.65891Z" fill="#595961"/>
<path opacity="0.62" fill-rule="evenodd" clip-rule="evenodd" d="M10.4701 2.25312C10.6838 2.19151 10.8853 2.11766 11.0868 2.04381C11.0156 2.06845 10.3755 2.29 9.85352 1.82227C9.85352 1.82227 10.1027 2.19151 10.4701 2.25312Z" fill="#595961"/>
<path opacity="0.62" fill-rule="evenodd" clip-rule="evenodd" d="M11.0755 2.03144C11.2422 2.05608 11.4081 2.0684 11.574 2.08073C11.515 2.0684 11.0051 2.03144 10.7793 1.53906C10.7914 1.53906 10.8505 1.87142 11.0755 2.03144Z" fill="#595961"/>
<path opacity="0.62" fill-rule="evenodd" clip-rule="evenodd" d="M11.7152 2.30158C11.822 2.43695 11.928 2.57233 12.0349 2.69546C11.9993 2.64618 11.6674 2.24005 11.8333 1.73535C11.8455 1.73535 11.6674 2.0185 11.7152 2.30158Z" fill="#595961"/>
<path fill-rule="evenodd" clip-rule="evenodd" d="M12.5349 5.93288C12.5462 5.79751 12.9501 2.68339 11.8236 1.7356C11.6099 1.55101 11.3494 1.46484 11.0645 1.46484C10.8509 1.46484 10.6138 1.51405 10.3645 1.61254C9.27363 2.01875 8.36076 3.11424 7.72064 4.78819C7.23428 6.0437 7.0805 7.16382 7.06836 7.21303C7.06836 7.24991 7.09188 7.28688 7.12748 7.28688H7.13958C7.17519 7.28688 7.19866 7.26224 7.19866 7.22535C7.2108 7.17607 7.85091 2.68338 10.4001 1.72327C10.9455 1.51405 11.4084 1.55101 11.7402 1.83409C12.8189 2.73259 12.416 5.87136 12.4046 5.90832C12.4046 5.9452 12.4281 5.98217 12.4637 5.98217C12.4637 5.98217 12.4637 5.98217 12.475 5.98217C12.5106 5.99449 12.5349 5.96985 12.5349 5.93288Z" fill="url(#paint22_linear_11818_4595)"/>
<path fill-rule="evenodd" clip-rule="evenodd" d="M13.0071 4.39459C12.9594 3.06524 12.6632 2.16666 12.1177 1.69892C11.8215 1.45282 11.4655 1.342 11.0625 1.36664C11.3708 1.39121 11.6549 1.50202 11.8928 1.69892C12.4382 2.15442 12.7344 3.06524 12.7813 4.39459C12.8169 5.33006 12.7109 6.1424 12.7109 6.17936C12.6867 6.32706 12.592 6.43787 12.473 6.47476C12.4973 6.48708 12.5086 6.48708 12.5329 6.48708C12.7222 6.51172 12.9003 6.37627 12.9238 6.17936C12.9359 6.1424 13.0427 5.34238 13.0071 4.39459Z" fill="url(#paint23_linear_11818_4595)"/>
<path fill-rule="evenodd" clip-rule="evenodd" d="M10.3878 2.21634C8.00459 3.11484 7.37581 7.43526 7.37581 7.48447C7.35234 7.63217 7.25682 7.74298 7.13867 7.77986C7.16214 7.79219 7.17428 7.79218 7.19775 7.79218C7.20988 7.79218 7.23337 7.79218 7.24551 7.79218C7.42354 7.79218 7.56515 7.65681 7.58943 7.48447C7.60076 7.43526 8.21742 3.12716 10.6007 2.22858C10.7674 2.16705 10.909 2.13017 11.0401 2.11785C10.8621 2.0932 10.6363 2.13017 10.3878 2.21634Z" fill="url(#paint24_linear_11818_4595)"/>
<defs>
<linearGradient id="paint0_linear_11818_4595" x1="10.0456" y1="2.13325" x2="9.6737" y2="7.19637" gradientUnits="userSpaceOnUse">
<stop stop-color="white" stop-opacity="0.65"/>
<stop offset="1" stop-color="white" stop-opacity="0.01"/>
</linearGradient>
<linearGradient id="paint1_linear_11818_4595" x1="12.762" y1="5.03152" x2="15.3803" y2="7.32475" gradientUnits="userSpaceOnUse">
<stop stop-opacity="0.01"/>
<stop offset="1" stop-opacity="0.4"/>
</linearGradient>
<linearGradient id="paint2_linear_11818_4595" x1="11.7125" y1="7.68354" x2="14.4838" y2="5.10224" gradientUnits="userSpaceOnUse">
<stop stop-opacity="0.01"/>
<stop offset="1" stop-opacity="0.4"/>
</linearGradient>
<linearGradient id="paint3_linear_11818_4595" x1="8.18572" y1="0.151384" x2="-2.57829" y2="12.5539" gradientUnits="userSpaceOnUse">
<stop stop-color="#B8D26E"/>
<stop offset="1" stop-color="#7FB525"/>
</linearGradient>
<linearGradient id="paint4_linear_11818_4595" x1="22.9098" y1="3.25563" x2="17.0023" y2="3.36533" gradientUnits="userSpaceOnUse">
<stop stop-color="#B4E034"/>
<stop offset="1" stop-color="#60A927"/>
</linearGradient>
<linearGradient id="paint5_linear_11818_4595" x1="5.33767" y1="11.5262" x2="0.494298" y2="23.3208" gradientUnits="userSpaceOnUse">
<stop stop-color="white"/>
<stop offset="1" stop-color="#CECEEB"/>
</linearGradient>
<linearGradient id="paint6_linear_11818_4595" x1="12.2831" y1="40.5723" x2="19.954" y2="40.5568" gradientUnits="userSpaceOnUse">
<stop stop-color="#1D1D1B" stop-opacity="0.5"/>
<stop offset="0.038033" stop-color="#1D1D1B" stop-opacity="0.4837"/>
<stop offset="0.4243" stop-color="#1D1D1B" stop-opacity="0.3185"/>
<stop offset="1" stop-color="#1D1D1B" stop-opacity="0.01"/>
</linearGradient>
<linearGradient id="paint7_linear_11818_4595" x1="13.173" y1="3.65436" x2="11.9004" y2="4.33928" gradientUnits="userSpaceOnUse">
<stop stop-opacity="0.01"/>
<stop offset="1" stop-opacity="0.4"/>
</linearGradient>
<linearGradient id="paint8_linear_11818_4595" x1="7.83892" y1="5.68613" x2="6.94434" y2="6.45494" gradientUnits="userSpaceOnUse">
<stop stop-opacity="0.01"/>
<stop offset="1" stop-opacity="0.4"/>
</linearGradient>
<linearGradient id="paint9_linear_11818_4595" x1="16.5649" y1="21.2177" x2="16.6554" y2="22.4116" gradientUnits="userSpaceOnUse">
<stop stop-opacity="0.01"/>
<stop offset="1" stop-opacity="0.4"/>
</linearGradient>
<linearGradient id="paint10_linear_11818_4595" x1="14.4503" y1="19.4699" x2="14.6603" y2="22.574" gradientUnits="userSpaceOnUse">
<stop stop-color="white" stop-opacity="0.5"/>
<stop offset="0.0896271" stop-color="white" stop-opacity="0.4552"/>
<stop offset="1" stop-color="white" stop-opacity="0.01"/>
</linearGradient>
<linearGradient id="paint11_linear_11818_4595" x1="14.0465" y1="19.9527" x2="14.42" y2="23.2685" gradientUnits="userSpaceOnUse">
<stop stop-opacity="0.01"/>
<stop offset="1" stop-opacity="0.4"/>
</linearGradient>
<linearGradient id="paint12_linear_11818_4595" x1="12.581" y1="0.875367" x2="3.00165" y2="6.41566" gradientUnits="userSpaceOnUse">
<stop stop-color="white" stop-opacity="0.5"/>
<stop offset="1" stop-color="white" stop-opacity="0.01"/>
</linearGradient>
<linearGradient id="paint13_linear_11818_4595" x1="14.4282" y1="29.8314" x2="22.8833" y2="29.8485" gradientUnits="userSpaceOnUse">
<stop stop-color="#1D1D1B" stop-opacity="0.5"/>
<stop offset="0.0896271" stop-color="#1D1D1B" stop-opacity="0.4552"/>
<stop offset="1" stop-color="#1D1D1B" stop-opacity="0.01"/>
</linearGradient>
<linearGradient id="paint14_linear_11818_4595" x1="20.4846" y1="4.77769" x2="19.2835" y2="5.07199" gradientUnits="userSpaceOnUse">
<stop stop-color="white" stop-opacity="0.4"/>
<stop offset="1" stop-color="white" stop-opacity="0.01"/>
</linearGradient>
<linearGradient id="paint15_linear_11818_4595" x1="9.70792" y1="22.7606" x2="10.3325" y2="19.7496" gradientUnits="userSpaceOnUse">
<stop stop-color="#1D1D1B" stop-opacity="0.5"/>
<stop offset="0.0896271" stop-color="#1D1D1B" stop-opacity="0.4552"/>
<stop offset="1" stop-color="#1D1D1B" stop-opacity="0.01"/>
</linearGradient>
<linearGradient id="paint16_linear_11818_4595" x1="13.3189" y1="40.1887" x2="21.0174" y2="40.1953" gradientUnits="userSpaceOnUse">
<stop stop-color="#1D1D1B" stop-opacity="0.5"/>
<stop offset="1" stop-color="#1D1D1B" stop-opacity="0.01"/>
</linearGradient>
<linearGradient id="paint17_linear_11818_4595" x1="6.28352" y1="2.84205" x2="2.54981" y2="17.1869" gradientUnits="userSpaceOnUse">
<stop stop-color="white" stop-opacity="0.5"/>
<stop offset="1" stop-color="white" stop-opacity="0.01"/>
</linearGradient>
<linearGradient id="paint18_linear_11818_4595" x1="6.28352" y1="2.84205" x2="2.54981" y2="17.1869" gradientUnits="userSpaceOnUse">
<stop stop-color="white" stop-opacity="0.5"/>
<stop offset="1" stop-color="white" stop-opacity="0.01"/>
</linearGradient>
<linearGradient id="paint19_linear_11818_4595" x1="15.3449" y1="17.8792" x2="12.3938" y2="21.9411" gradientUnits="userSpaceOnUse">
<stop stop-color="white" stop-opacity="0.5"/>
<stop offset="0.0896271" stop-color="white" stop-opacity="0.4552"/>
<stop offset="1" stop-color="white" stop-opacity="0.01"/>
</linearGradient>
<linearGradient id="paint20_linear_11818_4595" x1="16.2355" y1="18.813" x2="15.9433" y2="19.468" gradientUnits="userSpaceOnUse">
<stop stop-opacity="0.01"/>
<stop offset="1" stop-opacity="0.4"/>
</linearGradient>
<linearGradient id="paint21_linear_11818_4595" x1="19.1335" y1="19.6795" x2="19.1191" y2="19.8556" gradientUnits="userSpaceOnUse">
<stop stop-opacity="0.01"/>
<stop offset="1" stop-opacity="0.4"/>
</linearGradient>
<linearGradient id="paint22_linear_11818_4595" x1="8.50722" y1="1.0505" x2="7.23141" y2="6.09055" gradientUnits="userSpaceOnUse">
<stop stop-color="white" stop-opacity="0.65"/>
<stop offset="1" stop-color="white" stop-opacity="0.01"/>
</linearGradient>
<linearGradient id="paint23_linear_11818_4595" x1="11.3603" y1="3.95819" x2="13.5796" y2="6.21452" gradientUnits="userSpaceOnUse">
<stop stop-opacity="0.01"/>
<stop offset="1" stop-opacity="0.4"/>
</linearGradient>
<linearGradient id="paint24_linear_11818_4595" x1="9.94277" y1="7.28128" x2="13.0091" y2="4.13217" gradientUnits="userSpaceOnUse">
<stop stop-opacity="0.01"/>
<stop offset="1" stop-opacity="0.4"/>
</linearGradient>
</defs>
</svg>
