<svg width="17" height="17" viewBox="0 0 17 17" fill="none" xmlns="http://www.w3.org/2000/svg">
<path d="M5.98036 11.0092L5.9368 11.6076L5.9368 11.6076L5.98036 11.0092ZM1.29934 14.5743L1.87011 14.7593L1.87128 14.7557L1.29934 14.5743ZM2.44059 10.9746L3.01254 11.1559C3.10612 10.8607 2.9597 10.5428 2.67455 10.4221L2.44059 10.9746ZM5.44457 5.61843L5.46388 5.01874L5.45403 5.01842L5.44416 5.01843L5.44457 5.61843ZM1.01372 6.97958L0.475092 6.71524L1.01372 6.97958ZM9.78876 11.6127L9.6275 12.1906L9.78876 11.6127ZM9.31683 5.09693V11.5161H10.5168V5.09693H9.31683ZM9.95003 11.0347C8.2112 10.5495 6.72533 10.4619 6.02393 10.4108L5.9368 11.6076C6.6395 11.6588 8.01675 11.7411 9.6275 12.1906L9.95003 11.0347ZM4.70391 11.3232L3.55294 14.8741L4.69447 15.2441L5.84544 11.6932L4.70391 11.3232ZM3.41658 14.9833H2.00646V16.1833H3.41658V14.9833ZM1.87128 14.7557L3.01254 11.1559L1.86865 10.7933L0.727392 14.393L1.87128 14.7557ZM4.48513 6.21908L5.44498 6.21843L5.44416 5.01843L4.48432 5.01908L4.48513 6.21908ZM5.44457 5.61843C5.42525 6.21812 5.42536 6.21812 5.42548 6.21812C5.42553 6.21813 5.42566 6.21813 5.42576 6.21813C5.42596 6.21814 5.4262 6.21815 5.42647 6.21815C5.427 6.21817 5.42768 6.21819 5.42848 6.21822C5.43009 6.21826 5.43222 6.21832 5.43487 6.21839C5.44018 6.21854 5.44757 6.21872 5.45698 6.21892C5.47578 6.21931 5.50264 6.21977 5.53702 6.22008C5.60577 6.2207 5.70467 6.22074 5.82938 6.21856C6.07864 6.21421 6.43201 6.20096 6.85465 6.1655C7.69653 6.09487 8.82941 5.93483 9.96673 5.57298L9.6029 4.42946C8.57967 4.75502 7.54242 4.90359 6.75432 4.9697C6.36196 5.00262 6.03538 5.01478 5.80843 5.01875C5.69504 5.02073 5.60677 5.02066 5.54787 5.02013C5.51843 5.01986 5.49636 5.01948 5.48217 5.01918C5.47508 5.01903 5.46997 5.0189 5.4669 5.01882C5.46536 5.01878 5.46434 5.01875 5.46383 5.01874C5.46358 5.01873 5.46346 5.01872 5.46347 5.01872C5.46347 5.01873 5.46351 5.01873 5.46358 5.01873C5.46361 5.01873 5.46369 5.01873 5.46371 5.01873C5.46379 5.01874 5.46388 5.01874 5.44457 5.61843ZM2.67455 10.4221C1.39703 9.88112 0.993335 8.38298 1.55235 7.24393L0.475092 6.71524C-0.339861 8.3758 0.199338 10.6771 2.20664 11.5271L2.67455 10.4221ZM2.00646 14.9833C1.96369 14.9833 1.92359 14.964 1.89312 14.9206C1.86223 14.8765 1.85071 14.8192 1.8701 14.7593L0.728571 14.3893C0.449382 15.2507 1.06679 16.1833 2.00646 16.1833V14.9833ZM3.55294 14.8741C3.52886 14.9484 3.4683 14.9833 3.41658 14.9833V16.1833C4.00652 16.1833 4.51563 15.7959 4.69447 15.2441L3.55294 14.8741ZM6.02393 10.4108C5.39975 10.3654 4.88137 10.7757 4.70391 11.3232L5.84544 11.6932C5.85762 11.6557 5.87799 11.6325 5.89471 11.6206C5.91008 11.6096 5.92332 11.6067 5.9368 11.6076L6.02393 10.4108ZM4.48432 5.01908C3.80295 5.01954 3.0095 5.05866 2.29469 5.27523C1.56941 5.49496 0.867004 5.91667 0.475092 6.71524L1.55235 7.24393C1.74965 6.8419 2.11406 6.58382 2.64263 6.42368C3.18168 6.26036 3.82912 6.21952 4.48513 6.21908L4.48432 5.01908ZM9.31683 11.5161C9.31683 11.1801 9.6369 10.9474 9.95003 11.0347L9.6275 12.1906C10.0688 12.3137 10.5168 11.9851 10.5168 11.5161H9.31683ZM10.5168 5.09693C10.5168 4.61536 10.048 4.28786 9.6029 4.42946L9.96673 5.57298C9.65173 5.6732 9.31683 5.44203 9.31683 5.09693H10.5168Z" fill="#9B95A9"/>
<mask id="mask0_11501_13396" style="mask-type:alpha" maskUnits="userSpaceOnUse" x="12" y="2" width="5" height="12">
<path d="M12.3521 2.26929H17.0001V13.8681H12.3521V2.26929Z" fill="white"/>
</mask>
<g mask="url(#mask0_11501_13396)">
<path d="M16.4002 8.46667C16.4002 11.1302 14.241 13.2894 11.5775 13.2894C8.91399 13.2894 6.75479 11.1302 6.75479 8.46667C6.75479 5.80315 8.91399 3.64395 11.5775 3.64395C14.241 3.64395 16.4002 5.80315 16.4002 8.46667Z" stroke="#9B95A9" stroke-width="1.2"/>
<path d="M13.3015 8.4666C13.3015 9.41876 12.5296 10.1906 11.5774 10.1906C10.6253 10.1906 9.85342 9.41876 9.85342 8.4666C9.85342 7.51445 10.6253 6.74258 11.5774 6.74258C12.5296 6.74258 13.3015 7.51445 13.3015 8.4666Z" stroke="#9B95A9" stroke-width="1.2"/>
</g>
</svg>
