<svg width="51" height="51" viewBox="0 0 51 51" fill="none" xmlns="http://www.w3.org/2000/svg">
<circle opacity="0.67" cx="25.5" cy="25.5" r="25.5" fill="#FFF7EB"/>
<path opacity="0.4" d="M31.9704 20.5499H31.636L28.8101 17.724C28.5843 17.4983 28.2165 17.4983 27.9824 17.724C27.7566 17.9497 27.7566 18.3176 27.9824 18.5517L29.9806 20.5499H21.854L23.8522 18.5517C24.078 18.326 24.078 17.9581 23.8522 17.724C23.6265 17.4983 23.2586 17.4983 23.0245 17.724L20.207 20.5499H19.8725C19.1201 20.5499 17.5566 20.5499 17.5566 22.6902C17.5566 23.5012 17.7239 24.0363 18.075 24.3874C18.2757 24.5965 18.5181 24.7051 18.7773 24.7637C19.0198 24.8222 19.2789 24.8305 19.5298 24.8305H32.3048C32.564 24.8305 32.8065 24.8138 33.0406 24.7637C33.7429 24.5964 34.278 24.0948 34.278 22.6902C34.278 20.5499 32.7145 20.5499 31.9704 20.5499Z" fill="#FFA114"/>
<path d="M32.3132 24.8311H19.5298C19.2873 24.8311 19.0198 24.8227 18.7773 24.7559L19.8308 31.1852C20.0649 32.6232 20.6919 34.2786 23.476 34.2786H28.1664C30.9839 34.2786 31.4855 32.8657 31.7865 31.2855L33.049 24.7559C32.8149 24.8144 32.5641 24.8311 32.3132 24.8311ZM25.9173 31.3524C23.961 31.3524 22.3641 29.7555 22.3641 27.7991C22.3641 27.4564 22.6483 27.1721 22.9911 27.1721C23.3339 27.1721 23.6182 27.4564 23.6182 27.7991C23.6182 29.07 24.6465 30.0983 25.9173 30.0983C27.1882 30.0983 28.2165 29.07 28.2165 27.7991C28.2165 27.4564 28.5008 27.1721 28.8436 27.1721C29.1864 27.1721 29.4706 27.4564 29.4706 27.7991C29.4706 29.7555 27.8737 31.3524 25.9173 31.3524Z" fill="#FFA114"/>
</svg>
