<svg width="21" height="21" viewBox="0 0 21 21" fill="none" xmlns="http://www.w3.org/2000/svg">
<g clip-path="url(#clip0_11572_17220)">
<path d="M12.4619 14.5971C12.526 14.6151 12.59 14.5672 12.59 14.5007V6.87501C12.59 6.80677 12.523 6.75862 12.458 6.77944C9.90011 7.59894 7.31131 7.51555 7.31131 7.51555L5.81295 7.51657C4.47558 7.51748 2.97528 7.67341 2.25985 8.80334C1.20316 10.4723 1.69912 12.9625 3.76563 13.8376L2.41858 18.0865C2.22868 18.6723 2.65271 19.2773 3.25322 19.2773H4.91762C5.2963 19.2773 5.63251 19.0281 5.75226 18.6587L7.11078 14.4675C7.23054 14.098 7.56598 13.851 7.94372 13.8785C8.77559 13.939 10.4752 14.0399 12.4619 14.5971Z" fill="#17BD8D"/>
<path d="M7.94372 13.8785L7.90016 14.4769L7.90016 14.4769L7.94372 13.8785ZM2.41858 18.0865L2.98935 18.2715L2.99052 18.2678L2.41858 18.0865ZM3.76563 13.8376L4.33758 14.0189C4.43116 13.7237 4.28474 13.4058 3.99959 13.2851L3.76563 13.8376ZM7.31131 7.51555L7.33063 6.91586L7.32077 6.91554L7.3109 6.91555L7.31131 7.51555ZM5.81295 7.51657L5.81255 6.91657L5.81295 7.51657ZM12.4619 14.5971L12.2999 15.1749L12.4619 14.5971ZM12.458 6.77944L12.6411 7.35083L12.458 6.77944ZM11.99 6.87501V14.5007H13.19V6.87501H11.99ZM12.624 14.0194C10.5728 13.4441 8.81853 13.3406 7.98729 13.28L7.90016 14.4769C8.73265 14.5375 10.3776 14.6357 12.2999 15.1749L12.624 14.0194ZM6.54002 14.2824L5.18149 18.4737L6.32302 18.8437L7.68155 14.6525L6.54002 14.2824ZM4.91762 18.6773H3.25322V19.8773H4.91762V18.6773ZM2.99052 18.2678L4.33758 14.0189L3.19369 13.6563L1.84663 17.9051L2.99052 18.2678ZM5.81336 8.11657L7.31172 8.11555L7.3109 6.91555L5.81255 6.91657L5.81336 8.11657ZM7.31131 7.51555C7.29199 8.11524 7.29211 8.11524 7.29223 8.11525C7.29228 8.11525 7.29241 8.11525 7.29252 8.11526C7.29274 8.11526 7.29299 8.11527 7.29328 8.11528C7.29387 8.1153 7.29462 8.11532 7.29552 8.11535C7.29733 8.1154 7.29976 8.11547 7.30281 8.11555C7.30891 8.11571 7.31748 8.11593 7.32843 8.11616C7.35033 8.11662 7.38179 8.11715 7.42216 8.11751C7.50289 8.11823 7.61934 8.11828 7.76636 8.11568C8.06022 8.1105 8.47722 8.09476 8.9759 8.05268C9.96983 7.96881 11.3047 7.77899 12.6411 7.35083L12.275 6.20805C11.0535 6.59939 9.81495 6.77762 8.875 6.85693C8.40674 6.89644 8.01666 6.91108 7.74519 6.91587C7.60954 6.91826 7.50376 6.91819 7.43292 6.91756C7.39751 6.91724 7.37085 6.91678 7.35359 6.91642C7.34495 6.91624 7.33867 6.91608 7.33482 6.91598C7.33289 6.91593 7.33157 6.91589 7.33087 6.91587C7.33052 6.91586 7.33032 6.91585 7.33028 6.91585C7.33026 6.91585 7.33028 6.91585 7.33034 6.91585C7.33036 6.91585 7.33044 6.91586 7.33045 6.91586C7.33053 6.91586 7.33063 6.91586 7.31131 7.51555ZM3.99959 13.2851C2.32216 12.5748 1.87939 10.5258 2.76678 9.12431L1.75292 8.48237C0.526941 10.4187 1.07609 13.3503 3.53168 14.3901L3.99959 13.2851ZM3.25322 18.6773C3.08362 18.6773 2.91775 18.4923 2.98934 18.2715L1.84781 17.9014C1.53961 18.8523 2.2218 19.8773 3.25322 19.8773V18.6773ZM5.18149 18.4737C5.13912 18.6044 5.02719 18.6773 4.91762 18.6773V19.8773C5.56542 19.8773 6.12589 19.4519 6.32302 18.8437L5.18149 18.4737ZM7.98729 13.28C7.3054 13.2304 6.73578 13.6785 6.54002 14.2824L7.68155 14.6525C7.7253 14.5175 7.82657 14.4715 7.90016 14.4769L7.98729 13.28ZM5.81255 6.91657C5.12978 6.91703 4.35253 6.95576 3.63846 7.15962C2.91604 7.36587 2.21376 7.75454 1.75292 8.48237L2.76678 9.12431C3.02137 8.72222 3.42695 8.46795 3.96789 8.31352C4.51716 8.15671 5.15875 8.11701 5.81336 8.11657L5.81255 6.91657ZM11.99 14.5007C11.99 14.1641 12.3109 13.9316 12.624 14.0194L12.2999 15.1749C12.7411 15.2986 13.19 14.9703 13.19 14.5007H11.99ZM13.19 6.87501C13.19 6.39347 12.7207 6.06524 12.275 6.20805L12.6411 7.35083C12.3253 7.452 11.99 7.22008 11.99 6.87501H13.19Z" fill="#17BD8D"/>
<mask id="mask0_11572_17220" style="mask-type:alpha" maskUnits="userSpaceOnUse" x="15" y="3" width="6" height="15">
<path d="M15.4644 3.5625H20.9506V17.2529H15.4644V3.5625Z" fill="white"/>
</mask>
<g mask="url(#mask0_11572_17220)">
<path opacity="0.4" d="M20.3506 10.8772C20.3506 14.0807 17.7536 16.6778 14.55 16.6778C11.3464 16.6778 8.74941 14.0807 8.74941 10.8772C8.74941 7.67358 11.3464 5.07656 14.55 5.07656C17.7536 5.07656 20.3506 7.67358 20.3506 10.8772Z" stroke="#17BD8D" stroke-width="1.2"/>
<path opacity="0.4" d="M16.6929 10.8779C16.6929 12.0615 15.7334 13.021 14.5498 13.021C13.3661 13.021 12.4066 12.0615 12.4066 10.8779C12.4066 9.69427 13.3661 8.73477 14.5498 8.73477C15.7334 8.73477 16.6929 9.69427 16.6929 10.8779Z" stroke="#17BD8D" stroke-width="1.2"/>
</g>
</g>
<defs>
<clipPath id="clip0_11572_17220">
<rect width="20.0656" height="20.0656" fill="white" transform="translate(0.885254 0.884766)"/>
</clipPath>
</defs>
</svg>
