<svg width="17" height="17" viewBox="0 0 17 17" fill="none" xmlns="http://www.w3.org/2000/svg">
<path d="M3.5415 7.08268H4.95817C6.37484 7.08268 7.08317 6.37435 7.08317 4.95768V3.54102C7.08317 2.12435 6.37484 1.41602 4.95817 1.41602H3.5415C2.12484 1.41602 1.4165 2.12435 1.4165 3.54102V4.95768C1.4165 6.37435 2.12484 7.08268 3.5415 7.08268Z" stroke="#635978" stroke-width="1.5" stroke-miterlimit="10" stroke-linecap="round" stroke-linejoin="round"/>
<path d="M12.0415 7.08268H13.4582C14.8748 7.08268 15.5832 6.37435 15.5832 4.95768V3.54102C15.5832 2.12435 14.8748 1.41602 13.4582 1.41602H12.0415C10.6248 1.41602 9.9165 2.12435 9.9165 3.54102V4.95768C9.9165 6.37435 10.6248 7.08268 12.0415 7.08268Z" stroke="#635978" stroke-width="1.5" stroke-miterlimit="10" stroke-linecap="round" stroke-linejoin="round"/>
<path d="M12.0415 15.5827H13.4582C14.8748 15.5827 15.5832 14.8744 15.5832 13.4577V12.041C15.5832 10.6243 14.8748 9.91602 13.4582 9.91602H12.0415C10.6248 9.91602 9.9165 10.6243 9.9165 12.041V13.4577C9.9165 14.8744 10.6248 15.5827 12.0415 15.5827Z" stroke="#635978" stroke-width="1.5" stroke-miterlimit="10" stroke-linecap="round" stroke-linejoin="round"/>
<path d="M3.5415 15.5827H4.95817C6.37484 15.5827 7.08317 14.8744 7.08317 13.4577V12.041C7.08317 10.6243 6.37484 9.91602 4.95817 9.91602H3.5415C2.12484 9.91602 1.4165 10.6243 1.4165 12.041V13.4577C1.4165 14.8744 2.12484 15.5827 3.5415 15.5827Z" stroke="#635978" stroke-width="1.5" stroke-miterlimit="10" stroke-linecap="round" stroke-linejoin="round"/>
</svg>
