<svg width="21" height="21" viewBox="0 0 21 21" fill="none" xmlns="http://www.w3.org/2000/svg">
<path opacity="0.4" d="M8.40979 2.55664C6.2193 2.55664 4.43848 4.33746 4.43848 6.52795C4.43848 8.67664 6.11897 10.4157 8.30946 10.4909C8.37635 10.4825 8.44323 10.4825 8.4934 10.4909C8.51012 10.4909 8.51848 10.4909 8.5352 10.4909C8.54356 10.4909 8.54356 10.4909 8.55192 10.4909C10.6922 10.4157 12.3727 8.67664 12.3811 6.52795C12.3811 4.33746 10.6003 2.55664 8.40979 2.55664Z" fill="#FF783C"/>
<path d="M12.657 12.7151C10.3244 11.1601 6.52032 11.1601 4.17098 12.7151C3.10917 13.4258 2.52393 14.3873 2.52393 15.4156C2.52393 16.444 3.10917 17.3971 4.16261 18.0994C5.33311 18.8853 6.87147 19.2783 8.40983 19.2783C9.94819 19.2783 11.4865 18.8853 12.657 18.0994C13.7105 17.3887 14.2957 16.4356 14.2957 15.3989C14.2874 14.3706 13.7105 13.4174 12.657 12.7151Z" fill="#FF783C"/>
<path opacity="0.4" d="M17.5982 7.02058C17.732 8.64254 16.5782 10.0639 14.9813 10.2562C14.973 10.2562 14.973 10.2562 14.9646 10.2562H14.9395C14.8893 10.2562 14.8392 10.2562 14.7974 10.2729C13.9864 10.3147 13.2423 10.0555 12.6821 9.57894C13.5433 8.80976 14.0366 7.65599 13.9362 6.40189C13.8777 5.72468 13.6436 5.10599 13.2925 4.57927C13.6102 4.42041 13.978 4.32009 14.3543 4.28664C15.993 4.14451 17.4561 5.36517 17.5982 7.02058Z" fill="#FF783C"/>
<path d="M19.2706 14.7558C19.2037 15.5668 18.6853 16.2691 17.8158 16.7456C16.9797 17.2055 15.9263 17.4228 14.8812 17.3977C15.4832 16.8543 15.8343 16.1771 15.9012 15.4581C15.9848 14.4214 15.4915 13.4264 14.505 12.6322C13.9448 12.1891 13.2927 11.8379 12.582 11.5787C14.4297 11.0436 16.754 11.4032 18.1837 12.5569C18.9529 13.1756 19.3458 13.9532 19.2706 14.7558Z" fill="#FF783C"/>
</svg>
