<svg width="21" height="21" viewBox="0 0 21 21" fill="none" xmlns="http://www.w3.org/2000/svg">
<path opacity="0.4" d="M7.44678 6.52795C7.44678 4.6136 9.00374 3.05664 10.9181 3.05664C12.8321 3.05664 14.3889 4.61308 14.3894 6.52699C14.3816 8.40524 12.9173 9.92087 11.0511 9.9909H11.0511H11.0511H11.0511H11.051H11.051H11.051H11.051H11.0509H11.0509H11.0509H11.0509H11.0508H11.0508H11.0508H11.0508H11.0507H11.0507H11.0507H11.0507H11.0506H11.0506H11.0506H11.0506H11.0505H11.0505H11.0505H11.0505H11.0504H11.0504H11.0504H11.0504H11.0503H11.0503H11.0503H11.0503H11.0502H11.0502H11.0502H11.0502H11.0501H11.0501H11.0501H11.05H11.05H11.05H11.05H11.0499H11.0499H11.0499H11.0499H11.0498H11.0498H11.0498H11.0498H11.0497H11.0497H11.0497H11.0496H11.0496H11.0496H11.0496H11.0495H11.0495H11.0495H11.0495H11.0494H11.0494H11.0494H11.0493H11.0493H11.0493H11.0493H11.0492H11.0492H11.0492H11.0491H11.0491H11.0491H11.0491H11.049H11.049H11.049H11.0489H11.0489H11.0489H11.0489H11.0488H11.0488H11.0488H11.0487H11.0487H11.0487H11.0486H11.0486H11.0486H11.0486H11.0485H11.0485H11.0485H11.0484H11.0484H11.0484H11.0483H11.0483H11.0483H11.0482H11.0482H11.0482H11.0482H11.0481H11.0481H11.0481H11.048H11.048H11.048H11.0479H11.0479H11.0479H11.0478H11.0478H11.0478H11.0477H11.0477H11.0477H11.0476H11.0476H11.0476H11.0475H11.0475H11.0475H11.0474H11.0474H11.0474H11.0473H11.0473H11.0473H11.0472H11.0472H11.0472H11.0471H11.0471H11.047H11.047H11.047H11.0469H11.0469H11.0469H11.0468H11.0468H11.0468H11.0467H11.0467H11.0467H11.0466H11.0466H11.0465H11.0465H11.0465H11.0464H11.0464H11.0464H11.0463H11.0463H11.0462H11.0462H11.0462H11.0461H11.0461H11.046H11.046H11.046H11.0459H11.0459H11.0458H11.0458H11.0458H11.0457H11.0457H11.0456H11.0456H11.0456H11.0455H11.0455H11.0454H11.0454H11.0454H11.0453H11.0453H11.0452H11.0452H11.0451H11.0451H11.0451H11.045H11.045H11.0449H11.0449H11.0448H11.0448H11.0448H11.0447H11.0447H11.0446H11.0446H11.0445H11.0445H11.0444H11.0444H11.0444H11.0443H11.0443H11.0442H11.0442H11.0441H11.0441H11.044H11.044H11.0439H11.0439H11.0438H11.0438H11.0437H11.0437H11.0436H11.0436H11.0435H11.0435H11.0434H11.0433H11.0432H11.0431H11.043H11.0429H11.0428H11.0427H11.0426H11.0425H11.0424H11.0423H11.0422H11.0421H11.0421H11.042H11.0419H11.0418H11.0417H11.0416H11.0415H11.0414H11.0413H11.0412H11.0411H11.041H11.0409H11.0408H11.0407H11.0406H11.0405H11.0405H11.0404H11.0403H11.0402H11.0401H11.04H11.0399H11.0398H11.0397H11.0396H11.0395H11.0395H11.0394H11.0393H11.0392H11.0391H11.039H11.0389H11.0388H11.0387H11.0386H11.0386H11.0385H11.0384H11.0383H11.0382H11.0381H11.038H11.0379H11.0379H11.0378H11.0377H11.0376H11.0375H11.0374H11.0373H11.0372H11.0372H11.0371H11.037H11.0369H11.0368H11.0367H11.0366H11.0366H11.0365H11.0364H11.0363H11.0362H11.0361H11.036H11.036H11.0359H11.0358H11.0357H11.0356H11.0355H11.0354H11.0354H11.0353H11.0352H11.0351H11.035H11.0349H11.0349H11.0348H11.0347H11.0346H11.0345H11.0345C10.9556 9.9822 10.875 9.98323 10.8011 9.98988C8.8931 9.90723 7.44678 8.39267 7.44678 6.52795Z" fill="#FF783C" stroke="#FF783C"/>
<path d="M6.94963 17.6843L6.94827 17.6834C5.99587 17.0484 5.53223 16.2357 5.53223 15.4156C5.53223 14.5951 5.99625 13.7743 6.95634 13.1314C8.03257 12.4194 9.46913 12.0488 10.9286 12.0488C12.3887 12.0488 13.8207 12.4197 14.888 13.1312C15.8367 13.7637 16.2966 14.576 16.304 15.4009C16.3033 16.2292 15.8391 17.0417 14.886 17.6847C13.8147 18.4038 12.3792 18.7783 10.9181 18.7783C9.45682 18.7783 8.02101 18.4036 6.94963 17.6843Z" fill="#FF783C" stroke="#FF783C"/>
</svg>
