<svg width="15" height="15" viewBox="0 0 15 15" fill="none" xmlns="http://www.w3.org/2000/svg">
<path fill-rule="evenodd" clip-rule="evenodd" d="M10.7762 2.05549C10.7762 2.05554 10.7763 2.05544 10.7762 2.05549L3.08797 9.75195L2.24178 12.7598L5.25349 11.9156L12.9417 4.21822C13.0036 4.15635 13.0389 4.07197 13.0389 3.98449C13.0389 3.8971 13.0042 3.81328 12.9424 3.75143C12.9423 3.75136 12.9424 3.75149 12.9424 3.75143L11.2434 2.05555C11.1814 1.9937 11.0974 1.9589 11.0098 1.9589C10.9223 1.9589 10.8382 1.99374 10.7762 2.05549ZM9.88451 1.16463C10.183 0.866627 10.5877 0.699219 11.0098 0.699219C11.4318 0.699219 11.8365 0.866605 12.135 1.16457C12.135 1.16459 12.135 1.16455 12.135 1.16457L13.834 2.86046C14.1324 3.15855 14.3002 3.56299 14.3002 3.98449C14.3002 4.40599 14.1326 4.81024 13.8342 5.10833L6.02964 12.9222C5.95306 12.9988 5.85798 13.0545 5.75358 13.0838L1.50127 14.2758C1.28175 14.3373 1.04606 14.2757 0.88486 14.1147C0.723658 13.9536 0.662045 13.7182 0.723719 13.499L1.91821 9.25305C1.94739 9.14934 2.00271 9.05484 2.07889 8.97857L9.88451 1.16463Z" fill="#635978"/>
</svg>
