<svg width="21" height="21" viewBox="0 0 21 21" fill="none" xmlns="http://www.w3.org/2000/svg">
<path opacity="0.4" d="M3.95361 2.97461V12.9823C3.95361 13.8017 4.3382 14.5792 4.9987 15.0725L9.35459 18.3331C10.2826 19.0271 11.5618 19.0271 12.4898 18.3331L16.8457 15.0725C17.5062 14.5792 17.8908 13.8017 17.8908 12.9823V2.97461H3.95361Z" fill="#219FFF"/>
<path d="M19.2785 3.60175H2.55722C2.21444 3.60175 1.93018 3.31749 1.93018 2.97471C1.93018 2.63192 2.21444 2.34766 2.55722 2.34766H19.2785C19.6213 2.34766 19.9056 2.63192 19.9056 2.97471C19.9056 3.31749 19.6213 3.60175 19.2785 3.60175Z" fill="#219FFF"/>
<path d="M14.2624 8.19941H7.57383C7.23104 8.19941 6.94678 7.91515 6.94678 7.57236C6.94678 7.22957 7.23104 6.94531 7.57383 6.94531H14.2624C14.6051 6.94531 14.8894 7.22957 14.8894 7.57236C14.8894 7.91515 14.6051 8.19941 14.2624 8.19941Z" fill="#219FFF"/>
<path d="M14.2624 12.3811H7.57383C7.23104 12.3811 6.94678 12.0968 6.94678 11.754C6.94678 11.4112 7.23104 11.127 7.57383 11.127H14.2624C14.6051 11.127 14.8894 11.4112 14.8894 11.754C14.8894 12.0968 14.6051 12.3811 14.2624 12.3811Z" fill="#219FFF"/>
</svg>
