<svg width="17" height="17" viewBox="0 0 17 17" fill="none" xmlns="http://www.w3.org/2000/svg">
<path d="M8.51757 1.99931C8.53431 1.9927 8.55081 1.98652 8.56709 1.98077L6.58201 5.73011C6.58379 5.71317 6.58744 5.69504 6.59347 5.6764C6.59358 5.67605 6.59369 5.67571 6.59381 5.67536C6.60543 5.63986 6.62566 5.60257 6.65787 5.56812C6.70947 5.51294 6.77544 5.48305 6.83709 5.47503V5.66037V5.6764V5.75484V5.9728L6.86366 5.75484L6.87092 5.69525L6.87322 5.6764L6.87546 5.658L6.89759 5.47648C6.95934 5.484 7.00246 5.51355 7.02802 5.54245C7.0493 5.56652 7.06848 5.60148 7.07473 5.64572C7.07611 5.6555 7.07686 5.66573 7.07686 5.6764V5.66101L7.07591 5.64565C7.07594 5.64619 7.07593 5.64596 7.07589 5.64492C7.07576 5.64143 7.07528 5.6289 7.07486 5.60594C7.07436 5.57848 7.07402 5.54009 7.07435 5.49215C7.07499 5.39624 7.07826 5.26354 7.08788 5.10493C7.10721 4.78626 7.15174 4.37071 7.24903 3.94191C7.45262 3.04457 7.84377 2.27156 8.51757 1.99931Z" fill="#595961" stroke="#632CC7"/>
<path opacity="0.46" fill-rule="evenodd" clip-rule="evenodd" d="M9.49089 1.67437C9.15499 1.43022 8.76059 1.39536 8.33182 1.56102C7.58434 1.86615 7.05527 2.6683 6.79503 3.88893C6.60185 4.78692 6.62706 5.5978 6.62706 5.63265C6.62706 5.67623 6.64369 5.71987 6.67751 5.75473C6.71075 5.78958 6.74458 5.81576 6.78642 5.81576C6.79502 5.81576 6.80362 5.81576 6.81165 5.81576C6.88731 5.81576 6.94634 5.75473 6.94634 5.67623C6.94634 5.64138 6.87071 2.52877 8.49178 1.87488C8.81909 1.74413 9.10454 1.76153 9.34014 1.93591C10.02 2.43288 10.2217 4.11562 10.247 4.71721C10.247 4.80437 10.3226 4.89159 10.4149 4.90026C10.4992 4.90899 10.5662 4.84796 10.5662 4.76079C10.5576 4.65617 10.4654 2.3893 9.49089 1.67437Z" fill="#B2B2C2"/>
<path opacity="0.46" fill-rule="evenodd" clip-rule="evenodd" d="M6.79536 5.71113C6.78676 5.71113 6.78676 5.71113 6.77874 5.71113C6.7283 5.7024 6.68586 5.65009 6.67784 5.59778C6.67784 5.56287 6.65263 4.7695 6.84581 3.87146C7.09745 2.67701 7.62709 1.88359 8.35737 1.58713C8.76895 1.42147 9.1387 1.45639 9.45799 1.68308C10.3986 2.37183 10.4909 4.60385 10.4909 4.69974C10.4909 4.75205 10.4491 4.7869 10.3986 4.77823C10.3482 4.7695 10.3063 4.72592 10.2977 4.66488C10.2977 4.6387 10.2055 2.45032 9.35708 1.82255C9.10487 1.6395 8.79419 1.61331 8.44166 1.75279C6.79536 2.44159 6.87103 5.59778 6.87103 5.63264C6.87906 5.67622 6.8458 5.71113 6.79536 5.71113Z" fill="#B2B2C2"/>
<path opacity="0.62" fill-rule="evenodd" clip-rule="evenodd" d="M7.47555 3.21767C7.54262 3.08692 7.60967 2.95612 7.66871 2.81665C7.64349 2.86023 7.47553 3.31362 6.96307 3.24385C6.95447 3.24385 7.26518 3.33974 7.47555 3.21767Z" fill="#595961"/>
<path opacity="0.62" fill-rule="evenodd" clip-rule="evenodd" d="M7.29001 3.77559C7.34045 3.63606 7.39089 3.48786 7.42471 3.34839C7.40809 3.4007 7.32381 3.87148 6.78613 3.87148C6.78613 3.87148 7.09684 3.93252 7.29001 3.77559Z" fill="#595961"/>
<path opacity="0.62" fill-rule="evenodd" clip-rule="evenodd" d="M10.2382 2.65108C10.1711 2.49409 10.0954 2.34589 10.0197 2.18896C10.045 2.24127 10.2972 2.73824 10.0117 3.09568C10.0117 3.09568 10.2301 2.92135 10.2382 2.65108Z" fill="#595961"/>
<path opacity="0.62" fill-rule="evenodd" clip-rule="evenodd" d="M9.77662 1.86635C9.64191 1.753 9.50775 1.64838 9.37305 1.55249C9.42349 1.59607 9.86887 1.91866 9.84365 2.40695C9.83505 2.40695 9.91075 2.11922 9.77662 1.86635Z" fill="#595961"/>
<path opacity="0.62" fill-rule="evenodd" clip-rule="evenodd" d="M7.71852 2.73799C7.81941 2.63337 7.90308 2.52002 7.99537 2.39795C7.96213 2.4328 7.68472 2.7903 7.18945 2.6595C7.18945 2.6595 7.4749 2.81648 7.71852 2.73799Z" fill="#595961"/>
<path opacity="0.62" fill-rule="evenodd" clip-rule="evenodd" d="M8.03005 2.33717C8.14756 2.25001 8.25647 2.16279 8.36595 2.06689C8.32411 2.09308 7.97962 2.38075 7.50098 2.17151C7.50098 2.17151 7.77783 2.37202 8.03005 2.33717Z" fill="#595961"/>
<path opacity="0.62" fill-rule="evenodd" clip-rule="evenodd" d="M8.48335 2.04933C8.62609 2.00574 8.7608 1.95344 8.89494 1.90113C8.84449 1.91852 8.41627 2.07545 7.99609 1.74414C8.00469 1.74414 8.22311 2.00574 8.48335 2.04933Z" fill="#595961"/>
<path opacity="0.62" fill-rule="evenodd" clip-rule="evenodd" d="M8.89485 1.89247C9.01236 1.90992 9.12986 1.91865 9.24738 1.92738C9.20553 1.91865 8.83578 1.89247 8.62598 1.5437C8.62598 1.5437 8.71027 1.77912 8.89485 1.89247Z" fill="#595961"/>
<path opacity="0.62" fill-rule="evenodd" clip-rule="evenodd" d="M9.38213 2.08412C9.46582 2.18007 9.55867 2.27596 9.65898 2.36313C9.62574 2.32827 9.34029 2.04054 9.40736 1.68311C9.39876 1.68311 9.30647 1.88361 9.38213 2.08412Z" fill="#595961"/>
<path opacity="0.74" fill-rule="evenodd" clip-rule="evenodd" d="M10.3986 4.65613C10.3986 4.56018 10.3064 2.35434 9.39092 1.68305C9.21436 1.55225 9.02118 1.49121 8.81941 1.49121C8.66808 1.49121 8.50871 1.52606 8.34076 1.59583C7.6099 1.88356 7.09745 2.65953 6.84581 3.84525C6.65263 4.73456 6.67784 5.52799 6.67784 5.56284C6.67784 5.58903 6.70307 5.61515 6.72829 5.61515H6.7363C6.76152 5.61515 6.77874 5.59775 6.77874 5.57157C6.77874 5.53672 6.69446 2.35434 8.3826 1.67432C8.75233 1.52606 9.07162 1.55225 9.34047 1.75276C10.2135 2.38926 10.3063 4.61255 10.3063 4.63867C10.3063 4.66486 10.3316 4.69098 10.3568 4.69098C10.3568 4.69098 10.3568 4.69098 10.3648 4.69098C10.382 4.69971 10.3986 4.68225 10.3986 4.65613Z" fill="url(#paint0_linear_11647_17906)"/>
<path fill-rule="evenodd" clip-rule="evenodd" d="M10.5411 3.56637C10.3479 2.62474 10.0287 1.98825 9.58384 1.65694C9.34022 1.48261 9.07941 1.40412 8.79395 1.42157C9.02094 1.43897 9.23074 1.51746 9.42392 1.65694C9.86931 1.97958 10.1886 2.62474 10.3818 3.56637C10.5159 4.22899 10.5411 4.8044 10.5411 4.83058C10.5411 4.9352 10.4907 5.01369 10.4064 5.03982C10.4236 5.04855 10.4403 5.04855 10.4489 5.04855C10.5916 5.066 10.7005 4.97005 10.6925 4.83058C10.7005 4.8044 10.6752 4.23772 10.5411 3.56637Z" fill="url(#paint1_linear_11647_17906)"/>
<path fill-rule="evenodd" clip-rule="evenodd" d="M8.42442 2.0233C6.84519 2.65974 6.92083 5.72004 6.92083 5.7549C6.92083 5.85952 6.8704 5.93801 6.78613 5.96414C6.80333 5.97286 6.81138 5.97286 6.82857 5.97286C6.8366 5.97286 6.85378 5.97286 6.86181 5.97286C6.98792 5.97286 7.07159 5.87697 7.07159 5.7549C7.07159 5.72004 6.99652 2.66847 8.57518 2.03203C8.68466 1.98845 8.78552 1.96227 8.87781 1.95354C8.74311 1.92741 8.59238 1.95354 8.42442 2.0233Z" fill="url(#paint2_linear_11647_17906)"/>
<path fill-rule="evenodd" clip-rule="evenodd" d="M10.8179 2.78158L3.69566 5.06585C3.69566 5.06585 3.39357 5.15307 3.31791 5.24896C3.24224 5.34485 3.22561 5.61513 3.22561 5.61513L2.125 14.4211L10.3897 16.0253L11.0283 2.77285C10.936 2.75539 10.8432 2.77285 10.8179 2.78158Z" fill="url(#paint3_linear_11647_17906)"/>
<path fill-rule="evenodd" clip-rule="evenodd" d="M13.2795 3.91509C13.2795 3.91509 13.2709 3.84532 13.229 3.81919C13.1952 3.79301 13.1533 3.79301 13.1533 3.79301L11.9857 3.70585L11.1293 2.82526C11.0955 2.79908 11.0617 2.78168 11.0198 2.77295L10.3818 16.0254L14.8581 15.0228L13.2795 3.91509Z" fill="url(#paint4_linear_11647_17906)"/>
<path fill-rule="evenodd" clip-rule="evenodd" d="M7.87851 10.1402C7.7524 9.96585 7.60164 9.80892 7.45031 9.66939C7.29897 9.52992 7.13963 9.41657 6.9797 9.31195C6.87079 9.24219 6.7699 9.17242 6.68564 9.10266C6.60195 9.03295 6.53487 8.96318 6.48443 8.90215C6.43398 8.83238 6.39213 8.77134 6.36691 8.70164C6.34169 8.63187 6.33308 8.56211 6.33308 8.49234C6.33308 8.39645 6.35831 8.30056 6.39213 8.22207C6.42538 8.14363 6.48442 8.07387 6.54289 8.01283C6.61053 7.95179 6.68563 7.90821 6.77849 7.87336C6.87078 7.83845 6.97967 7.82105 7.09718 7.81232C7.22329 7.80359 7.34941 7.81232 7.46692 7.82105C7.58443 7.82972 7.69392 7.8559 7.80283 7.88203C7.90372 7.90821 8.0046 7.94307 8.08829 7.97798C8.17255 8.01283 8.25624 8.04768 8.31528 8.0826L8.86961 6.37373C8.78592 6.33014 8.68503 6.28651 8.57555 6.26038C8.45804 6.22547 8.33192 6.19934 8.18919 6.18189C8.04646 6.16449 7.89512 6.15576 7.73576 6.15576C7.57641 6.15576 7.40847 6.16449 7.23192 6.19062C6.85417 6.24293 6.51768 6.34754 6.21559 6.50447C5.93013 6.65273 5.6779 6.84451 5.4681 7.07993C5.26633 7.30662 5.10696 7.56817 4.98945 7.86463C4.87996 8.15236 4.81291 8.47494 4.79628 8.82365C4.78769 9.03295 4.8043 9.22473 4.85475 9.39911C4.89659 9.5735 4.96423 9.73915 5.05652 9.89608C5.14021 10.053 5.24969 10.1925 5.3672 10.3233C5.48471 10.4541 5.62744 10.5762 5.77017 10.6895C5.88768 10.7767 5.98858 10.8638 6.07284 10.9423C6.15653 11.0208 6.22418 11.0993 6.27405 11.1865C6.3245 11.2649 6.3583 11.3434 6.38353 11.4306C6.40875 11.5091 6.41735 11.5962 6.40875 11.6834C6.40875 11.7706 6.38355 11.8578 6.34973 11.9275C6.31648 11.9973 6.27405 12.0671 6.20698 12.1194C6.14851 12.1717 6.07286 12.2065 5.9886 12.224C5.90491 12.2414 5.80402 12.2501 5.69453 12.2327C5.569 12.2153 5.44286 12.1804 5.32535 12.128C5.20784 12.0845 5.08979 12.0234 4.98087 11.9624C4.87196 11.9014 4.77107 11.8316 4.68681 11.7706C4.59452 11.7096 4.51885 11.6398 4.46038 11.5875L4.08203 12.8866C4.14107 12.9738 4.22478 13.0523 4.31707 13.1307C4.40993 13.2092 4.51886 13.2876 4.64497 13.3661C4.77108 13.4359 4.90521 13.5056 5.04794 13.5666C5.19068 13.6277 5.35059 13.68 5.50994 13.7236H5.51855H5.52656H5.53517H5.54378C5.88771 13.8021 6.21559 13.8195 6.52627 13.7759C6.84556 13.7323 7.1396 13.6189 7.39125 13.4446C7.65149 13.2615 7.86186 13.0174 8.02122 12.6948C8.18115 12.3722 8.27343 11.9798 8.29006 11.5352C8.29865 11.2562 8.26485 11.0121 8.18919 10.7854C8.11352 10.5239 8.00462 10.3233 7.87851 10.1402Z" fill="url(#paint5_linear_11647_17906)"/>
<path opacity="0.226763" fill-rule="evenodd" clip-rule="evenodd" d="M4.13621 12.9576C4.11672 12.9345 4.09836 12.9109 4.08174 12.8867L4.46008 11.5876C4.46524 11.5924 4.47097 11.5974 4.4767 11.6026C4.53288 11.6528 4.60282 11.7153 4.68652 11.7707C4.77078 11.8317 4.87167 11.9015 4.98058 11.9625C5.08949 12.0235 5.20755 12.0845 5.32506 12.1282C5.44257 12.1805 5.5687 12.2153 5.69424 12.2328C5.80372 12.2502 5.90461 12.2415 5.9883 12.2241C6.07256 12.2066 6.14822 12.1717 6.20669 12.1194C6.27375 12.0671 6.31619 11.9974 6.34943 11.9276C6.38325 11.8578 6.40846 11.7707 6.40846 11.6835C6.41705 11.5963 6.40845 11.5091 6.38323 11.4306C6.35801 11.3435 6.3242 11.265 6.27376 11.1865C6.22618 11.1037 6.16312 11.0287 6.08458 10.9541C6.12586 11.0007 6.16083 11.0485 6.19007 11.0993C6.24051 11.1778 6.27376 11.2562 6.29898 11.3435C6.3242 11.4219 6.33281 11.5091 6.32421 11.5963C6.32421 11.6835 6.29899 11.7707 6.26574 11.8404C6.23192 11.9102 6.19007 11.9799 6.123 12.0322C6.06396 12.0845 5.9883 12.1194 5.90461 12.1368C5.82035 12.1543 5.71946 12.163 5.61055 12.1456C5.48444 12.1282 5.35832 12.0933 5.24081 12.0409C5.1233 11.9974 5.00578 11.9363 4.8963 11.8753C4.78738 11.8143 4.68652 11.7445 4.60283 11.6835C4.51856 11.6281 4.44863 11.5656 4.39245 11.5154C4.38672 11.5103 4.38153 11.5052 4.3758 11.5004L3.99805 12.7995C4.03531 12.855 4.0829 12.9069 4.13621 12.9576ZM5.37379 10.3313C5.34227 10.3001 5.31189 10.2684 5.28265 10.2362C5.16514 10.1054 5.05624 9.96591 4.97197 9.80898C4.87968 9.652 4.81261 9.48634 4.77076 9.31201C4.72032 9.13763 4.70311 8.94579 4.71171 8.73655C4.72833 8.38779 4.79599 8.0652 4.9049 7.77747C5.02241 7.48107 5.18235 7.21952 5.38356 6.99283C5.59393 6.75741 5.84555 6.56557 6.13101 6.41737C6.43367 6.26044 6.76959 6.15582 7.14734 6.10351C7.32389 6.07733 7.49186 6.0686 7.65122 6.0686C7.81115 6.0686 7.96247 6.07733 8.10521 6.09479C8.24794 6.11224 8.37405 6.13837 8.49156 6.17328C8.60048 6.1994 8.70136 6.24299 8.78563 6.28657L8.77244 6.32735C8.71168 6.30094 8.64519 6.27716 8.57525 6.26044C8.45774 6.22559 8.33163 6.19941 8.18889 6.18195C8.04616 6.16455 7.89482 6.15582 7.73547 6.15582C7.57611 6.15582 7.40818 6.16455 7.23162 6.19068C6.85387 6.24299 6.51738 6.34761 6.21529 6.50459C5.92983 6.65279 5.6776 6.84457 5.4678 7.07999C5.26603 7.30669 5.10666 7.56823 4.98915 7.86469C4.87966 8.15242 4.81261 8.47501 4.79599 8.82372C4.78739 9.03301 4.80401 9.22479 4.85445 9.39918C4.8963 9.57356 4.96393 9.73922 5.05622 9.89615C5.13991 10.0531 5.24939 10.1926 5.3669 10.3233C5.36919 10.326 5.3715 10.3287 5.37379 10.3313ZM6.5145 8.93792C6.56036 8.98977 6.6177 9.04625 6.68534 9.10272C6.7696 9.17248 6.87049 9.24225 6.9794 9.31201C7.13933 9.41663 7.29868 9.52998 7.45001 9.66945C7.49415 9.71007 7.53771 9.75211 7.58128 9.79569C7.51135 9.72051 7.43853 9.64937 7.36573 9.58229C7.21497 9.44276 7.05507 9.32941 6.89572 9.22479C6.78623 9.15503 6.68534 9.08532 6.60165 9.01556C6.57012 8.98954 6.54144 8.96353 6.5145 8.93792Z" fill="black"/>
<path opacity="0.41" fill-rule="evenodd" clip-rule="evenodd" d="M12.271 13.5581L11.9855 3.70591L11.935 3.6536L12.0698 13.4186C12.0698 13.4186 10.8855 15.2844 10.7089 15.2321C10.4487 15.1536 11.2214 2.92121 11.2214 2.92121L11.1371 2.83405C11.1039 2.80787 11.0615 2.79047 11.0282 2.78174L10.3983 15.8511L10.3896 16.0342L10.608 15.7465L12.271 13.5581Z" fill="url(#paint6_linear_11647_17906)"/>
<path fill-rule="evenodd" clip-rule="evenodd" d="M9.05424 3.34846C8.95393 3.7582 8.82784 4.14182 8.73555 4.37725C8.67651 4.51677 8.74358 4.64752 8.86969 4.66497C9.0044 4.68243 9.15515 4.58648 9.2056 4.44701C9.2142 4.42083 9.4406 3.85415 9.58391 3.1828V3.17407L9.05424 3.34846Z" fill="url(#paint7_linear_11647_17906)"/>
<path fill-rule="evenodd" clip-rule="evenodd" d="M5.2658 4.56898C5.14829 4.83052 5.03077 5.05722 4.94651 5.21414C4.87142 5.34495 4.91325 5.48442 5.03936 5.51927C5.1649 5.56291 5.33284 5.48442 5.40851 5.35362C5.41711 5.33622 5.66075 4.90901 5.87915 4.36841L5.2658 4.56898Z" fill="url(#paint8_linear_11647_17906)"/>
<path opacity="0.32" fill-rule="evenodd" clip-rule="evenodd" d="M10.3896 16.0253L12.271 13.5579L14.8751 15.0226L10.3896 16.0253Z" fill="url(#paint9_linear_11647_17906)"/>
<path opacity="0.19" fill-rule="evenodd" clip-rule="evenodd" d="M10.3896 16.0253L12.2543 13.5579L14.8751 15.0226L10.3896 16.0253Z" fill="url(#paint10_linear_11647_17906)"/>
<path opacity="0.19" fill-rule="evenodd" clip-rule="evenodd" d="M10.3896 16.0253L12.2543 13.5579L14.8751 15.0226L10.3896 16.0253Z" fill="url(#paint11_linear_11647_17906)"/>
<path opacity="0.6" fill-rule="evenodd" clip-rule="evenodd" d="M8.55852 9.12024C9.533 10.4891 10.1882 11.9712 10.5155 13.4098L11.028 2.76428C10.9357 2.74688 10.8428 2.76428 10.8176 2.77301L3.6953 5.06606C3.6953 5.06606 3.62821 5.08346 3.54395 5.11837C5.35017 5.76354 7.15584 7.14982 8.55852 9.12024Z" fill="url(#paint12_linear_11647_17906)"/>
<path fill-rule="evenodd" clip-rule="evenodd" d="M13.2367 3.82801C13.2791 3.86292 13.2791 3.91523 13.2791 3.91523L14.8411 15.0141L12.2708 13.5494L11.9854 3.69727L13.1364 3.78443C13.1444 3.79316 13.1948 3.79316 13.2367 3.82801Z" fill="url(#paint13_linear_11647_17906)"/>
<path fill-rule="evenodd" clip-rule="evenodd" d="M13.0523 3.85432C13.0523 3.85432 13.1028 3.85432 13.1446 3.8979C13.1865 3.93281 13.195 3.98512 13.195 3.98512L14.7324 14.962L14.8499 15.0318L13.2873 3.92408C13.2873 3.92408 13.2793 3.87177 13.2455 3.83692C13.2036 3.80201 13.1446 3.80201 13.1446 3.80201L11.9941 3.71484L13.0523 3.85432Z" fill="url(#paint14_linear_11647_17906)"/>
<path fill-rule="evenodd" clip-rule="evenodd" d="M2.125 14.4211L10.3897 16.0254L10.7933 6.94043L3.15277 7.15762L2.125 14.4211Z" fill="url(#paint15_linear_11647_17906)"/>
<path opacity="0.3" fill-rule="evenodd" clip-rule="evenodd" d="M4.83793 5.19294C4.76284 5.40486 4.83677 5.62751 5.00415 5.69037C5.17096 5.75318 5.36701 5.63236 5.44268 5.4205C5.51777 5.20863 5.44326 4.98593 5.27645 4.92313C5.10965 4.86026 4.91302 4.98108 4.83793 5.19294Z" fill="white"/>
<path opacity="0.89" fill-rule="evenodd" clip-rule="evenodd" d="M4.82905 5.09241C4.75396 5.30428 4.82847 5.52698 4.99527 5.58978C5.16208 5.65265 5.35871 5.53183 5.4338 5.31997C5.50889 5.10805 5.43496 4.88535 5.26758 4.82254C5.10077 4.75968 4.90472 4.8805 4.82905 5.09241Z" fill="black"/>
<path fill-rule="evenodd" clip-rule="evenodd" d="M11.9941 3.70585L11.1371 2.82526C11.1039 2.79908 11.0615 2.78168 11.0282 2.77295L10.3896 16.0254L12.2796 13.5493L11.9941 3.70585Z" fill="url(#paint16_linear_11647_17906)"/>
<path fill-rule="evenodd" clip-rule="evenodd" d="M10.8184 2.7819L3.69616 5.06617C3.69616 5.06617 3.39408 5.15339 3.31841 5.24928C3.30981 5.25801 3.30978 5.26673 3.30176 5.27546L10.4825 3.21782C10.5416 3.20037 10.6843 3.14806 10.6677 3.57526L10.2309 16.0082L10.3822 16.0344L11.0202 2.7819C10.9365 2.75571 10.8437 2.77317 10.8184 2.7819Z" fill="url(#paint17_linear_11647_17906)"/>
<path fill-rule="evenodd" clip-rule="evenodd" d="M10.8184 2.7819L3.69616 5.06617C3.69616 5.06617 3.39408 5.15339 3.31841 5.24928C3.30981 5.25801 3.30978 5.26673 3.30176 5.27546L4.96468 4.79589L10.6843 2.95628C10.7095 2.94755 10.8018 2.9301 10.8941 2.94755L10.2641 16.0082L10.3822 16.0344L11.0202 2.7819C10.9365 2.75571 10.8437 2.77317 10.8184 2.7819Z" fill="url(#paint18_linear_11647_17906)"/>
<path opacity="0.32" fill-rule="evenodd" clip-rule="evenodd" d="M12.6495 13.7673L12.2712 13.5493L10.3818 16.0254L10.4821 15.9992C10.4821 15.9992 12.1456 13.776 12.2964 13.7062C12.4059 13.6627 12.6495 13.7673 12.6495 13.7673Z" fill="url(#paint19_linear_11647_17906)"/>
<path opacity="0.57" fill-rule="evenodd" clip-rule="evenodd" d="M10.3896 16.0254L12.2796 13.5493C12.271 13.558 11.0787 14.9094 10.3896 16.0254Z" fill="url(#paint20_linear_11647_17906)"/>
<path opacity="0.46" fill-rule="evenodd" clip-rule="evenodd" d="M14.875 15.0226L12.2795 13.5579C12.2709 13.5579 12.5735 13.6102 14.875 15.0226Z" fill="url(#paint21_linear_11647_17906)"/>
<path opacity="0.3" fill-rule="evenodd" clip-rule="evenodd" d="M8.67803 4.32354C8.60236 4.53546 8.67688 4.75816 8.84369 4.82102C9.01107 4.88388 9.20712 4.76307 9.28221 4.5512C9.35788 4.33928 9.28336 4.11658 9.11655 4.05372C8.94974 3.99092 8.75312 4.11168 8.67803 4.32354Z" fill="white"/>
<path opacity="0.89" fill-rule="evenodd" clip-rule="evenodd" d="M8.66889 4.22346C8.5938 4.43538 8.66834 4.65808 8.83515 4.72094C9.00195 4.78375 9.19854 4.66299 9.27364 4.45107C9.34873 4.23921 9.27478 4.01651 9.10797 3.95364C8.94059 3.89078 8.74456 4.0116 8.66889 4.22346Z" fill="black"/>
<path fill-rule="evenodd" clip-rule="evenodd" d="M5.13227 5.51943C5.12367 5.51943 5.10703 5.51943 5.09843 5.51943C4.9643 5.50203 4.87203 5.37123 4.88865 5.22303C4.90528 5.0835 5.3839 1.8227 7.34948 1.08164C7.84474 0.898525 8.26491 0.933379 8.58419 1.20371C8.97055 1.52629 9.18035 2.17146 9.21417 3.11309C9.23939 3.77571 9.16375 4.35112 9.16375 4.3773C9.14713 4.51677 9.02101 4.62145 8.8863 4.59526C8.75217 4.57781 8.65127 4.44706 8.67649 4.30753C8.75215 3.71468 8.83584 2.0843 8.27351 1.61346C8.09696 1.46526 7.85337 1.4478 7.52606 1.56988C5.83792 2.20632 5.3925 5.26661 5.3925 5.29274C5.35868 5.42354 5.25837 5.51943 5.13227 5.51943Z" fill="#595961"/>
<path opacity="0.46" fill-rule="evenodd" clip-rule="evenodd" d="M8.48356 1.22094C8.18949 0.976852 7.80315 0.941998 7.34114 1.10765C6.54321 1.41278 5.87136 2.21488 5.40935 3.42678C5.06541 4.32482 4.94735 5.13565 4.94735 5.17056C4.93932 5.21414 4.95596 5.25772 4.98118 5.29263C5.0064 5.32749 5.0402 5.35367 5.08205 5.35367C5.09007 5.35367 5.09867 5.35367 5.10727 5.35367C5.18294 5.35367 5.24999 5.29263 5.25859 5.21414C5.26661 5.17929 5.71203 2.06668 7.45061 1.41278C7.80314 1.28198 8.08859 1.29944 8.29036 1.47382C8.88651 1.97079 8.80284 3.65347 8.72717 4.25506C8.71857 4.34228 8.77762 4.42944 8.86131 4.43817C8.94557 4.4469 9.02925 4.38586 9.03785 4.2987C9.04645 4.20275 9.34052 1.93593 8.48356 1.22094Z" fill="#B2B2C2"/>
<path opacity="0.81" fill-rule="evenodd" clip-rule="evenodd" d="M5.09851 5.25776C5.08991 5.25776 5.08992 5.25776 5.08189 5.25776C5.03145 5.24903 4.99762 5.19672 5.00622 5.14441C5.01482 5.1095 5.12375 4.31613 5.46825 3.41809C5.93027 2.22364 6.58545 1.43022 7.36618 1.13376C7.81157 0.968105 8.17271 1.00302 8.44957 1.22971C9.27272 1.91846 8.98725 4.15048 8.97063 4.24637C8.96203 4.29868 8.9202 4.33353 8.86116 4.32486C8.81129 4.31613 8.77747 4.27255 8.77747 4.21152C8.77747 4.18533 9.06292 1.99695 8.32404 1.36918C8.10564 1.20353 7.80299 1.18613 7.43384 1.3256C5.66144 1.99695 5.19941 5.14441 5.19941 5.17927C5.19082 5.22285 5.14896 5.25776 5.09851 5.25776Z" fill="#B2B2C2"/>
<path opacity="0.42" fill-rule="evenodd" clip-rule="evenodd" d="M6.20721 2.7643C6.29949 2.63356 6.38375 2.50275 6.46744 2.36328C6.43419 2.40686 6.19057 2.86025 5.68671 2.79048C5.67811 2.79048 5.97218 2.88637 6.20721 2.7643Z" fill="#595961"/>
<path opacity="0.42" fill-rule="evenodd" clip-rule="evenodd" d="M5.92167 3.32222C5.99733 3.18269 6.07298 3.03449 6.13145 2.89502C6.10622 2.94733 5.93826 3.41811 5.40918 3.41811C5.40918 3.41811 5.70327 3.47915 5.92167 3.32222Z" fill="#595961"/>
<path opacity="0.42" fill-rule="evenodd" clip-rule="evenodd" d="M5.70306 3.89778C5.77013 3.74953 5.82059 3.60133 5.87103 3.45312C5.84581 3.50543 5.75352 3.98495 5.19922 4.04598C5.19922 4.03726 5.50129 4.07217 5.70306 3.89778Z" fill="#595961"/>
<path opacity="0.62" fill-rule="evenodd" clip-rule="evenodd" d="M9.06282 2.19746C9.02097 2.04048 8.97911 1.89228 8.92007 1.73535C8.93669 1.78766 9.10467 2.28463 8.76074 2.64207C8.76074 2.64207 9.01237 2.46774 9.06282 2.19746Z" fill="#595961"/>
<path opacity="0.62" fill-rule="evenodd" clip-rule="evenodd" d="M8.73593 1.41273C8.61842 1.29939 8.50032 1.19477 8.38281 1.09888C8.42523 1.14246 8.81962 1.46504 8.71071 1.95328C8.70211 1.95328 8.82822 1.66555 8.73593 1.41273Z" fill="#595961"/>
<path opacity="0.62" fill-rule="evenodd" clip-rule="evenodd" d="M9.14687 2.99959C9.13827 2.84266 9.11307 2.677 9.08784 2.52002C9.08784 2.58106 9.1721 3.09548 8.76855 3.37448C8.76855 3.37448 9.04598 3.25241 9.14687 2.99959Z" fill="#595961"/>
<path opacity="0.62" fill-rule="evenodd" clip-rule="evenodd" d="M9.18874 3.81936C9.19734 3.66243 9.19734 3.49677 9.18874 3.33984C9.18874 3.40088 9.19732 3.91531 8.76855 4.15067C8.76855 4.142 9.06264 4.05478 9.18874 3.81936Z" fill="#595961"/>
<path opacity="0.42" fill-rule="evenodd" clip-rule="evenodd" d="M5.50969 4.53414C5.56013 4.37721 5.59396 4.22028 5.62721 4.07202C5.61058 4.12433 5.53492 4.6213 5.02246 4.74337C5.03106 4.74337 5.33313 4.73465 5.50969 4.53414Z" fill="#595961"/>
<path opacity="0.42" fill-rule="evenodd" clip-rule="evenodd" d="M6.52636 2.28462C6.64387 2.18 6.75333 2.06665 6.85422 1.94458C6.8118 1.97943 6.4759 2.33693 6.00586 2.20613C6.01388 2.20613 6.27414 2.36311 6.52636 2.28462Z" fill="#595961"/>
<path opacity="0.42" fill-rule="evenodd" clip-rule="evenodd" d="M6.90347 1.8838C7.03818 1.79664 7.1643 1.70942 7.28983 1.61353C7.23996 1.63971 6.8536 1.92738 6.4082 1.71814C6.4082 1.71814 6.64323 1.91865 6.90347 1.8838Z" fill="#595961"/>
<path opacity="0.62" fill-rule="evenodd" clip-rule="evenodd" d="M7.41627 1.59596C7.5676 1.55232 7.71034 1.50001 7.85308 1.4477C7.80263 1.46516 7.34922 1.62208 6.97949 1.29077C6.97949 1.29077 7.15602 1.55232 7.41627 1.59596Z" fill="#595961"/>
<path opacity="0.62" fill-rule="evenodd" clip-rule="evenodd" d="M7.84458 1.4391C7.96266 1.45655 8.08019 1.46528 8.1977 1.47401C8.15586 1.46528 7.79469 1.4391 7.63477 1.09033C7.64336 1.09033 7.68523 1.32575 7.84458 1.4391Z" fill="#595961"/>
<path opacity="0.62" fill-rule="evenodd" clip-rule="evenodd" d="M8.29874 1.63081C8.37441 1.7267 8.44951 1.82259 8.52518 1.90982C8.49996 1.8749 8.26492 1.58723 8.38243 1.22974C8.39103 1.22974 8.26492 1.4303 8.29874 1.63081Z" fill="#595961"/>
<path fill-rule="evenodd" clip-rule="evenodd" d="M8.87798 4.20295C8.886 4.10705 9.17206 1.90122 8.37413 1.22987C8.2228 1.09912 8.03823 1.03809 7.83646 1.03809C7.68513 1.03809 7.51718 1.07294 7.34063 1.1427C6.56792 1.43043 5.92131 2.20641 5.46789 3.39212C5.12339 4.28144 5.01446 5.07486 5.00586 5.10972C5.00586 5.13584 5.02252 5.16203 5.04774 5.16203H5.05631C5.08153 5.16203 5.09815 5.14457 5.09815 5.11845C5.10675 5.08353 5.56017 1.90122 7.36582 1.22114C7.75217 1.07294 8.08006 1.09912 8.31508 1.29963C9.07918 1.93607 8.79374 4.15936 8.78572 4.18555C8.78572 4.21167 8.80234 4.23786 8.82756 4.23786C8.82756 4.23786 8.82755 4.23786 8.83557 4.23786C8.8608 4.24659 8.87798 4.22913 8.87798 4.20295Z" fill="url(#paint22_linear_11647_17906)"/>
<path fill-rule="evenodd" clip-rule="evenodd" d="M9.21434 3.113C9.18052 2.17137 8.97072 1.53488 8.58437 1.20357C8.37457 1.02924 8.12238 0.950747 7.83691 0.968202C8.05531 0.985601 8.25651 1.06409 8.42504 1.20357C8.81139 1.52621 9.02117 2.17137 9.05442 3.113C9.07964 3.77562 9.00456 4.35103 9.00456 4.37721C8.98736 4.48183 8.92029 4.56032 8.83603 4.58645C8.85323 4.59518 8.86124 4.59518 8.87843 4.59518C9.01257 4.61263 9.1387 4.51668 9.15532 4.37721C9.16392 4.35103 9.23956 3.78435 9.21434 3.113Z" fill="url(#paint23_linear_11647_17906)"/>
<path fill-rule="evenodd" clip-rule="evenodd" d="M7.35814 1.5697C5.67 2.20614 5.22461 5.26644 5.22461 5.3013C5.20799 5.40591 5.14033 5.48441 5.05664 5.51053C5.07326 5.51926 5.08186 5.51926 5.09848 5.51926C5.10708 5.51926 5.12372 5.51926 5.13232 5.51926C5.25843 5.51926 5.35873 5.42337 5.37593 5.3013C5.38395 5.26644 5.82075 2.21487 7.50889 1.57837C7.62698 1.53479 7.72731 1.50867 7.82017 1.49994C7.69406 1.48248 7.53412 1.50867 7.35814 1.5697Z" fill="url(#paint24_linear_11647_17906)"/>
<defs>
<linearGradient id="paint0_linear_11647_17906" x1="7.11578" y1="1.51089" x2="6.85237" y2="5.09727" gradientUnits="userSpaceOnUse">
<stop stop-color="white" stop-opacity="0.65"/>
<stop offset="1" stop-color="white" stop-opacity="0.01"/>
</linearGradient>
<linearGradient id="paint1_linear_11647_17906" x1="9.04043" y1="3.56375" x2="10.895" y2="5.18812" gradientUnits="userSpaceOnUse">
<stop stop-opacity="0.01"/>
<stop offset="1" stop-opacity="0.4"/>
</linearGradient>
<linearGradient id="paint2_linear_11647_17906" x1="8.29657" y1="5.44304" x2="10.2596" y2="3.61461" gradientUnits="userSpaceOnUse">
<stop stop-opacity="0.01"/>
<stop offset="1" stop-opacity="0.4"/>
</linearGradient>
<linearGradient id="paint3_linear_11647_17906" x1="5.79822" y1="0.107068" x2="-1.82629" y2="8.89217" gradientUnits="userSpaceOnUse">
<stop stop-color="#B8D26E"/>
<stop offset="1" stop-color="#7FB525"/>
</linearGradient>
<linearGradient id="paint4_linear_11647_17906" x1="16.2281" y1="2.30656" x2="12.0436" y2="2.38426" gradientUnits="userSpaceOnUse">
<stop stop-color="#B4E034"/>
<stop offset="1" stop-color="#60A927"/>
</linearGradient>
<linearGradient id="paint5_linear_11647_17906" x1="3.78166" y1="8.16445" x2="0.350942" y2="16.5189" gradientUnits="userSpaceOnUse">
<stop stop-color="white"/>
<stop offset="1" stop-color="#CECEEB"/>
</linearGradient>
<linearGradient id="paint6_linear_11647_17906" x1="8.70037" y1="28.739" x2="14.1339" y2="28.728" gradientUnits="userSpaceOnUse">
<stop stop-color="#1D1D1B" stop-opacity="0.5"/>
<stop offset="0.038033" stop-color="#1D1D1B" stop-opacity="0.4837"/>
<stop offset="0.4243" stop-color="#1D1D1B" stop-opacity="0.3185"/>
<stop offset="1" stop-color="#1D1D1B" stop-opacity="0.01"/>
</linearGradient>
<linearGradient id="paint7_linear_11647_17906" x1="9.33169" y1="2.58891" x2="8.43027" y2="3.07406" gradientUnits="userSpaceOnUse">
<stop stop-opacity="0.01"/>
<stop offset="1" stop-opacity="0.4"/>
</linearGradient>
<linearGradient id="paint8_linear_11647_17906" x1="5.55184" y1="4.0278" x2="4.91818" y2="4.57237" gradientUnits="userSpaceOnUse">
<stop stop-opacity="0.01"/>
<stop offset="1" stop-opacity="0.4"/>
</linearGradient>
<linearGradient id="paint9_linear_11647_17906" x1="11.7333" y1="15.0291" x2="11.7974" y2="15.8748" gradientUnits="userSpaceOnUse">
<stop stop-opacity="0.01"/>
<stop offset="1" stop-opacity="0.4"/>
</linearGradient>
<linearGradient id="paint10_linear_11647_17906" x1="10.2355" y1="13.7911" x2="10.3842" y2="15.9898" gradientUnits="userSpaceOnUse">
<stop stop-color="white" stop-opacity="0.5"/>
<stop offset="0.0896271" stop-color="white" stop-opacity="0.4552"/>
<stop offset="1" stop-color="white" stop-opacity="0.01"/>
</linearGradient>
<linearGradient id="paint11_linear_11647_17906" x1="9.94941" y1="14.1331" x2="10.214" y2="16.4818" gradientUnits="userSpaceOnUse">
<stop stop-opacity="0.01"/>
<stop offset="1" stop-opacity="0.4"/>
</linearGradient>
<linearGradient id="paint12_linear_11647_17906" x1="8.91104" y1="0.620336" x2="2.12568" y2="4.54471" gradientUnits="userSpaceOnUse">
<stop stop-color="white" stop-opacity="0.5"/>
<stop offset="1" stop-color="white" stop-opacity="0.01"/>
</linearGradient>
<linearGradient id="paint13_linear_11647_17906" x1="10.2204" y1="21.1305" x2="16.2094" y2="21.1426" gradientUnits="userSpaceOnUse">
<stop stop-color="#1D1D1B" stop-opacity="0.5"/>
<stop offset="0.0896271" stop-color="#1D1D1B" stop-opacity="0.4552"/>
<stop offset="1" stop-color="#1D1D1B" stop-opacity="0.01"/>
</linearGradient>
<linearGradient id="paint14_linear_11647_17906" x1="14.5094" y1="3.38444" x2="13.6587" y2="3.59291" gradientUnits="userSpaceOnUse">
<stop stop-color="white" stop-opacity="0.4"/>
<stop offset="1" stop-color="white" stop-opacity="0.01"/>
</linearGradient>
<linearGradient id="paint15_linear_11647_17906" x1="6.87644" y1="16.1224" x2="7.31884" y2="13.9896" gradientUnits="userSpaceOnUse">
<stop stop-color="#1D1D1B" stop-opacity="0.5"/>
<stop offset="0.0896271" stop-color="#1D1D1B" stop-opacity="0.4552"/>
<stop offset="1" stop-color="#1D1D1B" stop-opacity="0.01"/>
</linearGradient>
<linearGradient id="paint16_linear_11647_17906" x1="9.43409" y1="28.4675" x2="14.8871" y2="28.4722" gradientUnits="userSpaceOnUse">
<stop stop-color="#1D1D1B" stop-opacity="0.5"/>
<stop offset="1" stop-color="#1D1D1B" stop-opacity="0.01"/>
</linearGradient>
<linearGradient id="paint17_linear_11647_17906" x1="4.45164" y1="2.01357" x2="1.80693" y2="12.1745" gradientUnits="userSpaceOnUse">
<stop stop-color="white" stop-opacity="0.5"/>
<stop offset="1" stop-color="white" stop-opacity="0.01"/>
</linearGradient>
<linearGradient id="paint18_linear_11647_17906" x1="4.45164" y1="2.01357" x2="1.80693" y2="12.1745" gradientUnits="userSpaceOnUse">
<stop stop-color="white" stop-opacity="0.5"/>
<stop offset="1" stop-color="white" stop-opacity="0.01"/>
</linearGradient>
<linearGradient id="paint19_linear_11647_17906" x1="10.8696" y1="12.6648" x2="8.77925" y2="15.542" gradientUnits="userSpaceOnUse">
<stop stop-color="white" stop-opacity="0.5"/>
<stop offset="0.0896271" stop-color="white" stop-opacity="0.4552"/>
<stop offset="1" stop-color="white" stop-opacity="0.01"/>
</linearGradient>
<linearGradient id="paint20_linear_11647_17906" x1="11.5" y1="13.3263" x2="11.293" y2="13.7902" gradientUnits="userSpaceOnUse">
<stop stop-opacity="0.01"/>
<stop offset="1" stop-opacity="0.4"/>
</linearGradient>
<linearGradient id="paint21_linear_11647_17906" x1="13.5526" y1="13.9396" x2="13.5424" y2="14.0643" gradientUnits="userSpaceOnUse">
<stop stop-opacity="0.01"/>
<stop offset="1" stop-opacity="0.4"/>
</linearGradient>
<linearGradient id="paint22_linear_11647_17906" x1="6.02505" y1="0.744594" x2="5.12135" y2="4.31463" gradientUnits="userSpaceOnUse">
<stop stop-color="white" stop-opacity="0.65"/>
<stop offset="1" stop-color="white" stop-opacity="0.01"/>
</linearGradient>
<linearGradient id="paint23_linear_11647_17906" x1="8.04786" y1="2.80388" x2="9.61988" y2="4.40211" gradientUnits="userSpaceOnUse">
<stop stop-opacity="0.01"/>
<stop offset="1" stop-opacity="0.4"/>
</linearGradient>
<linearGradient id="paint24_linear_11647_17906" x1="7.04287" y1="5.15737" x2="9.21485" y2="2.92675" gradientUnits="userSpaceOnUse">
<stop stop-opacity="0.01"/>
<stop offset="1" stop-opacity="0.4"/>
</linearGradient>
</defs>
</svg>
