<svg width="24" height="24" viewBox="0 0 24 24" fill="none" xmlns="http://www.w3.org/2000/svg">
<path opacity="0.3" d="M12 22C17.5228 22 22 17.5228 22 12C22 6.47715 17.5228 2 12 2C6.47715 2 2 6.47715 2 12C2 17.5228 6.47715 22 12 22Z" fill="#17BD8D"/>
<path d="M10.5804 15.5816C10.3804 15.5816 10.1904 15.5016 10.0504 15.3616L7.22043 12.5316C6.93043 12.2416 6.93043 11.7616 7.22043 11.4716C7.51043 11.1816 7.99043 11.1816 8.28043 11.4716L10.5804 13.7716L15.7204 8.63156C16.0104 8.34156 16.4904 8.34156 16.7804 8.63156C17.0704 8.92156 17.0704 9.40156 16.7804 9.69156L11.1104 15.3616C10.9704 15.5016 10.7804 15.5816 10.5804 15.5816Z" fill="#17BD8D"/>
</svg>
