<svg width="60" height="60" viewBox="0 0 60 60" fill="none" xmlns="http://www.w3.org/2000/svg">
<path opacity="0.4" d="M52.7005 21.4501V38.55C52.7005 41.35 51.2005 43.9501 48.7755 45.3751L33.9255 53.9501C31.5005 55.3501 28.5004 55.3501 26.0504 53.9501L11.2004 45.3751C8.77541 43.9751 7.27539 41.375 7.27539 38.55V21.4501C7.27539 18.6501 8.77541 16.05 11.2004 14.625L26.0504 6.05C28.4754 4.65 31.4755 4.65 33.9255 6.05L48.7755 14.625C51.2005 16.05 52.7005 18.6251 52.7005 21.4501Z" fill="#FF783C"/>
<path d="M30 34.375C28.975 34.375 28.125 33.525 28.125 32.5V19.375C28.125 18.35 28.975 17.5 30 17.5C31.025 17.5 31.875 18.35 31.875 19.375V32.5C31.875 33.525 31.025 34.375 30 34.375Z" fill="#FF783C"/>
<path d="M30 43.1242C29.675 43.1242 29.35 43.0491 29.05 42.9241C28.725 42.7991 28.4749 42.6242 28.2249 42.3992C27.9999 42.1492 27.825 41.8742 27.675 41.5742C27.55 41.2742 27.5 40.9492 27.5 40.6242C27.5 39.9742 27.7499 39.3241 28.2249 38.8491C28.4749 38.6241 28.725 38.4492 29.05 38.3242C29.975 37.9242 31.0751 38.1491 31.7751 38.8491C32.0001 39.0991 32.175 39.3491 32.3 39.6741C32.425 39.9741 32.5 40.2992 32.5 40.6242C32.5 40.9492 32.425 41.2742 32.3 41.5742C32.175 41.8742 32.0001 42.1492 31.7751 42.3992C31.3001 42.8742 30.675 43.1242 30 43.1242Z" fill="#FF783C"/>
</svg>
